%TF.GenerationSoftware,KiCad,Pcbnew,(5.1.6)-1*%
%TF.CreationDate,2020-07-30T08:40:25+01:00*%
%TF.ProjectId,open-amiga-sampler-smd,6f70656e-2d61-46d6-9967-612d73616d70,rev?*%
%TF.SameCoordinates,Original*%
%TF.FileFunction,Copper,L1,Top*%
%TF.FilePolarity,Positive*%
%FSLAX46Y46*%
G04 Gerber Fmt 4.6, Leading zero omitted, Abs format (unit mm)*
G04 Created by KiCad (PCBNEW (5.1.6)-1) date 2020-07-30 08:40:25*
%MOMM*%
%LPD*%
G01*
G04 APERTURE LIST*
%TA.AperFunction,ComponentPad*%
%ADD10O,1.350000X1.350000*%
%TD*%
%TA.AperFunction,ComponentPad*%
%ADD11R,1.350000X1.350000*%
%TD*%
%TA.AperFunction,SMDPad,CuDef*%
%ADD12R,1.846667X3.480000*%
%TD*%
%TA.AperFunction,SMDPad,CuDef*%
%ADD13R,0.650000X1.060000*%
%TD*%
%TA.AperFunction,ViaPad*%
%ADD14C,0.800000*%
%TD*%
%TA.AperFunction,Conductor*%
%ADD15C,0.250000*%
%TD*%
%TA.AperFunction,Conductor*%
%ADD16C,0.350000*%
%TD*%
%TA.AperFunction,Conductor*%
%ADD17C,0.254000*%
%TD*%
G04 APERTURE END LIST*
%TO.P,C4,2*%
%TO.N,GND*%
%TA.AperFunction,SMDPad,CuDef*%
G36*
G01*
X83671500Y-142057500D02*
X82571500Y-142057500D01*
G75*
G02*
X82321500Y-141807500I0J250000D01*
G01*
X82321500Y-139707500D01*
G75*
G02*
X82571500Y-139457500I250000J0D01*
G01*
X83671500Y-139457500D01*
G75*
G02*
X83921500Y-139707500I0J-250000D01*
G01*
X83921500Y-141807500D01*
G75*
G02*
X83671500Y-142057500I-250000J0D01*
G01*
G37*
%TD.AperFunction*%
%TO.P,C4,1*%
%TO.N,VCC*%
%TA.AperFunction,SMDPad,CuDef*%
G36*
G01*
X83671500Y-145657500D02*
X82571500Y-145657500D01*
G75*
G02*
X82321500Y-145407500I0J250000D01*
G01*
X82321500Y-143307500D01*
G75*
G02*
X82571500Y-143057500I250000J0D01*
G01*
X83671500Y-143057500D01*
G75*
G02*
X83921500Y-143307500I0J-250000D01*
G01*
X83921500Y-145407500D01*
G75*
G02*
X83671500Y-145657500I-250000J0D01*
G01*
G37*
%TD.AperFunction*%
%TD*%
D10*
%TO.P,RV1,3*%
%TO.N,Vo*%
X91000000Y-131000000D03*
%TO.P,RV1,2*%
X93000000Y-131000000D03*
D11*
%TO.P,RV1,1*%
%TO.N,Net-(R4-Pad1)*%
X95000000Y-131000000D03*
%TD*%
D10*
%TO.P,J2,2*%
%TO.N,GND*%
X102000000Y-131000000D03*
D11*
%TO.P,J2,1*%
%TO.N,Net-(J2-Pad1)*%
X100000000Y-131000000D03*
%TD*%
D10*
%TO.P,J1,2*%
%TO.N,GND*%
X105010200Y-130987800D03*
D11*
%TO.P,J1,1*%
%TO.N,Net-(J1-Pad1)*%
X107010200Y-130987800D03*
%TD*%
%TO.P,C1,2*%
%TO.N,Net-(C1-Pad2)*%
%TA.AperFunction,SMDPad,CuDef*%
G36*
G01*
X109171500Y-140506001D02*
X109171500Y-139655999D01*
G75*
G02*
X109421499Y-139406000I249999J0D01*
G01*
X110496501Y-139406000D01*
G75*
G02*
X110746500Y-139655999I0J-249999D01*
G01*
X110746500Y-140506001D01*
G75*
G02*
X110496501Y-140756000I-249999J0D01*
G01*
X109421499Y-140756000D01*
G75*
G02*
X109171500Y-140506001I0J249999D01*
G01*
G37*
%TD.AperFunction*%
%TO.P,C1,1*%
%TO.N,MONO_AUDIO*%
%TA.AperFunction,SMDPad,CuDef*%
G36*
G01*
X106296500Y-140506001D02*
X106296500Y-139655999D01*
G75*
G02*
X106546499Y-139406000I249999J0D01*
G01*
X107621501Y-139406000D01*
G75*
G02*
X107871500Y-139655999I0J-249999D01*
G01*
X107871500Y-140506001D01*
G75*
G02*
X107621501Y-140756000I-249999J0D01*
G01*
X106546499Y-140756000D01*
G75*
G02*
X106296500Y-140506001I0J249999D01*
G01*
G37*
%TD.AperFunction*%
%TD*%
%TO.P,C2,2*%
%TO.N,GND*%
%TA.AperFunction,SMDPad,CuDef*%
G36*
G01*
X109171500Y-145332001D02*
X109171500Y-144481999D01*
G75*
G02*
X109421499Y-144232000I249999J0D01*
G01*
X110496501Y-144232000D01*
G75*
G02*
X110746500Y-144481999I0J-249999D01*
G01*
X110746500Y-145332001D01*
G75*
G02*
X110496501Y-145582000I-249999J0D01*
G01*
X109421499Y-145582000D01*
G75*
G02*
X109171500Y-145332001I0J249999D01*
G01*
G37*
%TD.AperFunction*%
%TO.P,C2,1*%
%TO.N,Net-(C2-Pad1)*%
%TA.AperFunction,SMDPad,CuDef*%
G36*
G01*
X106296500Y-145332001D02*
X106296500Y-144481999D01*
G75*
G02*
X106546499Y-144232000I249999J0D01*
G01*
X107621501Y-144232000D01*
G75*
G02*
X107871500Y-144481999I0J-249999D01*
G01*
X107871500Y-145332001D01*
G75*
G02*
X107621501Y-145582000I-249999J0D01*
G01*
X106546499Y-145582000D01*
G75*
G02*
X106296500Y-145332001I0J249999D01*
G01*
G37*
%TD.AperFunction*%
%TD*%
%TO.P,C3,2*%
%TO.N,GND*%
%TA.AperFunction,SMDPad,CuDef*%
G36*
G01*
X100895999Y-135006500D02*
X101796001Y-135006500D01*
G75*
G02*
X102046000Y-135256499I0J-249999D01*
G01*
X102046000Y-135906501D01*
G75*
G02*
X101796001Y-136156500I-249999J0D01*
G01*
X100895999Y-136156500D01*
G75*
G02*
X100646000Y-135906501I0J249999D01*
G01*
X100646000Y-135256499D01*
G75*
G02*
X100895999Y-135006500I249999J0D01*
G01*
G37*
%TD.AperFunction*%
%TO.P,C3,1*%
%TO.N,VCC*%
%TA.AperFunction,SMDPad,CuDef*%
G36*
G01*
X100895999Y-132956500D02*
X101796001Y-132956500D01*
G75*
G02*
X102046000Y-133206499I0J-249999D01*
G01*
X102046000Y-133856501D01*
G75*
G02*
X101796001Y-134106500I-249999J0D01*
G01*
X100895999Y-134106500D01*
G75*
G02*
X100646000Y-133856501I0J249999D01*
G01*
X100646000Y-133206499D01*
G75*
G02*
X100895999Y-132956500I249999J0D01*
G01*
G37*
%TD.AperFunction*%
%TD*%
%TO.P,C5,1*%
%TO.N,VCC*%
%TA.AperFunction,SMDPad,CuDef*%
G36*
G01*
X102921000Y-137229001D02*
X102921000Y-136328999D01*
G75*
G02*
X103170999Y-136079000I249999J0D01*
G01*
X103821001Y-136079000D01*
G75*
G02*
X104071000Y-136328999I0J-249999D01*
G01*
X104071000Y-137229001D01*
G75*
G02*
X103821001Y-137479000I-249999J0D01*
G01*
X103170999Y-137479000D01*
G75*
G02*
X102921000Y-137229001I0J249999D01*
G01*
G37*
%TD.AperFunction*%
%TO.P,C5,2*%
%TO.N,GND*%
%TA.AperFunction,SMDPad,CuDef*%
G36*
G01*
X104971000Y-137229001D02*
X104971000Y-136328999D01*
G75*
G02*
X105220999Y-136079000I249999J0D01*
G01*
X105871001Y-136079000D01*
G75*
G02*
X106121000Y-136328999I0J-249999D01*
G01*
X106121000Y-137229001D01*
G75*
G02*
X105871001Y-137479000I-249999J0D01*
G01*
X105220999Y-137479000D01*
G75*
G02*
X104971000Y-137229001I0J249999D01*
G01*
G37*
%TD.AperFunction*%
%TD*%
D12*
%TO.P,J3,1*%
%TO.N,STROBE*%
X81678000Y-149034500D03*
%TO.P,J3,2*%
%TO.N,D0*%
X84448000Y-149034500D03*
%TO.P,J3,3*%
%TO.N,D1*%
X87218000Y-149034500D03*
%TO.P,J3,4*%
%TO.N,D2*%
X89988000Y-149034500D03*
%TO.P,J3,5*%
%TO.N,D3*%
X92758000Y-149034500D03*
%TO.P,J3,6*%
%TO.N,D4*%
X95528000Y-149034500D03*
%TO.P,J3,7*%
%TO.N,D5*%
X98298000Y-149034500D03*
%TO.P,J3,8*%
%TO.N,D6*%
X101068000Y-149034500D03*
%TO.P,J3,9*%
%TO.N,D7*%
X103838000Y-149034500D03*
%TO.P,J3,10*%
%TO.N,Net-(J3-Pad10)*%
X106608000Y-149034500D03*
%TO.P,J3,11*%
%TO.N,Net-(J3-Pad11)*%
X109378000Y-149034500D03*
%TO.P,J3,12*%
%TO.N,Net-(J3-Pad12)*%
X112148000Y-149034500D03*
%TO.P,J3,13*%
%TO.N,Net-(J3-Pad13)*%
X114918000Y-149034500D03*
%TD*%
%TO.P,R1,2*%
%TO.N,Net-(J1-Pad1)*%
%TA.AperFunction,SMDPad,CuDef*%
G36*
G01*
X108450801Y-136176600D02*
X107550799Y-136176600D01*
G75*
G02*
X107300800Y-135926601I0J249999D01*
G01*
X107300800Y-135276599D01*
G75*
G02*
X107550799Y-135026600I249999J0D01*
G01*
X108450801Y-135026600D01*
G75*
G02*
X108700800Y-135276599I0J-249999D01*
G01*
X108700800Y-135926601D01*
G75*
G02*
X108450801Y-136176600I-249999J0D01*
G01*
G37*
%TD.AperFunction*%
%TO.P,R1,1*%
%TO.N,MONO_AUDIO*%
%TA.AperFunction,SMDPad,CuDef*%
G36*
G01*
X108450801Y-138226600D02*
X107550799Y-138226600D01*
G75*
G02*
X107300800Y-137976601I0J249999D01*
G01*
X107300800Y-137326599D01*
G75*
G02*
X107550799Y-137076600I249999J0D01*
G01*
X108450801Y-137076600D01*
G75*
G02*
X108700800Y-137326599I0J-249999D01*
G01*
X108700800Y-137976601D01*
G75*
G02*
X108450801Y-138226600I-249999J0D01*
G01*
G37*
%TD.AperFunction*%
%TD*%
%TO.P,R2,1*%
%TO.N,MONO_AUDIO*%
%TA.AperFunction,SMDPad,CuDef*%
G36*
G01*
X106057500Y-134106499D02*
X106057500Y-135006501D01*
G75*
G02*
X105807501Y-135256500I-249999J0D01*
G01*
X105157499Y-135256500D01*
G75*
G02*
X104907500Y-135006501I0J249999D01*
G01*
X104907500Y-134106499D01*
G75*
G02*
X105157499Y-133856500I249999J0D01*
G01*
X105807501Y-133856500D01*
G75*
G02*
X106057500Y-134106499I0J-249999D01*
G01*
G37*
%TD.AperFunction*%
%TO.P,R2,2*%
%TO.N,Net-(J2-Pad1)*%
%TA.AperFunction,SMDPad,CuDef*%
G36*
G01*
X104007500Y-134106499D02*
X104007500Y-135006501D01*
G75*
G02*
X103757501Y-135256500I-249999J0D01*
G01*
X103107499Y-135256500D01*
G75*
G02*
X102857500Y-135006501I0J249999D01*
G01*
X102857500Y-134106499D01*
G75*
G02*
X103107499Y-133856500I249999J0D01*
G01*
X103757501Y-133856500D01*
G75*
G02*
X104007500Y-134106499I0J-249999D01*
G01*
G37*
%TD.AperFunction*%
%TD*%
%TO.P,R3,2*%
%TO.N,VCC*%
%TA.AperFunction,SMDPad,CuDef*%
G36*
G01*
X86544999Y-142944000D02*
X87445001Y-142944000D01*
G75*
G02*
X87695000Y-143193999I0J-249999D01*
G01*
X87695000Y-143844001D01*
G75*
G02*
X87445001Y-144094000I-249999J0D01*
G01*
X86544999Y-144094000D01*
G75*
G02*
X86295000Y-143844001I0J249999D01*
G01*
X86295000Y-143193999D01*
G75*
G02*
X86544999Y-142944000I249999J0D01*
G01*
G37*
%TD.AperFunction*%
%TO.P,R3,1*%
%TO.N,Net-(R3-Pad1)*%
%TA.AperFunction,SMDPad,CuDef*%
G36*
G01*
X86544999Y-140894000D02*
X87445001Y-140894000D01*
G75*
G02*
X87695000Y-141143999I0J-249999D01*
G01*
X87695000Y-141794001D01*
G75*
G02*
X87445001Y-142044000I-249999J0D01*
G01*
X86544999Y-142044000D01*
G75*
G02*
X86295000Y-141794001I0J249999D01*
G01*
X86295000Y-141143999D01*
G75*
G02*
X86544999Y-140894000I249999J0D01*
G01*
G37*
%TD.AperFunction*%
%TD*%
%TO.P,R4,1*%
%TO.N,Net-(R4-Pad1)*%
%TA.AperFunction,SMDPad,CuDef*%
G36*
G01*
X106286500Y-143071001D02*
X106286500Y-142170999D01*
G75*
G02*
X106536499Y-141921000I249999J0D01*
G01*
X107186501Y-141921000D01*
G75*
G02*
X107436500Y-142170999I0J-249999D01*
G01*
X107436500Y-143071001D01*
G75*
G02*
X107186501Y-143321000I-249999J0D01*
G01*
X106536499Y-143321000D01*
G75*
G02*
X106286500Y-143071001I0J249999D01*
G01*
G37*
%TD.AperFunction*%
%TO.P,R4,2*%
%TO.N,Net-(C1-Pad2)*%
%TA.AperFunction,SMDPad,CuDef*%
G36*
G01*
X108336500Y-143071001D02*
X108336500Y-142170999D01*
G75*
G02*
X108586499Y-141921000I249999J0D01*
G01*
X109236501Y-141921000D01*
G75*
G02*
X109486500Y-142170999I0J-249999D01*
G01*
X109486500Y-143071001D01*
G75*
G02*
X109236501Y-143321000I-249999J0D01*
G01*
X108586499Y-143321000D01*
G75*
G02*
X108336500Y-143071001I0J249999D01*
G01*
G37*
%TD.AperFunction*%
%TD*%
%TO.P,R5,2*%
%TO.N,VCC*%
%TA.AperFunction,SMDPad,CuDef*%
G36*
G01*
X101911999Y-144849000D02*
X102812001Y-144849000D01*
G75*
G02*
X103062000Y-145098999I0J-249999D01*
G01*
X103062000Y-145749001D01*
G75*
G02*
X102812001Y-145999000I-249999J0D01*
G01*
X101911999Y-145999000D01*
G75*
G02*
X101662000Y-145749001I0J249999D01*
G01*
X101662000Y-145098999D01*
G75*
G02*
X101911999Y-144849000I249999J0D01*
G01*
G37*
%TD.AperFunction*%
%TO.P,R5,1*%
%TO.N,Net-(C2-Pad1)*%
%TA.AperFunction,SMDPad,CuDef*%
G36*
G01*
X101911999Y-142799000D02*
X102812001Y-142799000D01*
G75*
G02*
X103062000Y-143048999I0J-249999D01*
G01*
X103062000Y-143699001D01*
G75*
G02*
X102812001Y-143949000I-249999J0D01*
G01*
X101911999Y-143949000D01*
G75*
G02*
X101662000Y-143699001I0J249999D01*
G01*
X101662000Y-143048999D01*
G75*
G02*
X101911999Y-142799000I249999J0D01*
G01*
G37*
%TD.AperFunction*%
%TD*%
%TO.P,R6,1*%
%TO.N,GND*%
%TA.AperFunction,SMDPad,CuDef*%
G36*
G01*
X105225001Y-145999000D02*
X104324999Y-145999000D01*
G75*
G02*
X104075000Y-145749001I0J249999D01*
G01*
X104075000Y-145098999D01*
G75*
G02*
X104324999Y-144849000I249999J0D01*
G01*
X105225001Y-144849000D01*
G75*
G02*
X105475000Y-145098999I0J-249999D01*
G01*
X105475000Y-145749001D01*
G75*
G02*
X105225001Y-145999000I-249999J0D01*
G01*
G37*
%TD.AperFunction*%
%TO.P,R6,2*%
%TO.N,Net-(C2-Pad1)*%
%TA.AperFunction,SMDPad,CuDef*%
G36*
G01*
X105225001Y-143949000D02*
X104324999Y-143949000D01*
G75*
G02*
X104075000Y-143699001I0J249999D01*
G01*
X104075000Y-143048999D01*
G75*
G02*
X104324999Y-142799000I249999J0D01*
G01*
X105225001Y-142799000D01*
G75*
G02*
X105475000Y-143048999I0J-249999D01*
G01*
X105475000Y-143699001D01*
G75*
G02*
X105225001Y-143949000I-249999J0D01*
G01*
G37*
%TD.AperFunction*%
%TD*%
%TO.P,U1,1*%
%TO.N,Vo*%
%TA.AperFunction,SMDPad,CuDef*%
G36*
G01*
X88432000Y-134008000D02*
X88432000Y-133708000D01*
G75*
G02*
X88582000Y-133558000I150000J0D01*
G01*
X90332000Y-133558000D01*
G75*
G02*
X90482000Y-133708000I0J-150000D01*
G01*
X90482000Y-134008000D01*
G75*
G02*
X90332000Y-134158000I-150000J0D01*
G01*
X88582000Y-134158000D01*
G75*
G02*
X88432000Y-134008000I0J150000D01*
G01*
G37*
%TD.AperFunction*%
%TO.P,U1,2*%
%TO.N,D0*%
%TA.AperFunction,SMDPad,CuDef*%
G36*
G01*
X88432000Y-135278000D02*
X88432000Y-134978000D01*
G75*
G02*
X88582000Y-134828000I150000J0D01*
G01*
X90332000Y-134828000D01*
G75*
G02*
X90482000Y-134978000I0J-150000D01*
G01*
X90482000Y-135278000D01*
G75*
G02*
X90332000Y-135428000I-150000J0D01*
G01*
X88582000Y-135428000D01*
G75*
G02*
X88432000Y-135278000I0J150000D01*
G01*
G37*
%TD.AperFunction*%
%TO.P,U1,3*%
%TO.N,D1*%
%TA.AperFunction,SMDPad,CuDef*%
G36*
G01*
X88432000Y-136548000D02*
X88432000Y-136248000D01*
G75*
G02*
X88582000Y-136098000I150000J0D01*
G01*
X90332000Y-136098000D01*
G75*
G02*
X90482000Y-136248000I0J-150000D01*
G01*
X90482000Y-136548000D01*
G75*
G02*
X90332000Y-136698000I-150000J0D01*
G01*
X88582000Y-136698000D01*
G75*
G02*
X88432000Y-136548000I0J150000D01*
G01*
G37*
%TD.AperFunction*%
%TO.P,U1,4*%
%TO.N,D2*%
%TA.AperFunction,SMDPad,CuDef*%
G36*
G01*
X88432000Y-137818000D02*
X88432000Y-137518000D01*
G75*
G02*
X88582000Y-137368000I150000J0D01*
G01*
X90332000Y-137368000D01*
G75*
G02*
X90482000Y-137518000I0J-150000D01*
G01*
X90482000Y-137818000D01*
G75*
G02*
X90332000Y-137968000I-150000J0D01*
G01*
X88582000Y-137968000D01*
G75*
G02*
X88432000Y-137818000I0J150000D01*
G01*
G37*
%TD.AperFunction*%
%TO.P,U1,5*%
%TO.N,D3*%
%TA.AperFunction,SMDPad,CuDef*%
G36*
G01*
X88432000Y-139088000D02*
X88432000Y-138788000D01*
G75*
G02*
X88582000Y-138638000I150000J0D01*
G01*
X90332000Y-138638000D01*
G75*
G02*
X90482000Y-138788000I0J-150000D01*
G01*
X90482000Y-139088000D01*
G75*
G02*
X90332000Y-139238000I-150000J0D01*
G01*
X88582000Y-139238000D01*
G75*
G02*
X88432000Y-139088000I0J150000D01*
G01*
G37*
%TD.AperFunction*%
%TO.P,U1,6*%
%TO.N,STROBE*%
%TA.AperFunction,SMDPad,CuDef*%
G36*
G01*
X88432000Y-140358000D02*
X88432000Y-140058000D01*
G75*
G02*
X88582000Y-139908000I150000J0D01*
G01*
X90332000Y-139908000D01*
G75*
G02*
X90482000Y-140058000I0J-150000D01*
G01*
X90482000Y-140358000D01*
G75*
G02*
X90332000Y-140508000I-150000J0D01*
G01*
X88582000Y-140508000D01*
G75*
G02*
X88432000Y-140358000I0J150000D01*
G01*
G37*
%TD.AperFunction*%
%TO.P,U1,7*%
%TO.N,Net-(R3-Pad1)*%
%TA.AperFunction,SMDPad,CuDef*%
G36*
G01*
X88432000Y-141628000D02*
X88432000Y-141328000D01*
G75*
G02*
X88582000Y-141178000I150000J0D01*
G01*
X90332000Y-141178000D01*
G75*
G02*
X90482000Y-141328000I0J-150000D01*
G01*
X90482000Y-141628000D01*
G75*
G02*
X90332000Y-141778000I-150000J0D01*
G01*
X88582000Y-141778000D01*
G75*
G02*
X88432000Y-141628000I0J150000D01*
G01*
G37*
%TD.AperFunction*%
%TO.P,U1,8*%
%TO.N,GND*%
%TA.AperFunction,SMDPad,CuDef*%
G36*
G01*
X88432000Y-142898000D02*
X88432000Y-142598000D01*
G75*
G02*
X88582000Y-142448000I150000J0D01*
G01*
X90332000Y-142448000D01*
G75*
G02*
X90482000Y-142598000I0J-150000D01*
G01*
X90482000Y-142898000D01*
G75*
G02*
X90332000Y-143048000I-150000J0D01*
G01*
X88582000Y-143048000D01*
G75*
G02*
X88432000Y-142898000I0J150000D01*
G01*
G37*
%TD.AperFunction*%
%TO.P,U1,9*%
%TO.N,Net-(U1-Pad9)*%
%TA.AperFunction,SMDPad,CuDef*%
G36*
G01*
X88432000Y-144168000D02*
X88432000Y-143868000D01*
G75*
G02*
X88582000Y-143718000I150000J0D01*
G01*
X90332000Y-143718000D01*
G75*
G02*
X90482000Y-143868000I0J-150000D01*
G01*
X90482000Y-144168000D01*
G75*
G02*
X90332000Y-144318000I-150000J0D01*
G01*
X88582000Y-144318000D01*
G75*
G02*
X88432000Y-144168000I0J150000D01*
G01*
G37*
%TD.AperFunction*%
%TO.P,U1,10*%
%TO.N,GND*%
%TA.AperFunction,SMDPad,CuDef*%
G36*
G01*
X88432000Y-145438000D02*
X88432000Y-145138000D01*
G75*
G02*
X88582000Y-144988000I150000J0D01*
G01*
X90332000Y-144988000D01*
G75*
G02*
X90482000Y-145138000I0J-150000D01*
G01*
X90482000Y-145438000D01*
G75*
G02*
X90332000Y-145588000I-150000J0D01*
G01*
X88582000Y-145588000D01*
G75*
G02*
X88432000Y-145438000I0J150000D01*
G01*
G37*
%TD.AperFunction*%
%TO.P,U1,11*%
%TA.AperFunction,SMDPad,CuDef*%
G36*
G01*
X97732000Y-145438000D02*
X97732000Y-145138000D01*
G75*
G02*
X97882000Y-144988000I150000J0D01*
G01*
X99632000Y-144988000D01*
G75*
G02*
X99782000Y-145138000I0J-150000D01*
G01*
X99782000Y-145438000D01*
G75*
G02*
X99632000Y-145588000I-150000J0D01*
G01*
X97882000Y-145588000D01*
G75*
G02*
X97732000Y-145438000I0J150000D01*
G01*
G37*
%TD.AperFunction*%
%TO.P,U1,12*%
%TO.N,VCC*%
%TA.AperFunction,SMDPad,CuDef*%
G36*
G01*
X97732000Y-144168000D02*
X97732000Y-143868000D01*
G75*
G02*
X97882000Y-143718000I150000J0D01*
G01*
X99632000Y-143718000D01*
G75*
G02*
X99782000Y-143868000I0J-150000D01*
G01*
X99782000Y-144168000D01*
G75*
G02*
X99632000Y-144318000I-150000J0D01*
G01*
X97882000Y-144318000D01*
G75*
G02*
X97732000Y-144168000I0J150000D01*
G01*
G37*
%TD.AperFunction*%
%TO.P,U1,13*%
%TO.N,GND*%
%TA.AperFunction,SMDPad,CuDef*%
G36*
G01*
X97732000Y-142898000D02*
X97732000Y-142598000D01*
G75*
G02*
X97882000Y-142448000I150000J0D01*
G01*
X99632000Y-142448000D01*
G75*
G02*
X99782000Y-142598000I0J-150000D01*
G01*
X99782000Y-142898000D01*
G75*
G02*
X99632000Y-143048000I-150000J0D01*
G01*
X97882000Y-143048000D01*
G75*
G02*
X97732000Y-142898000I0J150000D01*
G01*
G37*
%TD.AperFunction*%
%TO.P,U1,14*%
%TO.N,D4*%
%TA.AperFunction,SMDPad,CuDef*%
G36*
G01*
X97732000Y-141628000D02*
X97732000Y-141328000D01*
G75*
G02*
X97882000Y-141178000I150000J0D01*
G01*
X99632000Y-141178000D01*
G75*
G02*
X99782000Y-141328000I0J-150000D01*
G01*
X99782000Y-141628000D01*
G75*
G02*
X99632000Y-141778000I-150000J0D01*
G01*
X97882000Y-141778000D01*
G75*
G02*
X97732000Y-141628000I0J150000D01*
G01*
G37*
%TD.AperFunction*%
%TO.P,U1,15*%
%TO.N,D5*%
%TA.AperFunction,SMDPad,CuDef*%
G36*
G01*
X97732000Y-140358000D02*
X97732000Y-140058000D01*
G75*
G02*
X97882000Y-139908000I150000J0D01*
G01*
X99632000Y-139908000D01*
G75*
G02*
X99782000Y-140058000I0J-150000D01*
G01*
X99782000Y-140358000D01*
G75*
G02*
X99632000Y-140508000I-150000J0D01*
G01*
X97882000Y-140508000D01*
G75*
G02*
X97732000Y-140358000I0J150000D01*
G01*
G37*
%TD.AperFunction*%
%TO.P,U1,16*%
%TO.N,D6*%
%TA.AperFunction,SMDPad,CuDef*%
G36*
G01*
X97732000Y-139088000D02*
X97732000Y-138788000D01*
G75*
G02*
X97882000Y-138638000I150000J0D01*
G01*
X99632000Y-138638000D01*
G75*
G02*
X99782000Y-138788000I0J-150000D01*
G01*
X99782000Y-139088000D01*
G75*
G02*
X99632000Y-139238000I-150000J0D01*
G01*
X97882000Y-139238000D01*
G75*
G02*
X97732000Y-139088000I0J150000D01*
G01*
G37*
%TD.AperFunction*%
%TO.P,U1,17*%
%TO.N,D7*%
%TA.AperFunction,SMDPad,CuDef*%
G36*
G01*
X97732000Y-137818000D02*
X97732000Y-137518000D01*
G75*
G02*
X97882000Y-137368000I150000J0D01*
G01*
X99632000Y-137368000D01*
G75*
G02*
X99782000Y-137518000I0J-150000D01*
G01*
X99782000Y-137818000D01*
G75*
G02*
X99632000Y-137968000I-150000J0D01*
G01*
X97882000Y-137968000D01*
G75*
G02*
X97732000Y-137818000I0J150000D01*
G01*
G37*
%TD.AperFunction*%
%TO.P,U1,18*%
%TO.N,Net-(U1-Pad18)*%
%TA.AperFunction,SMDPad,CuDef*%
G36*
G01*
X97732000Y-136548000D02*
X97732000Y-136248000D01*
G75*
G02*
X97882000Y-136098000I150000J0D01*
G01*
X99632000Y-136098000D01*
G75*
G02*
X99782000Y-136248000I0J-150000D01*
G01*
X99782000Y-136548000D01*
G75*
G02*
X99632000Y-136698000I-150000J0D01*
G01*
X97882000Y-136698000D01*
G75*
G02*
X97732000Y-136548000I0J150000D01*
G01*
G37*
%TD.AperFunction*%
%TO.P,U1,19*%
%TO.N,N/C*%
%TA.AperFunction,SMDPad,CuDef*%
G36*
G01*
X97732000Y-135278000D02*
X97732000Y-134978000D01*
G75*
G02*
X97882000Y-134828000I150000J0D01*
G01*
X99632000Y-134828000D01*
G75*
G02*
X99782000Y-134978000I0J-150000D01*
G01*
X99782000Y-135278000D01*
G75*
G02*
X99632000Y-135428000I-150000J0D01*
G01*
X97882000Y-135428000D01*
G75*
G02*
X97732000Y-135278000I0J150000D01*
G01*
G37*
%TD.AperFunction*%
%TO.P,U1,20*%
%TO.N,VCC*%
%TA.AperFunction,SMDPad,CuDef*%
G36*
G01*
X97732000Y-134008000D02*
X97732000Y-133708000D01*
G75*
G02*
X97882000Y-133558000I150000J0D01*
G01*
X99632000Y-133558000D01*
G75*
G02*
X99782000Y-133708000I0J-150000D01*
G01*
X99782000Y-134008000D01*
G75*
G02*
X99632000Y-134158000I-150000J0D01*
G01*
X97882000Y-134158000D01*
G75*
G02*
X97732000Y-134008000I0J150000D01*
G01*
G37*
%TD.AperFunction*%
%TD*%
D13*
%TO.P,U2,1*%
%TO.N,Net-(R4-Pad1)*%
X102809000Y-141181000D03*
%TO.P,U2,2*%
%TO.N,GND*%
X103759000Y-141181000D03*
%TO.P,U2,3*%
%TO.N,Net-(C2-Pad1)*%
X104709000Y-141181000D03*
%TO.P,U2,4*%
%TO.N,Vo*%
X104709000Y-138981000D03*
%TO.P,U2,5*%
%TO.N,VCC*%
X102809000Y-138981000D03*
%TD*%
D14*
%TO.N,GND*%
X97155000Y-142684500D03*
X91757500Y-135445500D03*
X94869000Y-136334500D03*
X95377000Y-139827000D03*
X93599000Y-144526000D03*
X96647000Y-145542000D03*
X103759000Y-142113000D03*
X90772979Y-142240000D03*
X105664000Y-146558000D03*
X109855000Y-146367500D03*
X110896400Y-135801100D03*
X111074200Y-137807700D03*
X114465100Y-138163300D03*
X114617500Y-142201900D03*
X114795300Y-146291300D03*
X102108000Y-134747000D03*
X97891600Y-130505200D03*
X97828100Y-132359400D03*
X82321400Y-135547100D03*
X85940900Y-135293100D03*
X88519000Y-131724400D03*
X106426000Y-138239500D03*
X87249000Y-145732500D03*
%TO.N,VCC*%
X97218500Y-144081500D03*
X102298500Y-137160000D03*
X102028788Y-138851009D03*
X97345500Y-133794500D03*
X83566000Y-146431000D03*
X85793160Y-143578160D03*
X103314500Y-144970500D03*
%TO.N,STROBE*%
X81407000Y-146621500D03*
X87607242Y-140306399D03*
%TD*%
D15*
%TO.N,MONO_AUDIO*%
X106807000Y-135881000D02*
X105482500Y-134556500D01*
X106807000Y-136579500D02*
X106807000Y-135881000D01*
X108000800Y-137651600D02*
X107879100Y-137651600D01*
X107879100Y-137651600D02*
X106807000Y-136579500D01*
X108000800Y-139164200D02*
X107084000Y-140081000D01*
X108000800Y-137651600D02*
X108000800Y-139164200D01*
%TO.N,Net-(C1-Pad2)*%
X109306500Y-140106400D02*
X109306500Y-139799200D01*
X109185600Y-142595600D02*
X108595600Y-142595600D01*
X109959000Y-141573500D02*
X108911500Y-142621000D01*
X109959000Y-140081000D02*
X109959000Y-141573500D01*
%TO.N,Net-(C2-Pad1)*%
X104775000Y-143365000D02*
X104766000Y-143374000D01*
X104775000Y-141224000D02*
X104775000Y-143365000D01*
X104766000Y-143374000D02*
X102362000Y-143374000D01*
X105664000Y-143374000D02*
X104766000Y-143374000D01*
X107197000Y-144907000D02*
X105664000Y-143374000D01*
%TO.N,GND*%
X103759000Y-141181000D02*
X103759000Y-142113000D01*
X89965000Y-142240000D02*
X90772979Y-142240000D01*
X89457000Y-142748000D02*
X89965000Y-142240000D01*
X105664000Y-146558000D02*
X105664000Y-146558000D01*
X109940500Y-144843500D02*
X109940500Y-146409000D01*
X102108000Y-134819500D02*
X101346000Y-135581500D01*
X102108000Y-134747000D02*
X102108000Y-134819500D01*
X96837500Y-145351500D02*
X96647000Y-145542000D01*
X98757000Y-145288000D02*
X98693500Y-145351500D01*
X98693500Y-145351500D02*
X96837500Y-145351500D01*
X105664000Y-146313000D02*
X105664000Y-146558000D01*
X104775000Y-145424000D02*
X105664000Y-146313000D01*
X106426000Y-137659000D02*
X105546000Y-136779000D01*
X106426000Y-138239500D02*
X106426000Y-137659000D01*
X98693500Y-142684500D02*
X98757000Y-142748000D01*
X97155000Y-142684500D02*
X98693500Y-142684500D01*
%TO.N,VCC*%
X99822000Y-144018000D02*
X98757000Y-144018000D01*
X98630000Y-143891000D02*
X98757000Y-144018000D01*
X97155000Y-143891000D02*
X98630000Y-143891000D01*
X99695000Y-133858000D02*
X98757000Y-133858000D01*
X102809000Y-138981000D02*
X102665510Y-138837510D01*
X102809000Y-138981000D02*
X102158779Y-138981000D01*
X102158779Y-138981000D02*
X102028788Y-138851009D01*
D16*
X98630000Y-133985000D02*
X98757000Y-133858000D01*
X97345500Y-133985000D02*
X98630000Y-133985000D01*
X83121500Y-144357500D02*
X83121500Y-145859500D01*
X83121500Y-145859500D02*
X83756500Y-146494500D01*
D15*
X85852320Y-143519000D02*
X85793160Y-143578160D01*
X86995000Y-143519000D02*
X85852320Y-143519000D01*
D16*
X101346000Y-133531500D02*
X100720000Y-133531500D01*
X100393500Y-133858000D02*
X98757000Y-133858000D01*
X100720000Y-133531500D02*
X100393500Y-133858000D01*
D15*
X103487000Y-136770000D02*
X102607000Y-136770000D01*
X103496000Y-136779000D02*
X103487000Y-136770000D01*
X102298500Y-137160000D02*
X102679500Y-136779000D01*
X102679500Y-136779000D02*
X103496000Y-136779000D01*
D16*
X102815500Y-144970500D02*
X102362000Y-145424000D01*
X103314500Y-144970500D02*
X102815500Y-144970500D01*
D15*
%TO.N,Net-(J1-Pad1)*%
X108000000Y-135600800D02*
X108000800Y-135601600D01*
X108000800Y-135601600D02*
X108000800Y-134404100D01*
X107010200Y-133413500D02*
X107010200Y-130987800D01*
X108000800Y-134404100D02*
X107010200Y-133413500D01*
%TO.N,Net-(J2-Pad1)*%
X100000000Y-131000000D02*
X100456500Y-131000000D01*
X103432500Y-133976000D02*
X103432500Y-134556500D01*
X100456500Y-131000000D02*
X103432500Y-133976000D01*
%TO.N,STROBE*%
X81407000Y-149589000D02*
X81678000Y-149860000D01*
X81407000Y-146939000D02*
X81407000Y-149589000D01*
X89457000Y-140208000D02*
X87705641Y-140208000D01*
X87705641Y-140208000D02*
X87607242Y-140306399D01*
%TO.N,D0*%
X85413009Y-140775401D02*
X87000509Y-139187901D01*
X88432000Y-135128000D02*
X89457000Y-135128000D01*
X87000509Y-136559491D02*
X88432000Y-135128000D01*
X85413009Y-142108901D02*
X85413009Y-140775401D01*
X84481502Y-143040408D02*
X85413009Y-142108901D01*
X84481502Y-149826498D02*
X84481502Y-143040408D01*
X87000509Y-139187901D02*
X87000509Y-136559491D01*
X84448000Y-149860000D02*
X84481502Y-149826498D01*
%TO.N,D1*%
X85008999Y-143149322D02*
X85008999Y-145270499D01*
X85008999Y-145270499D02*
X87218000Y-147479500D01*
X85863020Y-142295301D02*
X85008999Y-143149322D01*
X88432000Y-136398000D02*
X87450520Y-137379480D01*
X87218000Y-147479500D02*
X87218000Y-149860000D01*
X89457000Y-136398000D02*
X88432000Y-136398000D01*
X85863020Y-140961801D02*
X85863020Y-142295301D01*
X87450520Y-137379480D02*
X87450520Y-139374301D01*
X87450520Y-139374301D02*
X85863020Y-140961801D01*
%TO.N,D2*%
X91757500Y-140811732D02*
X91757500Y-145161000D01*
X88432000Y-137668000D02*
X88020990Y-138079010D01*
X91757500Y-145161000D02*
X89988000Y-146930500D01*
X90528758Y-139582990D02*
X91757500Y-140811732D01*
X89457000Y-137668000D02*
X88432000Y-137668000D01*
X89988000Y-146930500D02*
X89988000Y-149860000D01*
X88020990Y-138079010D02*
X88020990Y-139582990D01*
X88020990Y-139582990D02*
X90528758Y-139582990D01*
%TO.N,D3*%
X92758000Y-149860000D02*
X91948000Y-149050000D01*
X91948000Y-149050000D02*
X91948000Y-145606911D01*
X91948000Y-145606911D02*
X92207511Y-145347400D01*
X92207511Y-145347400D02*
X92207511Y-140625332D01*
X92207511Y-140625332D02*
X90520179Y-138938000D01*
X90520179Y-138938000D02*
X89457000Y-138938000D01*
%TO.N,D4*%
X95528000Y-147870000D02*
X95528000Y-149860000D01*
X95313500Y-147655500D02*
X95528000Y-147870000D01*
X95313500Y-143256000D02*
X95313500Y-147655500D01*
X98757000Y-141478000D02*
X97091500Y-141478000D01*
X97091500Y-141478000D02*
X95313500Y-143256000D01*
%TO.N,D5*%
X100318978Y-145616522D02*
X98298000Y-147637500D01*
X98757000Y-140208000D02*
X99782000Y-140208000D01*
X98298000Y-147637500D02*
X98298000Y-149860000D01*
X99782000Y-140208000D02*
X100318978Y-140744978D01*
X100318978Y-140744978D02*
X100318978Y-145616522D01*
%TO.N,D6*%
X101068000Y-147870000D02*
X101068000Y-149860000D01*
X100768989Y-140319611D02*
X100768989Y-147570989D01*
X99387378Y-138938000D02*
X100768989Y-140319611D01*
X100768989Y-147570989D02*
X101068000Y-147870000D01*
X98757000Y-138938000D02*
X99387378Y-138938000D01*
%TO.N,D7*%
X101219000Y-140082410D02*
X101219000Y-145923000D01*
X100197489Y-138083489D02*
X100197489Y-139060900D01*
X101219000Y-145923000D02*
X103838000Y-148542000D01*
X103838000Y-148542000D02*
X103838000Y-149860000D01*
X99782000Y-137668000D02*
X100197489Y-138083489D01*
X98757000Y-137668000D02*
X99782000Y-137668000D01*
X100197489Y-139060900D02*
X101219000Y-140082410D01*
%TO.N,Net-(R3-Pad1)*%
X89339000Y-141596000D02*
X89457000Y-141478000D01*
X89448000Y-141469000D02*
X89457000Y-141478000D01*
X86995000Y-141469000D02*
X89448000Y-141469000D01*
%TO.N,Net-(R4-Pad1)*%
X95000000Y-134337768D02*
X95000000Y-131000000D01*
X97695232Y-137033000D02*
X95000000Y-134337768D01*
X99885500Y-137033000D02*
X97695232Y-137033000D01*
X102809000Y-141181000D02*
X102809000Y-141036000D01*
X102809000Y-141036000D02*
X100647500Y-138874500D01*
X100647500Y-138874500D02*
X100647500Y-137795000D01*
X100647500Y-137795000D02*
X99885500Y-137033000D01*
X102809000Y-140690998D02*
X102809000Y-141181000D01*
X105537000Y-140525500D02*
X105283000Y-140271500D01*
X103228498Y-140271500D02*
X102809000Y-140690998D01*
X105283000Y-140271500D02*
X103228498Y-140271500D01*
X106861500Y-142621000D02*
X106680000Y-142621000D01*
X105537000Y-141478000D02*
X105537000Y-140525500D01*
X106680000Y-142621000D02*
X105537000Y-141478000D01*
%TO.N,Vo*%
X104709000Y-138981000D02*
X103853999Y-138125999D01*
X103853999Y-138125999D02*
X101829399Y-138125999D01*
X101829399Y-137773631D02*
X100304600Y-136248832D01*
X101829399Y-138125999D02*
X101829399Y-137773631D01*
X100304600Y-136248832D02*
X100304600Y-136245600D01*
X99831990Y-135772990D02*
X97495190Y-135772990D01*
X100304600Y-136245600D02*
X99831990Y-135772990D01*
X94000001Y-129999999D02*
X93000000Y-131000000D01*
X95935001Y-129999999D02*
X94000001Y-129999999D01*
X96000001Y-130064999D02*
X95935001Y-129999999D01*
X96000001Y-134277801D02*
X96000001Y-130064999D01*
X97495190Y-135772990D02*
X96000001Y-134277801D01*
X93000000Y-131000000D02*
X91000000Y-131000000D01*
X91000000Y-132315000D02*
X89457000Y-133858000D01*
X91000000Y-131000000D02*
X91000000Y-132315000D01*
%TD*%
D17*
%TO.N,GND*%
G36*
X108561384Y-130145659D02*
G01*
X108562325Y-130155131D01*
X108563481Y-130195606D01*
X108567467Y-130226997D01*
X108568198Y-130258622D01*
X108569417Y-130268108D01*
X108669044Y-131002636D01*
X108683356Y-131063067D01*
X108696815Y-131123656D01*
X108699854Y-131132725D01*
X108940253Y-131833911D01*
X108966017Y-131890383D01*
X108991002Y-131947234D01*
X108995744Y-131955540D01*
X109367760Y-132596679D01*
X109404025Y-132647102D01*
X109439554Y-132697986D01*
X109445818Y-132705213D01*
X109935280Y-133261883D01*
X109980671Y-133304323D01*
X110025384Y-133347315D01*
X110032933Y-133353187D01*
X110621197Y-133804185D01*
X110673920Y-133836971D01*
X110726179Y-133870490D01*
X110734725Y-133874784D01*
X111399386Y-134202932D01*
X111457500Y-134224863D01*
X111515246Y-134247582D01*
X111524463Y-134250135D01*
X112240202Y-134442933D01*
X112301413Y-134453150D01*
X112362530Y-134464230D01*
X112372065Y-134464943D01*
X112372067Y-134464943D01*
X113101117Y-134514336D01*
X113124070Y-134516604D01*
X115685101Y-134517390D01*
X115685100Y-146656428D01*
X113994667Y-146656428D01*
X113870185Y-146668688D01*
X113750487Y-146704998D01*
X113640173Y-146763963D01*
X113543482Y-146843315D01*
X113533000Y-146856087D01*
X113522518Y-146843315D01*
X113425827Y-146763963D01*
X113315513Y-146704998D01*
X113195815Y-146668688D01*
X113071333Y-146656428D01*
X111224667Y-146656428D01*
X111100185Y-146668688D01*
X110980487Y-146704998D01*
X110870173Y-146763963D01*
X110773482Y-146843315D01*
X110763000Y-146856087D01*
X110752518Y-146843315D01*
X110655827Y-146763963D01*
X110545513Y-146704998D01*
X110425815Y-146668688D01*
X110301333Y-146656428D01*
X108454667Y-146656428D01*
X108330185Y-146668688D01*
X108210487Y-146704998D01*
X108100173Y-146763963D01*
X108003482Y-146843315D01*
X107993000Y-146856087D01*
X107982518Y-146843315D01*
X107885827Y-146763963D01*
X107775513Y-146704998D01*
X107655815Y-146668688D01*
X107531333Y-146656428D01*
X105684667Y-146656428D01*
X105560185Y-146668688D01*
X105440487Y-146704998D01*
X105330173Y-146763963D01*
X105233482Y-146843315D01*
X105223000Y-146856087D01*
X105212518Y-146843315D01*
X105115827Y-146763963D01*
X105005513Y-146704998D01*
X104885815Y-146668688D01*
X104761333Y-146656428D01*
X103027229Y-146656428D01*
X102989517Y-146618715D01*
X103151851Y-146569472D01*
X103305387Y-146487405D01*
X103439962Y-146376962D01*
X103510842Y-146290595D01*
X103544463Y-146353494D01*
X103623815Y-146450185D01*
X103720506Y-146529537D01*
X103830820Y-146588502D01*
X103950518Y-146624812D01*
X104075000Y-146637072D01*
X104489250Y-146634000D01*
X104648000Y-146475250D01*
X104648000Y-145551000D01*
X104628000Y-145551000D01*
X104628000Y-145297000D01*
X104648000Y-145297000D01*
X104648000Y-145277000D01*
X104902000Y-145277000D01*
X104902000Y-145297000D01*
X104922000Y-145297000D01*
X104922000Y-145551000D01*
X104902000Y-145551000D01*
X104902000Y-146475250D01*
X105060750Y-146634000D01*
X105475000Y-146637072D01*
X105599482Y-146624812D01*
X105719180Y-146588502D01*
X105829494Y-146529537D01*
X105926185Y-146450185D01*
X106005537Y-146353494D01*
X106064502Y-146243180D01*
X106100812Y-146123482D01*
X106103393Y-146097280D01*
X106206649Y-146152472D01*
X106373245Y-146203008D01*
X106546499Y-146220072D01*
X107621501Y-146220072D01*
X107794755Y-146203008D01*
X107961351Y-146152472D01*
X108114887Y-146070405D01*
X108249462Y-145959962D01*
X108359905Y-145825387D01*
X108441972Y-145671851D01*
X108469227Y-145582000D01*
X108533428Y-145582000D01*
X108545688Y-145706482D01*
X108581998Y-145826180D01*
X108640963Y-145936494D01*
X108720315Y-146033185D01*
X108817006Y-146112537D01*
X108927320Y-146171502D01*
X109047018Y-146207812D01*
X109171500Y-146220072D01*
X109673250Y-146217000D01*
X109832000Y-146058250D01*
X109832000Y-145034000D01*
X110086000Y-145034000D01*
X110086000Y-146058250D01*
X110244750Y-146217000D01*
X110746500Y-146220072D01*
X110870982Y-146207812D01*
X110990680Y-146171502D01*
X111100994Y-146112537D01*
X111197685Y-146033185D01*
X111277037Y-145936494D01*
X111336002Y-145826180D01*
X111372312Y-145706482D01*
X111384572Y-145582000D01*
X111381500Y-145192750D01*
X111222750Y-145034000D01*
X110086000Y-145034000D01*
X109832000Y-145034000D01*
X108695250Y-145034000D01*
X108536500Y-145192750D01*
X108533428Y-145582000D01*
X108469227Y-145582000D01*
X108492508Y-145505255D01*
X108509572Y-145332001D01*
X108509572Y-144481999D01*
X108492508Y-144308745D01*
X108441972Y-144142149D01*
X108359905Y-143988613D01*
X108291299Y-143905016D01*
X108413245Y-143942008D01*
X108586499Y-143959072D01*
X108597364Y-143959072D01*
X108581998Y-143987820D01*
X108545688Y-144107518D01*
X108533428Y-144232000D01*
X108536500Y-144621250D01*
X108695250Y-144780000D01*
X109832000Y-144780000D01*
X109832000Y-143755750D01*
X110086000Y-143755750D01*
X110086000Y-144780000D01*
X111222750Y-144780000D01*
X111381500Y-144621250D01*
X111384572Y-144232000D01*
X111372312Y-144107518D01*
X111336002Y-143987820D01*
X111277037Y-143877506D01*
X111197685Y-143780815D01*
X111100994Y-143701463D01*
X110990680Y-143642498D01*
X110870982Y-143606188D01*
X110746500Y-143593928D01*
X110244750Y-143597000D01*
X110086000Y-143755750D01*
X109832000Y-143755750D01*
X109815442Y-143739192D01*
X109864462Y-143698962D01*
X109974905Y-143564387D01*
X110056972Y-143410851D01*
X110107508Y-143244255D01*
X110124572Y-143071001D01*
X110124572Y-142482730D01*
X110470003Y-142137299D01*
X110499001Y-142113501D01*
X110593974Y-141997776D01*
X110664546Y-141865747D01*
X110708003Y-141722486D01*
X110719000Y-141610833D01*
X110719000Y-141610825D01*
X110722676Y-141573500D01*
X110719000Y-141536175D01*
X110719000Y-141362070D01*
X110836351Y-141326472D01*
X110989887Y-141244405D01*
X111124462Y-141133962D01*
X111234905Y-140999387D01*
X111316972Y-140845851D01*
X111367508Y-140679255D01*
X111384572Y-140506001D01*
X111384572Y-139655999D01*
X111367508Y-139482745D01*
X111316972Y-139316149D01*
X111234905Y-139162613D01*
X111124462Y-139028038D01*
X110989887Y-138917595D01*
X110836351Y-138835528D01*
X110669755Y-138784992D01*
X110496501Y-138767928D01*
X109421499Y-138767928D01*
X109248245Y-138784992D01*
X109081649Y-138835528D01*
X108928113Y-138917595D01*
X108793538Y-139028038D01*
X108760800Y-139067929D01*
X108760800Y-138806127D01*
X108790651Y-138797072D01*
X108944187Y-138715005D01*
X109078762Y-138604562D01*
X109189205Y-138469987D01*
X109271272Y-138316451D01*
X109321808Y-138149855D01*
X109338872Y-137976601D01*
X109338872Y-137326599D01*
X109321808Y-137153345D01*
X109271272Y-136986749D01*
X109189205Y-136833213D01*
X109078762Y-136698638D01*
X108990984Y-136626600D01*
X109078762Y-136554562D01*
X109189205Y-136419987D01*
X109271272Y-136266451D01*
X109321808Y-136099855D01*
X109338872Y-135926601D01*
X109338872Y-135276599D01*
X109321808Y-135103345D01*
X109271272Y-134936749D01*
X109189205Y-134783213D01*
X109078762Y-134648638D01*
X108944187Y-134538195D01*
X108790651Y-134456128D01*
X108760800Y-134447073D01*
X108760800Y-134441423D01*
X108764476Y-134404100D01*
X108760800Y-134366777D01*
X108760800Y-134366767D01*
X108749803Y-134255114D01*
X108706346Y-134111853D01*
X108669586Y-134043081D01*
X108635774Y-133979823D01*
X108564599Y-133893097D01*
X108540801Y-133864099D01*
X108511803Y-133840301D01*
X107770200Y-133098699D01*
X107770200Y-132292501D01*
X107809682Y-132288612D01*
X107929380Y-132252302D01*
X108039694Y-132193337D01*
X108136385Y-132113985D01*
X108215737Y-132017294D01*
X108274702Y-131906980D01*
X108311012Y-131787282D01*
X108323272Y-131662800D01*
X108323272Y-130312800D01*
X108311012Y-130188318D01*
X108274702Y-130068620D01*
X108215737Y-129958306D01*
X108136385Y-129861615D01*
X108039694Y-129782263D01*
X107929380Y-129723298D01*
X107809682Y-129686988D01*
X107685200Y-129674728D01*
X106335200Y-129674728D01*
X106210718Y-129686988D01*
X106091020Y-129723298D01*
X105980706Y-129782263D01*
X105884015Y-129861615D01*
X105807081Y-129955359D01*
X105673829Y-129858327D01*
X105440728Y-129750562D01*
X105339600Y-129719890D01*
X105137200Y-129843576D01*
X105137200Y-130860800D01*
X105157200Y-130860800D01*
X105157200Y-131114800D01*
X105137200Y-131114800D01*
X105137200Y-132132024D01*
X105339600Y-132255710D01*
X105440728Y-132225038D01*
X105673829Y-132117273D01*
X105807081Y-132020241D01*
X105884015Y-132113985D01*
X105980706Y-132193337D01*
X106091020Y-132252302D01*
X106210718Y-132288612D01*
X106250200Y-132292501D01*
X106250200Y-133341002D01*
X106147351Y-133286028D01*
X105980755Y-133235492D01*
X105807501Y-133218428D01*
X105157499Y-133218428D01*
X104984245Y-133235492D01*
X104817649Y-133286028D01*
X104664113Y-133368095D01*
X104529538Y-133478538D01*
X104457500Y-133566316D01*
X104385462Y-133478538D01*
X104250887Y-133368095D01*
X104097351Y-133286028D01*
X103930755Y-133235492D01*
X103757501Y-133218428D01*
X103749730Y-133218428D01*
X102661677Y-132130375D01*
X102663629Y-132129473D01*
X102871227Y-131978303D01*
X103045344Y-131789537D01*
X103179289Y-131570430D01*
X103267915Y-131329401D01*
X103260512Y-131317201D01*
X103742285Y-131317201D01*
X103830911Y-131558230D01*
X103964856Y-131777337D01*
X104138973Y-131966103D01*
X104346571Y-132117273D01*
X104579672Y-132225038D01*
X104680800Y-132255710D01*
X104883200Y-132132024D01*
X104883200Y-131114800D01*
X103865115Y-131114800D01*
X103742285Y-131317201D01*
X103260512Y-131317201D01*
X103145085Y-131127000D01*
X102127000Y-131127000D01*
X102127000Y-131147000D01*
X101873000Y-131147000D01*
X101873000Y-131127000D01*
X101853000Y-131127000D01*
X101853000Y-130873000D01*
X101873000Y-130873000D01*
X101873000Y-129855776D01*
X102127000Y-129855776D01*
X102127000Y-130873000D01*
X103145085Y-130873000D01*
X103267915Y-130670599D01*
X103263430Y-130658399D01*
X103742285Y-130658399D01*
X103865115Y-130860800D01*
X104883200Y-130860800D01*
X104883200Y-129843576D01*
X104680800Y-129719890D01*
X104579672Y-129750562D01*
X104346571Y-129858327D01*
X104138973Y-130009497D01*
X103964856Y-130198263D01*
X103830911Y-130417370D01*
X103742285Y-130658399D01*
X103263430Y-130658399D01*
X103179289Y-130429570D01*
X103045344Y-130210463D01*
X102871227Y-130021697D01*
X102663629Y-129870527D01*
X102430528Y-129762762D01*
X102329400Y-129732090D01*
X102127000Y-129855776D01*
X101873000Y-129855776D01*
X101670600Y-129732090D01*
X101569472Y-129762762D01*
X101336371Y-129870527D01*
X101203119Y-129967559D01*
X101126185Y-129873815D01*
X101029494Y-129794463D01*
X100919180Y-129735498D01*
X100799482Y-129699188D01*
X100675000Y-129686928D01*
X99325000Y-129686928D01*
X99200518Y-129699188D01*
X99080820Y-129735498D01*
X98970506Y-129794463D01*
X98873815Y-129873815D01*
X98794463Y-129970506D01*
X98735498Y-130080820D01*
X98699188Y-130200518D01*
X98686928Y-130325000D01*
X98686928Y-131675000D01*
X98699188Y-131799482D01*
X98735498Y-131919180D01*
X98794463Y-132029494D01*
X98873815Y-132126185D01*
X98970506Y-132205537D01*
X99080820Y-132264502D01*
X99200518Y-132300812D01*
X99325000Y-132313072D01*
X100675000Y-132313072D01*
X100692998Y-132311299D01*
X100718483Y-132336785D01*
X100556149Y-132386028D01*
X100402613Y-132468095D01*
X100268038Y-132578538D01*
X100157595Y-132713113D01*
X100075528Y-132866649D01*
X100026159Y-133029399D01*
X99933582Y-132979916D01*
X99785745Y-132935071D01*
X99632000Y-132919928D01*
X97899561Y-132919928D01*
X97835756Y-132877295D01*
X97647398Y-132799274D01*
X97447439Y-132759500D01*
X97243561Y-132759500D01*
X97043602Y-132799274D01*
X96855244Y-132877295D01*
X96760001Y-132940934D01*
X96760001Y-130102322D01*
X96763677Y-130064999D01*
X96760001Y-130027677D01*
X96760001Y-130027666D01*
X96749004Y-129916013D01*
X96705547Y-129772752D01*
X96634975Y-129640723D01*
X96593348Y-129590000D01*
X108560943Y-129590000D01*
X108561384Y-130145659D01*
G37*
X108561384Y-130145659D02*
X108562325Y-130155131D01*
X108563481Y-130195606D01*
X108567467Y-130226997D01*
X108568198Y-130258622D01*
X108569417Y-130268108D01*
X108669044Y-131002636D01*
X108683356Y-131063067D01*
X108696815Y-131123656D01*
X108699854Y-131132725D01*
X108940253Y-131833911D01*
X108966017Y-131890383D01*
X108991002Y-131947234D01*
X108995744Y-131955540D01*
X109367760Y-132596679D01*
X109404025Y-132647102D01*
X109439554Y-132697986D01*
X109445818Y-132705213D01*
X109935280Y-133261883D01*
X109980671Y-133304323D01*
X110025384Y-133347315D01*
X110032933Y-133353187D01*
X110621197Y-133804185D01*
X110673920Y-133836971D01*
X110726179Y-133870490D01*
X110734725Y-133874784D01*
X111399386Y-134202932D01*
X111457500Y-134224863D01*
X111515246Y-134247582D01*
X111524463Y-134250135D01*
X112240202Y-134442933D01*
X112301413Y-134453150D01*
X112362530Y-134464230D01*
X112372065Y-134464943D01*
X112372067Y-134464943D01*
X113101117Y-134514336D01*
X113124070Y-134516604D01*
X115685101Y-134517390D01*
X115685100Y-146656428D01*
X113994667Y-146656428D01*
X113870185Y-146668688D01*
X113750487Y-146704998D01*
X113640173Y-146763963D01*
X113543482Y-146843315D01*
X113533000Y-146856087D01*
X113522518Y-146843315D01*
X113425827Y-146763963D01*
X113315513Y-146704998D01*
X113195815Y-146668688D01*
X113071333Y-146656428D01*
X111224667Y-146656428D01*
X111100185Y-146668688D01*
X110980487Y-146704998D01*
X110870173Y-146763963D01*
X110773482Y-146843315D01*
X110763000Y-146856087D01*
X110752518Y-146843315D01*
X110655827Y-146763963D01*
X110545513Y-146704998D01*
X110425815Y-146668688D01*
X110301333Y-146656428D01*
X108454667Y-146656428D01*
X108330185Y-146668688D01*
X108210487Y-146704998D01*
X108100173Y-146763963D01*
X108003482Y-146843315D01*
X107993000Y-146856087D01*
X107982518Y-146843315D01*
X107885827Y-146763963D01*
X107775513Y-146704998D01*
X107655815Y-146668688D01*
X107531333Y-146656428D01*
X105684667Y-146656428D01*
X105560185Y-146668688D01*
X105440487Y-146704998D01*
X105330173Y-146763963D01*
X105233482Y-146843315D01*
X105223000Y-146856087D01*
X105212518Y-146843315D01*
X105115827Y-146763963D01*
X105005513Y-146704998D01*
X104885815Y-146668688D01*
X104761333Y-146656428D01*
X103027229Y-146656428D01*
X102989517Y-146618715D01*
X103151851Y-146569472D01*
X103305387Y-146487405D01*
X103439962Y-146376962D01*
X103510842Y-146290595D01*
X103544463Y-146353494D01*
X103623815Y-146450185D01*
X103720506Y-146529537D01*
X103830820Y-146588502D01*
X103950518Y-146624812D01*
X104075000Y-146637072D01*
X104489250Y-146634000D01*
X104648000Y-146475250D01*
X104648000Y-145551000D01*
X104628000Y-145551000D01*
X104628000Y-145297000D01*
X104648000Y-145297000D01*
X104648000Y-145277000D01*
X104902000Y-145277000D01*
X104902000Y-145297000D01*
X104922000Y-145297000D01*
X104922000Y-145551000D01*
X104902000Y-145551000D01*
X104902000Y-146475250D01*
X105060750Y-146634000D01*
X105475000Y-146637072D01*
X105599482Y-146624812D01*
X105719180Y-146588502D01*
X105829494Y-146529537D01*
X105926185Y-146450185D01*
X106005537Y-146353494D01*
X106064502Y-146243180D01*
X106100812Y-146123482D01*
X106103393Y-146097280D01*
X106206649Y-146152472D01*
X106373245Y-146203008D01*
X106546499Y-146220072D01*
X107621501Y-146220072D01*
X107794755Y-146203008D01*
X107961351Y-146152472D01*
X108114887Y-146070405D01*
X108249462Y-145959962D01*
X108359905Y-145825387D01*
X108441972Y-145671851D01*
X108469227Y-145582000D01*
X108533428Y-145582000D01*
X108545688Y-145706482D01*
X108581998Y-145826180D01*
X108640963Y-145936494D01*
X108720315Y-146033185D01*
X108817006Y-146112537D01*
X108927320Y-146171502D01*
X109047018Y-146207812D01*
X109171500Y-146220072D01*
X109673250Y-146217000D01*
X109832000Y-146058250D01*
X109832000Y-145034000D01*
X110086000Y-145034000D01*
X110086000Y-146058250D01*
X110244750Y-146217000D01*
X110746500Y-146220072D01*
X110870982Y-146207812D01*
X110990680Y-146171502D01*
X111100994Y-146112537D01*
X111197685Y-146033185D01*
X111277037Y-145936494D01*
X111336002Y-145826180D01*
X111372312Y-145706482D01*
X111384572Y-145582000D01*
X111381500Y-145192750D01*
X111222750Y-145034000D01*
X110086000Y-145034000D01*
X109832000Y-145034000D01*
X108695250Y-145034000D01*
X108536500Y-145192750D01*
X108533428Y-145582000D01*
X108469227Y-145582000D01*
X108492508Y-145505255D01*
X108509572Y-145332001D01*
X108509572Y-144481999D01*
X108492508Y-144308745D01*
X108441972Y-144142149D01*
X108359905Y-143988613D01*
X108291299Y-143905016D01*
X108413245Y-143942008D01*
X108586499Y-143959072D01*
X108597364Y-143959072D01*
X108581998Y-143987820D01*
X108545688Y-144107518D01*
X108533428Y-144232000D01*
X108536500Y-144621250D01*
X108695250Y-144780000D01*
X109832000Y-144780000D01*
X109832000Y-143755750D01*
X110086000Y-143755750D01*
X110086000Y-144780000D01*
X111222750Y-144780000D01*
X111381500Y-144621250D01*
X111384572Y-144232000D01*
X111372312Y-144107518D01*
X111336002Y-143987820D01*
X111277037Y-143877506D01*
X111197685Y-143780815D01*
X111100994Y-143701463D01*
X110990680Y-143642498D01*
X110870982Y-143606188D01*
X110746500Y-143593928D01*
X110244750Y-143597000D01*
X110086000Y-143755750D01*
X109832000Y-143755750D01*
X109815442Y-143739192D01*
X109864462Y-143698962D01*
X109974905Y-143564387D01*
X110056972Y-143410851D01*
X110107508Y-143244255D01*
X110124572Y-143071001D01*
X110124572Y-142482730D01*
X110470003Y-142137299D01*
X110499001Y-142113501D01*
X110593974Y-141997776D01*
X110664546Y-141865747D01*
X110708003Y-141722486D01*
X110719000Y-141610833D01*
X110719000Y-141610825D01*
X110722676Y-141573500D01*
X110719000Y-141536175D01*
X110719000Y-141362070D01*
X110836351Y-141326472D01*
X110989887Y-141244405D01*
X111124462Y-141133962D01*
X111234905Y-140999387D01*
X111316972Y-140845851D01*
X111367508Y-140679255D01*
X111384572Y-140506001D01*
X111384572Y-139655999D01*
X111367508Y-139482745D01*
X111316972Y-139316149D01*
X111234905Y-139162613D01*
X111124462Y-139028038D01*
X110989887Y-138917595D01*
X110836351Y-138835528D01*
X110669755Y-138784992D01*
X110496501Y-138767928D01*
X109421499Y-138767928D01*
X109248245Y-138784992D01*
X109081649Y-138835528D01*
X108928113Y-138917595D01*
X108793538Y-139028038D01*
X108760800Y-139067929D01*
X108760800Y-138806127D01*
X108790651Y-138797072D01*
X108944187Y-138715005D01*
X109078762Y-138604562D01*
X109189205Y-138469987D01*
X109271272Y-138316451D01*
X109321808Y-138149855D01*
X109338872Y-137976601D01*
X109338872Y-137326599D01*
X109321808Y-137153345D01*
X109271272Y-136986749D01*
X109189205Y-136833213D01*
X109078762Y-136698638D01*
X108990984Y-136626600D01*
X109078762Y-136554562D01*
X109189205Y-136419987D01*
X109271272Y-136266451D01*
X109321808Y-136099855D01*
X109338872Y-135926601D01*
X109338872Y-135276599D01*
X109321808Y-135103345D01*
X109271272Y-134936749D01*
X109189205Y-134783213D01*
X109078762Y-134648638D01*
X108944187Y-134538195D01*
X108790651Y-134456128D01*
X108760800Y-134447073D01*
X108760800Y-134441423D01*
X108764476Y-134404100D01*
X108760800Y-134366777D01*
X108760800Y-134366767D01*
X108749803Y-134255114D01*
X108706346Y-134111853D01*
X108669586Y-134043081D01*
X108635774Y-133979823D01*
X108564599Y-133893097D01*
X108540801Y-133864099D01*
X108511803Y-133840301D01*
X107770200Y-133098699D01*
X107770200Y-132292501D01*
X107809682Y-132288612D01*
X107929380Y-132252302D01*
X108039694Y-132193337D01*
X108136385Y-132113985D01*
X108215737Y-132017294D01*
X108274702Y-131906980D01*
X108311012Y-131787282D01*
X108323272Y-131662800D01*
X108323272Y-130312800D01*
X108311012Y-130188318D01*
X108274702Y-130068620D01*
X108215737Y-129958306D01*
X108136385Y-129861615D01*
X108039694Y-129782263D01*
X107929380Y-129723298D01*
X107809682Y-129686988D01*
X107685200Y-129674728D01*
X106335200Y-129674728D01*
X106210718Y-129686988D01*
X106091020Y-129723298D01*
X105980706Y-129782263D01*
X105884015Y-129861615D01*
X105807081Y-129955359D01*
X105673829Y-129858327D01*
X105440728Y-129750562D01*
X105339600Y-129719890D01*
X105137200Y-129843576D01*
X105137200Y-130860800D01*
X105157200Y-130860800D01*
X105157200Y-131114800D01*
X105137200Y-131114800D01*
X105137200Y-132132024D01*
X105339600Y-132255710D01*
X105440728Y-132225038D01*
X105673829Y-132117273D01*
X105807081Y-132020241D01*
X105884015Y-132113985D01*
X105980706Y-132193337D01*
X106091020Y-132252302D01*
X106210718Y-132288612D01*
X106250200Y-132292501D01*
X106250200Y-133341002D01*
X106147351Y-133286028D01*
X105980755Y-133235492D01*
X105807501Y-133218428D01*
X105157499Y-133218428D01*
X104984245Y-133235492D01*
X104817649Y-133286028D01*
X104664113Y-133368095D01*
X104529538Y-133478538D01*
X104457500Y-133566316D01*
X104385462Y-133478538D01*
X104250887Y-133368095D01*
X104097351Y-133286028D01*
X103930755Y-133235492D01*
X103757501Y-133218428D01*
X103749730Y-133218428D01*
X102661677Y-132130375D01*
X102663629Y-132129473D01*
X102871227Y-131978303D01*
X103045344Y-131789537D01*
X103179289Y-131570430D01*
X103267915Y-131329401D01*
X103260512Y-131317201D01*
X103742285Y-131317201D01*
X103830911Y-131558230D01*
X103964856Y-131777337D01*
X104138973Y-131966103D01*
X104346571Y-132117273D01*
X104579672Y-132225038D01*
X104680800Y-132255710D01*
X104883200Y-132132024D01*
X104883200Y-131114800D01*
X103865115Y-131114800D01*
X103742285Y-131317201D01*
X103260512Y-131317201D01*
X103145085Y-131127000D01*
X102127000Y-131127000D01*
X102127000Y-131147000D01*
X101873000Y-131147000D01*
X101873000Y-131127000D01*
X101853000Y-131127000D01*
X101853000Y-130873000D01*
X101873000Y-130873000D01*
X101873000Y-129855776D01*
X102127000Y-129855776D01*
X102127000Y-130873000D01*
X103145085Y-130873000D01*
X103267915Y-130670599D01*
X103263430Y-130658399D01*
X103742285Y-130658399D01*
X103865115Y-130860800D01*
X104883200Y-130860800D01*
X104883200Y-129843576D01*
X104680800Y-129719890D01*
X104579672Y-129750562D01*
X104346571Y-129858327D01*
X104138973Y-130009497D01*
X103964856Y-130198263D01*
X103830911Y-130417370D01*
X103742285Y-130658399D01*
X103263430Y-130658399D01*
X103179289Y-130429570D01*
X103045344Y-130210463D01*
X102871227Y-130021697D01*
X102663629Y-129870527D01*
X102430528Y-129762762D01*
X102329400Y-129732090D01*
X102127000Y-129855776D01*
X101873000Y-129855776D01*
X101670600Y-129732090D01*
X101569472Y-129762762D01*
X101336371Y-129870527D01*
X101203119Y-129967559D01*
X101126185Y-129873815D01*
X101029494Y-129794463D01*
X100919180Y-129735498D01*
X100799482Y-129699188D01*
X100675000Y-129686928D01*
X99325000Y-129686928D01*
X99200518Y-129699188D01*
X99080820Y-129735498D01*
X98970506Y-129794463D01*
X98873815Y-129873815D01*
X98794463Y-129970506D01*
X98735498Y-130080820D01*
X98699188Y-130200518D01*
X98686928Y-130325000D01*
X98686928Y-131675000D01*
X98699188Y-131799482D01*
X98735498Y-131919180D01*
X98794463Y-132029494D01*
X98873815Y-132126185D01*
X98970506Y-132205537D01*
X99080820Y-132264502D01*
X99200518Y-132300812D01*
X99325000Y-132313072D01*
X100675000Y-132313072D01*
X100692998Y-132311299D01*
X100718483Y-132336785D01*
X100556149Y-132386028D01*
X100402613Y-132468095D01*
X100268038Y-132578538D01*
X100157595Y-132713113D01*
X100075528Y-132866649D01*
X100026159Y-133029399D01*
X99933582Y-132979916D01*
X99785745Y-132935071D01*
X99632000Y-132919928D01*
X97899561Y-132919928D01*
X97835756Y-132877295D01*
X97647398Y-132799274D01*
X97447439Y-132759500D01*
X97243561Y-132759500D01*
X97043602Y-132799274D01*
X96855244Y-132877295D01*
X96760001Y-132940934D01*
X96760001Y-130102322D01*
X96763677Y-130064999D01*
X96760001Y-130027677D01*
X96760001Y-130027666D01*
X96749004Y-129916013D01*
X96705547Y-129772752D01*
X96634975Y-129640723D01*
X96593348Y-129590000D01*
X108560943Y-129590000D01*
X108561384Y-130145659D01*
G36*
X97255750Y-142621000D02*
G01*
X98630000Y-142621000D01*
X98630000Y-142601000D01*
X98884000Y-142601000D01*
X98884000Y-142621000D01*
X98904000Y-142621000D01*
X98904000Y-142875000D01*
X98884000Y-142875000D01*
X98884000Y-142895000D01*
X98630000Y-142895000D01*
X98630000Y-142875000D01*
X97255750Y-142875000D01*
X97097000Y-143033750D01*
X97093928Y-143048000D01*
X97094218Y-143050944D01*
X96916602Y-143086274D01*
X96728244Y-143164295D01*
X96558726Y-143277563D01*
X96414563Y-143421726D01*
X96301295Y-143591244D01*
X96223274Y-143779602D01*
X96183500Y-143979561D01*
X96183500Y-144183439D01*
X96223274Y-144383398D01*
X96301295Y-144571756D01*
X96414563Y-144741274D01*
X96558726Y-144885437D01*
X96728244Y-144998705D01*
X96916602Y-145076726D01*
X97116561Y-145116500D01*
X97211250Y-145116500D01*
X97255750Y-145161000D01*
X98630000Y-145161000D01*
X98630000Y-145141000D01*
X98884000Y-145141000D01*
X98884000Y-145161000D01*
X98904000Y-145161000D01*
X98904000Y-145415000D01*
X98884000Y-145415000D01*
X98884000Y-145435000D01*
X98630000Y-145435000D01*
X98630000Y-145415000D01*
X97255750Y-145415000D01*
X97097000Y-145573750D01*
X97093928Y-145588000D01*
X97106188Y-145712482D01*
X97142498Y-145832180D01*
X97201463Y-145942494D01*
X97280815Y-146039185D01*
X97377506Y-146118537D01*
X97487820Y-146177502D01*
X97607518Y-146213812D01*
X97732000Y-146226072D01*
X98471250Y-146223000D01*
X98629998Y-146064252D01*
X98629998Y-146223000D01*
X98637698Y-146223000D01*
X98204271Y-146656428D01*
X97374667Y-146656428D01*
X97250185Y-146668688D01*
X97130487Y-146704998D01*
X97020173Y-146763963D01*
X96923482Y-146843315D01*
X96913000Y-146856087D01*
X96902518Y-146843315D01*
X96805827Y-146763963D01*
X96695513Y-146704998D01*
X96575815Y-146668688D01*
X96451333Y-146656428D01*
X96073500Y-146656428D01*
X96073500Y-143570801D01*
X97139526Y-142504776D01*
X97255750Y-142621000D01*
G37*
X97255750Y-142621000D02*
X98630000Y-142621000D01*
X98630000Y-142601000D01*
X98884000Y-142601000D01*
X98884000Y-142621000D01*
X98904000Y-142621000D01*
X98904000Y-142875000D01*
X98884000Y-142875000D01*
X98884000Y-142895000D01*
X98630000Y-142895000D01*
X98630000Y-142875000D01*
X97255750Y-142875000D01*
X97097000Y-143033750D01*
X97093928Y-143048000D01*
X97094218Y-143050944D01*
X96916602Y-143086274D01*
X96728244Y-143164295D01*
X96558726Y-143277563D01*
X96414563Y-143421726D01*
X96301295Y-143591244D01*
X96223274Y-143779602D01*
X96183500Y-143979561D01*
X96183500Y-144183439D01*
X96223274Y-144383398D01*
X96301295Y-144571756D01*
X96414563Y-144741274D01*
X96558726Y-144885437D01*
X96728244Y-144998705D01*
X96916602Y-145076726D01*
X97116561Y-145116500D01*
X97211250Y-145116500D01*
X97255750Y-145161000D01*
X98630000Y-145161000D01*
X98630000Y-145141000D01*
X98884000Y-145141000D01*
X98884000Y-145161000D01*
X98904000Y-145161000D01*
X98904000Y-145415000D01*
X98884000Y-145415000D01*
X98884000Y-145435000D01*
X98630000Y-145435000D01*
X98630000Y-145415000D01*
X97255750Y-145415000D01*
X97097000Y-145573750D01*
X97093928Y-145588000D01*
X97106188Y-145712482D01*
X97142498Y-145832180D01*
X97201463Y-145942494D01*
X97280815Y-146039185D01*
X97377506Y-146118537D01*
X97487820Y-146177502D01*
X97607518Y-146213812D01*
X97732000Y-146226072D01*
X98471250Y-146223000D01*
X98629998Y-146064252D01*
X98629998Y-146223000D01*
X98637698Y-146223000D01*
X98204271Y-146656428D01*
X97374667Y-146656428D01*
X97250185Y-146668688D01*
X97130487Y-146704998D01*
X97020173Y-146763963D01*
X96923482Y-146843315D01*
X96913000Y-146856087D01*
X96902518Y-146843315D01*
X96805827Y-146763963D01*
X96695513Y-146704998D01*
X96575815Y-146668688D01*
X96451333Y-146656428D01*
X96073500Y-146656428D01*
X96073500Y-143570801D01*
X97139526Y-142504776D01*
X97255750Y-142621000D01*
G36*
X86051613Y-144582405D02*
G01*
X86205149Y-144664472D01*
X86371745Y-144715008D01*
X86544999Y-144732072D01*
X87445001Y-144732072D01*
X87618255Y-144715008D01*
X87784851Y-144664472D01*
X87919592Y-144592451D01*
X87925730Y-144603936D01*
X87901463Y-144633506D01*
X87842498Y-144743820D01*
X87806188Y-144863518D01*
X87793928Y-144988000D01*
X87797000Y-145002250D01*
X87955750Y-145161000D01*
X89330000Y-145161000D01*
X89330000Y-145141000D01*
X89584000Y-145141000D01*
X89584000Y-145161000D01*
X89604000Y-145161000D01*
X89604000Y-145415000D01*
X89584000Y-145415000D01*
X89584000Y-146064250D01*
X89681724Y-146161974D01*
X89477003Y-146366696D01*
X89447999Y-146390499D01*
X89392871Y-146457674D01*
X89353026Y-146506224D01*
X89325365Y-146557974D01*
X89282454Y-146638254D01*
X89276941Y-146656428D01*
X89064667Y-146656428D01*
X88940185Y-146668688D01*
X88820487Y-146704998D01*
X88710173Y-146763963D01*
X88613482Y-146843315D01*
X88603000Y-146856087D01*
X88592518Y-146843315D01*
X88495827Y-146763963D01*
X88385513Y-146704998D01*
X88265815Y-146668688D01*
X88141333Y-146656428D01*
X87469730Y-146656428D01*
X86401302Y-145588000D01*
X87793928Y-145588000D01*
X87806188Y-145712482D01*
X87842498Y-145832180D01*
X87901463Y-145942494D01*
X87980815Y-146039185D01*
X88077506Y-146118537D01*
X88187820Y-146177502D01*
X88307518Y-146213812D01*
X88432000Y-146226072D01*
X89171250Y-146223000D01*
X89330000Y-146064250D01*
X89330000Y-145415000D01*
X87955750Y-145415000D01*
X87797000Y-145573750D01*
X87793928Y-145588000D01*
X86401302Y-145588000D01*
X85768999Y-144955698D01*
X85768999Y-144613160D01*
X85895099Y-144613160D01*
X86051243Y-144582101D01*
X86051613Y-144582405D01*
G37*
X86051613Y-144582405D02*
X86205149Y-144664472D01*
X86371745Y-144715008D01*
X86544999Y-144732072D01*
X87445001Y-144732072D01*
X87618255Y-144715008D01*
X87784851Y-144664472D01*
X87919592Y-144592451D01*
X87925730Y-144603936D01*
X87901463Y-144633506D01*
X87842498Y-144743820D01*
X87806188Y-144863518D01*
X87793928Y-144988000D01*
X87797000Y-145002250D01*
X87955750Y-145161000D01*
X89330000Y-145161000D01*
X89330000Y-145141000D01*
X89584000Y-145141000D01*
X89584000Y-145161000D01*
X89604000Y-145161000D01*
X89604000Y-145415000D01*
X89584000Y-145415000D01*
X89584000Y-146064250D01*
X89681724Y-146161974D01*
X89477003Y-146366696D01*
X89447999Y-146390499D01*
X89392871Y-146457674D01*
X89353026Y-146506224D01*
X89325365Y-146557974D01*
X89282454Y-146638254D01*
X89276941Y-146656428D01*
X89064667Y-146656428D01*
X88940185Y-146668688D01*
X88820487Y-146704998D01*
X88710173Y-146763963D01*
X88613482Y-146843315D01*
X88603000Y-146856087D01*
X88592518Y-146843315D01*
X88495827Y-146763963D01*
X88385513Y-146704998D01*
X88265815Y-146668688D01*
X88141333Y-146656428D01*
X87469730Y-146656428D01*
X86401302Y-145588000D01*
X87793928Y-145588000D01*
X87806188Y-145712482D01*
X87842498Y-145832180D01*
X87901463Y-145942494D01*
X87980815Y-146039185D01*
X88077506Y-146118537D01*
X88187820Y-146177502D01*
X88307518Y-146213812D01*
X88432000Y-146226072D01*
X89171250Y-146223000D01*
X89330000Y-146064250D01*
X89330000Y-145415000D01*
X87955750Y-145415000D01*
X87797000Y-145573750D01*
X87793928Y-145588000D01*
X86401302Y-145588000D01*
X85768999Y-144955698D01*
X85768999Y-144613160D01*
X85895099Y-144613160D01*
X86051243Y-144582101D01*
X86051613Y-144582405D01*
G36*
X92164923Y-132017544D02*
G01*
X92379482Y-132160907D01*
X92617887Y-132259658D01*
X92870976Y-132310000D01*
X93129024Y-132310000D01*
X93382113Y-132259658D01*
X93620518Y-132160907D01*
X93802513Y-132039303D01*
X93873815Y-132126185D01*
X93970506Y-132205537D01*
X94080820Y-132264502D01*
X94200518Y-132300812D01*
X94240001Y-132304701D01*
X94240000Y-134300445D01*
X94236324Y-134337768D01*
X94240000Y-134375090D01*
X94240000Y-134375100D01*
X94250997Y-134486753D01*
X94290810Y-134618000D01*
X94294454Y-134630014D01*
X94365026Y-134762044D01*
X94395289Y-134798919D01*
X94459999Y-134877769D01*
X94489003Y-134901572D01*
X97094959Y-137507529D01*
X97093928Y-137518000D01*
X97093928Y-137818000D01*
X97109071Y-137971745D01*
X97153916Y-138119582D01*
X97226742Y-138255829D01*
X97265454Y-138303000D01*
X97226742Y-138350171D01*
X97153916Y-138486418D01*
X97109071Y-138634255D01*
X97093928Y-138788000D01*
X97093928Y-139088000D01*
X97109071Y-139241745D01*
X97153916Y-139389582D01*
X97226742Y-139525829D01*
X97265454Y-139573000D01*
X97226742Y-139620171D01*
X97153916Y-139756418D01*
X97109071Y-139904255D01*
X97093928Y-140058000D01*
X97093928Y-140358000D01*
X97109071Y-140511745D01*
X97153916Y-140659582D01*
X97185141Y-140718000D01*
X97128825Y-140718000D01*
X97091500Y-140714324D01*
X97054175Y-140718000D01*
X97054167Y-140718000D01*
X96942514Y-140728997D01*
X96799253Y-140772454D01*
X96667224Y-140843026D01*
X96551499Y-140937999D01*
X96527701Y-140966997D01*
X94802503Y-142692196D01*
X94773499Y-142715999D01*
X94729184Y-142769998D01*
X94678526Y-142831724D01*
X94646617Y-142891422D01*
X94607954Y-142963754D01*
X94564497Y-143107015D01*
X94553500Y-143218668D01*
X94553500Y-143218678D01*
X94549824Y-143256000D01*
X94553500Y-143293323D01*
X94553501Y-146661467D01*
X94480185Y-146668688D01*
X94360487Y-146704998D01*
X94250173Y-146763963D01*
X94153482Y-146843315D01*
X94143000Y-146856087D01*
X94132518Y-146843315D01*
X94035827Y-146763963D01*
X93925513Y-146704998D01*
X93805815Y-146668688D01*
X93681333Y-146656428D01*
X92708000Y-146656428D01*
X92708000Y-145921712D01*
X92718509Y-145911203D01*
X92747512Y-145887401D01*
X92842485Y-145771676D01*
X92913057Y-145639647D01*
X92956514Y-145496386D01*
X92967511Y-145384733D01*
X92967511Y-145384723D01*
X92971187Y-145347400D01*
X92967511Y-145310077D01*
X92967511Y-140662657D01*
X92971187Y-140625332D01*
X92967511Y-140588007D01*
X92967511Y-140587999D01*
X92956514Y-140476346D01*
X92913057Y-140333085D01*
X92842485Y-140201056D01*
X92747512Y-140085331D01*
X92718514Y-140061533D01*
X91083983Y-138427003D01*
X91060180Y-138397999D01*
X90957050Y-138313363D01*
X90948546Y-138303000D01*
X90987258Y-138255829D01*
X91060084Y-138119582D01*
X91104929Y-137971745D01*
X91120072Y-137818000D01*
X91120072Y-137518000D01*
X91104929Y-137364255D01*
X91060084Y-137216418D01*
X90987258Y-137080171D01*
X90948546Y-137033000D01*
X90987258Y-136985829D01*
X91060084Y-136849582D01*
X91104929Y-136701745D01*
X91120072Y-136548000D01*
X91120072Y-136248000D01*
X91104929Y-136094255D01*
X91060084Y-135946418D01*
X90987258Y-135810171D01*
X90948546Y-135763000D01*
X90987258Y-135715829D01*
X91060084Y-135579582D01*
X91104929Y-135431745D01*
X91120072Y-135278000D01*
X91120072Y-134978000D01*
X91104929Y-134824255D01*
X91060084Y-134676418D01*
X90987258Y-134540171D01*
X90948546Y-134493000D01*
X90987258Y-134445829D01*
X91060084Y-134309582D01*
X91104929Y-134161745D01*
X91120072Y-134008000D01*
X91120072Y-133708000D01*
X91104929Y-133554255D01*
X91060084Y-133406418D01*
X91033367Y-133356435D01*
X91511003Y-132878799D01*
X91540001Y-132855001D01*
X91634974Y-132739276D01*
X91705546Y-132607247D01*
X91749003Y-132463986D01*
X91760000Y-132352333D01*
X91763677Y-132315000D01*
X91760000Y-132277667D01*
X91760000Y-132067709D01*
X91835077Y-132017544D01*
X92000000Y-131852621D01*
X92164923Y-132017544D01*
G37*
X92164923Y-132017544D02*
X92379482Y-132160907D01*
X92617887Y-132259658D01*
X92870976Y-132310000D01*
X93129024Y-132310000D01*
X93382113Y-132259658D01*
X93620518Y-132160907D01*
X93802513Y-132039303D01*
X93873815Y-132126185D01*
X93970506Y-132205537D01*
X94080820Y-132264502D01*
X94200518Y-132300812D01*
X94240001Y-132304701D01*
X94240000Y-134300445D01*
X94236324Y-134337768D01*
X94240000Y-134375090D01*
X94240000Y-134375100D01*
X94250997Y-134486753D01*
X94290810Y-134618000D01*
X94294454Y-134630014D01*
X94365026Y-134762044D01*
X94395289Y-134798919D01*
X94459999Y-134877769D01*
X94489003Y-134901572D01*
X97094959Y-137507529D01*
X97093928Y-137518000D01*
X97093928Y-137818000D01*
X97109071Y-137971745D01*
X97153916Y-138119582D01*
X97226742Y-138255829D01*
X97265454Y-138303000D01*
X97226742Y-138350171D01*
X97153916Y-138486418D01*
X97109071Y-138634255D01*
X97093928Y-138788000D01*
X97093928Y-139088000D01*
X97109071Y-139241745D01*
X97153916Y-139389582D01*
X97226742Y-139525829D01*
X97265454Y-139573000D01*
X97226742Y-139620171D01*
X97153916Y-139756418D01*
X97109071Y-139904255D01*
X97093928Y-140058000D01*
X97093928Y-140358000D01*
X97109071Y-140511745D01*
X97153916Y-140659582D01*
X97185141Y-140718000D01*
X97128825Y-140718000D01*
X97091500Y-140714324D01*
X97054175Y-140718000D01*
X97054167Y-140718000D01*
X96942514Y-140728997D01*
X96799253Y-140772454D01*
X96667224Y-140843026D01*
X96551499Y-140937999D01*
X96527701Y-140966997D01*
X94802503Y-142692196D01*
X94773499Y-142715999D01*
X94729184Y-142769998D01*
X94678526Y-142831724D01*
X94646617Y-142891422D01*
X94607954Y-142963754D01*
X94564497Y-143107015D01*
X94553500Y-143218668D01*
X94553500Y-143218678D01*
X94549824Y-143256000D01*
X94553500Y-143293323D01*
X94553501Y-146661467D01*
X94480185Y-146668688D01*
X94360487Y-146704998D01*
X94250173Y-146763963D01*
X94153482Y-146843315D01*
X94143000Y-146856087D01*
X94132518Y-146843315D01*
X94035827Y-146763963D01*
X93925513Y-146704998D01*
X93805815Y-146668688D01*
X93681333Y-146656428D01*
X92708000Y-146656428D01*
X92708000Y-145921712D01*
X92718509Y-145911203D01*
X92747512Y-145887401D01*
X92842485Y-145771676D01*
X92913057Y-145639647D01*
X92956514Y-145496386D01*
X92967511Y-145384733D01*
X92967511Y-145384723D01*
X92971187Y-145347400D01*
X92967511Y-145310077D01*
X92967511Y-140662657D01*
X92971187Y-140625332D01*
X92967511Y-140588007D01*
X92967511Y-140587999D01*
X92956514Y-140476346D01*
X92913057Y-140333085D01*
X92842485Y-140201056D01*
X92747512Y-140085331D01*
X92718514Y-140061533D01*
X91083983Y-138427003D01*
X91060180Y-138397999D01*
X90957050Y-138313363D01*
X90948546Y-138303000D01*
X90987258Y-138255829D01*
X91060084Y-138119582D01*
X91104929Y-137971745D01*
X91120072Y-137818000D01*
X91120072Y-137518000D01*
X91104929Y-137364255D01*
X91060084Y-137216418D01*
X90987258Y-137080171D01*
X90948546Y-137033000D01*
X90987258Y-136985829D01*
X91060084Y-136849582D01*
X91104929Y-136701745D01*
X91120072Y-136548000D01*
X91120072Y-136248000D01*
X91104929Y-136094255D01*
X91060084Y-135946418D01*
X90987258Y-135810171D01*
X90948546Y-135763000D01*
X90987258Y-135715829D01*
X91060084Y-135579582D01*
X91104929Y-135431745D01*
X91120072Y-135278000D01*
X91120072Y-134978000D01*
X91104929Y-134824255D01*
X91060084Y-134676418D01*
X90987258Y-134540171D01*
X90948546Y-134493000D01*
X90987258Y-134445829D01*
X91060084Y-134309582D01*
X91104929Y-134161745D01*
X91120072Y-134008000D01*
X91120072Y-133708000D01*
X91104929Y-133554255D01*
X91060084Y-133406418D01*
X91033367Y-133356435D01*
X91511003Y-132878799D01*
X91540001Y-132855001D01*
X91634974Y-132739276D01*
X91705546Y-132607247D01*
X91749003Y-132463986D01*
X91760000Y-132352333D01*
X91763677Y-132315000D01*
X91760000Y-132277667D01*
X91760000Y-132067709D01*
X91835077Y-132017544D01*
X92000000Y-131852621D01*
X92164923Y-132017544D01*
G36*
X93217583Y-129707615D02*
G01*
X93129024Y-129690000D01*
X92870976Y-129690000D01*
X92617887Y-129740342D01*
X92379482Y-129839093D01*
X92164923Y-129982456D01*
X92000000Y-130147379D01*
X91835077Y-129982456D01*
X91620518Y-129839093D01*
X91382113Y-129740342D01*
X91129024Y-129690000D01*
X90870976Y-129690000D01*
X90617887Y-129740342D01*
X90379482Y-129839093D01*
X90164923Y-129982456D01*
X89982456Y-130164923D01*
X89839093Y-130379482D01*
X89740342Y-130617887D01*
X89690000Y-130870976D01*
X89690000Y-131129024D01*
X89740342Y-131382113D01*
X89839093Y-131620518D01*
X89982456Y-131835077D01*
X90164923Y-132017544D01*
X90199530Y-132040668D01*
X89320271Y-132919928D01*
X88582000Y-132919928D01*
X88428255Y-132935071D01*
X88280418Y-132979916D01*
X88144171Y-133052742D01*
X88024749Y-133150749D01*
X87926742Y-133270171D01*
X87853916Y-133406418D01*
X87809071Y-133554255D01*
X87793928Y-133708000D01*
X87793928Y-134008000D01*
X87809071Y-134161745D01*
X87853916Y-134309582D01*
X87926742Y-134445829D01*
X87965454Y-134493000D01*
X87926742Y-134540171D01*
X87908350Y-134574580D01*
X87891999Y-134587999D01*
X87868201Y-134616997D01*
X86489507Y-135995692D01*
X86460509Y-136019490D01*
X86436711Y-136048488D01*
X86436710Y-136048489D01*
X86365535Y-136135215D01*
X86294963Y-136267245D01*
X86265227Y-136365276D01*
X86251507Y-136410505D01*
X86243997Y-136486753D01*
X86236833Y-136559491D01*
X86240510Y-136596823D01*
X86240509Y-138873099D01*
X84902007Y-140211602D01*
X84873009Y-140235400D01*
X84849211Y-140264398D01*
X84849210Y-140264399D01*
X84778035Y-140351125D01*
X84707463Y-140483155D01*
X84683017Y-140563746D01*
X84664007Y-140626415D01*
X84656006Y-140707646D01*
X84649333Y-140775401D01*
X84653010Y-140812733D01*
X84653009Y-141794099D01*
X84559059Y-141888050D01*
X84556500Y-141043250D01*
X84397750Y-140884500D01*
X83248500Y-140884500D01*
X83248500Y-140904500D01*
X82994500Y-140904500D01*
X82994500Y-140884500D01*
X81845250Y-140884500D01*
X81686500Y-141043250D01*
X81683428Y-142057500D01*
X81695688Y-142181982D01*
X81731998Y-142301680D01*
X81790963Y-142411994D01*
X81870315Y-142508685D01*
X81967006Y-142588037D01*
X82020313Y-142616531D01*
X81943538Y-142679538D01*
X81833095Y-142814114D01*
X81751028Y-142967650D01*
X81700492Y-143134246D01*
X81683428Y-143307500D01*
X81683428Y-145407500D01*
X81700492Y-145580754D01*
X81715077Y-145628833D01*
X81708898Y-145626274D01*
X81508939Y-145586500D01*
X81305061Y-145586500D01*
X81105102Y-145626274D01*
X81076000Y-145638329D01*
X81076000Y-139457500D01*
X81683428Y-139457500D01*
X81686500Y-140471750D01*
X81845250Y-140630500D01*
X82994500Y-140630500D01*
X82994500Y-138981250D01*
X83248500Y-138981250D01*
X83248500Y-140630500D01*
X84397750Y-140630500D01*
X84556500Y-140471750D01*
X84559572Y-139457500D01*
X84547312Y-139333018D01*
X84511002Y-139213320D01*
X84452037Y-139103006D01*
X84372685Y-139006315D01*
X84275994Y-138926963D01*
X84165680Y-138867998D01*
X84045982Y-138831688D01*
X83921500Y-138819428D01*
X83407250Y-138822500D01*
X83248500Y-138981250D01*
X82994500Y-138981250D01*
X82835750Y-138822500D01*
X82321500Y-138819428D01*
X82197018Y-138831688D01*
X82077320Y-138867998D01*
X81967006Y-138926963D01*
X81870315Y-139006315D01*
X81790963Y-139103006D01*
X81731998Y-139213320D01*
X81695688Y-139333018D01*
X81683428Y-139457500D01*
X81076000Y-139457500D01*
X81076000Y-134593799D01*
X83155146Y-134593798D01*
X83164877Y-134592840D01*
X83205635Y-134591675D01*
X83237026Y-134587689D01*
X83268651Y-134586958D01*
X83278137Y-134585739D01*
X84012665Y-134486112D01*
X84073096Y-134471800D01*
X84133685Y-134458341D01*
X84142752Y-134455303D01*
X84142758Y-134455301D01*
X84843940Y-134214903D01*
X84900412Y-134189139D01*
X84957263Y-134164154D01*
X84965569Y-134159412D01*
X85606708Y-133787396D01*
X85657131Y-133751131D01*
X85708015Y-133715602D01*
X85715242Y-133709338D01*
X86271912Y-133219876D01*
X86314352Y-133174485D01*
X86357344Y-133129772D01*
X86363216Y-133122223D01*
X86814214Y-132533959D01*
X86847000Y-132481236D01*
X86880519Y-132428977D01*
X86884813Y-132420431D01*
X87212961Y-131755770D01*
X87234892Y-131697656D01*
X87257611Y-131639910D01*
X87260164Y-131630693D01*
X87452962Y-130914954D01*
X87463179Y-130853743D01*
X87474259Y-130792626D01*
X87474972Y-130783089D01*
X87524351Y-130054245D01*
X87526614Y-130031475D01*
X87527000Y-129590000D01*
X93335198Y-129590000D01*
X93217583Y-129707615D01*
G37*
X93217583Y-129707615D02*
X93129024Y-129690000D01*
X92870976Y-129690000D01*
X92617887Y-129740342D01*
X92379482Y-129839093D01*
X92164923Y-129982456D01*
X92000000Y-130147379D01*
X91835077Y-129982456D01*
X91620518Y-129839093D01*
X91382113Y-129740342D01*
X91129024Y-129690000D01*
X90870976Y-129690000D01*
X90617887Y-129740342D01*
X90379482Y-129839093D01*
X90164923Y-129982456D01*
X89982456Y-130164923D01*
X89839093Y-130379482D01*
X89740342Y-130617887D01*
X89690000Y-130870976D01*
X89690000Y-131129024D01*
X89740342Y-131382113D01*
X89839093Y-131620518D01*
X89982456Y-131835077D01*
X90164923Y-132017544D01*
X90199530Y-132040668D01*
X89320271Y-132919928D01*
X88582000Y-132919928D01*
X88428255Y-132935071D01*
X88280418Y-132979916D01*
X88144171Y-133052742D01*
X88024749Y-133150749D01*
X87926742Y-133270171D01*
X87853916Y-133406418D01*
X87809071Y-133554255D01*
X87793928Y-133708000D01*
X87793928Y-134008000D01*
X87809071Y-134161745D01*
X87853916Y-134309582D01*
X87926742Y-134445829D01*
X87965454Y-134493000D01*
X87926742Y-134540171D01*
X87908350Y-134574580D01*
X87891999Y-134587999D01*
X87868201Y-134616997D01*
X86489507Y-135995692D01*
X86460509Y-136019490D01*
X86436711Y-136048488D01*
X86436710Y-136048489D01*
X86365535Y-136135215D01*
X86294963Y-136267245D01*
X86265227Y-136365276D01*
X86251507Y-136410505D01*
X86243997Y-136486753D01*
X86236833Y-136559491D01*
X86240510Y-136596823D01*
X86240509Y-138873099D01*
X84902007Y-140211602D01*
X84873009Y-140235400D01*
X84849211Y-140264398D01*
X84849210Y-140264399D01*
X84778035Y-140351125D01*
X84707463Y-140483155D01*
X84683017Y-140563746D01*
X84664007Y-140626415D01*
X84656006Y-140707646D01*
X84649333Y-140775401D01*
X84653010Y-140812733D01*
X84653009Y-141794099D01*
X84559059Y-141888050D01*
X84556500Y-141043250D01*
X84397750Y-140884500D01*
X83248500Y-140884500D01*
X83248500Y-140904500D01*
X82994500Y-140904500D01*
X82994500Y-140884500D01*
X81845250Y-140884500D01*
X81686500Y-141043250D01*
X81683428Y-142057500D01*
X81695688Y-142181982D01*
X81731998Y-142301680D01*
X81790963Y-142411994D01*
X81870315Y-142508685D01*
X81967006Y-142588037D01*
X82020313Y-142616531D01*
X81943538Y-142679538D01*
X81833095Y-142814114D01*
X81751028Y-142967650D01*
X81700492Y-143134246D01*
X81683428Y-143307500D01*
X81683428Y-145407500D01*
X81700492Y-145580754D01*
X81715077Y-145628833D01*
X81708898Y-145626274D01*
X81508939Y-145586500D01*
X81305061Y-145586500D01*
X81105102Y-145626274D01*
X81076000Y-145638329D01*
X81076000Y-139457500D01*
X81683428Y-139457500D01*
X81686500Y-140471750D01*
X81845250Y-140630500D01*
X82994500Y-140630500D01*
X82994500Y-138981250D01*
X83248500Y-138981250D01*
X83248500Y-140630500D01*
X84397750Y-140630500D01*
X84556500Y-140471750D01*
X84559572Y-139457500D01*
X84547312Y-139333018D01*
X84511002Y-139213320D01*
X84452037Y-139103006D01*
X84372685Y-139006315D01*
X84275994Y-138926963D01*
X84165680Y-138867998D01*
X84045982Y-138831688D01*
X83921500Y-138819428D01*
X83407250Y-138822500D01*
X83248500Y-138981250D01*
X82994500Y-138981250D01*
X82835750Y-138822500D01*
X82321500Y-138819428D01*
X82197018Y-138831688D01*
X82077320Y-138867998D01*
X81967006Y-138926963D01*
X81870315Y-139006315D01*
X81790963Y-139103006D01*
X81731998Y-139213320D01*
X81695688Y-139333018D01*
X81683428Y-139457500D01*
X81076000Y-139457500D01*
X81076000Y-134593799D01*
X83155146Y-134593798D01*
X83164877Y-134592840D01*
X83205635Y-134591675D01*
X83237026Y-134587689D01*
X83268651Y-134586958D01*
X83278137Y-134585739D01*
X84012665Y-134486112D01*
X84073096Y-134471800D01*
X84133685Y-134458341D01*
X84142752Y-134455303D01*
X84142758Y-134455301D01*
X84843940Y-134214903D01*
X84900412Y-134189139D01*
X84957263Y-134164154D01*
X84965569Y-134159412D01*
X85606708Y-133787396D01*
X85657131Y-133751131D01*
X85708015Y-133715602D01*
X85715242Y-133709338D01*
X86271912Y-133219876D01*
X86314352Y-133174485D01*
X86357344Y-133129772D01*
X86363216Y-133122223D01*
X86814214Y-132533959D01*
X86847000Y-132481236D01*
X86880519Y-132428977D01*
X86884813Y-132420431D01*
X87212961Y-131755770D01*
X87234892Y-131697656D01*
X87257611Y-131639910D01*
X87260164Y-131630693D01*
X87452962Y-130914954D01*
X87463179Y-130853743D01*
X87474259Y-130792626D01*
X87474972Y-130783089D01*
X87524351Y-130054245D01*
X87526614Y-130031475D01*
X87527000Y-129590000D01*
X93335198Y-129590000D01*
X93217583Y-129707615D01*
G36*
X89584000Y-142621000D02*
G01*
X89604000Y-142621000D01*
X89604000Y-142875000D01*
X89584000Y-142875000D01*
X89584000Y-142895000D01*
X89330000Y-142895000D01*
X89330000Y-142875000D01*
X89310000Y-142875000D01*
X89310000Y-142621000D01*
X89330000Y-142621000D01*
X89330000Y-142601000D01*
X89584000Y-142601000D01*
X89584000Y-142621000D01*
G37*
X89584000Y-142621000D02*
X89604000Y-142621000D01*
X89604000Y-142875000D01*
X89584000Y-142875000D01*
X89584000Y-142895000D01*
X89330000Y-142895000D01*
X89330000Y-142875000D01*
X89310000Y-142875000D01*
X89310000Y-142621000D01*
X89330000Y-142621000D01*
X89330000Y-142601000D01*
X89584000Y-142601000D01*
X89584000Y-142621000D01*
G36*
X103794498Y-141955180D02*
G01*
X103853463Y-142065494D01*
X103886000Y-142105141D01*
X103886000Y-142187250D01*
X103947436Y-142248686D01*
X103831613Y-142310595D01*
X103697038Y-142421038D01*
X103586595Y-142555613D01*
X103568500Y-142589466D01*
X103550405Y-142555613D01*
X103439962Y-142421038D01*
X103341126Y-142339925D01*
X103434000Y-142349072D01*
X103473250Y-142346000D01*
X103632000Y-142187250D01*
X103632000Y-142105141D01*
X103664537Y-142065494D01*
X103723502Y-141955180D01*
X103759000Y-141838159D01*
X103794498Y-141955180D01*
G37*
X103794498Y-141955180D02*
X103853463Y-142065494D01*
X103886000Y-142105141D01*
X103886000Y-142187250D01*
X103947436Y-142248686D01*
X103831613Y-142310595D01*
X103697038Y-142421038D01*
X103586595Y-142555613D01*
X103568500Y-142589466D01*
X103550405Y-142555613D01*
X103439962Y-142421038D01*
X103341126Y-142339925D01*
X103434000Y-142349072D01*
X103473250Y-142346000D01*
X103632000Y-142187250D01*
X103632000Y-142105141D01*
X103664537Y-142065494D01*
X103723502Y-141955180D01*
X103759000Y-141838159D01*
X103794498Y-141955180D01*
G36*
X106662728Y-137976601D02*
G01*
X106679792Y-138149855D01*
X106730328Y-138316451D01*
X106812395Y-138469987D01*
X106922838Y-138604562D01*
X107057413Y-138715005D01*
X107156425Y-138767928D01*
X106546499Y-138767928D01*
X106373245Y-138784992D01*
X106206649Y-138835528D01*
X106053113Y-138917595D01*
X105918538Y-139028038D01*
X105808095Y-139162613D01*
X105726028Y-139316149D01*
X105675492Y-139482745D01*
X105662693Y-139612696D01*
X105662088Y-139612372D01*
X105672072Y-139511000D01*
X105672072Y-138451000D01*
X105659812Y-138326518D01*
X105623502Y-138206820D01*
X105573888Y-138114000D01*
X105673002Y-138114000D01*
X105673002Y-137955252D01*
X105831750Y-138114000D01*
X106121000Y-138117072D01*
X106245482Y-138104812D01*
X106365180Y-138068502D01*
X106475494Y-138009537D01*
X106572185Y-137930185D01*
X106651537Y-137833494D01*
X106662728Y-137812557D01*
X106662728Y-137976601D01*
G37*
X106662728Y-137976601D02*
X106679792Y-138149855D01*
X106730328Y-138316451D01*
X106812395Y-138469987D01*
X106922838Y-138604562D01*
X107057413Y-138715005D01*
X107156425Y-138767928D01*
X106546499Y-138767928D01*
X106373245Y-138784992D01*
X106206649Y-138835528D01*
X106053113Y-138917595D01*
X105918538Y-139028038D01*
X105808095Y-139162613D01*
X105726028Y-139316149D01*
X105675492Y-139482745D01*
X105662693Y-139612696D01*
X105662088Y-139612372D01*
X105672072Y-139511000D01*
X105672072Y-138451000D01*
X105659812Y-138326518D01*
X105623502Y-138206820D01*
X105573888Y-138114000D01*
X105673002Y-138114000D01*
X105673002Y-137955252D01*
X105831750Y-138114000D01*
X106121000Y-138117072D01*
X106245482Y-138104812D01*
X106365180Y-138068502D01*
X106475494Y-138009537D01*
X106572185Y-137930185D01*
X106651537Y-137833494D01*
X106662728Y-137812557D01*
X106662728Y-137976601D01*
G36*
X105673000Y-136652000D02*
G01*
X105693000Y-136652000D01*
X105693000Y-136906000D01*
X105673000Y-136906000D01*
X105673000Y-136926000D01*
X105419000Y-136926000D01*
X105419000Y-136906000D01*
X105399000Y-136906000D01*
X105399000Y-136652000D01*
X105419000Y-136652000D01*
X105419000Y-136632000D01*
X105673000Y-136632000D01*
X105673000Y-136652000D01*
G37*
X105673000Y-136652000D02*
X105693000Y-136652000D01*
X105693000Y-136906000D01*
X105673000Y-136906000D01*
X105673000Y-136926000D01*
X105419000Y-136926000D01*
X105419000Y-136906000D01*
X105399000Y-136906000D01*
X105399000Y-136652000D01*
X105419000Y-136652000D01*
X105419000Y-136632000D01*
X105673000Y-136632000D01*
X105673000Y-136652000D01*
G36*
X101473000Y-135454500D02*
G01*
X101493000Y-135454500D01*
X101493000Y-135708500D01*
X101473000Y-135708500D01*
X101473000Y-135728500D01*
X101219000Y-135728500D01*
X101219000Y-135708500D01*
X101199000Y-135708500D01*
X101199000Y-135454500D01*
X101219000Y-135454500D01*
X101219000Y-135434500D01*
X101473000Y-135434500D01*
X101473000Y-135454500D01*
G37*
X101473000Y-135454500D02*
X101493000Y-135454500D01*
X101493000Y-135708500D01*
X101473000Y-135708500D01*
X101473000Y-135728500D01*
X101219000Y-135728500D01*
X101219000Y-135708500D01*
X101199000Y-135708500D01*
X101199000Y-135454500D01*
X101219000Y-135454500D01*
X101219000Y-135434500D01*
X101473000Y-135434500D01*
X101473000Y-135454500D01*
%TD*%
M02*
