%TF.GenerationSoftware,KiCad,Pcbnew,(5.1.6)-1*%
%TF.CreationDate,2020-08-13T12:17:14+01:00*%
%TF.ProjectId,open-amiga-sampler-smd,6f70656e-2d61-46d6-9967-612d73616d70,rev?*%
%TF.SameCoordinates,Original*%
%TF.FileFunction,Legend,Bot*%
%TF.FilePolarity,Positive*%
%FSLAX46Y46*%
G04 Gerber Fmt 4.6, Leading zero omitted, Abs format (unit mm)*
G04 Created by KiCad (PCBNEW (5.1.6)-1) date 2020-08-13 12:17:14*
%MOMM*%
%LPD*%
G01*
G04 APERTURE LIST*
%ADD10C,0.150000*%
%ADD11C,0.010000*%
G04 APERTURE END LIST*
D10*
X103592142Y-142946380D02*
X103925476Y-142470190D01*
X104163571Y-142946380D02*
X104163571Y-141946380D01*
X103782619Y-141946380D01*
X103687380Y-141994000D01*
X103639761Y-142041619D01*
X103592142Y-142136857D01*
X103592142Y-142279714D01*
X103639761Y-142374952D01*
X103687380Y-142422571D01*
X103782619Y-142470190D01*
X104163571Y-142470190D01*
X102782619Y-142898761D02*
X102877857Y-142946380D01*
X103068333Y-142946380D01*
X103163571Y-142898761D01*
X103211190Y-142803523D01*
X103211190Y-142422571D01*
X103163571Y-142327333D01*
X103068333Y-142279714D01*
X102877857Y-142279714D01*
X102782619Y-142327333D01*
X102735000Y-142422571D01*
X102735000Y-142517809D01*
X103211190Y-142613047D01*
X102401666Y-142279714D02*
X102163571Y-142946380D01*
X101925476Y-142279714D01*
X100830238Y-142041619D02*
X100782619Y-141994000D01*
X100687380Y-141946380D01*
X100449285Y-141946380D01*
X100354047Y-141994000D01*
X100306428Y-142041619D01*
X100258809Y-142136857D01*
X100258809Y-142232095D01*
X100306428Y-142374952D01*
X100877857Y-142946380D01*
X100258809Y-142946380D01*
X96551309Y-132469000D02*
X96646547Y-132421380D01*
X96789404Y-132421380D01*
X96932261Y-132469000D01*
X97027500Y-132564238D01*
X97075119Y-132659476D01*
X97122738Y-132849952D01*
X97122738Y-132992809D01*
X97075119Y-133183285D01*
X97027500Y-133278523D01*
X96932261Y-133373761D01*
X96789404Y-133421380D01*
X96694166Y-133421380D01*
X96551309Y-133373761D01*
X96503690Y-133326142D01*
X96503690Y-132992809D01*
X96694166Y-132992809D01*
X95646547Y-133421380D02*
X95646547Y-132897571D01*
X95694166Y-132802333D01*
X95789404Y-132754714D01*
X95979880Y-132754714D01*
X96075119Y-132802333D01*
X95646547Y-133373761D02*
X95741785Y-133421380D01*
X95979880Y-133421380D01*
X96075119Y-133373761D01*
X96122738Y-133278523D01*
X96122738Y-133183285D01*
X96075119Y-133088047D01*
X95979880Y-133040428D01*
X95741785Y-133040428D01*
X95646547Y-132992809D01*
X95170357Y-133421380D02*
X95170357Y-132754714D01*
X95170357Y-132421380D02*
X95217976Y-132469000D01*
X95170357Y-132516619D01*
X95122738Y-132469000D01*
X95170357Y-132421380D01*
X95170357Y-132516619D01*
X94694166Y-132754714D02*
X94694166Y-133421380D01*
X94694166Y-132849952D02*
X94646547Y-132802333D01*
X94551309Y-132754714D01*
X94408452Y-132754714D01*
X94313214Y-132802333D01*
X94265595Y-132897571D01*
X94265595Y-133421380D01*
X93075119Y-133135666D02*
X92598928Y-133135666D01*
X93170357Y-133421380D02*
X92837023Y-132421380D01*
X92503690Y-133421380D01*
X91741785Y-133421380D02*
X91741785Y-132421380D01*
X91741785Y-133373761D02*
X91837023Y-133421380D01*
X92027500Y-133421380D01*
X92122738Y-133373761D01*
X92170357Y-133326142D01*
X92217976Y-133230904D01*
X92217976Y-132945190D01*
X92170357Y-132849952D01*
X92122738Y-132802333D01*
X92027500Y-132754714D01*
X91837023Y-132754714D01*
X91741785Y-132802333D01*
X91265595Y-132754714D02*
X91265595Y-133611857D01*
X91313214Y-133707095D01*
X91408452Y-133754714D01*
X91456071Y-133754714D01*
X91265595Y-132421380D02*
X91313214Y-132469000D01*
X91265595Y-132516619D01*
X91217976Y-132469000D01*
X91265595Y-132421380D01*
X91265595Y-132516619D01*
X90360833Y-132754714D02*
X90360833Y-133421380D01*
X90789404Y-132754714D02*
X90789404Y-133278523D01*
X90741785Y-133373761D01*
X90646547Y-133421380D01*
X90503690Y-133421380D01*
X90408452Y-133373761D01*
X90360833Y-133326142D01*
X89932261Y-133373761D02*
X89837023Y-133421380D01*
X89646547Y-133421380D01*
X89551309Y-133373761D01*
X89503690Y-133278523D01*
X89503690Y-133230904D01*
X89551309Y-133135666D01*
X89646547Y-133088047D01*
X89789404Y-133088047D01*
X89884642Y-133040428D01*
X89932261Y-132945190D01*
X89932261Y-132897571D01*
X89884642Y-132802333D01*
X89789404Y-132754714D01*
X89646547Y-132754714D01*
X89551309Y-132802333D01*
X89217976Y-132754714D02*
X88837023Y-132754714D01*
X89075119Y-132421380D02*
X89075119Y-133278523D01*
X89027500Y-133373761D01*
X88932261Y-133421380D01*
X88837023Y-133421380D01*
X107441500Y-133357880D02*
X107917690Y-133357880D01*
X107917690Y-132357880D01*
X104298642Y-132405500D02*
X104393880Y-132357880D01*
X104536738Y-132357880D01*
X104679595Y-132405500D01*
X104774833Y-132500738D01*
X104822452Y-132595976D01*
X104870071Y-132786452D01*
X104870071Y-132929309D01*
X104822452Y-133119785D01*
X104774833Y-133215023D01*
X104679595Y-133310261D01*
X104536738Y-133357880D01*
X104441500Y-133357880D01*
X104298642Y-133310261D01*
X104251023Y-133262642D01*
X104251023Y-132929309D01*
X104441500Y-132929309D01*
X103822452Y-133357880D02*
X103822452Y-132357880D01*
X103251023Y-133357880D01*
X103251023Y-132357880D01*
X102774833Y-133357880D02*
X102774833Y-132357880D01*
X102536738Y-132357880D01*
X102393880Y-132405500D01*
X102298642Y-132500738D01*
X102251023Y-132595976D01*
X102203404Y-132786452D01*
X102203404Y-132929309D01*
X102251023Y-133119785D01*
X102298642Y-133215023D01*
X102393880Y-133310261D01*
X102536738Y-133357880D01*
X102774833Y-133357880D01*
X98917690Y-133357880D02*
X99251023Y-132881690D01*
X99489119Y-133357880D02*
X99489119Y-132357880D01*
X99108166Y-132357880D01*
X99012928Y-132405500D01*
X98965309Y-132453119D01*
X98917690Y-132548357D01*
X98917690Y-132691214D01*
X98965309Y-132786452D01*
X99012928Y-132834071D01*
X99108166Y-132881690D01*
X99489119Y-132881690D01*
X115297928Y-140360380D02*
X115107452Y-140360380D01*
X115012214Y-140408000D01*
X114916976Y-140503238D01*
X114869357Y-140693714D01*
X114869357Y-141027047D01*
X114916976Y-141217523D01*
X115012214Y-141312761D01*
X115107452Y-141360380D01*
X115297928Y-141360380D01*
X115393166Y-141312761D01*
X115488404Y-141217523D01*
X115536023Y-141027047D01*
X115536023Y-140693714D01*
X115488404Y-140503238D01*
X115393166Y-140408000D01*
X115297928Y-140360380D01*
X114440785Y-140693714D02*
X114440785Y-141693714D01*
X114440785Y-140741333D02*
X114345547Y-140693714D01*
X114155071Y-140693714D01*
X114059833Y-140741333D01*
X114012214Y-140788952D01*
X113964595Y-140884190D01*
X113964595Y-141169904D01*
X114012214Y-141265142D01*
X114059833Y-141312761D01*
X114155071Y-141360380D01*
X114345547Y-141360380D01*
X114440785Y-141312761D01*
X113155071Y-141312761D02*
X113250309Y-141360380D01*
X113440785Y-141360380D01*
X113536023Y-141312761D01*
X113583642Y-141217523D01*
X113583642Y-140836571D01*
X113536023Y-140741333D01*
X113440785Y-140693714D01*
X113250309Y-140693714D01*
X113155071Y-140741333D01*
X113107452Y-140836571D01*
X113107452Y-140931809D01*
X113583642Y-141027047D01*
X112678880Y-140693714D02*
X112678880Y-141360380D01*
X112678880Y-140788952D02*
X112631261Y-140741333D01*
X112536023Y-140693714D01*
X112393166Y-140693714D01*
X112297928Y-140741333D01*
X112250309Y-140836571D01*
X112250309Y-141360380D01*
X111059833Y-141074666D02*
X110583642Y-141074666D01*
X111155071Y-141360380D02*
X110821738Y-140360380D01*
X110488404Y-141360380D01*
X110155071Y-141360380D02*
X110155071Y-140693714D01*
X110155071Y-140788952D02*
X110107452Y-140741333D01*
X110012214Y-140693714D01*
X109869357Y-140693714D01*
X109774119Y-140741333D01*
X109726500Y-140836571D01*
X109726500Y-141360380D01*
X109726500Y-140836571D02*
X109678880Y-140741333D01*
X109583642Y-140693714D01*
X109440785Y-140693714D01*
X109345547Y-140741333D01*
X109297928Y-140836571D01*
X109297928Y-141360380D01*
X108821738Y-141360380D02*
X108821738Y-140693714D01*
X108821738Y-140360380D02*
X108869357Y-140408000D01*
X108821738Y-140455619D01*
X108774119Y-140408000D01*
X108821738Y-140360380D01*
X108821738Y-140455619D01*
X107916976Y-140693714D02*
X107916976Y-141503238D01*
X107964595Y-141598476D01*
X108012214Y-141646095D01*
X108107452Y-141693714D01*
X108250309Y-141693714D01*
X108345547Y-141646095D01*
X107916976Y-141312761D02*
X108012214Y-141360380D01*
X108202690Y-141360380D01*
X108297928Y-141312761D01*
X108345547Y-141265142D01*
X108393166Y-141169904D01*
X108393166Y-140884190D01*
X108345547Y-140788952D01*
X108297928Y-140741333D01*
X108202690Y-140693714D01*
X108012214Y-140693714D01*
X107916976Y-140741333D01*
X107012214Y-141360380D02*
X107012214Y-140836571D01*
X107059833Y-140741333D01*
X107155071Y-140693714D01*
X107345547Y-140693714D01*
X107440785Y-140741333D01*
X107012214Y-141312761D02*
X107107452Y-141360380D01*
X107345547Y-141360380D01*
X107440785Y-141312761D01*
X107488404Y-141217523D01*
X107488404Y-141122285D01*
X107440785Y-141027047D01*
X107345547Y-140979428D01*
X107107452Y-140979428D01*
X107012214Y-140931809D01*
X105821738Y-141312761D02*
X105678880Y-141360380D01*
X105440785Y-141360380D01*
X105345547Y-141312761D01*
X105297928Y-141265142D01*
X105250309Y-141169904D01*
X105250309Y-141074666D01*
X105297928Y-140979428D01*
X105345547Y-140931809D01*
X105440785Y-140884190D01*
X105631261Y-140836571D01*
X105726500Y-140788952D01*
X105774119Y-140741333D01*
X105821738Y-140646095D01*
X105821738Y-140550857D01*
X105774119Y-140455619D01*
X105726500Y-140408000D01*
X105631261Y-140360380D01*
X105393166Y-140360380D01*
X105250309Y-140408000D01*
X104393166Y-141360380D02*
X104393166Y-140836571D01*
X104440785Y-140741333D01*
X104536023Y-140693714D01*
X104726500Y-140693714D01*
X104821738Y-140741333D01*
X104393166Y-141312761D02*
X104488404Y-141360380D01*
X104726500Y-141360380D01*
X104821738Y-141312761D01*
X104869357Y-141217523D01*
X104869357Y-141122285D01*
X104821738Y-141027047D01*
X104726500Y-140979428D01*
X104488404Y-140979428D01*
X104393166Y-140931809D01*
X103916976Y-141360380D02*
X103916976Y-140693714D01*
X103916976Y-140788952D02*
X103869357Y-140741333D01*
X103774119Y-140693714D01*
X103631261Y-140693714D01*
X103536023Y-140741333D01*
X103488404Y-140836571D01*
X103488404Y-141360380D01*
X103488404Y-140836571D02*
X103440785Y-140741333D01*
X103345547Y-140693714D01*
X103202690Y-140693714D01*
X103107452Y-140741333D01*
X103059833Y-140836571D01*
X103059833Y-141360380D01*
X102583642Y-140693714D02*
X102583642Y-141693714D01*
X102583642Y-140741333D02*
X102488404Y-140693714D01*
X102297928Y-140693714D01*
X102202690Y-140741333D01*
X102155071Y-140788952D01*
X102107452Y-140884190D01*
X102107452Y-141169904D01*
X102155071Y-141265142D01*
X102202690Y-141312761D01*
X102297928Y-141360380D01*
X102488404Y-141360380D01*
X102583642Y-141312761D01*
X101536023Y-141360380D02*
X101631261Y-141312761D01*
X101678880Y-141217523D01*
X101678880Y-140360380D01*
X100774119Y-141312761D02*
X100869357Y-141360380D01*
X101059833Y-141360380D01*
X101155071Y-141312761D01*
X101202690Y-141217523D01*
X101202690Y-140836571D01*
X101155071Y-140741333D01*
X101059833Y-140693714D01*
X100869357Y-140693714D01*
X100774119Y-140741333D01*
X100726500Y-140836571D01*
X100726500Y-140931809D01*
X101202690Y-141027047D01*
X100297928Y-141360380D02*
X100297928Y-140693714D01*
X100297928Y-140884190D02*
X100250309Y-140788952D01*
X100202690Y-140741333D01*
X100107452Y-140693714D01*
X100012214Y-140693714D01*
X114869357Y-142534190D02*
X114916976Y-142486571D01*
X115012214Y-142438952D01*
X115107452Y-142438952D01*
X115202690Y-142486571D01*
X115250309Y-142534190D01*
X115297928Y-142629428D01*
X115297928Y-142724666D01*
X115250309Y-142819904D01*
X115202690Y-142867523D01*
X115107452Y-142915142D01*
X115012214Y-142915142D01*
X114916976Y-142867523D01*
X114869357Y-142819904D01*
X114869357Y-142438952D02*
X114869357Y-142819904D01*
X114821738Y-142867523D01*
X114774119Y-142867523D01*
X114678880Y-142819904D01*
X114631261Y-142724666D01*
X114631261Y-142486571D01*
X114726500Y-142343714D01*
X114869357Y-142248476D01*
X115059833Y-142200857D01*
X115250309Y-142248476D01*
X115393166Y-142343714D01*
X115488404Y-142486571D01*
X115536023Y-142677047D01*
X115488404Y-142867523D01*
X115393166Y-143010380D01*
X115250309Y-143105619D01*
X115059833Y-143153238D01*
X114869357Y-143105619D01*
X114726500Y-143010380D01*
X113821738Y-142962761D02*
X113916976Y-143010380D01*
X114107452Y-143010380D01*
X114202690Y-142962761D01*
X114250309Y-142867523D01*
X114250309Y-142486571D01*
X114202690Y-142391333D01*
X114107452Y-142343714D01*
X113916976Y-142343714D01*
X113821738Y-142391333D01*
X113774119Y-142486571D01*
X113774119Y-142581809D01*
X114250309Y-142677047D01*
X112916976Y-142962761D02*
X113012214Y-143010380D01*
X113202690Y-143010380D01*
X113297928Y-142962761D01*
X113345547Y-142915142D01*
X113393166Y-142819904D01*
X113393166Y-142534190D01*
X113345547Y-142438952D01*
X113297928Y-142391333D01*
X113202690Y-142343714D01*
X113012214Y-142343714D01*
X112916976Y-142391333D01*
X112488404Y-143010380D02*
X112488404Y-142010380D01*
X112059833Y-143010380D02*
X112059833Y-142486571D01*
X112107452Y-142391333D01*
X112202690Y-142343714D01*
X112345547Y-142343714D01*
X112440785Y-142391333D01*
X112488404Y-142438952D01*
X111440785Y-143010380D02*
X111536023Y-142962761D01*
X111583642Y-142915142D01*
X111631261Y-142819904D01*
X111631261Y-142534190D01*
X111583642Y-142438952D01*
X111536023Y-142391333D01*
X111440785Y-142343714D01*
X111297928Y-142343714D01*
X111202690Y-142391333D01*
X111155071Y-142438952D01*
X111107452Y-142534190D01*
X111107452Y-142819904D01*
X111155071Y-142915142D01*
X111202690Y-142962761D01*
X111297928Y-143010380D01*
X111440785Y-143010380D01*
X110536023Y-143010380D02*
X110631261Y-142962761D01*
X110678880Y-142867523D01*
X110678880Y-142010380D01*
X109774119Y-142962761D02*
X109869357Y-143010380D01*
X110059833Y-143010380D01*
X110155071Y-142962761D01*
X110202690Y-142867523D01*
X110202690Y-142486571D01*
X110155071Y-142391333D01*
X110059833Y-142343714D01*
X109869357Y-142343714D01*
X109774119Y-142391333D01*
X109726500Y-142486571D01*
X109726500Y-142581809D01*
X110202690Y-142677047D01*
X109393166Y-142343714D02*
X109155071Y-143010380D01*
X108916976Y-142343714D01*
X108155071Y-142962761D02*
X108250309Y-143010380D01*
X108440785Y-143010380D01*
X108536023Y-142962761D01*
X108583642Y-142867523D01*
X108583642Y-142486571D01*
X108536023Y-142391333D01*
X108440785Y-142343714D01*
X108250309Y-142343714D01*
X108155071Y-142391333D01*
X108107452Y-142486571D01*
X108107452Y-142581809D01*
X108583642Y-142677047D01*
X107536023Y-143010380D02*
X107631261Y-142962761D01*
X107678880Y-142867523D01*
X107678880Y-142010380D01*
X114869357Y-144184190D02*
X114916976Y-144136571D01*
X115012214Y-144088952D01*
X115107452Y-144088952D01*
X115202690Y-144136571D01*
X115250309Y-144184190D01*
X115297928Y-144279428D01*
X115297928Y-144374666D01*
X115250309Y-144469904D01*
X115202690Y-144517523D01*
X115107452Y-144565142D01*
X115012214Y-144565142D01*
X114916976Y-144517523D01*
X114869357Y-144469904D01*
X114869357Y-144088952D02*
X114869357Y-144469904D01*
X114821738Y-144517523D01*
X114774119Y-144517523D01*
X114678880Y-144469904D01*
X114631261Y-144374666D01*
X114631261Y-144136571D01*
X114726500Y-143993714D01*
X114869357Y-143898476D01*
X115059833Y-143850857D01*
X115250309Y-143898476D01*
X115393166Y-143993714D01*
X115488404Y-144136571D01*
X115536023Y-144327047D01*
X115488404Y-144517523D01*
X115393166Y-144660380D01*
X115250309Y-144755619D01*
X115059833Y-144803238D01*
X114869357Y-144755619D01*
X114726500Y-144660380D01*
X114202690Y-144660380D02*
X114202690Y-143993714D01*
X114202690Y-144088952D02*
X114155071Y-144041333D01*
X114059833Y-143993714D01*
X113916976Y-143993714D01*
X113821738Y-144041333D01*
X113774119Y-144136571D01*
X113774119Y-144660380D01*
X113774119Y-144136571D02*
X113726500Y-144041333D01*
X113631261Y-143993714D01*
X113488404Y-143993714D01*
X113393166Y-144041333D01*
X113345547Y-144136571D01*
X113345547Y-144660380D01*
X112869357Y-143993714D02*
X112869357Y-144660380D01*
X112869357Y-144088952D02*
X112821738Y-144041333D01*
X112726500Y-143993714D01*
X112583642Y-143993714D01*
X112488404Y-144041333D01*
X112440785Y-144136571D01*
X112440785Y-144660380D01*
X112012214Y-144612761D02*
X111916976Y-144660380D01*
X111726500Y-144660380D01*
X111631261Y-144612761D01*
X111583642Y-144517523D01*
X111583642Y-144469904D01*
X111631261Y-144374666D01*
X111726500Y-144327047D01*
X111869357Y-144327047D01*
X111964595Y-144279428D01*
X112012214Y-144184190D01*
X112012214Y-144136571D01*
X111964595Y-144041333D01*
X111869357Y-143993714D01*
X111726500Y-143993714D01*
X111631261Y-144041333D01*
X111297928Y-143993714D02*
X110916976Y-143993714D01*
X111155071Y-143660380D02*
X111155071Y-144517523D01*
X111107452Y-144612761D01*
X111012214Y-144660380D01*
X110916976Y-144660380D01*
X110583642Y-144660380D02*
X110583642Y-143993714D01*
X110583642Y-144184190D02*
X110536023Y-144088952D01*
X110488404Y-144041333D01*
X110393166Y-143993714D01*
X110297928Y-143993714D01*
X109964595Y-144660380D02*
X109964595Y-143993714D01*
X109964595Y-144088952D02*
X109916976Y-144041333D01*
X109821738Y-143993714D01*
X109678880Y-143993714D01*
X109583642Y-144041333D01*
X109536023Y-144136571D01*
X109536023Y-144660380D01*
X109536023Y-144136571D02*
X109488404Y-144041333D01*
X109393166Y-143993714D01*
X109250309Y-143993714D01*
X109155071Y-144041333D01*
X109107452Y-144136571D01*
X109107452Y-144660380D01*
X108631261Y-143993714D02*
X108631261Y-144660380D01*
X108631261Y-144088952D02*
X108583642Y-144041333D01*
X108488404Y-143993714D01*
X108345547Y-143993714D01*
X108250309Y-144041333D01*
X108202690Y-144136571D01*
X108202690Y-144660380D01*
X107297928Y-144612761D02*
X107393166Y-144660380D01*
X107583642Y-144660380D01*
X107678880Y-144612761D01*
X107726500Y-144565142D01*
X107774119Y-144469904D01*
X107774119Y-144184190D01*
X107726500Y-144088952D01*
X107678880Y-144041333D01*
X107583642Y-143993714D01*
X107393166Y-143993714D01*
X107297928Y-144041333D01*
X106869357Y-144660380D02*
X106869357Y-143660380D01*
X106440785Y-144660380D02*
X106440785Y-144136571D01*
X106488404Y-144041333D01*
X106583642Y-143993714D01*
X106726500Y-143993714D01*
X106821738Y-144041333D01*
X106869357Y-144088952D01*
X114869357Y-145834190D02*
X114916976Y-145786571D01*
X115012214Y-145738952D01*
X115107452Y-145738952D01*
X115202690Y-145786571D01*
X115250309Y-145834190D01*
X115297928Y-145929428D01*
X115297928Y-146024666D01*
X115250309Y-146119904D01*
X115202690Y-146167523D01*
X115107452Y-146215142D01*
X115012214Y-146215142D01*
X114916976Y-146167523D01*
X114869357Y-146119904D01*
X114869357Y-145738952D02*
X114869357Y-146119904D01*
X114821738Y-146167523D01*
X114774119Y-146167523D01*
X114678880Y-146119904D01*
X114631261Y-146024666D01*
X114631261Y-145786571D01*
X114726500Y-145643714D01*
X114869357Y-145548476D01*
X115059833Y-145500857D01*
X115250309Y-145548476D01*
X115393166Y-145643714D01*
X115488404Y-145786571D01*
X115536023Y-145977047D01*
X115488404Y-146167523D01*
X115393166Y-146310380D01*
X115250309Y-146405619D01*
X115059833Y-146453238D01*
X114869357Y-146405619D01*
X114726500Y-146310380D01*
X113774119Y-146310380D02*
X113774119Y-145786571D01*
X113821738Y-145691333D01*
X113916976Y-145643714D01*
X114107452Y-145643714D01*
X114202690Y-145691333D01*
X113774119Y-146262761D02*
X113869357Y-146310380D01*
X114107452Y-146310380D01*
X114202690Y-146262761D01*
X114250309Y-146167523D01*
X114250309Y-146072285D01*
X114202690Y-145977047D01*
X114107452Y-145929428D01*
X113869357Y-145929428D01*
X113774119Y-145881809D01*
X113297928Y-146310380D02*
X113297928Y-145310380D01*
X113297928Y-145691333D02*
X113202690Y-145643714D01*
X113012214Y-145643714D01*
X112916976Y-145691333D01*
X112869357Y-145738952D01*
X112821738Y-145834190D01*
X112821738Y-146119904D01*
X112869357Y-146215142D01*
X112916976Y-146262761D01*
X113012214Y-146310380D01*
X113202690Y-146310380D01*
X113297928Y-146262761D01*
X112393166Y-146310380D02*
X112393166Y-145643714D01*
X112393166Y-145834190D02*
X112345547Y-145738952D01*
X112297928Y-145691333D01*
X112202690Y-145643714D01*
X112107452Y-145643714D01*
X111345547Y-145643714D02*
X111345547Y-146310380D01*
X111774119Y-145643714D02*
X111774119Y-146167523D01*
X111726500Y-146262761D01*
X111631261Y-146310380D01*
X111488404Y-146310380D01*
X111393166Y-146262761D01*
X111345547Y-146215142D01*
X110440785Y-145643714D02*
X110440785Y-146453238D01*
X110488404Y-146548476D01*
X110536023Y-146596095D01*
X110631261Y-146643714D01*
X110774119Y-146643714D01*
X110869357Y-146596095D01*
X110440785Y-146262761D02*
X110536023Y-146310380D01*
X110726500Y-146310380D01*
X110821738Y-146262761D01*
X110869357Y-146215142D01*
X110916976Y-146119904D01*
X110916976Y-145834190D01*
X110869357Y-145738952D01*
X110821738Y-145691333D01*
X110726500Y-145643714D01*
X110536023Y-145643714D01*
X110440785Y-145691333D01*
X110012214Y-146262761D02*
X109916976Y-146310380D01*
X109726500Y-146310380D01*
X109631261Y-146262761D01*
X109583642Y-146167523D01*
X109583642Y-146119904D01*
X109631261Y-146024666D01*
X109726500Y-145977047D01*
X109869357Y-145977047D01*
X109964595Y-145929428D01*
X110012214Y-145834190D01*
X110012214Y-145786571D01*
X109964595Y-145691333D01*
X109869357Y-145643714D01*
X109726500Y-145643714D01*
X109631261Y-145691333D01*
X108726500Y-146262761D02*
X108821738Y-146310380D01*
X109012214Y-146310380D01*
X109107452Y-146262761D01*
X109155071Y-146215142D01*
X109202690Y-146119904D01*
X109202690Y-145834190D01*
X109155071Y-145738952D01*
X109107452Y-145691333D01*
X109012214Y-145643714D01*
X108821738Y-145643714D01*
X108726500Y-145691333D01*
X108297928Y-146310380D02*
X108297928Y-145310380D01*
X107869357Y-146310380D02*
X107869357Y-145786571D01*
X107916976Y-145691333D01*
X108012214Y-145643714D01*
X108155071Y-145643714D01*
X108250309Y-145691333D01*
X108297928Y-145738952D01*
D11*
%TO.C,REF\u002A\u002A*%
G36*
X92818486Y-134089498D02*
G01*
X92660494Y-134090363D01*
X92546153Y-134092705D01*
X92468093Y-134097262D01*
X92418946Y-134104770D01*
X92391341Y-134115966D01*
X92377908Y-134131588D01*
X92371279Y-134152373D01*
X92370635Y-134155063D01*
X92360565Y-134203613D01*
X92341925Y-134299405D01*
X92316655Y-134432243D01*
X92286693Y-134591931D01*
X92253978Y-134768274D01*
X92252836Y-134774467D01*
X92220067Y-134947282D01*
X92189407Y-135099969D01*
X92162836Y-135223371D01*
X92142333Y-135308331D01*
X92129874Y-135345690D01*
X92129280Y-135346352D01*
X92092581Y-135364595D01*
X92016914Y-135394997D01*
X91918622Y-135430993D01*
X91918075Y-135431185D01*
X91794267Y-135477722D01*
X91648304Y-135537004D01*
X91510719Y-135596609D01*
X91504207Y-135599556D01*
X91280110Y-135701265D01*
X90783881Y-135362397D01*
X90631654Y-135259092D01*
X90493759Y-135166737D01*
X90378185Y-135090584D01*
X90292921Y-135035885D01*
X90245956Y-135007893D01*
X90241496Y-135005817D01*
X90207366Y-135015060D01*
X90143619Y-135059656D01*
X90047769Y-135141709D01*
X89917331Y-135263321D01*
X89784172Y-135392705D01*
X89655806Y-135520202D01*
X89540919Y-135636546D01*
X89446427Y-135734552D01*
X89379247Y-135807036D01*
X89346294Y-135846813D01*
X89345068Y-135848861D01*
X89341426Y-135876156D01*
X89355150Y-135920734D01*
X89389631Y-135988612D01*
X89448261Y-136085811D01*
X89534430Y-136218351D01*
X89649300Y-136388976D01*
X89751246Y-136539155D01*
X89842377Y-136673850D01*
X89917427Y-136785240D01*
X89971131Y-136865505D01*
X89998220Y-136906825D01*
X89999926Y-136909630D01*
X89996618Y-136949221D01*
X89971547Y-137026169D01*
X89929702Y-137125932D01*
X89914788Y-137157791D01*
X89849714Y-137299726D01*
X89780288Y-137460773D01*
X89723891Y-137600121D01*
X89683253Y-137703544D01*
X89650974Y-137782142D01*
X89632322Y-137823220D01*
X89630003Y-137826385D01*
X89595697Y-137831628D01*
X89514831Y-137845994D01*
X89398157Y-137867437D01*
X89256425Y-137893913D01*
X89100390Y-137923377D01*
X88940802Y-137953783D01*
X88788415Y-137983088D01*
X88653979Y-138009245D01*
X88548248Y-138030210D01*
X88481974Y-138043939D01*
X88465718Y-138047820D01*
X88448927Y-138057400D01*
X88436251Y-138079036D01*
X88427122Y-138120031D01*
X88420969Y-138187689D01*
X88417220Y-138289312D01*
X88415308Y-138432203D01*
X88414660Y-138623665D01*
X88414626Y-138702145D01*
X88414626Y-139340406D01*
X88567902Y-139370660D01*
X88653178Y-139387064D01*
X88780430Y-139411009D01*
X88934185Y-139439607D01*
X89098966Y-139469967D01*
X89144511Y-139478306D01*
X89296568Y-139507870D01*
X89429032Y-139536942D01*
X89530786Y-139562829D01*
X89590712Y-139582837D01*
X89600695Y-139588801D01*
X89625207Y-139631034D01*
X89660352Y-139712870D01*
X89699327Y-139818183D01*
X89707058Y-139840868D01*
X89758140Y-139981518D01*
X89821546Y-140140214D01*
X89883596Y-140282725D01*
X89883902Y-140283386D01*
X89987233Y-140506940D01*
X89307539Y-141506732D01*
X89743879Y-141943800D01*
X89875851Y-142073881D01*
X89996221Y-142188548D01*
X90098227Y-142281681D01*
X90175109Y-142347158D01*
X90220107Y-142378857D01*
X90226562Y-142380868D01*
X90264460Y-142365029D01*
X90341792Y-142320996D01*
X90450111Y-142253990D01*
X90580968Y-142169234D01*
X90722448Y-142074316D01*
X90866039Y-141977498D01*
X90994065Y-141893251D01*
X91098395Y-141826758D01*
X91170900Y-141783202D01*
X91203342Y-141767764D01*
X91242924Y-141780828D01*
X91317981Y-141815250D01*
X91413032Y-141863880D01*
X91423108Y-141869285D01*
X91551109Y-141933480D01*
X91638882Y-141964963D01*
X91693472Y-141965298D01*
X91721925Y-141936048D01*
X91722090Y-141935638D01*
X91736312Y-141900998D01*
X91770231Y-141818769D01*
X91821216Y-141695314D01*
X91886638Y-141536998D01*
X91963866Y-141350186D01*
X92050271Y-141141242D01*
X92133949Y-140938946D01*
X92225912Y-140715700D01*
X92310350Y-140508892D01*
X92384731Y-140324862D01*
X92446526Y-140169951D01*
X92493203Y-140050496D01*
X92522232Y-139972839D01*
X92531178Y-139943856D01*
X92508744Y-139910610D01*
X92450061Y-139857623D01*
X92371811Y-139799204D01*
X92148966Y-139614452D01*
X91974782Y-139402682D01*
X91851346Y-139168356D01*
X91780746Y-138915934D01*
X91765069Y-138649877D01*
X91776464Y-138527075D01*
X91838550Y-138272293D01*
X91945477Y-138047301D01*
X92090611Y-137854317D01*
X92267322Y-137695561D01*
X92468978Y-137573250D01*
X92688946Y-137489605D01*
X92920594Y-137446844D01*
X93157291Y-137447187D01*
X93392405Y-137492852D01*
X93619304Y-137586059D01*
X93831356Y-137729027D01*
X93919864Y-137809883D01*
X94089611Y-138017507D01*
X94207801Y-138244395D01*
X94275222Y-138483933D01*
X94292660Y-138729507D01*
X94260902Y-138974503D01*
X94180735Y-139212308D01*
X94052945Y-139436307D01*
X93878320Y-139639887D01*
X93683188Y-139799204D01*
X93601909Y-139860102D01*
X93544491Y-139912515D01*
X93523822Y-139943906D01*
X93534644Y-139978139D01*
X93565423Y-140059919D01*
X93613626Y-140182907D01*
X93676722Y-140340763D01*
X93752178Y-140527149D01*
X93837462Y-140735726D01*
X93921281Y-140938996D01*
X94013755Y-141162433D01*
X94099411Y-141369484D01*
X94175618Y-141553786D01*
X94239747Y-141708975D01*
X94289168Y-141828688D01*
X94321252Y-141906561D01*
X94333141Y-141935638D01*
X94361226Y-141965177D01*
X94415551Y-141965091D01*
X94503105Y-141933826D01*
X94630881Y-141869829D01*
X94631892Y-141869285D01*
X94728098Y-141819621D01*
X94805869Y-141783445D01*
X94849723Y-141767908D01*
X94851658Y-141767764D01*
X94884671Y-141783524D01*
X94957554Y-141827350D01*
X95062178Y-141894057D01*
X95190410Y-141978464D01*
X95332552Y-142074316D01*
X95477267Y-142171367D01*
X95607696Y-142255770D01*
X95715390Y-142322301D01*
X95791902Y-142365738D01*
X95828438Y-142380868D01*
X95862082Y-142360982D01*
X95929724Y-142305403D01*
X96024607Y-142220254D01*
X96139970Y-142111653D01*
X96269055Y-141985721D01*
X96311271Y-141943649D01*
X96747761Y-141506431D01*
X96415523Y-141018840D01*
X96314554Y-140869105D01*
X96225938Y-140734720D01*
X96154646Y-140623469D01*
X96105650Y-140543139D01*
X96083922Y-140501514D01*
X96083285Y-140498553D01*
X96094740Y-140459318D01*
X96125551Y-140380395D01*
X96170384Y-140275009D01*
X96201853Y-140204454D01*
X96260692Y-140069376D01*
X96316104Y-139932909D01*
X96359064Y-139817603D01*
X96370734Y-139782477D01*
X96403889Y-139688674D01*
X96436299Y-139616194D01*
X96454101Y-139588801D01*
X96493386Y-139572036D01*
X96579126Y-139548270D01*
X96700197Y-139520197D01*
X96845473Y-139490509D01*
X96910488Y-139478306D01*
X97075587Y-139447968D01*
X97233948Y-139418593D01*
X97370096Y-139393069D01*
X97468557Y-139374285D01*
X97487098Y-139370660D01*
X97640373Y-139340406D01*
X97640373Y-138702145D01*
X97640029Y-138492270D01*
X97638616Y-138333480D01*
X97635564Y-138218473D01*
X97630303Y-138139946D01*
X97622263Y-138090596D01*
X97610873Y-138063119D01*
X97595563Y-138050213D01*
X97589282Y-138047820D01*
X97551396Y-138039333D01*
X97467695Y-138022400D01*
X97348933Y-137999066D01*
X97205861Y-137971375D01*
X97049232Y-137941373D01*
X96889797Y-137911104D01*
X96738309Y-137882615D01*
X96605519Y-137857949D01*
X96502181Y-137839151D01*
X96439045Y-137828267D01*
X96424997Y-137826385D01*
X96412270Y-137801204D01*
X96384100Y-137734122D01*
X96345752Y-137637833D01*
X96331109Y-137600121D01*
X96272048Y-137454421D01*
X96202500Y-137293451D01*
X96140212Y-137157791D01*
X96094379Y-137054061D01*
X96063887Y-136968826D01*
X96053708Y-136916626D01*
X96055331Y-136909630D01*
X96076843Y-136876602D01*
X96125965Y-136803143D01*
X96197423Y-136697077D01*
X96285945Y-136566226D01*
X96386259Y-136418412D01*
X96406094Y-136389234D01*
X96522488Y-136216363D01*
X96608048Y-136084726D01*
X96666184Y-135988261D01*
X96700308Y-135920908D01*
X96713831Y-135876606D01*
X96710164Y-135849294D01*
X96710070Y-135849120D01*
X96681207Y-135813246D01*
X96617367Y-135743891D01*
X96525469Y-135648245D01*
X96412433Y-135533499D01*
X96285179Y-135406841D01*
X96270828Y-135392705D01*
X96110457Y-135237403D01*
X95986695Y-135123370D01*
X95897055Y-135048502D01*
X95839052Y-135010696D01*
X95813504Y-135005817D01*
X95776218Y-135027103D01*
X95698843Y-135076273D01*
X95589367Y-135148075D01*
X95455780Y-135237255D01*
X95306070Y-135338563D01*
X95271118Y-135362397D01*
X94774890Y-135701265D01*
X94550793Y-135599556D01*
X94414511Y-135540283D01*
X94268224Y-135480670D01*
X94142465Y-135433140D01*
X94136925Y-135431185D01*
X94038557Y-135395177D01*
X93962729Y-135364729D01*
X93925782Y-135346405D01*
X93925720Y-135346352D01*
X93913996Y-135313229D01*
X93894068Y-135231767D01*
X93867913Y-135111125D01*
X93837510Y-134960459D01*
X93804837Y-134788928D01*
X93802164Y-134774467D01*
X93769390Y-134597735D01*
X93739302Y-134437310D01*
X93713839Y-134303388D01*
X93694941Y-134206163D01*
X93684547Y-134155832D01*
X93684365Y-134155063D01*
X93678039Y-134133653D01*
X93665739Y-134117488D01*
X93640094Y-134105831D01*
X93593735Y-134097945D01*
X93519292Y-134093093D01*
X93409395Y-134090539D01*
X93256675Y-134089545D01*
X93053762Y-134089374D01*
X93027500Y-134089374D01*
X92818486Y-134089498D01*
G37*
X92818486Y-134089498D02*
X92660494Y-134090363D01*
X92546153Y-134092705D01*
X92468093Y-134097262D01*
X92418946Y-134104770D01*
X92391341Y-134115966D01*
X92377908Y-134131588D01*
X92371279Y-134152373D01*
X92370635Y-134155063D01*
X92360565Y-134203613D01*
X92341925Y-134299405D01*
X92316655Y-134432243D01*
X92286693Y-134591931D01*
X92253978Y-134768274D01*
X92252836Y-134774467D01*
X92220067Y-134947282D01*
X92189407Y-135099969D01*
X92162836Y-135223371D01*
X92142333Y-135308331D01*
X92129874Y-135345690D01*
X92129280Y-135346352D01*
X92092581Y-135364595D01*
X92016914Y-135394997D01*
X91918622Y-135430993D01*
X91918075Y-135431185D01*
X91794267Y-135477722D01*
X91648304Y-135537004D01*
X91510719Y-135596609D01*
X91504207Y-135599556D01*
X91280110Y-135701265D01*
X90783881Y-135362397D01*
X90631654Y-135259092D01*
X90493759Y-135166737D01*
X90378185Y-135090584D01*
X90292921Y-135035885D01*
X90245956Y-135007893D01*
X90241496Y-135005817D01*
X90207366Y-135015060D01*
X90143619Y-135059656D01*
X90047769Y-135141709D01*
X89917331Y-135263321D01*
X89784172Y-135392705D01*
X89655806Y-135520202D01*
X89540919Y-135636546D01*
X89446427Y-135734552D01*
X89379247Y-135807036D01*
X89346294Y-135846813D01*
X89345068Y-135848861D01*
X89341426Y-135876156D01*
X89355150Y-135920734D01*
X89389631Y-135988612D01*
X89448261Y-136085811D01*
X89534430Y-136218351D01*
X89649300Y-136388976D01*
X89751246Y-136539155D01*
X89842377Y-136673850D01*
X89917427Y-136785240D01*
X89971131Y-136865505D01*
X89998220Y-136906825D01*
X89999926Y-136909630D01*
X89996618Y-136949221D01*
X89971547Y-137026169D01*
X89929702Y-137125932D01*
X89914788Y-137157791D01*
X89849714Y-137299726D01*
X89780288Y-137460773D01*
X89723891Y-137600121D01*
X89683253Y-137703544D01*
X89650974Y-137782142D01*
X89632322Y-137823220D01*
X89630003Y-137826385D01*
X89595697Y-137831628D01*
X89514831Y-137845994D01*
X89398157Y-137867437D01*
X89256425Y-137893913D01*
X89100390Y-137923377D01*
X88940802Y-137953783D01*
X88788415Y-137983088D01*
X88653979Y-138009245D01*
X88548248Y-138030210D01*
X88481974Y-138043939D01*
X88465718Y-138047820D01*
X88448927Y-138057400D01*
X88436251Y-138079036D01*
X88427122Y-138120031D01*
X88420969Y-138187689D01*
X88417220Y-138289312D01*
X88415308Y-138432203D01*
X88414660Y-138623665D01*
X88414626Y-138702145D01*
X88414626Y-139340406D01*
X88567902Y-139370660D01*
X88653178Y-139387064D01*
X88780430Y-139411009D01*
X88934185Y-139439607D01*
X89098966Y-139469967D01*
X89144511Y-139478306D01*
X89296568Y-139507870D01*
X89429032Y-139536942D01*
X89530786Y-139562829D01*
X89590712Y-139582837D01*
X89600695Y-139588801D01*
X89625207Y-139631034D01*
X89660352Y-139712870D01*
X89699327Y-139818183D01*
X89707058Y-139840868D01*
X89758140Y-139981518D01*
X89821546Y-140140214D01*
X89883596Y-140282725D01*
X89883902Y-140283386D01*
X89987233Y-140506940D01*
X89307539Y-141506732D01*
X89743879Y-141943800D01*
X89875851Y-142073881D01*
X89996221Y-142188548D01*
X90098227Y-142281681D01*
X90175109Y-142347158D01*
X90220107Y-142378857D01*
X90226562Y-142380868D01*
X90264460Y-142365029D01*
X90341792Y-142320996D01*
X90450111Y-142253990D01*
X90580968Y-142169234D01*
X90722448Y-142074316D01*
X90866039Y-141977498D01*
X90994065Y-141893251D01*
X91098395Y-141826758D01*
X91170900Y-141783202D01*
X91203342Y-141767764D01*
X91242924Y-141780828D01*
X91317981Y-141815250D01*
X91413032Y-141863880D01*
X91423108Y-141869285D01*
X91551109Y-141933480D01*
X91638882Y-141964963D01*
X91693472Y-141965298D01*
X91721925Y-141936048D01*
X91722090Y-141935638D01*
X91736312Y-141900998D01*
X91770231Y-141818769D01*
X91821216Y-141695314D01*
X91886638Y-141536998D01*
X91963866Y-141350186D01*
X92050271Y-141141242D01*
X92133949Y-140938946D01*
X92225912Y-140715700D01*
X92310350Y-140508892D01*
X92384731Y-140324862D01*
X92446526Y-140169951D01*
X92493203Y-140050496D01*
X92522232Y-139972839D01*
X92531178Y-139943856D01*
X92508744Y-139910610D01*
X92450061Y-139857623D01*
X92371811Y-139799204D01*
X92148966Y-139614452D01*
X91974782Y-139402682D01*
X91851346Y-139168356D01*
X91780746Y-138915934D01*
X91765069Y-138649877D01*
X91776464Y-138527075D01*
X91838550Y-138272293D01*
X91945477Y-138047301D01*
X92090611Y-137854317D01*
X92267322Y-137695561D01*
X92468978Y-137573250D01*
X92688946Y-137489605D01*
X92920594Y-137446844D01*
X93157291Y-137447187D01*
X93392405Y-137492852D01*
X93619304Y-137586059D01*
X93831356Y-137729027D01*
X93919864Y-137809883D01*
X94089611Y-138017507D01*
X94207801Y-138244395D01*
X94275222Y-138483933D01*
X94292660Y-138729507D01*
X94260902Y-138974503D01*
X94180735Y-139212308D01*
X94052945Y-139436307D01*
X93878320Y-139639887D01*
X93683188Y-139799204D01*
X93601909Y-139860102D01*
X93544491Y-139912515D01*
X93523822Y-139943906D01*
X93534644Y-139978139D01*
X93565423Y-140059919D01*
X93613626Y-140182907D01*
X93676722Y-140340763D01*
X93752178Y-140527149D01*
X93837462Y-140735726D01*
X93921281Y-140938996D01*
X94013755Y-141162433D01*
X94099411Y-141369484D01*
X94175618Y-141553786D01*
X94239747Y-141708975D01*
X94289168Y-141828688D01*
X94321252Y-141906561D01*
X94333141Y-141935638D01*
X94361226Y-141965177D01*
X94415551Y-141965091D01*
X94503105Y-141933826D01*
X94630881Y-141869829D01*
X94631892Y-141869285D01*
X94728098Y-141819621D01*
X94805869Y-141783445D01*
X94849723Y-141767908D01*
X94851658Y-141767764D01*
X94884671Y-141783524D01*
X94957554Y-141827350D01*
X95062178Y-141894057D01*
X95190410Y-141978464D01*
X95332552Y-142074316D01*
X95477267Y-142171367D01*
X95607696Y-142255770D01*
X95715390Y-142322301D01*
X95791902Y-142365738D01*
X95828438Y-142380868D01*
X95862082Y-142360982D01*
X95929724Y-142305403D01*
X96024607Y-142220254D01*
X96139970Y-142111653D01*
X96269055Y-141985721D01*
X96311271Y-141943649D01*
X96747761Y-141506431D01*
X96415523Y-141018840D01*
X96314554Y-140869105D01*
X96225938Y-140734720D01*
X96154646Y-140623469D01*
X96105650Y-140543139D01*
X96083922Y-140501514D01*
X96083285Y-140498553D01*
X96094740Y-140459318D01*
X96125551Y-140380395D01*
X96170384Y-140275009D01*
X96201853Y-140204454D01*
X96260692Y-140069376D01*
X96316104Y-139932909D01*
X96359064Y-139817603D01*
X96370734Y-139782477D01*
X96403889Y-139688674D01*
X96436299Y-139616194D01*
X96454101Y-139588801D01*
X96493386Y-139572036D01*
X96579126Y-139548270D01*
X96700197Y-139520197D01*
X96845473Y-139490509D01*
X96910488Y-139478306D01*
X97075587Y-139447968D01*
X97233948Y-139418593D01*
X97370096Y-139393069D01*
X97468557Y-139374285D01*
X97487098Y-139370660D01*
X97640373Y-139340406D01*
X97640373Y-138702145D01*
X97640029Y-138492270D01*
X97638616Y-138333480D01*
X97635564Y-138218473D01*
X97630303Y-138139946D01*
X97622263Y-138090596D01*
X97610873Y-138063119D01*
X97595563Y-138050213D01*
X97589282Y-138047820D01*
X97551396Y-138039333D01*
X97467695Y-138022400D01*
X97348933Y-137999066D01*
X97205861Y-137971375D01*
X97049232Y-137941373D01*
X96889797Y-137911104D01*
X96738309Y-137882615D01*
X96605519Y-137857949D01*
X96502181Y-137839151D01*
X96439045Y-137828267D01*
X96424997Y-137826385D01*
X96412270Y-137801204D01*
X96384100Y-137734122D01*
X96345752Y-137637833D01*
X96331109Y-137600121D01*
X96272048Y-137454421D01*
X96202500Y-137293451D01*
X96140212Y-137157791D01*
X96094379Y-137054061D01*
X96063887Y-136968826D01*
X96053708Y-136916626D01*
X96055331Y-136909630D01*
X96076843Y-136876602D01*
X96125965Y-136803143D01*
X96197423Y-136697077D01*
X96285945Y-136566226D01*
X96386259Y-136418412D01*
X96406094Y-136389234D01*
X96522488Y-136216363D01*
X96608048Y-136084726D01*
X96666184Y-135988261D01*
X96700308Y-135920908D01*
X96713831Y-135876606D01*
X96710164Y-135849294D01*
X96710070Y-135849120D01*
X96681207Y-135813246D01*
X96617367Y-135743891D01*
X96525469Y-135648245D01*
X96412433Y-135533499D01*
X96285179Y-135406841D01*
X96270828Y-135392705D01*
X96110457Y-135237403D01*
X95986695Y-135123370D01*
X95897055Y-135048502D01*
X95839052Y-135010696D01*
X95813504Y-135005817D01*
X95776218Y-135027103D01*
X95698843Y-135076273D01*
X95589367Y-135148075D01*
X95455780Y-135237255D01*
X95306070Y-135338563D01*
X95271118Y-135362397D01*
X94774890Y-135701265D01*
X94550793Y-135599556D01*
X94414511Y-135540283D01*
X94268224Y-135480670D01*
X94142465Y-135433140D01*
X94136925Y-135431185D01*
X94038557Y-135395177D01*
X93962729Y-135364729D01*
X93925782Y-135346405D01*
X93925720Y-135346352D01*
X93913996Y-135313229D01*
X93894068Y-135231767D01*
X93867913Y-135111125D01*
X93837510Y-134960459D01*
X93804837Y-134788928D01*
X93802164Y-134774467D01*
X93769390Y-134597735D01*
X93739302Y-134437310D01*
X93713839Y-134303388D01*
X93694941Y-134206163D01*
X93684547Y-134155832D01*
X93684365Y-134155063D01*
X93678039Y-134133653D01*
X93665739Y-134117488D01*
X93640094Y-134105831D01*
X93593735Y-134097945D01*
X93519292Y-134093093D01*
X93409395Y-134090539D01*
X93256675Y-134089545D01*
X93053762Y-134089374D01*
X93027500Y-134089374D01*
X92818486Y-134089498D01*
G36*
X86684061Y-143593040D02*
G01*
X86568550Y-143668534D01*
X86512836Y-143736117D01*
X86468696Y-143858755D01*
X86465191Y-143955798D01*
X86473132Y-144085556D01*
X86772385Y-144216539D01*
X86917889Y-144283458D01*
X87012963Y-144337290D01*
X87062399Y-144383916D01*
X87070989Y-144429220D01*
X87043528Y-144479082D01*
X87013247Y-144512132D01*
X86925137Y-144565133D01*
X86829304Y-144568847D01*
X86741288Y-144527541D01*
X86676631Y-144445483D01*
X86665067Y-144416508D01*
X86609675Y-144326009D01*
X86545947Y-144287440D01*
X86458534Y-144254446D01*
X86458534Y-144379534D01*
X86466262Y-144464656D01*
X86496534Y-144536438D01*
X86559982Y-144618856D01*
X86569412Y-144629566D01*
X86639987Y-144702891D01*
X86700653Y-144742242D01*
X86776550Y-144760345D01*
X86839470Y-144766274D01*
X86952013Y-144767751D01*
X87032130Y-144749035D01*
X87082110Y-144721247D01*
X87160662Y-144660141D01*
X87215037Y-144594054D01*
X87249448Y-144510941D01*
X87268112Y-144398754D01*
X87275244Y-144245446D01*
X87275813Y-144167636D01*
X87273878Y-144074353D01*
X87097601Y-144074353D01*
X87095556Y-144124396D01*
X87090461Y-144132592D01*
X87056834Y-144121458D01*
X86984470Y-144091993D01*
X86887753Y-144050101D01*
X86867527Y-144041097D01*
X86745297Y-143978942D01*
X86677953Y-143924315D01*
X86663152Y-143873149D01*
X86698553Y-143821376D01*
X86727789Y-143798500D01*
X86833284Y-143752750D01*
X86932024Y-143760308D01*
X87014688Y-143816151D01*
X87071952Y-143915253D01*
X87090312Y-143993914D01*
X87097601Y-144074353D01*
X87273878Y-144074353D01*
X87272041Y-143985851D01*
X87258141Y-143851353D01*
X87230606Y-143753416D01*
X87185928Y-143681311D01*
X87120599Y-143624313D01*
X87092117Y-143605893D01*
X86962737Y-143557922D01*
X86821088Y-143554903D01*
X86684061Y-143593040D01*
G37*
X86684061Y-143593040D02*
X86568550Y-143668534D01*
X86512836Y-143736117D01*
X86468696Y-143858755D01*
X86465191Y-143955798D01*
X86473132Y-144085556D01*
X86772385Y-144216539D01*
X86917889Y-144283458D01*
X87012963Y-144337290D01*
X87062399Y-144383916D01*
X87070989Y-144429220D01*
X87043528Y-144479082D01*
X87013247Y-144512132D01*
X86925137Y-144565133D01*
X86829304Y-144568847D01*
X86741288Y-144527541D01*
X86676631Y-144445483D01*
X86665067Y-144416508D01*
X86609675Y-144326009D01*
X86545947Y-144287440D01*
X86458534Y-144254446D01*
X86458534Y-144379534D01*
X86466262Y-144464656D01*
X86496534Y-144536438D01*
X86559982Y-144618856D01*
X86569412Y-144629566D01*
X86639987Y-144702891D01*
X86700653Y-144742242D01*
X86776550Y-144760345D01*
X86839470Y-144766274D01*
X86952013Y-144767751D01*
X87032130Y-144749035D01*
X87082110Y-144721247D01*
X87160662Y-144660141D01*
X87215037Y-144594054D01*
X87249448Y-144510941D01*
X87268112Y-144398754D01*
X87275244Y-144245446D01*
X87275813Y-144167636D01*
X87273878Y-144074353D01*
X87097601Y-144074353D01*
X87095556Y-144124396D01*
X87090461Y-144132592D01*
X87056834Y-144121458D01*
X86984470Y-144091993D01*
X86887753Y-144050101D01*
X86867527Y-144041097D01*
X86745297Y-143978942D01*
X86677953Y-143924315D01*
X86663152Y-143873149D01*
X86698553Y-143821376D01*
X86727789Y-143798500D01*
X86833284Y-143752750D01*
X86932024Y-143760308D01*
X87014688Y-143816151D01*
X87071952Y-143915253D01*
X87090312Y-143993914D01*
X87097601Y-144074353D01*
X87273878Y-144074353D01*
X87272041Y-143985851D01*
X87258141Y-143851353D01*
X87230606Y-143753416D01*
X87185928Y-143681311D01*
X87120599Y-143624313D01*
X87092117Y-143605893D01*
X86962737Y-143557922D01*
X86821088Y-143554903D01*
X86684061Y-143593040D01*
G36*
X87691810Y-143576518D02*
G01*
X87656915Y-143591769D01*
X87573623Y-143657735D01*
X87502397Y-143753118D01*
X87458347Y-143854906D01*
X87451178Y-143905087D01*
X87475215Y-143975147D01*
X87527939Y-144012217D01*
X87584469Y-144034664D01*
X87610354Y-144038800D01*
X87622958Y-144008783D01*
X87647846Y-143943461D01*
X87658765Y-143913945D01*
X87719992Y-143811848D01*
X87808639Y-143760923D01*
X87922307Y-143762489D01*
X87930726Y-143764494D01*
X87991412Y-143793267D01*
X88036026Y-143849359D01*
X88066498Y-143939663D01*
X88084756Y-144071071D01*
X88092729Y-144250474D01*
X88093477Y-144345933D01*
X88093848Y-144496413D01*
X88096277Y-144598995D01*
X88102740Y-144664172D01*
X88115212Y-144702438D01*
X88135667Y-144724285D01*
X88166081Y-144740207D01*
X88167839Y-144741009D01*
X88226409Y-144765772D01*
X88255425Y-144774891D01*
X88259884Y-144747322D01*
X88263701Y-144671120D01*
X88266601Y-144556041D01*
X88268309Y-144411841D01*
X88268649Y-144306314D01*
X88266912Y-144102113D01*
X88260118Y-143947197D01*
X88245893Y-143832524D01*
X88221862Y-143749051D01*
X88185652Y-143687736D01*
X88134888Y-143639534D01*
X88084761Y-143605893D01*
X87964225Y-143561119D01*
X87823943Y-143551021D01*
X87691810Y-143576518D01*
G37*
X87691810Y-143576518D02*
X87656915Y-143591769D01*
X87573623Y-143657735D01*
X87502397Y-143753118D01*
X87458347Y-143854906D01*
X87451178Y-143905087D01*
X87475215Y-143975147D01*
X87527939Y-144012217D01*
X87584469Y-144034664D01*
X87610354Y-144038800D01*
X87622958Y-144008783D01*
X87647846Y-143943461D01*
X87658765Y-143913945D01*
X87719992Y-143811848D01*
X87808639Y-143760923D01*
X87922307Y-143762489D01*
X87930726Y-143764494D01*
X87991412Y-143793267D01*
X88036026Y-143849359D01*
X88066498Y-143939663D01*
X88084756Y-144071071D01*
X88092729Y-144250474D01*
X88093477Y-144345933D01*
X88093848Y-144496413D01*
X88096277Y-144598995D01*
X88102740Y-144664172D01*
X88115212Y-144702438D01*
X88135667Y-144724285D01*
X88166081Y-144740207D01*
X88167839Y-144741009D01*
X88226409Y-144765772D01*
X88255425Y-144774891D01*
X88259884Y-144747322D01*
X88263701Y-144671120D01*
X88266601Y-144556041D01*
X88268309Y-144411841D01*
X88268649Y-144306314D01*
X88266912Y-144102113D01*
X88260118Y-143947197D01*
X88245893Y-143832524D01*
X88221862Y-143749051D01*
X88185652Y-143687736D01*
X88134888Y-143639534D01*
X88084761Y-143605893D01*
X87964225Y-143561119D01*
X87823943Y-143551021D01*
X87691810Y-143576518D01*
G36*
X88713094Y-143571656D02*
G01*
X88629031Y-143609893D01*
X88563050Y-143656226D01*
X88514706Y-143708032D01*
X88481328Y-143774863D01*
X88460247Y-143866269D01*
X88448793Y-143991801D01*
X88444297Y-144161008D01*
X88443822Y-144272433D01*
X88443822Y-144707127D01*
X88518184Y-144741009D01*
X88576754Y-144765772D01*
X88605770Y-144774891D01*
X88611321Y-144747757D01*
X88615725Y-144674594D01*
X88618422Y-144567763D01*
X88618994Y-144482937D01*
X88621454Y-144360387D01*
X88628088Y-144263168D01*
X88637774Y-144203634D01*
X88645468Y-144190983D01*
X88697189Y-144203902D01*
X88778383Y-144237039D01*
X88872398Y-144281961D01*
X88962583Y-144330235D01*
X89032285Y-144373428D01*
X89064852Y-144403108D01*
X89064981Y-144403429D01*
X89062180Y-144458357D01*
X89037061Y-144510792D01*
X88992959Y-144553381D01*
X88928591Y-144567626D01*
X88873579Y-144565966D01*
X88795665Y-144564745D01*
X88754768Y-144582998D01*
X88730205Y-144631226D01*
X88727108Y-144640320D01*
X88716460Y-144709098D01*
X88744935Y-144750860D01*
X88819156Y-144770763D01*
X88899332Y-144774444D01*
X89043610Y-144747158D01*
X89118297Y-144708190D01*
X89210537Y-144616648D01*
X89259457Y-144504282D01*
X89263846Y-144385551D01*
X89222499Y-144274911D01*
X89160303Y-144205580D01*
X89098206Y-144166765D01*
X89000605Y-144117625D01*
X88886868Y-144067792D01*
X88867910Y-144060177D01*
X88742979Y-144005045D01*
X88670961Y-143956454D01*
X88647800Y-143908147D01*
X88669436Y-143853870D01*
X88706580Y-143811443D01*
X88794373Y-143759202D01*
X88890970Y-143755284D01*
X88979556Y-143795541D01*
X89043314Y-143875826D01*
X89051683Y-143896540D01*
X89100404Y-143972725D01*
X89171535Y-144029285D01*
X89261293Y-144075701D01*
X89261293Y-143944084D01*
X89256010Y-143863668D01*
X89233358Y-143800286D01*
X89183133Y-143732663D01*
X89134918Y-143680576D01*
X89059946Y-143606822D01*
X89001694Y-143567202D01*
X88939128Y-143551310D01*
X88868307Y-143548684D01*
X88713094Y-143571656D01*
G37*
X88713094Y-143571656D02*
X88629031Y-143609893D01*
X88563050Y-143656226D01*
X88514706Y-143708032D01*
X88481328Y-143774863D01*
X88460247Y-143866269D01*
X88448793Y-143991801D01*
X88444297Y-144161008D01*
X88443822Y-144272433D01*
X88443822Y-144707127D01*
X88518184Y-144741009D01*
X88576754Y-144765772D01*
X88605770Y-144774891D01*
X88611321Y-144747757D01*
X88615725Y-144674594D01*
X88618422Y-144567763D01*
X88618994Y-144482937D01*
X88621454Y-144360387D01*
X88628088Y-144263168D01*
X88637774Y-144203634D01*
X88645468Y-144190983D01*
X88697189Y-144203902D01*
X88778383Y-144237039D01*
X88872398Y-144281961D01*
X88962583Y-144330235D01*
X89032285Y-144373428D01*
X89064852Y-144403108D01*
X89064981Y-144403429D01*
X89062180Y-144458357D01*
X89037061Y-144510792D01*
X88992959Y-144553381D01*
X88928591Y-144567626D01*
X88873579Y-144565966D01*
X88795665Y-144564745D01*
X88754768Y-144582998D01*
X88730205Y-144631226D01*
X88727108Y-144640320D01*
X88716460Y-144709098D01*
X88744935Y-144750860D01*
X88819156Y-144770763D01*
X88899332Y-144774444D01*
X89043610Y-144747158D01*
X89118297Y-144708190D01*
X89210537Y-144616648D01*
X89259457Y-144504282D01*
X89263846Y-144385551D01*
X89222499Y-144274911D01*
X89160303Y-144205580D01*
X89098206Y-144166765D01*
X89000605Y-144117625D01*
X88886868Y-144067792D01*
X88867910Y-144060177D01*
X88742979Y-144005045D01*
X88670961Y-143956454D01*
X88647800Y-143908147D01*
X88669436Y-143853870D01*
X88706580Y-143811443D01*
X88794373Y-143759202D01*
X88890970Y-143755284D01*
X88979556Y-143795541D01*
X89043314Y-143875826D01*
X89051683Y-143896540D01*
X89100404Y-143972725D01*
X89171535Y-144029285D01*
X89261293Y-144075701D01*
X89261293Y-143944084D01*
X89256010Y-143863668D01*
X89233358Y-143800286D01*
X89183133Y-143732663D01*
X89134918Y-143680576D01*
X89059946Y-143606822D01*
X89001694Y-143567202D01*
X88939128Y-143551310D01*
X88868307Y-143548684D01*
X88713094Y-143571656D01*
G36*
X89447376Y-143576340D02*
G01*
X89442921Y-143653153D01*
X89439429Y-143769891D01*
X89437185Y-143917321D01*
X89436465Y-144071955D01*
X89436465Y-144595227D01*
X89528855Y-144687617D01*
X89592522Y-144744547D01*
X89648411Y-144767607D01*
X89724798Y-144766147D01*
X89755120Y-144762434D01*
X89849890Y-144751626D01*
X89928278Y-144745433D01*
X89947385Y-144744861D01*
X90011801Y-144748602D01*
X90103929Y-144757994D01*
X90139650Y-144762434D01*
X90227386Y-144769301D01*
X90286347Y-144754385D01*
X90344810Y-144708335D01*
X90365915Y-144687617D01*
X90458305Y-144595227D01*
X90458305Y-143616447D01*
X90383942Y-143582566D01*
X90319910Y-143557470D01*
X90282448Y-143548684D01*
X90272843Y-143576450D01*
X90263865Y-143654030D01*
X90256114Y-143772848D01*
X90250186Y-143924328D01*
X90247327Y-144052305D01*
X90239339Y-144555925D01*
X90169652Y-144565778D01*
X90106271Y-144558889D01*
X90075214Y-144536583D01*
X90066533Y-144494879D01*
X90059122Y-144406044D01*
X90053569Y-144281334D01*
X90050464Y-144132007D01*
X90050016Y-144055161D01*
X90049569Y-143612787D01*
X89957626Y-143580735D01*
X89892551Y-143558943D01*
X89857153Y-143548781D01*
X89856132Y-143548684D01*
X89852580Y-143576309D01*
X89848677Y-143652911D01*
X89844749Y-143769079D01*
X89841124Y-143915404D01*
X89838592Y-144052305D01*
X89830603Y-144555925D01*
X89655431Y-144555925D01*
X89647393Y-144096465D01*
X89639354Y-143637005D01*
X89553957Y-143592844D01*
X89490907Y-143562519D01*
X89453590Y-143548758D01*
X89452513Y-143548684D01*
X89447376Y-143576340D01*
G37*
X89447376Y-143576340D02*
X89442921Y-143653153D01*
X89439429Y-143769891D01*
X89437185Y-143917321D01*
X89436465Y-144071955D01*
X89436465Y-144595227D01*
X89528855Y-144687617D01*
X89592522Y-144744547D01*
X89648411Y-144767607D01*
X89724798Y-144766147D01*
X89755120Y-144762434D01*
X89849890Y-144751626D01*
X89928278Y-144745433D01*
X89947385Y-144744861D01*
X90011801Y-144748602D01*
X90103929Y-144757994D01*
X90139650Y-144762434D01*
X90227386Y-144769301D01*
X90286347Y-144754385D01*
X90344810Y-144708335D01*
X90365915Y-144687617D01*
X90458305Y-144595227D01*
X90458305Y-143616447D01*
X90383942Y-143582566D01*
X90319910Y-143557470D01*
X90282448Y-143548684D01*
X90272843Y-143576450D01*
X90263865Y-143654030D01*
X90256114Y-143772848D01*
X90250186Y-143924328D01*
X90247327Y-144052305D01*
X90239339Y-144555925D01*
X90169652Y-144565778D01*
X90106271Y-144558889D01*
X90075214Y-144536583D01*
X90066533Y-144494879D01*
X90059122Y-144406044D01*
X90053569Y-144281334D01*
X90050464Y-144132007D01*
X90050016Y-144055161D01*
X90049569Y-143612787D01*
X89957626Y-143580735D01*
X89892551Y-143558943D01*
X89857153Y-143548781D01*
X89856132Y-143548684D01*
X89852580Y-143576309D01*
X89848677Y-143652911D01*
X89844749Y-143769079D01*
X89841124Y-143915404D01*
X89838592Y-144052305D01*
X89830603Y-144555925D01*
X89655431Y-144555925D01*
X89647393Y-144096465D01*
X89639354Y-143637005D01*
X89553957Y-143592844D01*
X89490907Y-143562519D01*
X89453590Y-143548758D01*
X89452513Y-143548684D01*
X89447376Y-143576340D01*
G36*
X90633586Y-143790955D02*
G01*
X90633957Y-144009161D01*
X90635392Y-144177019D01*
X90638498Y-144302570D01*
X90643878Y-144393855D01*
X90652138Y-144458915D01*
X90663884Y-144505791D01*
X90679719Y-144542524D01*
X90691710Y-144563491D01*
X90791010Y-144677194D01*
X90916912Y-144748465D01*
X91056209Y-144774038D01*
X91195695Y-144750650D01*
X91278757Y-144708619D01*
X91365955Y-144635911D01*
X91425383Y-144547112D01*
X91461239Y-144430820D01*
X91477719Y-144275635D01*
X91480053Y-144161787D01*
X91479739Y-144153606D01*
X91275776Y-144153606D01*
X91274530Y-144284157D01*
X91268822Y-144370580D01*
X91255696Y-144427118D01*
X91232194Y-144468014D01*
X91204114Y-144498862D01*
X91109812Y-144558405D01*
X91008560Y-144563492D01*
X90912864Y-144513779D01*
X90905416Y-144507043D01*
X90873626Y-144472002D01*
X90853692Y-144430311D01*
X90842900Y-144368262D01*
X90838535Y-144272144D01*
X90837845Y-144165879D01*
X90839341Y-144032380D01*
X90845536Y-143943322D01*
X90858986Y-143884793D01*
X90882249Y-143842882D01*
X90901325Y-143820623D01*
X90989937Y-143764485D01*
X91091992Y-143757735D01*
X91189405Y-143800614D01*
X91208204Y-143816532D01*
X91240207Y-143851882D01*
X91260182Y-143894002D01*
X91270907Y-143956751D01*
X91275161Y-144053987D01*
X91275776Y-144153606D01*
X91479739Y-144153606D01*
X91472996Y-143978447D01*
X91449028Y-143840695D01*
X91403952Y-143737132D01*
X91333572Y-143656356D01*
X91278757Y-143614955D01*
X91179124Y-143570228D01*
X91063645Y-143549467D01*
X90956301Y-143555025D01*
X90896236Y-143577443D01*
X90872665Y-143583823D01*
X90857023Y-143560035D01*
X90846105Y-143496288D01*
X90837845Y-143399187D01*
X90828801Y-143291041D01*
X90816239Y-143225975D01*
X90793381Y-143188768D01*
X90753449Y-143164199D01*
X90728362Y-143153319D01*
X90633477Y-143113572D01*
X90633586Y-143790955D01*
G37*
X90633586Y-143790955D02*
X90633957Y-144009161D01*
X90635392Y-144177019D01*
X90638498Y-144302570D01*
X90643878Y-144393855D01*
X90652138Y-144458915D01*
X90663884Y-144505791D01*
X90679719Y-144542524D01*
X90691710Y-144563491D01*
X90791010Y-144677194D01*
X90916912Y-144748465D01*
X91056209Y-144774038D01*
X91195695Y-144750650D01*
X91278757Y-144708619D01*
X91365955Y-144635911D01*
X91425383Y-144547112D01*
X91461239Y-144430820D01*
X91477719Y-144275635D01*
X91480053Y-144161787D01*
X91479739Y-144153606D01*
X91275776Y-144153606D01*
X91274530Y-144284157D01*
X91268822Y-144370580D01*
X91255696Y-144427118D01*
X91232194Y-144468014D01*
X91204114Y-144498862D01*
X91109812Y-144558405D01*
X91008560Y-144563492D01*
X90912864Y-144513779D01*
X90905416Y-144507043D01*
X90873626Y-144472002D01*
X90853692Y-144430311D01*
X90842900Y-144368262D01*
X90838535Y-144272144D01*
X90837845Y-144165879D01*
X90839341Y-144032380D01*
X90845536Y-143943322D01*
X90858986Y-143884793D01*
X90882249Y-143842882D01*
X90901325Y-143820623D01*
X90989937Y-143764485D01*
X91091992Y-143757735D01*
X91189405Y-143800614D01*
X91208204Y-143816532D01*
X91240207Y-143851882D01*
X91260182Y-143894002D01*
X91270907Y-143956751D01*
X91275161Y-144053987D01*
X91275776Y-144153606D01*
X91479739Y-144153606D01*
X91472996Y-143978447D01*
X91449028Y-143840695D01*
X91403952Y-143737132D01*
X91333572Y-143656356D01*
X91278757Y-143614955D01*
X91179124Y-143570228D01*
X91063645Y-143549467D01*
X90956301Y-143555025D01*
X90896236Y-143577443D01*
X90872665Y-143583823D01*
X90857023Y-143560035D01*
X90846105Y-143496288D01*
X90837845Y-143399187D01*
X90828801Y-143291041D01*
X90816239Y-143225975D01*
X90793381Y-143188768D01*
X90753449Y-143164199D01*
X90728362Y-143153319D01*
X90633477Y-143113572D01*
X90633586Y-143790955D01*
G36*
X91961557Y-143558420D02*
G01*
X91828935Y-143607359D01*
X91721490Y-143693919D01*
X91679468Y-143754852D01*
X91633657Y-143866661D01*
X91634609Y-143947506D01*
X91682692Y-144001878D01*
X91700483Y-144011124D01*
X91777296Y-144039950D01*
X91816524Y-144032565D01*
X91829811Y-143984158D01*
X91830488Y-143957420D01*
X91854814Y-143859048D01*
X91918219Y-143790234D01*
X92006346Y-143756998D01*
X92104837Y-143765361D01*
X92184898Y-143808796D01*
X92211939Y-143833572D01*
X92231106Y-143863629D01*
X92244054Y-143909065D01*
X92252436Y-143979976D01*
X92257907Y-144086460D01*
X92262122Y-144238612D01*
X92263213Y-144286787D01*
X92267193Y-144451595D01*
X92271719Y-144567588D01*
X92278505Y-144644333D01*
X92289269Y-144691393D01*
X92305727Y-144718335D01*
X92329594Y-144734723D01*
X92344874Y-144741963D01*
X92409767Y-144766720D01*
X92447966Y-144774891D01*
X92460588Y-144747603D01*
X92468292Y-144665103D01*
X92471120Y-144526441D01*
X92469114Y-144330662D01*
X92468489Y-144300465D01*
X92464079Y-144121849D01*
X92458865Y-143991423D01*
X92451445Y-143898992D01*
X92440418Y-143834358D01*
X92424383Y-143787325D01*
X92401939Y-143747696D01*
X92390198Y-143730715D01*
X92322881Y-143655580D01*
X92247590Y-143597138D01*
X92238372Y-143592036D01*
X92103367Y-143551760D01*
X91961557Y-143558420D01*
G37*
X91961557Y-143558420D02*
X91828935Y-143607359D01*
X91721490Y-143693919D01*
X91679468Y-143754852D01*
X91633657Y-143866661D01*
X91634609Y-143947506D01*
X91682692Y-144001878D01*
X91700483Y-144011124D01*
X91777296Y-144039950D01*
X91816524Y-144032565D01*
X91829811Y-143984158D01*
X91830488Y-143957420D01*
X91854814Y-143859048D01*
X91918219Y-143790234D01*
X92006346Y-143756998D01*
X92104837Y-143765361D01*
X92184898Y-143808796D01*
X92211939Y-143833572D01*
X92231106Y-143863629D01*
X92244054Y-143909065D01*
X92252436Y-143979976D01*
X92257907Y-144086460D01*
X92262122Y-144238612D01*
X92263213Y-144286787D01*
X92267193Y-144451595D01*
X92271719Y-144567588D01*
X92278505Y-144644333D01*
X92289269Y-144691393D01*
X92305727Y-144718335D01*
X92329594Y-144734723D01*
X92344874Y-144741963D01*
X92409767Y-144766720D01*
X92447966Y-144774891D01*
X92460588Y-144747603D01*
X92468292Y-144665103D01*
X92471120Y-144526441D01*
X92469114Y-144330662D01*
X92468489Y-144300465D01*
X92464079Y-144121849D01*
X92458865Y-143991423D01*
X92451445Y-143898992D01*
X92440418Y-143834358D01*
X92424383Y-143787325D01*
X92401939Y-143747696D01*
X92390198Y-143730715D01*
X92322881Y-143655580D01*
X92247590Y-143597138D01*
X92238372Y-143592036D01*
X92103367Y-143551760D01*
X91961557Y-143558420D01*
G36*
X92947556Y-143560860D02*
G01*
X92833157Y-143603342D01*
X92831848Y-143604158D01*
X92761097Y-143656230D01*
X92708864Y-143717084D01*
X92672129Y-143796387D01*
X92647866Y-143903809D01*
X92633055Y-144049017D01*
X92624671Y-144241679D01*
X92623936Y-144269128D01*
X92613380Y-144683021D01*
X92702209Y-144728956D01*
X92766482Y-144759998D01*
X92805290Y-144774706D01*
X92807085Y-144774891D01*
X92813800Y-144747750D01*
X92819135Y-144674541D01*
X92822417Y-144567581D01*
X92823132Y-144480969D01*
X92823149Y-144340662D01*
X92829563Y-144252551D01*
X92851920Y-144210525D01*
X92899768Y-144208475D01*
X92982651Y-144240290D01*
X93107787Y-144298772D01*
X93199803Y-144347345D01*
X93247129Y-144389486D01*
X93261042Y-144435416D01*
X93261063Y-144437689D01*
X93238105Y-144516811D01*
X93170130Y-144559555D01*
X93066102Y-144565746D01*
X92991170Y-144564672D01*
X92951661Y-144586253D01*
X92927022Y-144638091D01*
X92912841Y-144704132D01*
X92933277Y-144741604D01*
X92940972Y-144746967D01*
X93013417Y-144768506D01*
X93114867Y-144771555D01*
X93219343Y-144757278D01*
X93293375Y-144731188D01*
X93395728Y-144644285D01*
X93453909Y-144523316D01*
X93465431Y-144428808D01*
X93456638Y-144343562D01*
X93424820Y-144273976D01*
X93361816Y-144212172D01*
X93259469Y-144150272D01*
X93109618Y-144080397D01*
X93100488Y-144076448D01*
X92965503Y-144014088D01*
X92882206Y-143962946D01*
X92846503Y-143916988D01*
X92854297Y-143870183D01*
X92901493Y-143816498D01*
X92915606Y-143804144D01*
X93010141Y-143756241D01*
X93108094Y-143758258D01*
X93193403Y-143805224D01*
X93250004Y-143892169D01*
X93255263Y-143909234D01*
X93306477Y-143992004D01*
X93371463Y-144031872D01*
X93465431Y-144071382D01*
X93465431Y-143969158D01*
X93436847Y-143820572D01*
X93352005Y-143684284D01*
X93307855Y-143638691D01*
X93207495Y-143580174D01*
X93079865Y-143553684D01*
X92947556Y-143560860D01*
G37*
X92947556Y-143560860D02*
X92833157Y-143603342D01*
X92831848Y-143604158D01*
X92761097Y-143656230D01*
X92708864Y-143717084D01*
X92672129Y-143796387D01*
X92647866Y-143903809D01*
X92633055Y-144049017D01*
X92624671Y-144241679D01*
X92623936Y-144269128D01*
X92613380Y-144683021D01*
X92702209Y-144728956D01*
X92766482Y-144759998D01*
X92805290Y-144774706D01*
X92807085Y-144774891D01*
X92813800Y-144747750D01*
X92819135Y-144674541D01*
X92822417Y-144567581D01*
X92823132Y-144480969D01*
X92823149Y-144340662D01*
X92829563Y-144252551D01*
X92851920Y-144210525D01*
X92899768Y-144208475D01*
X92982651Y-144240290D01*
X93107787Y-144298772D01*
X93199803Y-144347345D01*
X93247129Y-144389486D01*
X93261042Y-144435416D01*
X93261063Y-144437689D01*
X93238105Y-144516811D01*
X93170130Y-144559555D01*
X93066102Y-144565746D01*
X92991170Y-144564672D01*
X92951661Y-144586253D01*
X92927022Y-144638091D01*
X92912841Y-144704132D01*
X92933277Y-144741604D01*
X92940972Y-144746967D01*
X93013417Y-144768506D01*
X93114867Y-144771555D01*
X93219343Y-144757278D01*
X93293375Y-144731188D01*
X93395728Y-144644285D01*
X93453909Y-144523316D01*
X93465431Y-144428808D01*
X93456638Y-144343562D01*
X93424820Y-144273976D01*
X93361816Y-144212172D01*
X93259469Y-144150272D01*
X93109618Y-144080397D01*
X93100488Y-144076448D01*
X92965503Y-144014088D01*
X92882206Y-143962946D01*
X92846503Y-143916988D01*
X92854297Y-143870183D01*
X92901493Y-143816498D01*
X92915606Y-143804144D01*
X93010141Y-143756241D01*
X93108094Y-143758258D01*
X93193403Y-143805224D01*
X93250004Y-143892169D01*
X93255263Y-143909234D01*
X93306477Y-143992004D01*
X93371463Y-144031872D01*
X93465431Y-144071382D01*
X93465431Y-143969158D01*
X93436847Y-143820572D01*
X93352005Y-143684284D01*
X93307855Y-143638691D01*
X93207495Y-143580174D01*
X93079865Y-143553684D01*
X92947556Y-143560860D01*
G36*
X94282902Y-143360357D02*
G01*
X94274346Y-143479688D01*
X94264519Y-143550006D01*
X94250901Y-143580679D01*
X94230973Y-143581071D01*
X94224511Y-143577410D01*
X94138560Y-143550898D01*
X94026755Y-143552446D01*
X93913086Y-143579699D01*
X93841990Y-143614955D01*
X93769095Y-143671278D01*
X93715807Y-143735019D01*
X93679225Y-143816010D01*
X93656450Y-143924086D01*
X93644581Y-144069080D01*
X93640718Y-144260826D01*
X93640649Y-144297609D01*
X93640603Y-144710788D01*
X93732546Y-144742839D01*
X93797848Y-144764644D01*
X93833676Y-144774797D01*
X93834730Y-144774891D01*
X93838258Y-144747360D01*
X93841261Y-144671423D01*
X93843510Y-144557065D01*
X93844776Y-144414269D01*
X93844971Y-144327451D01*
X93845377Y-144156273D01*
X93847468Y-144033588D01*
X93852553Y-143949500D01*
X93861940Y-143894114D01*
X93876939Y-143857532D01*
X93898858Y-143829859D01*
X93912543Y-143816532D01*
X94006551Y-143762828D01*
X94109136Y-143758807D01*
X94202210Y-143804225D01*
X94219422Y-143820623D01*
X94244668Y-143851457D01*
X94262180Y-143888031D01*
X94273358Y-143940915D01*
X94279604Y-144020677D01*
X94282318Y-144137885D01*
X94282902Y-144299491D01*
X94282902Y-144710788D01*
X94374845Y-144742839D01*
X94440147Y-144764644D01*
X94475975Y-144774797D01*
X94477029Y-144774891D01*
X94479725Y-144746948D01*
X94482155Y-144668130D01*
X94484222Y-144545953D01*
X94485829Y-144387932D01*
X94486877Y-144201583D01*
X94487269Y-143994420D01*
X94487270Y-143985206D01*
X94487270Y-143195520D01*
X94392385Y-143155497D01*
X94297500Y-143115473D01*
X94282902Y-143360357D01*
G37*
X94282902Y-143360357D02*
X94274346Y-143479688D01*
X94264519Y-143550006D01*
X94250901Y-143580679D01*
X94230973Y-143581071D01*
X94224511Y-143577410D01*
X94138560Y-143550898D01*
X94026755Y-143552446D01*
X93913086Y-143579699D01*
X93841990Y-143614955D01*
X93769095Y-143671278D01*
X93715807Y-143735019D01*
X93679225Y-143816010D01*
X93656450Y-143924086D01*
X93644581Y-144069080D01*
X93640718Y-144260826D01*
X93640649Y-144297609D01*
X93640603Y-144710788D01*
X93732546Y-144742839D01*
X93797848Y-144764644D01*
X93833676Y-144774797D01*
X93834730Y-144774891D01*
X93838258Y-144747360D01*
X93841261Y-144671423D01*
X93843510Y-144557065D01*
X93844776Y-144414269D01*
X93844971Y-144327451D01*
X93845377Y-144156273D01*
X93847468Y-144033588D01*
X93852553Y-143949500D01*
X93861940Y-143894114D01*
X93876939Y-143857532D01*
X93898858Y-143829859D01*
X93912543Y-143816532D01*
X94006551Y-143762828D01*
X94109136Y-143758807D01*
X94202210Y-143804225D01*
X94219422Y-143820623D01*
X94244668Y-143851457D01*
X94262180Y-143888031D01*
X94273358Y-143940915D01*
X94279604Y-144020677D01*
X94282318Y-144137885D01*
X94282902Y-144299491D01*
X94282902Y-144710788D01*
X94374845Y-144742839D01*
X94440147Y-144764644D01*
X94475975Y-144774797D01*
X94477029Y-144774891D01*
X94479725Y-144746948D01*
X94482155Y-144668130D01*
X94484222Y-144545953D01*
X94485829Y-144387932D01*
X94486877Y-144201583D01*
X94487269Y-143994420D01*
X94487270Y-143985206D01*
X94487270Y-143195520D01*
X94392385Y-143155497D01*
X94297500Y-143115473D01*
X94282902Y-143360357D01*
G36*
X96711948Y-143521176D02*
G01*
X96596842Y-143598611D01*
X96507889Y-143710449D01*
X96454751Y-143852765D01*
X96444003Y-143957515D01*
X96445224Y-144001226D01*
X96455444Y-144034694D01*
X96483539Y-144064679D01*
X96538384Y-144097940D01*
X96628855Y-144141238D01*
X96763828Y-144201333D01*
X96764511Y-144201634D01*
X96888749Y-144258537D01*
X96990627Y-144309065D01*
X97059733Y-144347780D01*
X97085654Y-144369240D01*
X97085661Y-144369413D01*
X97062815Y-144416144D01*
X97009391Y-144467654D01*
X96948058Y-144504761D01*
X96916985Y-144512132D01*
X96832211Y-144486638D01*
X96759207Y-144422791D01*
X96723587Y-144352594D01*
X96689320Y-144300843D01*
X96622197Y-144241909D01*
X96543292Y-144190996D01*
X96473679Y-144163309D01*
X96459123Y-144161787D01*
X96442737Y-144186821D01*
X96441750Y-144250811D01*
X96453792Y-144337093D01*
X96476493Y-144429001D01*
X96507486Y-144509869D01*
X96509052Y-144513009D01*
X96602319Y-144643234D01*
X96723196Y-144731811D01*
X96860473Y-144775286D01*
X97002940Y-144770206D01*
X97139388Y-144713116D01*
X97145455Y-144709102D01*
X97252790Y-144611826D01*
X97323368Y-144484909D01*
X97362426Y-144318026D01*
X97367668Y-144271139D01*
X97376952Y-144049829D01*
X97365822Y-143946624D01*
X97085661Y-143946624D01*
X97082021Y-144011003D01*
X97062111Y-144029791D01*
X97012474Y-144015735D01*
X96934233Y-143982509D01*
X96846774Y-143940859D01*
X96844601Y-143939756D01*
X96770470Y-143900765D01*
X96740719Y-143874744D01*
X96748055Y-143847465D01*
X96778947Y-143811621D01*
X96857540Y-143759751D01*
X96942177Y-143755939D01*
X97018097Y-143793689D01*
X97070535Y-143866501D01*
X97085661Y-143946624D01*
X97365822Y-143946624D01*
X97357856Y-143872761D01*
X97308866Y-143732329D01*
X97240664Y-143633947D01*
X97117565Y-143534530D01*
X96981972Y-143485211D01*
X96843545Y-143482068D01*
X96711948Y-143521176D01*
G37*
X96711948Y-143521176D02*
X96596842Y-143598611D01*
X96507889Y-143710449D01*
X96454751Y-143852765D01*
X96444003Y-143957515D01*
X96445224Y-144001226D01*
X96455444Y-144034694D01*
X96483539Y-144064679D01*
X96538384Y-144097940D01*
X96628855Y-144141238D01*
X96763828Y-144201333D01*
X96764511Y-144201634D01*
X96888749Y-144258537D01*
X96990627Y-144309065D01*
X97059733Y-144347780D01*
X97085654Y-144369240D01*
X97085661Y-144369413D01*
X97062815Y-144416144D01*
X97009391Y-144467654D01*
X96948058Y-144504761D01*
X96916985Y-144512132D01*
X96832211Y-144486638D01*
X96759207Y-144422791D01*
X96723587Y-144352594D01*
X96689320Y-144300843D01*
X96622197Y-144241909D01*
X96543292Y-144190996D01*
X96473679Y-144163309D01*
X96459123Y-144161787D01*
X96442737Y-144186821D01*
X96441750Y-144250811D01*
X96453792Y-144337093D01*
X96476493Y-144429001D01*
X96507486Y-144509869D01*
X96509052Y-144513009D01*
X96602319Y-144643234D01*
X96723196Y-144731811D01*
X96860473Y-144775286D01*
X97002940Y-144770206D01*
X97139388Y-144713116D01*
X97145455Y-144709102D01*
X97252790Y-144611826D01*
X97323368Y-144484909D01*
X97362426Y-144318026D01*
X97367668Y-144271139D01*
X97376952Y-144049829D01*
X97365822Y-143946624D01*
X97085661Y-143946624D01*
X97082021Y-144011003D01*
X97062111Y-144029791D01*
X97012474Y-144015735D01*
X96934233Y-143982509D01*
X96846774Y-143940859D01*
X96844601Y-143939756D01*
X96770470Y-143900765D01*
X96740719Y-143874744D01*
X96748055Y-143847465D01*
X96778947Y-143811621D01*
X96857540Y-143759751D01*
X96942177Y-143755939D01*
X97018097Y-143793689D01*
X97070535Y-143866501D01*
X97085661Y-143946624D01*
X97365822Y-143946624D01*
X97357856Y-143872761D01*
X97308866Y-143732329D01*
X97240664Y-143633947D01*
X97117565Y-143534530D01*
X96981972Y-143485211D01*
X96843545Y-143482068D01*
X96711948Y-143521176D01*
G36*
X98979279Y-143502515D02*
G01*
X98842439Y-143574468D01*
X98741449Y-143690266D01*
X98705575Y-143764713D01*
X98677661Y-143876492D01*
X98663371Y-144017727D01*
X98662016Y-144171871D01*
X98672905Y-144322379D01*
X98695347Y-144452705D01*
X98728650Y-144546303D01*
X98738885Y-144562422D01*
X98860118Y-144682749D01*
X99004113Y-144754817D01*
X99160361Y-144775908D01*
X99318352Y-144743302D01*
X99362320Y-144723753D01*
X99447944Y-144663512D01*
X99523092Y-144583635D01*
X99530194Y-144573504D01*
X99559061Y-144524681D01*
X99578143Y-144472490D01*
X99589416Y-144403785D01*
X99594855Y-144305418D01*
X99596438Y-144164244D01*
X99596465Y-144132592D01*
X99596393Y-144122519D01*
X99304511Y-144122519D01*
X99302813Y-144255756D01*
X99296128Y-144344174D01*
X99282075Y-144401285D01*
X99258271Y-144440602D01*
X99246121Y-144453741D01*
X99176264Y-144503672D01*
X99108441Y-144501395D01*
X99039865Y-144458084D01*
X98998965Y-144411846D01*
X98974742Y-144344357D01*
X98961139Y-144237933D01*
X98960206Y-144225520D01*
X98957884Y-144032647D01*
X98982150Y-143889400D01*
X99032676Y-143796660D01*
X99109132Y-143755307D01*
X99136424Y-143753052D01*
X99208089Y-143764393D01*
X99257110Y-143803684D01*
X99287082Y-143878826D01*
X99301601Y-143997722D01*
X99304511Y-144122519D01*
X99596393Y-144122519D01*
X99595378Y-143982159D01*
X99590812Y-143877049D01*
X99580812Y-143804214D01*
X99563421Y-143750608D01*
X99536684Y-143703181D01*
X99530776Y-143694364D01*
X99431468Y-143575507D01*
X99323258Y-143506508D01*
X99191519Y-143479119D01*
X99146783Y-143477781D01*
X98979279Y-143502515D01*
G37*
X98979279Y-143502515D02*
X98842439Y-143574468D01*
X98741449Y-143690266D01*
X98705575Y-143764713D01*
X98677661Y-143876492D01*
X98663371Y-144017727D01*
X98662016Y-144171871D01*
X98672905Y-144322379D01*
X98695347Y-144452705D01*
X98728650Y-144546303D01*
X98738885Y-144562422D01*
X98860118Y-144682749D01*
X99004113Y-144754817D01*
X99160361Y-144775908D01*
X99318352Y-144743302D01*
X99362320Y-144723753D01*
X99447944Y-144663512D01*
X99523092Y-144583635D01*
X99530194Y-144573504D01*
X99559061Y-144524681D01*
X99578143Y-144472490D01*
X99589416Y-144403785D01*
X99594855Y-144305418D01*
X99596438Y-144164244D01*
X99596465Y-144132592D01*
X99596393Y-144122519D01*
X99304511Y-144122519D01*
X99302813Y-144255756D01*
X99296128Y-144344174D01*
X99282075Y-144401285D01*
X99258271Y-144440602D01*
X99246121Y-144453741D01*
X99176264Y-144503672D01*
X99108441Y-144501395D01*
X99039865Y-144458084D01*
X98998965Y-144411846D01*
X98974742Y-144344357D01*
X98961139Y-144237933D01*
X98960206Y-144225520D01*
X98957884Y-144032647D01*
X98982150Y-143889400D01*
X99032676Y-143796660D01*
X99109132Y-143755307D01*
X99136424Y-143753052D01*
X99208089Y-143764393D01*
X99257110Y-143803684D01*
X99287082Y-143878826D01*
X99301601Y-143997722D01*
X99304511Y-144122519D01*
X99596393Y-144122519D01*
X99595378Y-143982159D01*
X99590812Y-143877049D01*
X99580812Y-143804214D01*
X99563421Y-143750608D01*
X99536684Y-143703181D01*
X99530776Y-143694364D01*
X99431468Y-143575507D01*
X99323258Y-143506508D01*
X99191519Y-143479119D01*
X99146783Y-143477781D01*
X98979279Y-143502515D01*
G36*
X95610071Y-143514219D02*
G01*
X95516377Y-143568414D01*
X95451236Y-143622207D01*
X95403593Y-143678566D01*
X95370772Y-143747487D01*
X95350094Y-143838968D01*
X95338880Y-143963006D01*
X95334451Y-144129598D01*
X95333937Y-144249351D01*
X95333937Y-144690159D01*
X95458017Y-144745783D01*
X95582098Y-144801407D01*
X95596695Y-144318595D01*
X95602727Y-144138279D01*
X95609055Y-144007401D01*
X95616894Y-143917011D01*
X95627463Y-143858164D01*
X95641977Y-143821913D01*
X95661652Y-143799310D01*
X95667965Y-143794417D01*
X95763612Y-143756206D01*
X95860293Y-143771327D01*
X95917845Y-143811443D01*
X95941255Y-143839870D01*
X95957461Y-143877172D01*
X95967759Y-143933723D01*
X95973451Y-144019894D01*
X95975836Y-144146058D01*
X95976236Y-144277542D01*
X95976314Y-144442499D01*
X95979139Y-144559261D01*
X95988593Y-144638010D01*
X96008560Y-144688931D01*
X96042924Y-144722206D01*
X96095568Y-144748020D01*
X96165883Y-144774844D01*
X96242680Y-144804042D01*
X96233538Y-144285846D01*
X96229857Y-144099039D01*
X96225550Y-143960990D01*
X96219377Y-143862068D01*
X96210098Y-143792645D01*
X96196473Y-143743090D01*
X96177261Y-143703773D01*
X96154098Y-143669084D01*
X96042348Y-143558270D01*
X95905987Y-143494189D01*
X95757675Y-143478839D01*
X95610071Y-143514219D01*
G37*
X95610071Y-143514219D02*
X95516377Y-143568414D01*
X95451236Y-143622207D01*
X95403593Y-143678566D01*
X95370772Y-143747487D01*
X95350094Y-143838968D01*
X95338880Y-143963006D01*
X95334451Y-144129598D01*
X95333937Y-144249351D01*
X95333937Y-144690159D01*
X95458017Y-144745783D01*
X95582098Y-144801407D01*
X95596695Y-144318595D01*
X95602727Y-144138279D01*
X95609055Y-144007401D01*
X95616894Y-143917011D01*
X95627463Y-143858164D01*
X95641977Y-143821913D01*
X95661652Y-143799310D01*
X95667965Y-143794417D01*
X95763612Y-143756206D01*
X95860293Y-143771327D01*
X95917845Y-143811443D01*
X95941255Y-143839870D01*
X95957461Y-143877172D01*
X95967759Y-143933723D01*
X95973451Y-144019894D01*
X95975836Y-144146058D01*
X95976236Y-144277542D01*
X95976314Y-144442499D01*
X95979139Y-144559261D01*
X95988593Y-144638010D01*
X96008560Y-144688931D01*
X96042924Y-144722206D01*
X96095568Y-144748020D01*
X96165883Y-144774844D01*
X96242680Y-144804042D01*
X96233538Y-144285846D01*
X96229857Y-144099039D01*
X96225550Y-143960990D01*
X96219377Y-143862068D01*
X96210098Y-143792645D01*
X96196473Y-143743090D01*
X96177261Y-143703773D01*
X96154098Y-143669084D01*
X96042348Y-143558270D01*
X95905987Y-143494189D01*
X95757675Y-143478839D01*
X95610071Y-143514219D01*
G36*
X97855600Y-143498403D02*
G01*
X97744050Y-143554022D01*
X97645592Y-143656431D01*
X97618477Y-143694364D01*
X97588938Y-143744000D01*
X97569772Y-143797912D01*
X97558807Y-143869864D01*
X97553871Y-143973622D01*
X97552787Y-144110601D01*
X97557682Y-144298315D01*
X97574696Y-144439258D01*
X97607323Y-144544408D01*
X97659058Y-144624743D01*
X97733396Y-144691241D01*
X97738858Y-144695178D01*
X97812120Y-144735453D01*
X97900340Y-144755380D01*
X98012538Y-144760293D01*
X98194933Y-144760293D01*
X98195009Y-144937357D01*
X98196707Y-145035970D01*
X98207050Y-145093814D01*
X98234078Y-145128506D01*
X98285832Y-145157664D01*
X98298261Y-145163621D01*
X98356423Y-145191539D01*
X98401456Y-145209172D01*
X98434941Y-145210694D01*
X98458462Y-145190281D01*
X98473600Y-145142107D01*
X98481937Y-145060346D01*
X98485056Y-144939172D01*
X98484540Y-144772760D01*
X98481971Y-144555285D01*
X98481168Y-144490236D01*
X98478278Y-144266002D01*
X98475688Y-144119321D01*
X98195086Y-144119321D01*
X98193509Y-144243826D01*
X98186500Y-144325287D01*
X98170642Y-144379015D01*
X98142519Y-144420323D01*
X98123425Y-144440471D01*
X98045365Y-144499421D01*
X97976253Y-144504220D01*
X97904940Y-144455538D01*
X97903132Y-144453741D01*
X97874117Y-144416118D01*
X97856467Y-144364984D01*
X97847564Y-144286238D01*
X97844791Y-144165776D01*
X97844741Y-144139088D01*
X97851442Y-143973083D01*
X97873252Y-143858005D01*
X97912735Y-143787754D01*
X97972456Y-143756229D01*
X98006972Y-143753052D01*
X98088889Y-143767960D01*
X98145079Y-143817048D01*
X98178902Y-143906862D01*
X98193720Y-144043945D01*
X98195086Y-144119321D01*
X98475688Y-144119321D01*
X98475213Y-144092452D01*
X98471253Y-143961882D01*
X98465674Y-143866587D01*
X98457754Y-143798864D01*
X98446769Y-143751007D01*
X98431999Y-143715313D01*
X98412718Y-143684078D01*
X98404451Y-143672324D01*
X98294788Y-143561297D01*
X98156135Y-143498347D01*
X97995746Y-143480797D01*
X97855600Y-143498403D01*
G37*
X97855600Y-143498403D02*
X97744050Y-143554022D01*
X97645592Y-143656431D01*
X97618477Y-143694364D01*
X97588938Y-143744000D01*
X97569772Y-143797912D01*
X97558807Y-143869864D01*
X97553871Y-143973622D01*
X97552787Y-144110601D01*
X97557682Y-144298315D01*
X97574696Y-144439258D01*
X97607323Y-144544408D01*
X97659058Y-144624743D01*
X97733396Y-144691241D01*
X97738858Y-144695178D01*
X97812120Y-144735453D01*
X97900340Y-144755380D01*
X98012538Y-144760293D01*
X98194933Y-144760293D01*
X98195009Y-144937357D01*
X98196707Y-145035970D01*
X98207050Y-145093814D01*
X98234078Y-145128506D01*
X98285832Y-145157664D01*
X98298261Y-145163621D01*
X98356423Y-145191539D01*
X98401456Y-145209172D01*
X98434941Y-145210694D01*
X98458462Y-145190281D01*
X98473600Y-145142107D01*
X98481937Y-145060346D01*
X98485056Y-144939172D01*
X98484540Y-144772760D01*
X98481971Y-144555285D01*
X98481168Y-144490236D01*
X98478278Y-144266002D01*
X98475688Y-144119321D01*
X98195086Y-144119321D01*
X98193509Y-144243826D01*
X98186500Y-144325287D01*
X98170642Y-144379015D01*
X98142519Y-144420323D01*
X98123425Y-144440471D01*
X98045365Y-144499421D01*
X97976253Y-144504220D01*
X97904940Y-144455538D01*
X97903132Y-144453741D01*
X97874117Y-144416118D01*
X97856467Y-144364984D01*
X97847564Y-144286238D01*
X97844791Y-144165776D01*
X97844741Y-144139088D01*
X97851442Y-143973083D01*
X97873252Y-143858005D01*
X97912735Y-143787754D01*
X97972456Y-143756229D01*
X98006972Y-143753052D01*
X98088889Y-143767960D01*
X98145079Y-143817048D01*
X98178902Y-143906862D01*
X98193720Y-144043945D01*
X98195086Y-144119321D01*
X98475688Y-144119321D01*
X98475213Y-144092452D01*
X98471253Y-143961882D01*
X98465674Y-143866587D01*
X98457754Y-143798864D01*
X98446769Y-143751007D01*
X98431999Y-143715313D01*
X98412718Y-143684078D01*
X98404451Y-143672324D01*
X98294788Y-143561297D01*
X98156135Y-143498347D01*
X97995746Y-143480797D01*
X97855600Y-143498403D01*
%TD*%
M02*
