%TF.GenerationSoftware,KiCad,Pcbnew,(5.1.6)-1*%
%TF.CreationDate,2020-07-29T08:32:23+01:00*%
%TF.ProjectId,open-amiga-sampler-smd,6f70656e-2d61-46d6-9967-612d73616d70,rev?*%
%TF.SameCoordinates,Original*%
%TF.FileFunction,Legend,Top*%
%TF.FilePolarity,Positive*%
%FSLAX46Y46*%
G04 Gerber Fmt 4.6, Leading zero omitted, Abs format (unit mm)*
G04 Created by KiCad (PCBNEW (5.1.6)-1) date 2020-07-29 08:32:23*
%MOMM*%
%LPD*%
G01*
G04 APERTURE LIST*
%ADD10C,0.120000*%
%ADD11C,0.150000*%
G04 APERTURE END LIST*
D10*
%TO.C,RV1*%
X89940000Y-129940000D02*
X89940000Y-132060000D01*
X94000000Y-129940000D02*
X89940000Y-129940000D01*
X94000000Y-132060000D02*
X89940000Y-132060000D01*
X94000000Y-129940000D02*
X94000000Y-132060000D01*
X95000000Y-129940000D02*
X96060000Y-129940000D01*
X96060000Y-129940000D02*
X96060000Y-131000000D01*
%TO.C,J2*%
X103060000Y-132060000D02*
X103060000Y-129940000D01*
X101000000Y-132060000D02*
X103060000Y-132060000D01*
X101000000Y-129940000D02*
X103060000Y-129940000D01*
X101000000Y-132060000D02*
X101000000Y-129940000D01*
X100000000Y-132060000D02*
X98940000Y-132060000D01*
X98940000Y-132060000D02*
X98940000Y-131000000D01*
%TO.C,J1*%
X103950200Y-129927800D02*
X103950200Y-132047800D01*
X106010200Y-129927800D02*
X103950200Y-129927800D01*
X106010200Y-132047800D02*
X103950200Y-132047800D01*
X106010200Y-129927800D02*
X106010200Y-132047800D01*
X107010200Y-129927800D02*
X108070200Y-129927800D01*
X108070200Y-129927800D02*
X108070200Y-130987800D01*
%TO.C,C1*%
X112344000Y-139171400D02*
X108259000Y-139171400D01*
X108259000Y-139171400D02*
X108259000Y-141041400D01*
X108259000Y-141041400D02*
X112344000Y-141041400D01*
%TO.C,C2*%
X112471000Y-143972000D02*
X108386000Y-143972000D01*
X108386000Y-143972000D02*
X108386000Y-145842000D01*
X108386000Y-145842000D02*
X112471000Y-145842000D01*
%TO.C,C4*%
X82275400Y-141122600D02*
X82275400Y-145207600D01*
X82275400Y-145207600D02*
X84145400Y-145207600D01*
X84145400Y-145207600D02*
X84145400Y-141122600D01*
%TO.C,C3*%
X98051252Y-147649000D02*
X97528748Y-147649000D01*
X98051252Y-146229000D02*
X97528748Y-146229000D01*
%TO.C,C5*%
X103370748Y-137489000D02*
X103893252Y-137489000D01*
X103370748Y-136069000D02*
X103893252Y-136069000D01*
%TO.C,J3*%
X80254667Y-147797800D02*
X84448000Y-147797800D01*
X80254667Y-150037800D02*
X80254667Y-147797800D01*
X80494667Y-148037800D02*
X80494667Y-151777800D01*
X116101333Y-148037800D02*
X80494667Y-148037800D01*
X116101333Y-151777800D02*
X116101333Y-148037800D01*
%TO.C,R1*%
X107290800Y-136887852D02*
X107290800Y-136365348D01*
X108710800Y-136887852D02*
X108710800Y-136365348D01*
%TO.C,R2*%
X104020252Y-133846500D02*
X103497748Y-133846500D01*
X104020252Y-135266500D02*
X103497748Y-135266500D01*
%TO.C,R3*%
X87705000Y-142232748D02*
X87705000Y-142755252D01*
X86285000Y-142232748D02*
X86285000Y-142755252D01*
%TO.C,R4*%
X109949348Y-143305600D02*
X110471852Y-143305600D01*
X109949348Y-141885600D02*
X110471852Y-141885600D01*
%TO.C,R5*%
X104215000Y-144137748D02*
X104215000Y-144660252D01*
X102795000Y-144137748D02*
X102795000Y-144660252D01*
%TO.C,R6*%
X106374000Y-144660252D02*
X106374000Y-144137748D01*
X104954000Y-144660252D02*
X104954000Y-144137748D01*
%TO.C,U1*%
X90247000Y-133298000D02*
X88432000Y-133298000D01*
X90247000Y-133063000D02*
X90247000Y-133298000D01*
X94107000Y-133063000D02*
X90247000Y-133063000D01*
X97967000Y-133063000D02*
X97967000Y-133298000D01*
X94107000Y-133063000D02*
X97967000Y-133063000D01*
X90247000Y-146083000D02*
X90247000Y-145848000D01*
X94107000Y-146083000D02*
X90247000Y-146083000D01*
X97967000Y-146083000D02*
X97967000Y-145848000D01*
X94107000Y-146083000D02*
X97967000Y-146083000D01*
%TO.C,U2*%
X102149000Y-139181000D02*
X102149000Y-141631000D01*
X105369000Y-140981000D02*
X105369000Y-139181000D01*
%TO.C,RV1*%
D11*
X97512380Y-131595238D02*
X97036190Y-131928571D01*
X97512380Y-132166666D02*
X96512380Y-132166666D01*
X96512380Y-131785714D01*
X96560000Y-131690476D01*
X96607619Y-131642857D01*
X96702857Y-131595238D01*
X96845714Y-131595238D01*
X96940952Y-131642857D01*
X96988571Y-131690476D01*
X97036190Y-131785714D01*
X97036190Y-132166666D01*
X96512380Y-131309523D02*
X97512380Y-130976190D01*
X96512380Y-130642857D01*
X97512380Y-129785714D02*
X97512380Y-130357142D01*
X97512380Y-130071428D02*
X96512380Y-130071428D01*
X96655238Y-130166666D01*
X96750476Y-130261904D01*
X96798095Y-130357142D01*
%TO.C,J2*%
X97392380Y-131333333D02*
X98106666Y-131333333D01*
X98249523Y-131380952D01*
X98344761Y-131476190D01*
X98392380Y-131619047D01*
X98392380Y-131714285D01*
X97487619Y-130904761D02*
X97440000Y-130857142D01*
X97392380Y-130761904D01*
X97392380Y-130523809D01*
X97440000Y-130428571D01*
X97487619Y-130380952D01*
X97582857Y-130333333D01*
X97678095Y-130333333D01*
X97820952Y-130380952D01*
X98392380Y-130952380D01*
X98392380Y-130333333D01*
%TO.C,J1*%
X108522580Y-131321133D02*
X109236866Y-131321133D01*
X109379723Y-131368752D01*
X109474961Y-131463990D01*
X109522580Y-131606847D01*
X109522580Y-131702085D01*
X109522580Y-130321133D02*
X109522580Y-130892561D01*
X109522580Y-130606847D02*
X108522580Y-130606847D01*
X108665438Y-130702085D01*
X108760676Y-130797323D01*
X108808295Y-130892561D01*
%TO.C,C1*%
X114069857Y-137653733D02*
X114022238Y-137606114D01*
X113974619Y-137463257D01*
X113974619Y-137368019D01*
X114022238Y-137225161D01*
X114117476Y-137129923D01*
X114212714Y-137082304D01*
X114403190Y-137034685D01*
X114546047Y-137034685D01*
X114736523Y-137082304D01*
X114831761Y-137129923D01*
X114927000Y-137225161D01*
X114974619Y-137368019D01*
X114974619Y-137463257D01*
X114927000Y-137606114D01*
X114879380Y-137653733D01*
X113974619Y-138606114D02*
X113974619Y-138034685D01*
X113974619Y-138320400D02*
X114974619Y-138320400D01*
X114831761Y-138225161D01*
X114736523Y-138129923D01*
X114688904Y-138034685D01*
%TO.C,C2*%
X110628133Y-140971542D02*
X110580514Y-141019161D01*
X110437657Y-141066780D01*
X110342419Y-141066780D01*
X110199561Y-141019161D01*
X110104323Y-140923923D01*
X110056704Y-140828685D01*
X110009085Y-140638209D01*
X110009085Y-140495352D01*
X110056704Y-140304876D01*
X110104323Y-140209638D01*
X110199561Y-140114400D01*
X110342419Y-140066780D01*
X110437657Y-140066780D01*
X110580514Y-140114400D01*
X110628133Y-140162019D01*
X111009085Y-140162019D02*
X111056704Y-140114400D01*
X111151942Y-140066780D01*
X111390038Y-140066780D01*
X111485276Y-140114400D01*
X111532895Y-140162019D01*
X111580514Y-140257257D01*
X111580514Y-140352495D01*
X111532895Y-140495352D01*
X110961466Y-141066780D01*
X111580514Y-141066780D01*
%TO.C,C4*%
X80367542Y-142889266D02*
X80415161Y-142936885D01*
X80462780Y-143079742D01*
X80462780Y-143174980D01*
X80415161Y-143317838D01*
X80319923Y-143413076D01*
X80224685Y-143460695D01*
X80034209Y-143508314D01*
X79891352Y-143508314D01*
X79700876Y-143460695D01*
X79605638Y-143413076D01*
X79510400Y-143317838D01*
X79462780Y-143174980D01*
X79462780Y-143079742D01*
X79510400Y-142936885D01*
X79558019Y-142889266D01*
X79796114Y-142032123D02*
X80462780Y-142032123D01*
X79415161Y-142270219D02*
X80129447Y-142508314D01*
X80129447Y-141889266D01*
%TO.C,C3*%
X100814142Y-146851666D02*
X100861761Y-146899285D01*
X100909380Y-147042142D01*
X100909380Y-147137380D01*
X100861761Y-147280238D01*
X100766523Y-147375476D01*
X100671285Y-147423095D01*
X100480809Y-147470714D01*
X100337952Y-147470714D01*
X100147476Y-147423095D01*
X100052238Y-147375476D01*
X99957000Y-147280238D01*
X99909380Y-147137380D01*
X99909380Y-147042142D01*
X99957000Y-146899285D01*
X100004619Y-146851666D01*
X99909380Y-146518333D02*
X99909380Y-145899285D01*
X100290333Y-146232619D01*
X100290333Y-146089761D01*
X100337952Y-145994523D01*
X100385571Y-145946904D01*
X100480809Y-145899285D01*
X100718904Y-145899285D01*
X100814142Y-145946904D01*
X100861761Y-145994523D01*
X100909380Y-146089761D01*
X100909380Y-146375476D01*
X100861761Y-146470714D01*
X100814142Y-146518333D01*
%TO.C,C5*%
X106386333Y-137136142D02*
X106338714Y-137183761D01*
X106195857Y-137231380D01*
X106100619Y-137231380D01*
X105957761Y-137183761D01*
X105862523Y-137088523D01*
X105814904Y-136993285D01*
X105767285Y-136802809D01*
X105767285Y-136659952D01*
X105814904Y-136469476D01*
X105862523Y-136374238D01*
X105957761Y-136279000D01*
X106100619Y-136231380D01*
X106195857Y-136231380D01*
X106338714Y-136279000D01*
X106386333Y-136326619D01*
X107291095Y-136231380D02*
X106814904Y-136231380D01*
X106767285Y-136707571D01*
X106814904Y-136659952D01*
X106910142Y-136612333D01*
X107148238Y-136612333D01*
X107243476Y-136659952D01*
X107291095Y-136707571D01*
X107338714Y-136802809D01*
X107338714Y-137040904D01*
X107291095Y-137136142D01*
X107243476Y-137183761D01*
X107148238Y-137231380D01*
X106910142Y-137231380D01*
X106814904Y-137183761D01*
X106767285Y-137136142D01*
%TO.C,J3*%
X77421333Y-149490180D02*
X77421333Y-150204466D01*
X77373714Y-150347323D01*
X77278476Y-150442561D01*
X77135619Y-150490180D01*
X77040381Y-150490180D01*
X77802286Y-149490180D02*
X78421333Y-149490180D01*
X78088000Y-149871133D01*
X78230857Y-149871133D01*
X78326095Y-149918752D01*
X78373714Y-149966371D01*
X78421333Y-150061609D01*
X78421333Y-150299704D01*
X78373714Y-150394942D01*
X78326095Y-150442561D01*
X78230857Y-150490180D01*
X77945143Y-150490180D01*
X77849905Y-150442561D01*
X77802286Y-150394942D01*
%TO.C,R1*%
X108453180Y-133618266D02*
X107976990Y-133951600D01*
X108453180Y-134189695D02*
X107453180Y-134189695D01*
X107453180Y-133808742D01*
X107500800Y-133713504D01*
X107548419Y-133665885D01*
X107643657Y-133618266D01*
X107786514Y-133618266D01*
X107881752Y-133665885D01*
X107929371Y-133713504D01*
X107976990Y-133808742D01*
X107976990Y-134189695D01*
X108453180Y-132665885D02*
X108453180Y-133237314D01*
X108453180Y-132951600D02*
X107453180Y-132951600D01*
X107596038Y-133046838D01*
X107691276Y-133142076D01*
X107738895Y-133237314D01*
%TO.C,R2*%
X100671333Y-135135880D02*
X100338000Y-134659690D01*
X100099904Y-135135880D02*
X100099904Y-134135880D01*
X100480857Y-134135880D01*
X100576095Y-134183500D01*
X100623714Y-134231119D01*
X100671333Y-134326357D01*
X100671333Y-134469214D01*
X100623714Y-134564452D01*
X100576095Y-134612071D01*
X100480857Y-134659690D01*
X100099904Y-134659690D01*
X101052285Y-134231119D02*
X101099904Y-134183500D01*
X101195142Y-134135880D01*
X101433238Y-134135880D01*
X101528476Y-134183500D01*
X101576095Y-134231119D01*
X101623714Y-134326357D01*
X101623714Y-134421595D01*
X101576095Y-134564452D01*
X101004666Y-135135880D01*
X101623714Y-135135880D01*
%TO.C,R3*%
X89097380Y-142660666D02*
X88621190Y-142994000D01*
X89097380Y-143232095D02*
X88097380Y-143232095D01*
X88097380Y-142851142D01*
X88145000Y-142755904D01*
X88192619Y-142708285D01*
X88287857Y-142660666D01*
X88430714Y-142660666D01*
X88525952Y-142708285D01*
X88573571Y-142755904D01*
X88621190Y-142851142D01*
X88621190Y-143232095D01*
X88097380Y-142327333D02*
X88097380Y-141708285D01*
X88478333Y-142041619D01*
X88478333Y-141898761D01*
X88525952Y-141803523D01*
X88573571Y-141755904D01*
X88668809Y-141708285D01*
X88906904Y-141708285D01*
X89002142Y-141755904D01*
X89049761Y-141803523D01*
X89097380Y-141898761D01*
X89097380Y-142184476D01*
X89049761Y-142279714D01*
X89002142Y-142327333D01*
%TO.C,R4*%
X110043933Y-141397980D02*
X109710600Y-140921790D01*
X109472504Y-141397980D02*
X109472504Y-140397980D01*
X109853457Y-140397980D01*
X109948695Y-140445600D01*
X109996314Y-140493219D01*
X110043933Y-140588457D01*
X110043933Y-140731314D01*
X109996314Y-140826552D01*
X109948695Y-140874171D01*
X109853457Y-140921790D01*
X109472504Y-140921790D01*
X110901076Y-140731314D02*
X110901076Y-141397980D01*
X110662980Y-140350361D02*
X110424885Y-141064647D01*
X111043933Y-141064647D01*
%TO.C,R5*%
X103338333Y-142184380D02*
X103005000Y-141708190D01*
X102766904Y-142184380D02*
X102766904Y-141184380D01*
X103147857Y-141184380D01*
X103243095Y-141232000D01*
X103290714Y-141279619D01*
X103338333Y-141374857D01*
X103338333Y-141517714D01*
X103290714Y-141612952D01*
X103243095Y-141660571D01*
X103147857Y-141708190D01*
X102766904Y-141708190D01*
X104243095Y-141184380D02*
X103766904Y-141184380D01*
X103719285Y-141660571D01*
X103766904Y-141612952D01*
X103862142Y-141565333D01*
X104100238Y-141565333D01*
X104195476Y-141612952D01*
X104243095Y-141660571D01*
X104290714Y-141755809D01*
X104290714Y-141993904D01*
X104243095Y-142089142D01*
X104195476Y-142136761D01*
X104100238Y-142184380D01*
X103862142Y-142184380D01*
X103766904Y-142136761D01*
X103719285Y-142089142D01*
%TO.C,R6*%
X105497333Y-142184380D02*
X105164000Y-141708190D01*
X104925904Y-142184380D02*
X104925904Y-141184380D01*
X105306857Y-141184380D01*
X105402095Y-141232000D01*
X105449714Y-141279619D01*
X105497333Y-141374857D01*
X105497333Y-141517714D01*
X105449714Y-141612952D01*
X105402095Y-141660571D01*
X105306857Y-141708190D01*
X104925904Y-141708190D01*
X106354476Y-141184380D02*
X106164000Y-141184380D01*
X106068761Y-141232000D01*
X106021142Y-141279619D01*
X105925904Y-141422476D01*
X105878285Y-141612952D01*
X105878285Y-141993904D01*
X105925904Y-142089142D01*
X105973523Y-142136761D01*
X106068761Y-142184380D01*
X106259238Y-142184380D01*
X106354476Y-142136761D01*
X106402095Y-142089142D01*
X106449714Y-141993904D01*
X106449714Y-141755809D01*
X106402095Y-141660571D01*
X106354476Y-141612952D01*
X106259238Y-141565333D01*
X106068761Y-141565333D01*
X105973523Y-141612952D01*
X105925904Y-141660571D01*
X105878285Y-141755809D01*
%TO.C,U1*%
X93345095Y-131675380D02*
X93345095Y-132484904D01*
X93392714Y-132580142D01*
X93440333Y-132627761D01*
X93535571Y-132675380D01*
X93726047Y-132675380D01*
X93821285Y-132627761D01*
X93868904Y-132580142D01*
X93916523Y-132484904D01*
X93916523Y-131675380D01*
X94916523Y-132675380D02*
X94345095Y-132675380D01*
X94630809Y-132675380D02*
X94630809Y-131675380D01*
X94535571Y-131818238D01*
X94440333Y-131913476D01*
X94345095Y-131961095D01*
%TO.C,U2*%
X102870095Y-142454380D02*
X102870095Y-143263904D01*
X102917714Y-143359142D01*
X102965333Y-143406761D01*
X103060571Y-143454380D01*
X103251047Y-143454380D01*
X103346285Y-143406761D01*
X103393904Y-143359142D01*
X103441523Y-143263904D01*
X103441523Y-142454380D01*
X103870095Y-142549619D02*
X103917714Y-142502000D01*
X104012952Y-142454380D01*
X104251047Y-142454380D01*
X104346285Y-142502000D01*
X104393904Y-142549619D01*
X104441523Y-142644857D01*
X104441523Y-142740095D01*
X104393904Y-142882952D01*
X103822476Y-143454380D01*
X104441523Y-143454380D01*
%TD*%
M02*
