M48
; DRILL file {KiCad (5.1.6)-1} date 08/13/20 12:13:45
; FORMAT={-:-/ absolute / inch / decimal}
; #@! TF.CreationDate,2020-08-13T12:13:45+01:00
; #@! TF.GenerationSoftware,Kicad,Pcbnew,(5.1.6)-1
; #@! TF.FileFunction,Plated,1,2,PTH
FMAT,2
INCH
T1C0.0157
T2C0.0315
%
G90
G05
T1
X3.205Y-5.7725
X3.23Y-5.6425
X3.2725Y-5.7775
X3.4389Y-5.7061
X3.4514Y-5.534
X3.6025Y-5.765
X3.6125Y-5.3325
X3.6175Y-5.66
X3.705Y-5.7675
X3.735Y-5.3675
X3.755Y-5.505
X3.805Y-5.73
X3.8125Y-5.6375
X3.8307Y-5.6756
X3.835Y-5.2875
X3.8515Y-5.211
X4.0169Y-5.4666
X4.02Y-5.305
X4.0362Y-5.3913
X4.0675Y-5.7075
X4.085Y-5.595
X4.16Y-5.77
X4.1725Y-5.4375
X4.325Y-5.7625
X4.5125Y-5.5985
X4.5195Y-5.7595
T2
X3.58Y-5.1725
X3.6588Y-5.1725
X3.7375Y-5.1725
X3.937Y-5.165
X4.0157Y-5.165
X4.1343Y-5.165
X4.213Y-5.165
T0
M30
