M48
; DRILL file {KiCad (5.1.6)-1} date 07/31/20 11:21:31
; FORMAT={-:-/ absolute / inch / decimal}
; #@! TF.CreationDate,2020-07-31T11:21:31+01:00
; #@! TF.GenerationSoftware,Kicad,Pcbnew,(5.1.6)-1
; #@! TF.FileFunction,Plated,1,2,PTH
FMAT,2
INCH
T1C0.0157
T2C0.0315
%
G90
G05
T1
X3.205Y-5.7725
X3.2725Y-5.7775
X3.3125Y-5.565
X3.3777Y-5.6527
X3.435Y-5.7375
X3.4491Y-5.5239
X3.5737Y-5.6
X3.6125Y-5.3325
X3.685Y-5.69
X3.735Y-5.3675
X3.755Y-5.505
X3.805Y-5.73
X3.825Y-5.6175
X3.8275Y-5.6725
X3.8325Y-5.2675
X3.8515Y-5.211
X4.0169Y-5.4666
X4.02Y-5.305
X4.0275Y-5.4
X4.0675Y-5.7075
X4.085Y-5.595
X4.16Y-5.77
X4.19Y-5.4425
X4.325Y-5.7625
X4.5125Y-5.5985
X4.5195Y-5.7595
T2
X3.937Y-5.165
X4.0157Y-5.165
X3.58Y-5.1725
X3.6588Y-5.1725
X3.7375Y-5.1725
X4.1343Y-5.165
X4.213Y-5.165
T0
M30
