%TF.GenerationSoftware,KiCad,Pcbnew,(5.1.6)-1*%
%TF.CreationDate,2020-08-13T12:17:15+01:00*%
%TF.ProjectId,open-amiga-sampler-smd,6f70656e-2d61-46d6-9967-612d73616d70,rev?*%
%TF.SameCoordinates,Original*%
%TF.FileFunction,Soldermask,Top*%
%TF.FilePolarity,Negative*%
%FSLAX46Y46*%
G04 Gerber Fmt 4.6, Leading zero omitted, Abs format (unit mm)*
G04 Created by KiCad (PCBNEW (5.1.6)-1) date 2020-08-13 12:17:15*
%MOMM*%
%LPD*%
G01*
G04 APERTURE LIST*
%ADD10O,1.350000X1.350000*%
%ADD11R,1.350000X1.350000*%
%ADD12R,1.846667X3.480000*%
%ADD13R,0.650000X1.060000*%
G04 APERTURE END LIST*
%TO.C,C4*%
G36*
G01*
X83481000Y-142883000D02*
X82381000Y-142883000D01*
G75*
G02*
X82131000Y-142633000I0J250000D01*
G01*
X82131000Y-140533000D01*
G75*
G02*
X82381000Y-140283000I250000J0D01*
G01*
X83481000Y-140283000D01*
G75*
G02*
X83731000Y-140533000I0J-250000D01*
G01*
X83731000Y-142633000D01*
G75*
G02*
X83481000Y-142883000I-250000J0D01*
G01*
G37*
G36*
G01*
X83481000Y-146483000D02*
X82381000Y-146483000D01*
G75*
G02*
X82131000Y-146233000I0J250000D01*
G01*
X82131000Y-144133000D01*
G75*
G02*
X82381000Y-143883000I250000J0D01*
G01*
X83481000Y-143883000D01*
G75*
G02*
X83731000Y-144133000I0J-250000D01*
G01*
X83731000Y-146233000D01*
G75*
G02*
X83481000Y-146483000I-250000J0D01*
G01*
G37*
%TD*%
D10*
%TO.C,RV1*%
X90932500Y-131381500D03*
X92932500Y-131381500D03*
D11*
X94932500Y-131381500D03*
%TD*%
D10*
%TO.C,J2*%
X102000000Y-131191000D03*
D11*
X100000000Y-131191000D03*
%TD*%
D10*
%TO.C,J1*%
X105010200Y-131191000D03*
D11*
X107010200Y-131191000D03*
%TD*%
%TO.C,C1*%
G36*
G01*
X108727000Y-141014001D02*
X108727000Y-140163999D01*
G75*
G02*
X108976999Y-139914000I249999J0D01*
G01*
X110052001Y-139914000D01*
G75*
G02*
X110302000Y-140163999I0J-249999D01*
G01*
X110302000Y-141014001D01*
G75*
G02*
X110052001Y-141264000I-249999J0D01*
G01*
X108976999Y-141264000D01*
G75*
G02*
X108727000Y-141014001I0J249999D01*
G01*
G37*
G36*
G01*
X105852000Y-141014001D02*
X105852000Y-140163999D01*
G75*
G02*
X106101999Y-139914000I249999J0D01*
G01*
X107177001Y-139914000D01*
G75*
G02*
X107427000Y-140163999I0J-249999D01*
G01*
X107427000Y-141014001D01*
G75*
G02*
X107177001Y-141264000I-249999J0D01*
G01*
X106101999Y-141264000D01*
G75*
G02*
X105852000Y-141014001I0J249999D01*
G01*
G37*
%TD*%
%TO.C,C2*%
G36*
G01*
X109171500Y-145332001D02*
X109171500Y-144481999D01*
G75*
G02*
X109421499Y-144232000I249999J0D01*
G01*
X110496501Y-144232000D01*
G75*
G02*
X110746500Y-144481999I0J-249999D01*
G01*
X110746500Y-145332001D01*
G75*
G02*
X110496501Y-145582000I-249999J0D01*
G01*
X109421499Y-145582000D01*
G75*
G02*
X109171500Y-145332001I0J249999D01*
G01*
G37*
G36*
G01*
X106296500Y-145332001D02*
X106296500Y-144481999D01*
G75*
G02*
X106546499Y-144232000I249999J0D01*
G01*
X107621501Y-144232000D01*
G75*
G02*
X107871500Y-144481999I0J-249999D01*
G01*
X107871500Y-145332001D01*
G75*
G02*
X107621501Y-145582000I-249999J0D01*
G01*
X106546499Y-145582000D01*
G75*
G02*
X106296500Y-145332001I0J249999D01*
G01*
G37*
%TD*%
%TO.C,C3*%
G36*
G01*
X100895999Y-135006500D02*
X101796001Y-135006500D01*
G75*
G02*
X102046000Y-135256499I0J-249999D01*
G01*
X102046000Y-135906501D01*
G75*
G02*
X101796001Y-136156500I-249999J0D01*
G01*
X100895999Y-136156500D01*
G75*
G02*
X100646000Y-135906501I0J249999D01*
G01*
X100646000Y-135256499D01*
G75*
G02*
X100895999Y-135006500I249999J0D01*
G01*
G37*
G36*
G01*
X100895999Y-132956500D02*
X101796001Y-132956500D01*
G75*
G02*
X102046000Y-133206499I0J-249999D01*
G01*
X102046000Y-133856501D01*
G75*
G02*
X101796001Y-134106500I-249999J0D01*
G01*
X100895999Y-134106500D01*
G75*
G02*
X100646000Y-133856501I0J249999D01*
G01*
X100646000Y-133206499D01*
G75*
G02*
X100895999Y-132956500I249999J0D01*
G01*
G37*
%TD*%
%TO.C,C5*%
G36*
G01*
X102921000Y-137229001D02*
X102921000Y-136328999D01*
G75*
G02*
X103170999Y-136079000I249999J0D01*
G01*
X103821001Y-136079000D01*
G75*
G02*
X104071000Y-136328999I0J-249999D01*
G01*
X104071000Y-137229001D01*
G75*
G02*
X103821001Y-137479000I-249999J0D01*
G01*
X103170999Y-137479000D01*
G75*
G02*
X102921000Y-137229001I0J249999D01*
G01*
G37*
G36*
G01*
X104971000Y-137229001D02*
X104971000Y-136328999D01*
G75*
G02*
X105220999Y-136079000I249999J0D01*
G01*
X105871001Y-136079000D01*
G75*
G02*
X106121000Y-136328999I0J-249999D01*
G01*
X106121000Y-137229001D01*
G75*
G02*
X105871001Y-137479000I-249999J0D01*
G01*
X105220999Y-137479000D01*
G75*
G02*
X104971000Y-137229001I0J249999D01*
G01*
G37*
%TD*%
D12*
%TO.C,J3*%
X81678000Y-149034500D03*
X84448000Y-149034500D03*
X87218000Y-149034500D03*
X89988000Y-149034500D03*
X92758000Y-149034500D03*
X95528000Y-149034500D03*
X98298000Y-149034500D03*
X101068000Y-149034500D03*
X103838000Y-149034500D03*
X106608000Y-149034500D03*
X109378000Y-149034500D03*
X112148000Y-149034500D03*
X114918000Y-149034500D03*
%TD*%
%TO.C,R1*%
G36*
G01*
X108450801Y-136176600D02*
X107550799Y-136176600D01*
G75*
G02*
X107300800Y-135926601I0J249999D01*
G01*
X107300800Y-135276599D01*
G75*
G02*
X107550799Y-135026600I249999J0D01*
G01*
X108450801Y-135026600D01*
G75*
G02*
X108700800Y-135276599I0J-249999D01*
G01*
X108700800Y-135926601D01*
G75*
G02*
X108450801Y-136176600I-249999J0D01*
G01*
G37*
G36*
G01*
X108450801Y-138226600D02*
X107550799Y-138226600D01*
G75*
G02*
X107300800Y-137976601I0J249999D01*
G01*
X107300800Y-137326599D01*
G75*
G02*
X107550799Y-137076600I249999J0D01*
G01*
X108450801Y-137076600D01*
G75*
G02*
X108700800Y-137326599I0J-249999D01*
G01*
X108700800Y-137976601D01*
G75*
G02*
X108450801Y-138226600I-249999J0D01*
G01*
G37*
%TD*%
%TO.C,R2*%
G36*
G01*
X106057500Y-134106499D02*
X106057500Y-135006501D01*
G75*
G02*
X105807501Y-135256500I-249999J0D01*
G01*
X105157499Y-135256500D01*
G75*
G02*
X104907500Y-135006501I0J249999D01*
G01*
X104907500Y-134106499D01*
G75*
G02*
X105157499Y-133856500I249999J0D01*
G01*
X105807501Y-133856500D01*
G75*
G02*
X106057500Y-134106499I0J-249999D01*
G01*
G37*
G36*
G01*
X104007500Y-134106499D02*
X104007500Y-135006501D01*
G75*
G02*
X103757501Y-135256500I-249999J0D01*
G01*
X103107499Y-135256500D01*
G75*
G02*
X102857500Y-135006501I0J249999D01*
G01*
X102857500Y-134106499D01*
G75*
G02*
X103107499Y-133856500I249999J0D01*
G01*
X103757501Y-133856500D01*
G75*
G02*
X104007500Y-134106499I0J-249999D01*
G01*
G37*
%TD*%
%TO.C,R3*%
G36*
G01*
X86735499Y-143388500D02*
X87635501Y-143388500D01*
G75*
G02*
X87885500Y-143638499I0J-249999D01*
G01*
X87885500Y-144288501D01*
G75*
G02*
X87635501Y-144538500I-249999J0D01*
G01*
X86735499Y-144538500D01*
G75*
G02*
X86485500Y-144288501I0J249999D01*
G01*
X86485500Y-143638499D01*
G75*
G02*
X86735499Y-143388500I249999J0D01*
G01*
G37*
G36*
G01*
X86735499Y-141338500D02*
X87635501Y-141338500D01*
G75*
G02*
X87885500Y-141588499I0J-249999D01*
G01*
X87885500Y-142238501D01*
G75*
G02*
X87635501Y-142488500I-249999J0D01*
G01*
X86735499Y-142488500D01*
G75*
G02*
X86485500Y-142238501I0J249999D01*
G01*
X86485500Y-141588499D01*
G75*
G02*
X86735499Y-141338500I249999J0D01*
G01*
G37*
%TD*%
%TO.C,R4*%
G36*
G01*
X106286500Y-143071001D02*
X106286500Y-142170999D01*
G75*
G02*
X106536499Y-141921000I249999J0D01*
G01*
X107186501Y-141921000D01*
G75*
G02*
X107436500Y-142170999I0J-249999D01*
G01*
X107436500Y-143071001D01*
G75*
G02*
X107186501Y-143321000I-249999J0D01*
G01*
X106536499Y-143321000D01*
G75*
G02*
X106286500Y-143071001I0J249999D01*
G01*
G37*
G36*
G01*
X108336500Y-143071001D02*
X108336500Y-142170999D01*
G75*
G02*
X108586499Y-141921000I249999J0D01*
G01*
X109236501Y-141921000D01*
G75*
G02*
X109486500Y-142170999I0J-249999D01*
G01*
X109486500Y-143071001D01*
G75*
G02*
X109236501Y-143321000I-249999J0D01*
G01*
X108586499Y-143321000D01*
G75*
G02*
X108336500Y-143071001I0J249999D01*
G01*
G37*
%TD*%
%TO.C,R5*%
G36*
G01*
X101911999Y-144849000D02*
X102812001Y-144849000D01*
G75*
G02*
X103062000Y-145098999I0J-249999D01*
G01*
X103062000Y-145749001D01*
G75*
G02*
X102812001Y-145999000I-249999J0D01*
G01*
X101911999Y-145999000D01*
G75*
G02*
X101662000Y-145749001I0J249999D01*
G01*
X101662000Y-145098999D01*
G75*
G02*
X101911999Y-144849000I249999J0D01*
G01*
G37*
G36*
G01*
X101911999Y-142799000D02*
X102812001Y-142799000D01*
G75*
G02*
X103062000Y-143048999I0J-249999D01*
G01*
X103062000Y-143699001D01*
G75*
G02*
X102812001Y-143949000I-249999J0D01*
G01*
X101911999Y-143949000D01*
G75*
G02*
X101662000Y-143699001I0J249999D01*
G01*
X101662000Y-143048999D01*
G75*
G02*
X101911999Y-142799000I249999J0D01*
G01*
G37*
%TD*%
%TO.C,R6*%
G36*
G01*
X105225001Y-145999000D02*
X104324999Y-145999000D01*
G75*
G02*
X104075000Y-145749001I0J249999D01*
G01*
X104075000Y-145098999D01*
G75*
G02*
X104324999Y-144849000I249999J0D01*
G01*
X105225001Y-144849000D01*
G75*
G02*
X105475000Y-145098999I0J-249999D01*
G01*
X105475000Y-145749001D01*
G75*
G02*
X105225001Y-145999000I-249999J0D01*
G01*
G37*
G36*
G01*
X105225001Y-143949000D02*
X104324999Y-143949000D01*
G75*
G02*
X104075000Y-143699001I0J249999D01*
G01*
X104075000Y-143048999D01*
G75*
G02*
X104324999Y-142799000I249999J0D01*
G01*
X105225001Y-142799000D01*
G75*
G02*
X105475000Y-143048999I0J-249999D01*
G01*
X105475000Y-143699001D01*
G75*
G02*
X105225001Y-143949000I-249999J0D01*
G01*
G37*
%TD*%
%TO.C,U1*%
G36*
G01*
X88495500Y-134452500D02*
X88495500Y-134152500D01*
G75*
G02*
X88645500Y-134002500I150000J0D01*
G01*
X90395500Y-134002500D01*
G75*
G02*
X90545500Y-134152500I0J-150000D01*
G01*
X90545500Y-134452500D01*
G75*
G02*
X90395500Y-134602500I-150000J0D01*
G01*
X88645500Y-134602500D01*
G75*
G02*
X88495500Y-134452500I0J150000D01*
G01*
G37*
G36*
G01*
X88495500Y-135722500D02*
X88495500Y-135422500D01*
G75*
G02*
X88645500Y-135272500I150000J0D01*
G01*
X90395500Y-135272500D01*
G75*
G02*
X90545500Y-135422500I0J-150000D01*
G01*
X90545500Y-135722500D01*
G75*
G02*
X90395500Y-135872500I-150000J0D01*
G01*
X88645500Y-135872500D01*
G75*
G02*
X88495500Y-135722500I0J150000D01*
G01*
G37*
G36*
G01*
X88495500Y-136992500D02*
X88495500Y-136692500D01*
G75*
G02*
X88645500Y-136542500I150000J0D01*
G01*
X90395500Y-136542500D01*
G75*
G02*
X90545500Y-136692500I0J-150000D01*
G01*
X90545500Y-136992500D01*
G75*
G02*
X90395500Y-137142500I-150000J0D01*
G01*
X88645500Y-137142500D01*
G75*
G02*
X88495500Y-136992500I0J150000D01*
G01*
G37*
G36*
G01*
X88495500Y-138262500D02*
X88495500Y-137962500D01*
G75*
G02*
X88645500Y-137812500I150000J0D01*
G01*
X90395500Y-137812500D01*
G75*
G02*
X90545500Y-137962500I0J-150000D01*
G01*
X90545500Y-138262500D01*
G75*
G02*
X90395500Y-138412500I-150000J0D01*
G01*
X88645500Y-138412500D01*
G75*
G02*
X88495500Y-138262500I0J150000D01*
G01*
G37*
G36*
G01*
X88495500Y-139532500D02*
X88495500Y-139232500D01*
G75*
G02*
X88645500Y-139082500I150000J0D01*
G01*
X90395500Y-139082500D01*
G75*
G02*
X90545500Y-139232500I0J-150000D01*
G01*
X90545500Y-139532500D01*
G75*
G02*
X90395500Y-139682500I-150000J0D01*
G01*
X88645500Y-139682500D01*
G75*
G02*
X88495500Y-139532500I0J150000D01*
G01*
G37*
G36*
G01*
X88495500Y-140802500D02*
X88495500Y-140502500D01*
G75*
G02*
X88645500Y-140352500I150000J0D01*
G01*
X90395500Y-140352500D01*
G75*
G02*
X90545500Y-140502500I0J-150000D01*
G01*
X90545500Y-140802500D01*
G75*
G02*
X90395500Y-140952500I-150000J0D01*
G01*
X88645500Y-140952500D01*
G75*
G02*
X88495500Y-140802500I0J150000D01*
G01*
G37*
G36*
G01*
X88495500Y-142072500D02*
X88495500Y-141772500D01*
G75*
G02*
X88645500Y-141622500I150000J0D01*
G01*
X90395500Y-141622500D01*
G75*
G02*
X90545500Y-141772500I0J-150000D01*
G01*
X90545500Y-142072500D01*
G75*
G02*
X90395500Y-142222500I-150000J0D01*
G01*
X88645500Y-142222500D01*
G75*
G02*
X88495500Y-142072500I0J150000D01*
G01*
G37*
G36*
G01*
X88495500Y-143342500D02*
X88495500Y-143042500D01*
G75*
G02*
X88645500Y-142892500I150000J0D01*
G01*
X90395500Y-142892500D01*
G75*
G02*
X90545500Y-143042500I0J-150000D01*
G01*
X90545500Y-143342500D01*
G75*
G02*
X90395500Y-143492500I-150000J0D01*
G01*
X88645500Y-143492500D01*
G75*
G02*
X88495500Y-143342500I0J150000D01*
G01*
G37*
G36*
G01*
X88495500Y-144612500D02*
X88495500Y-144312500D01*
G75*
G02*
X88645500Y-144162500I150000J0D01*
G01*
X90395500Y-144162500D01*
G75*
G02*
X90545500Y-144312500I0J-150000D01*
G01*
X90545500Y-144612500D01*
G75*
G02*
X90395500Y-144762500I-150000J0D01*
G01*
X88645500Y-144762500D01*
G75*
G02*
X88495500Y-144612500I0J150000D01*
G01*
G37*
G36*
G01*
X88495500Y-145882500D02*
X88495500Y-145582500D01*
G75*
G02*
X88645500Y-145432500I150000J0D01*
G01*
X90395500Y-145432500D01*
G75*
G02*
X90545500Y-145582500I0J-150000D01*
G01*
X90545500Y-145882500D01*
G75*
G02*
X90395500Y-146032500I-150000J0D01*
G01*
X88645500Y-146032500D01*
G75*
G02*
X88495500Y-145882500I0J150000D01*
G01*
G37*
G36*
G01*
X97795500Y-145882500D02*
X97795500Y-145582500D01*
G75*
G02*
X97945500Y-145432500I150000J0D01*
G01*
X99695500Y-145432500D01*
G75*
G02*
X99845500Y-145582500I0J-150000D01*
G01*
X99845500Y-145882500D01*
G75*
G02*
X99695500Y-146032500I-150000J0D01*
G01*
X97945500Y-146032500D01*
G75*
G02*
X97795500Y-145882500I0J150000D01*
G01*
G37*
G36*
G01*
X97795500Y-144612500D02*
X97795500Y-144312500D01*
G75*
G02*
X97945500Y-144162500I150000J0D01*
G01*
X99695500Y-144162500D01*
G75*
G02*
X99845500Y-144312500I0J-150000D01*
G01*
X99845500Y-144612500D01*
G75*
G02*
X99695500Y-144762500I-150000J0D01*
G01*
X97945500Y-144762500D01*
G75*
G02*
X97795500Y-144612500I0J150000D01*
G01*
G37*
G36*
G01*
X97795500Y-143342500D02*
X97795500Y-143042500D01*
G75*
G02*
X97945500Y-142892500I150000J0D01*
G01*
X99695500Y-142892500D01*
G75*
G02*
X99845500Y-143042500I0J-150000D01*
G01*
X99845500Y-143342500D01*
G75*
G02*
X99695500Y-143492500I-150000J0D01*
G01*
X97945500Y-143492500D01*
G75*
G02*
X97795500Y-143342500I0J150000D01*
G01*
G37*
G36*
G01*
X97795500Y-142072500D02*
X97795500Y-141772500D01*
G75*
G02*
X97945500Y-141622500I150000J0D01*
G01*
X99695500Y-141622500D01*
G75*
G02*
X99845500Y-141772500I0J-150000D01*
G01*
X99845500Y-142072500D01*
G75*
G02*
X99695500Y-142222500I-150000J0D01*
G01*
X97945500Y-142222500D01*
G75*
G02*
X97795500Y-142072500I0J150000D01*
G01*
G37*
G36*
G01*
X97795500Y-140802500D02*
X97795500Y-140502500D01*
G75*
G02*
X97945500Y-140352500I150000J0D01*
G01*
X99695500Y-140352500D01*
G75*
G02*
X99845500Y-140502500I0J-150000D01*
G01*
X99845500Y-140802500D01*
G75*
G02*
X99695500Y-140952500I-150000J0D01*
G01*
X97945500Y-140952500D01*
G75*
G02*
X97795500Y-140802500I0J150000D01*
G01*
G37*
G36*
G01*
X97795500Y-139532500D02*
X97795500Y-139232500D01*
G75*
G02*
X97945500Y-139082500I150000J0D01*
G01*
X99695500Y-139082500D01*
G75*
G02*
X99845500Y-139232500I0J-150000D01*
G01*
X99845500Y-139532500D01*
G75*
G02*
X99695500Y-139682500I-150000J0D01*
G01*
X97945500Y-139682500D01*
G75*
G02*
X97795500Y-139532500I0J150000D01*
G01*
G37*
G36*
G01*
X97795500Y-138262500D02*
X97795500Y-137962500D01*
G75*
G02*
X97945500Y-137812500I150000J0D01*
G01*
X99695500Y-137812500D01*
G75*
G02*
X99845500Y-137962500I0J-150000D01*
G01*
X99845500Y-138262500D01*
G75*
G02*
X99695500Y-138412500I-150000J0D01*
G01*
X97945500Y-138412500D01*
G75*
G02*
X97795500Y-138262500I0J150000D01*
G01*
G37*
G36*
G01*
X97795500Y-136992500D02*
X97795500Y-136692500D01*
G75*
G02*
X97945500Y-136542500I150000J0D01*
G01*
X99695500Y-136542500D01*
G75*
G02*
X99845500Y-136692500I0J-150000D01*
G01*
X99845500Y-136992500D01*
G75*
G02*
X99695500Y-137142500I-150000J0D01*
G01*
X97945500Y-137142500D01*
G75*
G02*
X97795500Y-136992500I0J150000D01*
G01*
G37*
G36*
G01*
X97795500Y-135722500D02*
X97795500Y-135422500D01*
G75*
G02*
X97945500Y-135272500I150000J0D01*
G01*
X99695500Y-135272500D01*
G75*
G02*
X99845500Y-135422500I0J-150000D01*
G01*
X99845500Y-135722500D01*
G75*
G02*
X99695500Y-135872500I-150000J0D01*
G01*
X97945500Y-135872500D01*
G75*
G02*
X97795500Y-135722500I0J150000D01*
G01*
G37*
G36*
G01*
X97795500Y-134452500D02*
X97795500Y-134152500D01*
G75*
G02*
X97945500Y-134002500I150000J0D01*
G01*
X99695500Y-134002500D01*
G75*
G02*
X99845500Y-134152500I0J-150000D01*
G01*
X99845500Y-134452500D01*
G75*
G02*
X99695500Y-134602500I-150000J0D01*
G01*
X97945500Y-134602500D01*
G75*
G02*
X97795500Y-134452500I0J150000D01*
G01*
G37*
%TD*%
D13*
%TO.C,U2*%
X102809000Y-141181000D03*
X103759000Y-141181000D03*
X104709000Y-141181000D03*
X104709000Y-138981000D03*
X102809000Y-138981000D03*
%TD*%
M02*
