%TF.GenerationSoftware,KiCad,Pcbnew,(5.1.6)-1*%
%TF.CreationDate,2020-07-29T08:32:23+01:00*%
%TF.ProjectId,open-amiga-sampler-smd,6f70656e-2d61-46d6-9967-612d73616d70,rev?*%
%TF.SameCoordinates,Original*%
%TF.FileFunction,Paste,Top*%
%TF.FilePolarity,Positive*%
%FSLAX46Y46*%
G04 Gerber Fmt 4.6, Leading zero omitted, Abs format (unit mm)*
G04 Created by KiCad (PCBNEW (5.1.6)-1) date 2020-07-29 08:32:23*
%MOMM*%
%LPD*%
G01*
G04 APERTURE LIST*
%ADD10R,1.846667X3.480000*%
%ADD11R,0.650000X1.060000*%
G04 APERTURE END LIST*
%TO.C,C1*%
G36*
G01*
X111394000Y-140531401D02*
X111394000Y-139681399D01*
G75*
G02*
X111643999Y-139431400I249999J0D01*
G01*
X112719001Y-139431400D01*
G75*
G02*
X112969000Y-139681399I0J-249999D01*
G01*
X112969000Y-140531401D01*
G75*
G02*
X112719001Y-140781400I-249999J0D01*
G01*
X111643999Y-140781400D01*
G75*
G02*
X111394000Y-140531401I0J249999D01*
G01*
G37*
G36*
G01*
X108519000Y-140531401D02*
X108519000Y-139681399D01*
G75*
G02*
X108768999Y-139431400I249999J0D01*
G01*
X109844001Y-139431400D01*
G75*
G02*
X110094000Y-139681399I0J-249999D01*
G01*
X110094000Y-140531401D01*
G75*
G02*
X109844001Y-140781400I-249999J0D01*
G01*
X108768999Y-140781400D01*
G75*
G02*
X108519000Y-140531401I0J249999D01*
G01*
G37*
%TD*%
%TO.C,C2*%
G36*
G01*
X111521000Y-145332001D02*
X111521000Y-144481999D01*
G75*
G02*
X111770999Y-144232000I249999J0D01*
G01*
X112846001Y-144232000D01*
G75*
G02*
X113096000Y-144481999I0J-249999D01*
G01*
X113096000Y-145332001D01*
G75*
G02*
X112846001Y-145582000I-249999J0D01*
G01*
X111770999Y-145582000D01*
G75*
G02*
X111521000Y-145332001I0J249999D01*
G01*
G37*
G36*
G01*
X108646000Y-145332001D02*
X108646000Y-144481999D01*
G75*
G02*
X108895999Y-144232000I249999J0D01*
G01*
X109971001Y-144232000D01*
G75*
G02*
X110221000Y-144481999I0J-249999D01*
G01*
X110221000Y-145332001D01*
G75*
G02*
X109971001Y-145582000I-249999J0D01*
G01*
X108895999Y-145582000D01*
G75*
G02*
X108646000Y-145332001I0J249999D01*
G01*
G37*
%TD*%
%TO.C,C4*%
G36*
G01*
X83635401Y-142072600D02*
X82785399Y-142072600D01*
G75*
G02*
X82535400Y-141822601I0J249999D01*
G01*
X82535400Y-140747599D01*
G75*
G02*
X82785399Y-140497600I249999J0D01*
G01*
X83635401Y-140497600D01*
G75*
G02*
X83885400Y-140747599I0J-249999D01*
G01*
X83885400Y-141822601D01*
G75*
G02*
X83635401Y-142072600I-249999J0D01*
G01*
G37*
G36*
G01*
X83635401Y-144947600D02*
X82785399Y-144947600D01*
G75*
G02*
X82535400Y-144697601I0J249999D01*
G01*
X82535400Y-143622599D01*
G75*
G02*
X82785399Y-143372600I249999J0D01*
G01*
X83635401Y-143372600D01*
G75*
G02*
X83885400Y-143622599I0J-249999D01*
G01*
X83885400Y-144697601D01*
G75*
G02*
X83635401Y-144947600I-249999J0D01*
G01*
G37*
%TD*%
%TO.C,C3*%
G36*
G01*
X97340000Y-146488999D02*
X97340000Y-147389001D01*
G75*
G02*
X97090001Y-147639000I-249999J0D01*
G01*
X96439999Y-147639000D01*
G75*
G02*
X96190000Y-147389001I0J249999D01*
G01*
X96190000Y-146488999D01*
G75*
G02*
X96439999Y-146239000I249999J0D01*
G01*
X97090001Y-146239000D01*
G75*
G02*
X97340000Y-146488999I0J-249999D01*
G01*
G37*
G36*
G01*
X99390000Y-146488999D02*
X99390000Y-147389001D01*
G75*
G02*
X99140001Y-147639000I-249999J0D01*
G01*
X98489999Y-147639000D01*
G75*
G02*
X98240000Y-147389001I0J249999D01*
G01*
X98240000Y-146488999D01*
G75*
G02*
X98489999Y-146239000I249999J0D01*
G01*
X99140001Y-146239000D01*
G75*
G02*
X99390000Y-146488999I0J-249999D01*
G01*
G37*
%TD*%
%TO.C,C5*%
G36*
G01*
X102032000Y-137229001D02*
X102032000Y-136328999D01*
G75*
G02*
X102281999Y-136079000I249999J0D01*
G01*
X102932001Y-136079000D01*
G75*
G02*
X103182000Y-136328999I0J-249999D01*
G01*
X103182000Y-137229001D01*
G75*
G02*
X102932001Y-137479000I-249999J0D01*
G01*
X102281999Y-137479000D01*
G75*
G02*
X102032000Y-137229001I0J249999D01*
G01*
G37*
G36*
G01*
X104082000Y-137229001D02*
X104082000Y-136328999D01*
G75*
G02*
X104331999Y-136079000I249999J0D01*
G01*
X104982001Y-136079000D01*
G75*
G02*
X105232000Y-136328999I0J-249999D01*
G01*
X105232000Y-137229001D01*
G75*
G02*
X104982001Y-137479000I-249999J0D01*
G01*
X104331999Y-137479000D01*
G75*
G02*
X104082000Y-137229001I0J249999D01*
G01*
G37*
%TD*%
D10*
%TO.C,J3*%
X81678000Y-150037800D03*
X84448000Y-150037800D03*
X87218000Y-150037800D03*
X89988000Y-150037800D03*
X92758000Y-150037800D03*
X95528000Y-150037800D03*
X98298000Y-150037800D03*
X101068000Y-150037800D03*
X103838000Y-150037800D03*
X106608000Y-150037800D03*
X109378000Y-150037800D03*
X112148000Y-150037800D03*
X114918000Y-150037800D03*
%TD*%
%TO.C,R1*%
G36*
G01*
X108450801Y-136176600D02*
X107550799Y-136176600D01*
G75*
G02*
X107300800Y-135926601I0J249999D01*
G01*
X107300800Y-135276599D01*
G75*
G02*
X107550799Y-135026600I249999J0D01*
G01*
X108450801Y-135026600D01*
G75*
G02*
X108700800Y-135276599I0J-249999D01*
G01*
X108700800Y-135926601D01*
G75*
G02*
X108450801Y-136176600I-249999J0D01*
G01*
G37*
G36*
G01*
X108450801Y-138226600D02*
X107550799Y-138226600D01*
G75*
G02*
X107300800Y-137976601I0J249999D01*
G01*
X107300800Y-137326599D01*
G75*
G02*
X107550799Y-137076600I249999J0D01*
G01*
X108450801Y-137076600D01*
G75*
G02*
X108700800Y-137326599I0J-249999D01*
G01*
X108700800Y-137976601D01*
G75*
G02*
X108450801Y-138226600I-249999J0D01*
G01*
G37*
%TD*%
%TO.C,R2*%
G36*
G01*
X105359000Y-134106499D02*
X105359000Y-135006501D01*
G75*
G02*
X105109001Y-135256500I-249999J0D01*
G01*
X104458999Y-135256500D01*
G75*
G02*
X104209000Y-135006501I0J249999D01*
G01*
X104209000Y-134106499D01*
G75*
G02*
X104458999Y-133856500I249999J0D01*
G01*
X105109001Y-133856500D01*
G75*
G02*
X105359000Y-134106499I0J-249999D01*
G01*
G37*
G36*
G01*
X103309000Y-134106499D02*
X103309000Y-135006501D01*
G75*
G02*
X103059001Y-135256500I-249999J0D01*
G01*
X102408999Y-135256500D01*
G75*
G02*
X102159000Y-135006501I0J249999D01*
G01*
X102159000Y-134106499D01*
G75*
G02*
X102408999Y-133856500I249999J0D01*
G01*
X103059001Y-133856500D01*
G75*
G02*
X103309000Y-134106499I0J-249999D01*
G01*
G37*
%TD*%
%TO.C,R3*%
G36*
G01*
X86544999Y-142944000D02*
X87445001Y-142944000D01*
G75*
G02*
X87695000Y-143193999I0J-249999D01*
G01*
X87695000Y-143844001D01*
G75*
G02*
X87445001Y-144094000I-249999J0D01*
G01*
X86544999Y-144094000D01*
G75*
G02*
X86295000Y-143844001I0J249999D01*
G01*
X86295000Y-143193999D01*
G75*
G02*
X86544999Y-142944000I249999J0D01*
G01*
G37*
G36*
G01*
X86544999Y-140894000D02*
X87445001Y-140894000D01*
G75*
G02*
X87695000Y-141143999I0J-249999D01*
G01*
X87695000Y-141794001D01*
G75*
G02*
X87445001Y-142044000I-249999J0D01*
G01*
X86544999Y-142044000D01*
G75*
G02*
X86295000Y-141794001I0J249999D01*
G01*
X86295000Y-141143999D01*
G75*
G02*
X86544999Y-140894000I249999J0D01*
G01*
G37*
%TD*%
%TO.C,R4*%
G36*
G01*
X108610600Y-143045601D02*
X108610600Y-142145599D01*
G75*
G02*
X108860599Y-141895600I249999J0D01*
G01*
X109510601Y-141895600D01*
G75*
G02*
X109760600Y-142145599I0J-249999D01*
G01*
X109760600Y-143045601D01*
G75*
G02*
X109510601Y-143295600I-249999J0D01*
G01*
X108860599Y-143295600D01*
G75*
G02*
X108610600Y-143045601I0J249999D01*
G01*
G37*
G36*
G01*
X110660600Y-143045601D02*
X110660600Y-142145599D01*
G75*
G02*
X110910599Y-141895600I249999J0D01*
G01*
X111560601Y-141895600D01*
G75*
G02*
X111810600Y-142145599I0J-249999D01*
G01*
X111810600Y-143045601D01*
G75*
G02*
X111560601Y-143295600I-249999J0D01*
G01*
X110910599Y-143295600D01*
G75*
G02*
X110660600Y-143045601I0J249999D01*
G01*
G37*
%TD*%
%TO.C,R5*%
G36*
G01*
X103054999Y-144849000D02*
X103955001Y-144849000D01*
G75*
G02*
X104205000Y-145098999I0J-249999D01*
G01*
X104205000Y-145749001D01*
G75*
G02*
X103955001Y-145999000I-249999J0D01*
G01*
X103054999Y-145999000D01*
G75*
G02*
X102805000Y-145749001I0J249999D01*
G01*
X102805000Y-145098999D01*
G75*
G02*
X103054999Y-144849000I249999J0D01*
G01*
G37*
G36*
G01*
X103054999Y-142799000D02*
X103955001Y-142799000D01*
G75*
G02*
X104205000Y-143048999I0J-249999D01*
G01*
X104205000Y-143699001D01*
G75*
G02*
X103955001Y-143949000I-249999J0D01*
G01*
X103054999Y-143949000D01*
G75*
G02*
X102805000Y-143699001I0J249999D01*
G01*
X102805000Y-143048999D01*
G75*
G02*
X103054999Y-142799000I249999J0D01*
G01*
G37*
%TD*%
%TO.C,R6*%
G36*
G01*
X106114001Y-145999000D02*
X105213999Y-145999000D01*
G75*
G02*
X104964000Y-145749001I0J249999D01*
G01*
X104964000Y-145098999D01*
G75*
G02*
X105213999Y-144849000I249999J0D01*
G01*
X106114001Y-144849000D01*
G75*
G02*
X106364000Y-145098999I0J-249999D01*
G01*
X106364000Y-145749001D01*
G75*
G02*
X106114001Y-145999000I-249999J0D01*
G01*
G37*
G36*
G01*
X106114001Y-143949000D02*
X105213999Y-143949000D01*
G75*
G02*
X104964000Y-143699001I0J249999D01*
G01*
X104964000Y-143048999D01*
G75*
G02*
X105213999Y-142799000I249999J0D01*
G01*
X106114001Y-142799000D01*
G75*
G02*
X106364000Y-143048999I0J-249999D01*
G01*
X106364000Y-143699001D01*
G75*
G02*
X106114001Y-143949000I-249999J0D01*
G01*
G37*
%TD*%
%TO.C,U1*%
G36*
G01*
X88432000Y-134008000D02*
X88432000Y-133708000D01*
G75*
G02*
X88582000Y-133558000I150000J0D01*
G01*
X90332000Y-133558000D01*
G75*
G02*
X90482000Y-133708000I0J-150000D01*
G01*
X90482000Y-134008000D01*
G75*
G02*
X90332000Y-134158000I-150000J0D01*
G01*
X88582000Y-134158000D01*
G75*
G02*
X88432000Y-134008000I0J150000D01*
G01*
G37*
G36*
G01*
X88432000Y-135278000D02*
X88432000Y-134978000D01*
G75*
G02*
X88582000Y-134828000I150000J0D01*
G01*
X90332000Y-134828000D01*
G75*
G02*
X90482000Y-134978000I0J-150000D01*
G01*
X90482000Y-135278000D01*
G75*
G02*
X90332000Y-135428000I-150000J0D01*
G01*
X88582000Y-135428000D01*
G75*
G02*
X88432000Y-135278000I0J150000D01*
G01*
G37*
G36*
G01*
X88432000Y-136548000D02*
X88432000Y-136248000D01*
G75*
G02*
X88582000Y-136098000I150000J0D01*
G01*
X90332000Y-136098000D01*
G75*
G02*
X90482000Y-136248000I0J-150000D01*
G01*
X90482000Y-136548000D01*
G75*
G02*
X90332000Y-136698000I-150000J0D01*
G01*
X88582000Y-136698000D01*
G75*
G02*
X88432000Y-136548000I0J150000D01*
G01*
G37*
G36*
G01*
X88432000Y-137818000D02*
X88432000Y-137518000D01*
G75*
G02*
X88582000Y-137368000I150000J0D01*
G01*
X90332000Y-137368000D01*
G75*
G02*
X90482000Y-137518000I0J-150000D01*
G01*
X90482000Y-137818000D01*
G75*
G02*
X90332000Y-137968000I-150000J0D01*
G01*
X88582000Y-137968000D01*
G75*
G02*
X88432000Y-137818000I0J150000D01*
G01*
G37*
G36*
G01*
X88432000Y-139088000D02*
X88432000Y-138788000D01*
G75*
G02*
X88582000Y-138638000I150000J0D01*
G01*
X90332000Y-138638000D01*
G75*
G02*
X90482000Y-138788000I0J-150000D01*
G01*
X90482000Y-139088000D01*
G75*
G02*
X90332000Y-139238000I-150000J0D01*
G01*
X88582000Y-139238000D01*
G75*
G02*
X88432000Y-139088000I0J150000D01*
G01*
G37*
G36*
G01*
X88432000Y-140358000D02*
X88432000Y-140058000D01*
G75*
G02*
X88582000Y-139908000I150000J0D01*
G01*
X90332000Y-139908000D01*
G75*
G02*
X90482000Y-140058000I0J-150000D01*
G01*
X90482000Y-140358000D01*
G75*
G02*
X90332000Y-140508000I-150000J0D01*
G01*
X88582000Y-140508000D01*
G75*
G02*
X88432000Y-140358000I0J150000D01*
G01*
G37*
G36*
G01*
X88432000Y-141628000D02*
X88432000Y-141328000D01*
G75*
G02*
X88582000Y-141178000I150000J0D01*
G01*
X90332000Y-141178000D01*
G75*
G02*
X90482000Y-141328000I0J-150000D01*
G01*
X90482000Y-141628000D01*
G75*
G02*
X90332000Y-141778000I-150000J0D01*
G01*
X88582000Y-141778000D01*
G75*
G02*
X88432000Y-141628000I0J150000D01*
G01*
G37*
G36*
G01*
X88432000Y-142898000D02*
X88432000Y-142598000D01*
G75*
G02*
X88582000Y-142448000I150000J0D01*
G01*
X90332000Y-142448000D01*
G75*
G02*
X90482000Y-142598000I0J-150000D01*
G01*
X90482000Y-142898000D01*
G75*
G02*
X90332000Y-143048000I-150000J0D01*
G01*
X88582000Y-143048000D01*
G75*
G02*
X88432000Y-142898000I0J150000D01*
G01*
G37*
G36*
G01*
X88432000Y-144168000D02*
X88432000Y-143868000D01*
G75*
G02*
X88582000Y-143718000I150000J0D01*
G01*
X90332000Y-143718000D01*
G75*
G02*
X90482000Y-143868000I0J-150000D01*
G01*
X90482000Y-144168000D01*
G75*
G02*
X90332000Y-144318000I-150000J0D01*
G01*
X88582000Y-144318000D01*
G75*
G02*
X88432000Y-144168000I0J150000D01*
G01*
G37*
G36*
G01*
X88432000Y-145438000D02*
X88432000Y-145138000D01*
G75*
G02*
X88582000Y-144988000I150000J0D01*
G01*
X90332000Y-144988000D01*
G75*
G02*
X90482000Y-145138000I0J-150000D01*
G01*
X90482000Y-145438000D01*
G75*
G02*
X90332000Y-145588000I-150000J0D01*
G01*
X88582000Y-145588000D01*
G75*
G02*
X88432000Y-145438000I0J150000D01*
G01*
G37*
G36*
G01*
X97732000Y-145438000D02*
X97732000Y-145138000D01*
G75*
G02*
X97882000Y-144988000I150000J0D01*
G01*
X99632000Y-144988000D01*
G75*
G02*
X99782000Y-145138000I0J-150000D01*
G01*
X99782000Y-145438000D01*
G75*
G02*
X99632000Y-145588000I-150000J0D01*
G01*
X97882000Y-145588000D01*
G75*
G02*
X97732000Y-145438000I0J150000D01*
G01*
G37*
G36*
G01*
X97732000Y-144168000D02*
X97732000Y-143868000D01*
G75*
G02*
X97882000Y-143718000I150000J0D01*
G01*
X99632000Y-143718000D01*
G75*
G02*
X99782000Y-143868000I0J-150000D01*
G01*
X99782000Y-144168000D01*
G75*
G02*
X99632000Y-144318000I-150000J0D01*
G01*
X97882000Y-144318000D01*
G75*
G02*
X97732000Y-144168000I0J150000D01*
G01*
G37*
G36*
G01*
X97732000Y-142898000D02*
X97732000Y-142598000D01*
G75*
G02*
X97882000Y-142448000I150000J0D01*
G01*
X99632000Y-142448000D01*
G75*
G02*
X99782000Y-142598000I0J-150000D01*
G01*
X99782000Y-142898000D01*
G75*
G02*
X99632000Y-143048000I-150000J0D01*
G01*
X97882000Y-143048000D01*
G75*
G02*
X97732000Y-142898000I0J150000D01*
G01*
G37*
G36*
G01*
X97732000Y-141628000D02*
X97732000Y-141328000D01*
G75*
G02*
X97882000Y-141178000I150000J0D01*
G01*
X99632000Y-141178000D01*
G75*
G02*
X99782000Y-141328000I0J-150000D01*
G01*
X99782000Y-141628000D01*
G75*
G02*
X99632000Y-141778000I-150000J0D01*
G01*
X97882000Y-141778000D01*
G75*
G02*
X97732000Y-141628000I0J150000D01*
G01*
G37*
G36*
G01*
X97732000Y-140358000D02*
X97732000Y-140058000D01*
G75*
G02*
X97882000Y-139908000I150000J0D01*
G01*
X99632000Y-139908000D01*
G75*
G02*
X99782000Y-140058000I0J-150000D01*
G01*
X99782000Y-140358000D01*
G75*
G02*
X99632000Y-140508000I-150000J0D01*
G01*
X97882000Y-140508000D01*
G75*
G02*
X97732000Y-140358000I0J150000D01*
G01*
G37*
G36*
G01*
X97732000Y-139088000D02*
X97732000Y-138788000D01*
G75*
G02*
X97882000Y-138638000I150000J0D01*
G01*
X99632000Y-138638000D01*
G75*
G02*
X99782000Y-138788000I0J-150000D01*
G01*
X99782000Y-139088000D01*
G75*
G02*
X99632000Y-139238000I-150000J0D01*
G01*
X97882000Y-139238000D01*
G75*
G02*
X97732000Y-139088000I0J150000D01*
G01*
G37*
G36*
G01*
X97732000Y-137818000D02*
X97732000Y-137518000D01*
G75*
G02*
X97882000Y-137368000I150000J0D01*
G01*
X99632000Y-137368000D01*
G75*
G02*
X99782000Y-137518000I0J-150000D01*
G01*
X99782000Y-137818000D01*
G75*
G02*
X99632000Y-137968000I-150000J0D01*
G01*
X97882000Y-137968000D01*
G75*
G02*
X97732000Y-137818000I0J150000D01*
G01*
G37*
G36*
G01*
X97732000Y-136548000D02*
X97732000Y-136248000D01*
G75*
G02*
X97882000Y-136098000I150000J0D01*
G01*
X99632000Y-136098000D01*
G75*
G02*
X99782000Y-136248000I0J-150000D01*
G01*
X99782000Y-136548000D01*
G75*
G02*
X99632000Y-136698000I-150000J0D01*
G01*
X97882000Y-136698000D01*
G75*
G02*
X97732000Y-136548000I0J150000D01*
G01*
G37*
G36*
G01*
X97732000Y-135278000D02*
X97732000Y-134978000D01*
G75*
G02*
X97882000Y-134828000I150000J0D01*
G01*
X99632000Y-134828000D01*
G75*
G02*
X99782000Y-134978000I0J-150000D01*
G01*
X99782000Y-135278000D01*
G75*
G02*
X99632000Y-135428000I-150000J0D01*
G01*
X97882000Y-135428000D01*
G75*
G02*
X97732000Y-135278000I0J150000D01*
G01*
G37*
G36*
G01*
X97732000Y-134008000D02*
X97732000Y-133708000D01*
G75*
G02*
X97882000Y-133558000I150000J0D01*
G01*
X99632000Y-133558000D01*
G75*
G02*
X99782000Y-133708000I0J-150000D01*
G01*
X99782000Y-134008000D01*
G75*
G02*
X99632000Y-134158000I-150000J0D01*
G01*
X97882000Y-134158000D01*
G75*
G02*
X97732000Y-134008000I0J150000D01*
G01*
G37*
%TD*%
D11*
%TO.C,U2*%
X102809000Y-141181000D03*
X103759000Y-141181000D03*
X104709000Y-141181000D03*
X104709000Y-138981000D03*
X102809000Y-138981000D03*
%TD*%
M02*
