%TF.GenerationSoftware,KiCad,Pcbnew,(5.1.6)-1*%
%TF.CreationDate,2020-07-30T08:40:25+01:00*%
%TF.ProjectId,open-amiga-sampler-smd,6f70656e-2d61-46d6-9967-612d73616d70,rev?*%
%TF.SameCoordinates,Original*%
%TF.FileFunction,Legend,Top*%
%TF.FilePolarity,Positive*%
%FSLAX46Y46*%
G04 Gerber Fmt 4.6, Leading zero omitted, Abs format (unit mm)*
G04 Created by KiCad (PCBNEW (5.1.6)-1) date 2020-07-30 08:40:25*
%MOMM*%
%LPD*%
G01*
G04 APERTURE LIST*
%ADD10C,0.150000*%
%ADD11C,0.120000*%
G04 APERTURE END LIST*
D10*
X87886659Y-133731000D02*
G75*
G03*
X87886659Y-133731000I-243959J0D01*
G01*
D11*
%TO.C,C4*%
X85381500Y-140297500D02*
X84181500Y-140297500D01*
X80861500Y-140297500D02*
X82061500Y-140297500D01*
X80861500Y-143753063D02*
X80861500Y-140297500D01*
X85381500Y-143753063D02*
X85381500Y-140297500D01*
X84317063Y-144817500D02*
X84181500Y-144817500D01*
X81925937Y-144817500D02*
X82061500Y-144817500D01*
X81925937Y-144817500D02*
X80861500Y-143753063D01*
X84317063Y-144817500D02*
X85381500Y-143753063D01*
X81561500Y-145557500D02*
X81561500Y-145057500D01*
X81311500Y-145307500D02*
X81811500Y-145307500D01*
%TO.C,RV1*%
X96060000Y-129940000D02*
X96060000Y-131000000D01*
X95000000Y-129940000D02*
X96060000Y-129940000D01*
X94000000Y-129940000D02*
X94000000Y-132060000D01*
X94000000Y-132060000D02*
X89940000Y-132060000D01*
X94000000Y-129940000D02*
X89940000Y-129940000D01*
X89940000Y-129940000D02*
X89940000Y-132060000D01*
%TO.C,J2*%
X98940000Y-132060000D02*
X98940000Y-131000000D01*
X100000000Y-132060000D02*
X98940000Y-132060000D01*
X101000000Y-132060000D02*
X101000000Y-129940000D01*
X101000000Y-129940000D02*
X103060000Y-129940000D01*
X101000000Y-132060000D02*
X103060000Y-132060000D01*
X103060000Y-132060000D02*
X103060000Y-129940000D01*
%TO.C,J1*%
X108070200Y-129927800D02*
X108070200Y-130987800D01*
X107010200Y-129927800D02*
X108070200Y-129927800D01*
X106010200Y-129927800D02*
X106010200Y-132047800D01*
X106010200Y-132047800D02*
X103950200Y-132047800D01*
X106010200Y-129927800D02*
X103950200Y-129927800D01*
X103950200Y-129927800D02*
X103950200Y-132047800D01*
%TO.C,C1*%
X106036500Y-141016000D02*
X110121500Y-141016000D01*
X106036500Y-139146000D02*
X106036500Y-141016000D01*
X110121500Y-139146000D02*
X106036500Y-139146000D01*
%TO.C,C2*%
X106036500Y-145842000D02*
X110121500Y-145842000D01*
X106036500Y-143972000D02*
X106036500Y-145842000D01*
X110121500Y-143972000D02*
X106036500Y-143972000D01*
%TO.C,C3*%
X100636000Y-134295248D02*
X100636000Y-134817752D01*
X102056000Y-134295248D02*
X102056000Y-134817752D01*
%TO.C,C5*%
X104259748Y-136069000D02*
X104782252Y-136069000D01*
X104259748Y-137489000D02*
X104782252Y-137489000D01*
%TO.C,J3*%
X116101333Y-150774500D02*
X116101333Y-147034500D01*
X116101333Y-147034500D02*
X80494667Y-147034500D01*
X80494667Y-147034500D02*
X80494667Y-150774500D01*
X80254667Y-149034500D02*
X80254667Y-146794500D01*
X80254667Y-146794500D02*
X84448000Y-146794500D01*
%TO.C,R1*%
X108710800Y-136887852D02*
X108710800Y-136365348D01*
X107290800Y-136887852D02*
X107290800Y-136365348D01*
%TO.C,R2*%
X104718752Y-135266500D02*
X104196248Y-135266500D01*
X104718752Y-133846500D02*
X104196248Y-133846500D01*
%TO.C,R3*%
X86285000Y-142232748D02*
X86285000Y-142755252D01*
X87705000Y-142232748D02*
X87705000Y-142755252D01*
%TO.C,R4*%
X107625248Y-141911000D02*
X108147752Y-141911000D01*
X107625248Y-143331000D02*
X108147752Y-143331000D01*
%TO.C,R5*%
X101652000Y-144137748D02*
X101652000Y-144660252D01*
X103072000Y-144137748D02*
X103072000Y-144660252D01*
%TO.C,R6*%
X104065000Y-144660252D02*
X104065000Y-144137748D01*
X105485000Y-144660252D02*
X105485000Y-144137748D01*
%TO.C,U1*%
X94107000Y-146083000D02*
X97967000Y-146083000D01*
X97967000Y-146083000D02*
X97967000Y-145848000D01*
X94107000Y-146083000D02*
X90247000Y-146083000D01*
X90247000Y-146083000D02*
X90247000Y-145848000D01*
X94107000Y-133063000D02*
X97967000Y-133063000D01*
X97967000Y-133063000D02*
X97967000Y-133298000D01*
X94107000Y-133063000D02*
X90247000Y-133063000D01*
X90247000Y-133063000D02*
X90247000Y-133298000D01*
X90247000Y-133298000D02*
X88432000Y-133298000D01*
%TO.C,U2*%
X105369000Y-140981000D02*
X105369000Y-139181000D01*
X102149000Y-139181000D02*
X102149000Y-141631000D01*
%TO.C,C4*%
D10*
X81764142Y-139231666D02*
X81811761Y-139279285D01*
X81859380Y-139422142D01*
X81859380Y-139517380D01*
X81811761Y-139660238D01*
X81716523Y-139755476D01*
X81621285Y-139803095D01*
X81430809Y-139850714D01*
X81287952Y-139850714D01*
X81097476Y-139803095D01*
X81002238Y-139755476D01*
X80907000Y-139660238D01*
X80859380Y-139517380D01*
X80859380Y-139422142D01*
X80907000Y-139279285D01*
X80954619Y-139231666D01*
X81192714Y-138374523D02*
X81859380Y-138374523D01*
X80811761Y-138612619D02*
X81526047Y-138850714D01*
X81526047Y-138231666D01*
%TO.C,RV1*%
X89288880Y-131443338D02*
X88812690Y-131776671D01*
X89288880Y-132014766D02*
X88288880Y-132014766D01*
X88288880Y-131633814D01*
X88336500Y-131538576D01*
X88384119Y-131490957D01*
X88479357Y-131443338D01*
X88622214Y-131443338D01*
X88717452Y-131490957D01*
X88765071Y-131538576D01*
X88812690Y-131633814D01*
X88812690Y-132014766D01*
X88288880Y-131157623D02*
X89288880Y-130824290D01*
X88288880Y-130490957D01*
X89288880Y-129633814D02*
X89288880Y-130205242D01*
X89288880Y-129919528D02*
X88288880Y-129919528D01*
X88431738Y-130014766D01*
X88526976Y-130110004D01*
X88574595Y-130205242D01*
%TO.C,J2*%
X97280480Y-131219533D02*
X97994766Y-131219533D01*
X98137623Y-131267152D01*
X98232861Y-131362390D01*
X98280480Y-131505247D01*
X98280480Y-131600485D01*
X97375719Y-130790961D02*
X97328100Y-130743342D01*
X97280480Y-130648104D01*
X97280480Y-130410009D01*
X97328100Y-130314771D01*
X97375719Y-130267152D01*
X97470957Y-130219533D01*
X97566195Y-130219533D01*
X97709052Y-130267152D01*
X98280480Y-130838580D01*
X98280480Y-130219533D01*
%TO.C,J1*%
X107489666Y-132510280D02*
X107489666Y-133224566D01*
X107442047Y-133367423D01*
X107346809Y-133462661D01*
X107203952Y-133510280D01*
X107108714Y-133510280D01*
X108489666Y-133510280D02*
X107918238Y-133510280D01*
X108203952Y-133510280D02*
X108203952Y-132510280D01*
X108108714Y-132653138D01*
X108013476Y-132748376D01*
X107918238Y-132795995D01*
%TO.C,C1*%
X111783833Y-140400042D02*
X111736214Y-140447661D01*
X111593357Y-140495280D01*
X111498119Y-140495280D01*
X111355261Y-140447661D01*
X111260023Y-140352423D01*
X111212404Y-140257185D01*
X111164785Y-140066709D01*
X111164785Y-139923852D01*
X111212404Y-139733376D01*
X111260023Y-139638138D01*
X111355261Y-139542900D01*
X111498119Y-139495280D01*
X111593357Y-139495280D01*
X111736214Y-139542900D01*
X111783833Y-139590519D01*
X112736214Y-140495280D02*
X112164785Y-140495280D01*
X112450500Y-140495280D02*
X112450500Y-139495280D01*
X112355261Y-139638138D01*
X112260023Y-139733376D01*
X112164785Y-139780995D01*
%TO.C,C2*%
X111834633Y-145238742D02*
X111787014Y-145286361D01*
X111644157Y-145333980D01*
X111548919Y-145333980D01*
X111406061Y-145286361D01*
X111310823Y-145191123D01*
X111263204Y-145095885D01*
X111215585Y-144905409D01*
X111215585Y-144762552D01*
X111263204Y-144572076D01*
X111310823Y-144476838D01*
X111406061Y-144381600D01*
X111548919Y-144333980D01*
X111644157Y-144333980D01*
X111787014Y-144381600D01*
X111834633Y-144429219D01*
X112215585Y-144429219D02*
X112263204Y-144381600D01*
X112358442Y-144333980D01*
X112596538Y-144333980D01*
X112691776Y-144381600D01*
X112739395Y-144429219D01*
X112787014Y-144524457D01*
X112787014Y-144619695D01*
X112739395Y-144762552D01*
X112167966Y-145333980D01*
X112787014Y-145333980D01*
%TO.C,C3*%
X99401333Y-133008642D02*
X99353714Y-133056261D01*
X99210857Y-133103880D01*
X99115619Y-133103880D01*
X98972761Y-133056261D01*
X98877523Y-132961023D01*
X98829904Y-132865785D01*
X98782285Y-132675309D01*
X98782285Y-132532452D01*
X98829904Y-132341976D01*
X98877523Y-132246738D01*
X98972761Y-132151500D01*
X99115619Y-132103880D01*
X99210857Y-132103880D01*
X99353714Y-132151500D01*
X99401333Y-132199119D01*
X99734666Y-132103880D02*
X100353714Y-132103880D01*
X100020380Y-132484833D01*
X100163238Y-132484833D01*
X100258476Y-132532452D01*
X100306095Y-132580071D01*
X100353714Y-132675309D01*
X100353714Y-132913404D01*
X100306095Y-133008642D01*
X100258476Y-133056261D01*
X100163238Y-133103880D01*
X99877523Y-133103880D01*
X99782285Y-133056261D01*
X99734666Y-133008642D01*
%TO.C,C5*%
X101242833Y-137961642D02*
X101195214Y-138009261D01*
X101052357Y-138056880D01*
X100957119Y-138056880D01*
X100814261Y-138009261D01*
X100719023Y-137914023D01*
X100671404Y-137818785D01*
X100623785Y-137628309D01*
X100623785Y-137485452D01*
X100671404Y-137294976D01*
X100719023Y-137199738D01*
X100814261Y-137104500D01*
X100957119Y-137056880D01*
X101052357Y-137056880D01*
X101195214Y-137104500D01*
X101242833Y-137152119D01*
X102147595Y-137056880D02*
X101671404Y-137056880D01*
X101623785Y-137533071D01*
X101671404Y-137485452D01*
X101766642Y-137437833D01*
X102004738Y-137437833D01*
X102099976Y-137485452D01*
X102147595Y-137533071D01*
X102195214Y-137628309D01*
X102195214Y-137866404D01*
X102147595Y-137961642D01*
X102099976Y-138009261D01*
X102004738Y-138056880D01*
X101766642Y-138056880D01*
X101671404Y-138009261D01*
X101623785Y-137961642D01*
%TO.C,J3*%
X81060966Y-145362680D02*
X81060966Y-146076966D01*
X81013347Y-146219823D01*
X80918109Y-146315061D01*
X80775252Y-146362680D01*
X80680014Y-146362680D01*
X81441919Y-145362680D02*
X82060966Y-145362680D01*
X81727633Y-145743633D01*
X81870490Y-145743633D01*
X81965728Y-145791252D01*
X82013347Y-145838871D01*
X82060966Y-145934109D01*
X82060966Y-146172204D01*
X82013347Y-146267442D01*
X81965728Y-146315061D01*
X81870490Y-146362680D01*
X81584776Y-146362680D01*
X81489538Y-146315061D01*
X81441919Y-146267442D01*
%TO.C,R1*%
X110078780Y-136526566D02*
X109602590Y-136859900D01*
X110078780Y-137097995D02*
X109078780Y-137097995D01*
X109078780Y-136717042D01*
X109126400Y-136621804D01*
X109174019Y-136574185D01*
X109269257Y-136526566D01*
X109412114Y-136526566D01*
X109507352Y-136574185D01*
X109554971Y-136621804D01*
X109602590Y-136717042D01*
X109602590Y-137097995D01*
X110078780Y-135574185D02*
X110078780Y-136145614D01*
X110078780Y-135859900D02*
X109078780Y-135859900D01*
X109221638Y-135955138D01*
X109316876Y-136050376D01*
X109364495Y-136145614D01*
%TO.C,R2*%
X104227333Y-133484880D02*
X103894000Y-133008690D01*
X103655904Y-133484880D02*
X103655904Y-132484880D01*
X104036857Y-132484880D01*
X104132095Y-132532500D01*
X104179714Y-132580119D01*
X104227333Y-132675357D01*
X104227333Y-132818214D01*
X104179714Y-132913452D01*
X104132095Y-132961071D01*
X104036857Y-133008690D01*
X103655904Y-133008690D01*
X104608285Y-132580119D02*
X104655904Y-132532500D01*
X104751142Y-132484880D01*
X104989238Y-132484880D01*
X105084476Y-132532500D01*
X105132095Y-132580119D01*
X105179714Y-132675357D01*
X105179714Y-132770595D01*
X105132095Y-132913452D01*
X104560666Y-133484880D01*
X105179714Y-133484880D01*
%TO.C,R3*%
X87155280Y-145619766D02*
X86679090Y-145953100D01*
X87155280Y-146191195D02*
X86155280Y-146191195D01*
X86155280Y-145810242D01*
X86202900Y-145715004D01*
X86250519Y-145667385D01*
X86345757Y-145619766D01*
X86488614Y-145619766D01*
X86583852Y-145667385D01*
X86631471Y-145715004D01*
X86679090Y-145810242D01*
X86679090Y-146191195D01*
X86155280Y-145286433D02*
X86155280Y-144667385D01*
X86536233Y-145000719D01*
X86536233Y-144857861D01*
X86583852Y-144762623D01*
X86631471Y-144715004D01*
X86726709Y-144667385D01*
X86964804Y-144667385D01*
X87060042Y-144715004D01*
X87107661Y-144762623D01*
X87155280Y-144857861D01*
X87155280Y-145143576D01*
X87107661Y-145238814D01*
X87060042Y-145286433D01*
%TO.C,R4*%
X110590033Y-142933680D02*
X110256700Y-142457490D01*
X110018604Y-142933680D02*
X110018604Y-141933680D01*
X110399557Y-141933680D01*
X110494795Y-141981300D01*
X110542414Y-142028919D01*
X110590033Y-142124157D01*
X110590033Y-142267014D01*
X110542414Y-142362252D01*
X110494795Y-142409871D01*
X110399557Y-142457490D01*
X110018604Y-142457490D01*
X111447176Y-142267014D02*
X111447176Y-142933680D01*
X111209080Y-141886061D02*
X110970985Y-142600347D01*
X111590033Y-142600347D01*
%TO.C,R5*%
X100480833Y-146883380D02*
X100147500Y-146407190D01*
X99909404Y-146883380D02*
X99909404Y-145883380D01*
X100290357Y-145883380D01*
X100385595Y-145931000D01*
X100433214Y-145978619D01*
X100480833Y-146073857D01*
X100480833Y-146216714D01*
X100433214Y-146311952D01*
X100385595Y-146359571D01*
X100290357Y-146407190D01*
X99909404Y-146407190D01*
X101385595Y-145883380D02*
X100909404Y-145883380D01*
X100861785Y-146359571D01*
X100909404Y-146311952D01*
X101004642Y-146264333D01*
X101242738Y-146264333D01*
X101337976Y-146311952D01*
X101385595Y-146359571D01*
X101433214Y-146454809D01*
X101433214Y-146692904D01*
X101385595Y-146788142D01*
X101337976Y-146835761D01*
X101242738Y-146883380D01*
X101004642Y-146883380D01*
X100909404Y-146835761D01*
X100861785Y-146788142D01*
%TO.C,R6*%
X106259333Y-146883380D02*
X105926000Y-146407190D01*
X105687904Y-146883380D02*
X105687904Y-145883380D01*
X106068857Y-145883380D01*
X106164095Y-145931000D01*
X106211714Y-145978619D01*
X106259333Y-146073857D01*
X106259333Y-146216714D01*
X106211714Y-146311952D01*
X106164095Y-146359571D01*
X106068857Y-146407190D01*
X105687904Y-146407190D01*
X107116476Y-145883380D02*
X106926000Y-145883380D01*
X106830761Y-145931000D01*
X106783142Y-145978619D01*
X106687904Y-146121476D01*
X106640285Y-146311952D01*
X106640285Y-146692904D01*
X106687904Y-146788142D01*
X106735523Y-146835761D01*
X106830761Y-146883380D01*
X107021238Y-146883380D01*
X107116476Y-146835761D01*
X107164095Y-146788142D01*
X107211714Y-146692904D01*
X107211714Y-146454809D01*
X107164095Y-146359571D01*
X107116476Y-146311952D01*
X107021238Y-146264333D01*
X106830761Y-146264333D01*
X106735523Y-146311952D01*
X106687904Y-146359571D01*
X106640285Y-146454809D01*
%TO.C,U1*%
X86512495Y-134516880D02*
X86512495Y-135326404D01*
X86560114Y-135421642D01*
X86607733Y-135469261D01*
X86702971Y-135516880D01*
X86893447Y-135516880D01*
X86988685Y-135469261D01*
X87036304Y-135421642D01*
X87083923Y-135326404D01*
X87083923Y-134516880D01*
X88083923Y-135516880D02*
X87512495Y-135516880D01*
X87798209Y-135516880D02*
X87798209Y-134516880D01*
X87702971Y-134659738D01*
X87607733Y-134754976D01*
X87512495Y-134802595D01*
%TO.C,U2*%
X100811080Y-140995304D02*
X101620604Y-140995304D01*
X101715842Y-140947685D01*
X101763461Y-140900066D01*
X101811080Y-140804828D01*
X101811080Y-140614352D01*
X101763461Y-140519114D01*
X101715842Y-140471495D01*
X101620604Y-140423876D01*
X100811080Y-140423876D01*
X100906319Y-139995304D02*
X100858700Y-139947685D01*
X100811080Y-139852447D01*
X100811080Y-139614352D01*
X100858700Y-139519114D01*
X100906319Y-139471495D01*
X101001557Y-139423876D01*
X101096795Y-139423876D01*
X101239652Y-139471495D01*
X101811080Y-140042923D01*
X101811080Y-139423876D01*
%TD*%
M02*
