%TF.GenerationSoftware,KiCad,Pcbnew,(5.1.6)-1*%
%TF.CreationDate,2020-08-13T12:17:14+01:00*%
%TF.ProjectId,open-amiga-sampler-smd,6f70656e-2d61-46d6-9967-612d73616d70,rev?*%
%TF.SameCoordinates,Original*%
%TF.FileFunction,Copper,L2,Bot*%
%TF.FilePolarity,Positive*%
%FSLAX46Y46*%
G04 Gerber Fmt 4.6, Leading zero omitted, Abs format (unit mm)*
G04 Created by KiCad (PCBNEW (5.1.6)-1) date 2020-08-13 12:17:14*
%MOMM*%
%LPD*%
G01*
G04 APERTURE LIST*
%TA.AperFunction,ComponentPad*%
%ADD10O,1.350000X1.350000*%
%TD*%
%TA.AperFunction,ComponentPad*%
%ADD11R,1.350000X1.350000*%
%TD*%
%TA.AperFunction,SMDPad,CuDef*%
%ADD12R,1.846667X3.480000*%
%TD*%
%TA.AperFunction,ViaPad*%
%ADD13C,0.800000*%
%TD*%
%TA.AperFunction,Conductor*%
%ADD14C,0.350000*%
%TD*%
%TA.AperFunction,Conductor*%
%ADD15C,0.250000*%
%TD*%
%TA.AperFunction,Conductor*%
%ADD16C,0.254000*%
%TD*%
G04 APERTURE END LIST*
D10*
%TO.P,RV1,3*%
%TO.N,Vo*%
X90932500Y-131381500D03*
%TO.P,RV1,2*%
X92932500Y-131381500D03*
D11*
%TO.P,RV1,1*%
%TO.N,Net-(R4-Pad1)*%
X94932500Y-131381500D03*
%TD*%
D10*
%TO.P,J2,2*%
%TO.N,GND*%
X102000000Y-131191000D03*
D11*
%TO.P,J2,1*%
%TO.N,Net-(J2-Pad1)*%
X100000000Y-131191000D03*
%TD*%
D10*
%TO.P,J1,2*%
%TO.N,GND*%
X105010200Y-131191000D03*
D11*
%TO.P,J1,1*%
%TO.N,Net-(J1-Pad1)*%
X107010200Y-131191000D03*
%TD*%
D12*
%TO.P,J3,14*%
%TO.N,VCC*%
X83063000Y-149034500D03*
%TO.P,J3,15*%
%TO.N,Net-(J3-Pad15)*%
X85833000Y-149034500D03*
%TO.P,J3,16*%
%TO.N,Net-(J3-Pad16)*%
X88603000Y-149034500D03*
%TO.P,J3,17*%
%TO.N,Net-(J3-Pad17)*%
X91373000Y-149034500D03*
%TO.P,J3,18*%
%TO.N,GND*%
X94143000Y-149034500D03*
%TO.P,J3,19*%
X96913000Y-149034500D03*
%TO.P,J3,20*%
X99683000Y-149034500D03*
%TO.P,J3,21*%
X102453000Y-149034500D03*
%TO.P,J3,22*%
X105223000Y-149034500D03*
%TO.P,J3,23*%
X107993000Y-149034500D03*
%TO.P,J3,24*%
X110763000Y-149034500D03*
%TO.P,J3,25*%
X113533000Y-149034500D03*
%TD*%
D13*
%TO.N,GND*%
X91757500Y-135445500D03*
X94869000Y-136334500D03*
X95377000Y-139827000D03*
X96647000Y-145542000D03*
X103759000Y-142113000D03*
X105664000Y-146558000D03*
X109855000Y-146367500D03*
X114617500Y-142201900D03*
X114795300Y-146291300D03*
X102108000Y-134747000D03*
X97828100Y-132359400D03*
X91884500Y-143764000D03*
X82042000Y-143319500D03*
X105981500Y-138112500D03*
X94107000Y-146494500D03*
X91503500Y-146431000D03*
X96837501Y-143192500D03*
%TO.N,VCC*%
X102028788Y-138851009D03*
X97409000Y-134302500D03*
X83121500Y-146748500D03*
X103314500Y-144970500D03*
X102520750Y-136937750D03*
X87348910Y-144934090D03*
X97300250Y-144159380D03*
%TO.N,STROBE*%
X81407000Y-146621500D03*
X87665451Y-140562869D03*
%TD*%
D14*
%TO.N,VCC*%
X97513000Y-138747500D02*
X97513000Y-134135000D01*
D15*
X83566000Y-146431000D02*
X83693000Y-146558000D01*
D14*
X83063000Y-149860000D02*
X83063000Y-146997500D01*
X83063000Y-146997500D02*
X83502500Y-146558000D01*
X102028788Y-143684788D02*
X103314500Y-144970500D01*
X102028788Y-138851009D02*
X102028788Y-143684788D01*
X99671509Y-138851009D02*
X102028788Y-138851009D01*
X97513000Y-138747500D02*
X97616509Y-138851009D01*
X97616509Y-138851009D02*
X99671509Y-138851009D01*
X97513000Y-138747500D02*
X93535500Y-138747500D01*
X85852000Y-146431000D02*
X83566000Y-146431000D01*
X93535500Y-138747500D02*
X85852000Y-146431000D01*
X102028788Y-138851009D02*
X102028788Y-137429712D01*
X102028788Y-137429712D02*
X102520750Y-136937750D01*
X97513000Y-138747500D02*
X97700249Y-138934749D01*
X97155000Y-144272000D02*
X97267620Y-144159380D01*
X97700249Y-138934749D02*
X97700249Y-143759381D01*
X97700249Y-143759381D02*
X97300250Y-144159380D01*
X97267620Y-144159380D02*
X97300250Y-144159380D01*
D15*
%TO.N,STROBE*%
X87607242Y-140675258D02*
X87607242Y-140621078D01*
X81407000Y-146875500D02*
X81407000Y-146821320D01*
X87607242Y-140621078D02*
X87665451Y-140562869D01*
X81407000Y-146821320D02*
X87265452Y-140962868D01*
X87265452Y-140962868D02*
X87665451Y-140562869D01*
%TD*%
D16*
%TO.N,GND*%
G36*
X89914956Y-130546423D02*
G01*
X89771593Y-130760982D01*
X89672842Y-130999387D01*
X89622500Y-131252476D01*
X89622500Y-131510524D01*
X89672842Y-131763613D01*
X89771593Y-132002018D01*
X89914956Y-132216577D01*
X90097423Y-132399044D01*
X90311982Y-132542407D01*
X90550387Y-132641158D01*
X90803476Y-132691500D01*
X91061524Y-132691500D01*
X91314613Y-132641158D01*
X91553018Y-132542407D01*
X91767577Y-132399044D01*
X91932500Y-132234121D01*
X92097423Y-132399044D01*
X92311982Y-132542407D01*
X92550387Y-132641158D01*
X92803476Y-132691500D01*
X93061524Y-132691500D01*
X93314613Y-132641158D01*
X93553018Y-132542407D01*
X93735013Y-132420803D01*
X93806315Y-132507685D01*
X93903006Y-132587037D01*
X94013320Y-132646002D01*
X94133018Y-132682312D01*
X94257500Y-132694572D01*
X95607500Y-132694572D01*
X95731982Y-132682312D01*
X95851680Y-132646002D01*
X95961994Y-132587037D01*
X96058685Y-132507685D01*
X96138037Y-132410994D01*
X96197002Y-132300680D01*
X96233312Y-132180982D01*
X96245572Y-132056500D01*
X96245572Y-130706500D01*
X96233312Y-130582018D01*
X96202062Y-130479000D01*
X98690572Y-130479000D01*
X98686928Y-130516000D01*
X98686928Y-131866000D01*
X98699188Y-131990482D01*
X98735498Y-132110180D01*
X98794463Y-132220494D01*
X98873815Y-132317185D01*
X98970506Y-132396537D01*
X99080820Y-132455502D01*
X99200518Y-132491812D01*
X99325000Y-132504072D01*
X100675000Y-132504072D01*
X100799482Y-132491812D01*
X100919180Y-132455502D01*
X101029494Y-132396537D01*
X101126185Y-132317185D01*
X101203119Y-132223441D01*
X101336371Y-132320473D01*
X101569472Y-132428238D01*
X101670600Y-132458910D01*
X101873000Y-132335224D01*
X101873000Y-131318000D01*
X102127000Y-131318000D01*
X102127000Y-132335224D01*
X102329400Y-132458910D01*
X102430528Y-132428238D01*
X102663629Y-132320473D01*
X102871227Y-132169303D01*
X103045344Y-131980537D01*
X103179289Y-131761430D01*
X103267915Y-131520401D01*
X103742285Y-131520401D01*
X103830911Y-131761430D01*
X103964856Y-131980537D01*
X104138973Y-132169303D01*
X104346571Y-132320473D01*
X104579672Y-132428238D01*
X104680800Y-132458910D01*
X104883200Y-132335224D01*
X104883200Y-131318000D01*
X103865115Y-131318000D01*
X103742285Y-131520401D01*
X103267915Y-131520401D01*
X103145085Y-131318000D01*
X102127000Y-131318000D01*
X101873000Y-131318000D01*
X101853000Y-131318000D01*
X101853000Y-131064000D01*
X101873000Y-131064000D01*
X101873000Y-131044000D01*
X102127000Y-131044000D01*
X102127000Y-131064000D01*
X103145085Y-131064000D01*
X103267915Y-130861599D01*
X103179289Y-130620570D01*
X103092744Y-130479000D01*
X103917456Y-130479000D01*
X103830911Y-130620570D01*
X103742285Y-130861599D01*
X103865115Y-131064000D01*
X104883200Y-131064000D01*
X104883200Y-131044000D01*
X105137200Y-131044000D01*
X105137200Y-131064000D01*
X105157200Y-131064000D01*
X105157200Y-131318000D01*
X105137200Y-131318000D01*
X105137200Y-132335224D01*
X105339600Y-132458910D01*
X105440728Y-132428238D01*
X105673829Y-132320473D01*
X105807081Y-132223441D01*
X105884015Y-132317185D01*
X105980706Y-132396537D01*
X106091020Y-132455502D01*
X106210718Y-132491812D01*
X106335200Y-132504072D01*
X107685200Y-132504072D01*
X107809682Y-132491812D01*
X107929380Y-132455502D01*
X108039694Y-132396537D01*
X108136385Y-132317185D01*
X108170166Y-132276023D01*
X109061408Y-136952801D01*
X109089983Y-137049802D01*
X109093018Y-137055591D01*
X109277322Y-137640190D01*
X109300529Y-137694602D01*
X109322510Y-137749539D01*
X109326972Y-137757999D01*
X109676022Y-138408779D01*
X109710573Y-138460376D01*
X109744386Y-138512429D01*
X109750404Y-138519859D01*
X109750407Y-138519863D01*
X109750411Y-138519867D01*
X110219210Y-139090449D01*
X110263126Y-139134354D01*
X110306406Y-139178848D01*
X110313755Y-139184970D01*
X110884460Y-139653633D01*
X110936063Y-139688169D01*
X110987165Y-139723412D01*
X110995563Y-139727990D01*
X111646430Y-140076876D01*
X111703733Y-140100720D01*
X111760731Y-140125377D01*
X111769858Y-140128236D01*
X112476095Y-140344058D01*
X112536964Y-140356323D01*
X112597641Y-140369434D01*
X112607150Y-140370466D01*
X113275746Y-140438295D01*
X113276711Y-140438588D01*
X113377347Y-140448500D01*
X115685107Y-140448500D01*
X115685100Y-150254500D01*
X115093307Y-150254500D01*
X115091333Y-149320250D01*
X114932583Y-149161500D01*
X113660000Y-149161500D01*
X113660000Y-149181500D01*
X113406000Y-149181500D01*
X113406000Y-149161500D01*
X110890000Y-149161500D01*
X110890000Y-149181500D01*
X110636000Y-149181500D01*
X110636000Y-149161500D01*
X108120000Y-149161500D01*
X108120000Y-149181500D01*
X107866000Y-149181500D01*
X107866000Y-149161500D01*
X105350000Y-149161500D01*
X105350000Y-149181500D01*
X105096000Y-149181500D01*
X105096000Y-149161500D01*
X102580000Y-149161500D01*
X102580000Y-149181500D01*
X102326000Y-149181500D01*
X102326000Y-149161500D01*
X99810000Y-149161500D01*
X99810000Y-149181500D01*
X99556000Y-149181500D01*
X99556000Y-149161500D01*
X97040000Y-149161500D01*
X97040000Y-149181500D01*
X96786000Y-149181500D01*
X96786000Y-149161500D01*
X94270000Y-149161500D01*
X94270000Y-149181500D01*
X94016000Y-149181500D01*
X94016000Y-149161500D01*
X93996000Y-149161500D01*
X93996000Y-148907500D01*
X94016000Y-148907500D01*
X94016000Y-146818250D01*
X94270000Y-146818250D01*
X94270000Y-148907500D01*
X96786000Y-148907500D01*
X96786000Y-146818250D01*
X97040000Y-146818250D01*
X97040000Y-148907500D01*
X99556000Y-148907500D01*
X99556000Y-146818250D01*
X99810000Y-146818250D01*
X99810000Y-148907500D01*
X102326000Y-148907500D01*
X102326000Y-146818250D01*
X102580000Y-146818250D01*
X102580000Y-148907500D01*
X105096000Y-148907500D01*
X105096000Y-146818250D01*
X105350000Y-146818250D01*
X105350000Y-148907500D01*
X107866000Y-148907500D01*
X107866000Y-146818250D01*
X108120000Y-146818250D01*
X108120000Y-148907500D01*
X110636000Y-148907500D01*
X110636000Y-146818250D01*
X110890000Y-146818250D01*
X110890000Y-148907500D01*
X113406000Y-148907500D01*
X113406000Y-146818250D01*
X113660000Y-146818250D01*
X113660000Y-148907500D01*
X114932583Y-148907500D01*
X115091333Y-148748750D01*
X115094405Y-147294500D01*
X115082145Y-147170018D01*
X115045835Y-147050320D01*
X114986870Y-146940006D01*
X114907518Y-146843315D01*
X114810827Y-146763963D01*
X114700513Y-146704998D01*
X114580815Y-146668688D01*
X114456333Y-146656428D01*
X113818750Y-146659500D01*
X113660000Y-146818250D01*
X113406000Y-146818250D01*
X113247250Y-146659500D01*
X112609667Y-146656428D01*
X112485185Y-146668688D01*
X112365487Y-146704998D01*
X112255173Y-146763963D01*
X112158482Y-146843315D01*
X112148000Y-146856087D01*
X112137518Y-146843315D01*
X112040827Y-146763963D01*
X111930513Y-146704998D01*
X111810815Y-146668688D01*
X111686333Y-146656428D01*
X111048750Y-146659500D01*
X110890000Y-146818250D01*
X110636000Y-146818250D01*
X110477250Y-146659500D01*
X109839667Y-146656428D01*
X109715185Y-146668688D01*
X109595487Y-146704998D01*
X109485173Y-146763963D01*
X109388482Y-146843315D01*
X109378000Y-146856087D01*
X109367518Y-146843315D01*
X109270827Y-146763963D01*
X109160513Y-146704998D01*
X109040815Y-146668688D01*
X108916333Y-146656428D01*
X108278750Y-146659500D01*
X108120000Y-146818250D01*
X107866000Y-146818250D01*
X107707250Y-146659500D01*
X107069667Y-146656428D01*
X106945185Y-146668688D01*
X106825487Y-146704998D01*
X106715173Y-146763963D01*
X106618482Y-146843315D01*
X106608000Y-146856087D01*
X106597518Y-146843315D01*
X106500827Y-146763963D01*
X106390513Y-146704998D01*
X106270815Y-146668688D01*
X106146333Y-146656428D01*
X105508750Y-146659500D01*
X105350000Y-146818250D01*
X105096000Y-146818250D01*
X104937250Y-146659500D01*
X104299667Y-146656428D01*
X104175185Y-146668688D01*
X104055487Y-146704998D01*
X103945173Y-146763963D01*
X103848482Y-146843315D01*
X103838000Y-146856087D01*
X103827518Y-146843315D01*
X103730827Y-146763963D01*
X103620513Y-146704998D01*
X103500815Y-146668688D01*
X103376333Y-146656428D01*
X102738750Y-146659500D01*
X102580000Y-146818250D01*
X102326000Y-146818250D01*
X102167250Y-146659500D01*
X101529667Y-146656428D01*
X101405185Y-146668688D01*
X101285487Y-146704998D01*
X101175173Y-146763963D01*
X101078482Y-146843315D01*
X101068000Y-146856087D01*
X101057518Y-146843315D01*
X100960827Y-146763963D01*
X100850513Y-146704998D01*
X100730815Y-146668688D01*
X100606333Y-146656428D01*
X99968750Y-146659500D01*
X99810000Y-146818250D01*
X99556000Y-146818250D01*
X99397250Y-146659500D01*
X98759667Y-146656428D01*
X98635185Y-146668688D01*
X98515487Y-146704998D01*
X98405173Y-146763963D01*
X98308482Y-146843315D01*
X98298000Y-146856087D01*
X98287518Y-146843315D01*
X98190827Y-146763963D01*
X98080513Y-146704998D01*
X97960815Y-146668688D01*
X97836333Y-146656428D01*
X97198750Y-146659500D01*
X97040000Y-146818250D01*
X96786000Y-146818250D01*
X96627250Y-146659500D01*
X95989667Y-146656428D01*
X95865185Y-146668688D01*
X95745487Y-146704998D01*
X95635173Y-146763963D01*
X95538482Y-146843315D01*
X95528000Y-146856087D01*
X95517518Y-146843315D01*
X95420827Y-146763963D01*
X95310513Y-146704998D01*
X95190815Y-146668688D01*
X95066333Y-146656428D01*
X94428750Y-146659500D01*
X94270000Y-146818250D01*
X94016000Y-146818250D01*
X93857250Y-146659500D01*
X93219667Y-146656428D01*
X93095185Y-146668688D01*
X92975487Y-146704998D01*
X92865173Y-146763963D01*
X92768482Y-146843315D01*
X92758000Y-146856087D01*
X92747518Y-146843315D01*
X92650827Y-146763963D01*
X92540513Y-146704998D01*
X92420815Y-146668688D01*
X92296333Y-146656428D01*
X90449667Y-146656428D01*
X90325185Y-146668688D01*
X90205487Y-146704998D01*
X90095173Y-146763963D01*
X89998482Y-146843315D01*
X89988000Y-146856087D01*
X89977518Y-146843315D01*
X89880827Y-146763963D01*
X89770513Y-146704998D01*
X89650815Y-146668688D01*
X89526333Y-146656428D01*
X87679667Y-146656428D01*
X87555185Y-146668688D01*
X87435487Y-146704998D01*
X87325173Y-146763963D01*
X87228482Y-146843315D01*
X87218000Y-146856087D01*
X87207518Y-146843315D01*
X87110827Y-146763963D01*
X87000513Y-146704998D01*
X86880815Y-146668688D01*
X86770672Y-146657840D01*
X87461551Y-145966961D01*
X87650808Y-145929316D01*
X87839166Y-145851295D01*
X88008684Y-145738027D01*
X88152847Y-145593864D01*
X88266115Y-145424346D01*
X88344136Y-145235988D01*
X88381781Y-145046731D01*
X93871013Y-139557500D01*
X96890249Y-139557500D01*
X96890250Y-143208932D01*
X96809994Y-143242175D01*
X96640476Y-143355443D01*
X96496313Y-143499606D01*
X96383045Y-143669124D01*
X96305024Y-143857482D01*
X96265250Y-144057441D01*
X96265250Y-144261319D01*
X96305024Y-144461278D01*
X96383045Y-144649636D01*
X96496313Y-144819154D01*
X96640476Y-144963317D01*
X96809994Y-145076585D01*
X96998352Y-145154606D01*
X97198311Y-145194380D01*
X97402189Y-145194380D01*
X97602148Y-145154606D01*
X97790506Y-145076585D01*
X97960024Y-144963317D01*
X98104187Y-144819154D01*
X98217455Y-144649636D01*
X98295476Y-144461278D01*
X98334956Y-144262799D01*
X98376998Y-144211570D01*
X98452212Y-144070854D01*
X98498529Y-143918169D01*
X98510249Y-143799172D01*
X98510249Y-143799170D01*
X98514168Y-143759382D01*
X98510249Y-143719594D01*
X98510249Y-139661009D01*
X101218788Y-139661009D01*
X101218789Y-143644990D01*
X101214869Y-143684788D01*
X101228168Y-143819811D01*
X101230509Y-143843576D01*
X101247349Y-143899090D01*
X101276826Y-143996261D01*
X101352039Y-144136977D01*
X101376320Y-144166563D01*
X101453261Y-144260316D01*
X101484171Y-144285683D01*
X102281629Y-145083141D01*
X102319274Y-145272398D01*
X102397295Y-145460756D01*
X102510563Y-145630274D01*
X102654726Y-145774437D01*
X102824244Y-145887705D01*
X103012602Y-145965726D01*
X103212561Y-146005500D01*
X103416439Y-146005500D01*
X103616398Y-145965726D01*
X103804756Y-145887705D01*
X103974274Y-145774437D01*
X104118437Y-145630274D01*
X104231705Y-145460756D01*
X104309726Y-145272398D01*
X104349500Y-145072439D01*
X104349500Y-144868561D01*
X104309726Y-144668602D01*
X104231705Y-144480244D01*
X104118437Y-144310726D01*
X103974274Y-144166563D01*
X103804756Y-144053295D01*
X103616398Y-143975274D01*
X103427141Y-143937629D01*
X102838788Y-143349276D01*
X102838788Y-139501709D01*
X102945993Y-139341265D01*
X103024014Y-139152907D01*
X103063788Y-138952948D01*
X103063788Y-138749070D01*
X103024014Y-138549111D01*
X102945993Y-138360753D01*
X102838788Y-138200309D01*
X102838788Y-137926291D01*
X103011006Y-137854955D01*
X103180524Y-137741687D01*
X103324687Y-137597524D01*
X103437955Y-137428006D01*
X103515976Y-137239648D01*
X103555750Y-137039689D01*
X103555750Y-136835811D01*
X103515976Y-136635852D01*
X103437955Y-136447494D01*
X103324687Y-136277976D01*
X103180524Y-136133813D01*
X103011006Y-136020545D01*
X102822648Y-135942524D01*
X102622689Y-135902750D01*
X102418811Y-135902750D01*
X102218852Y-135942524D01*
X102030494Y-136020545D01*
X101860976Y-136133813D01*
X101716813Y-136277976D01*
X101603545Y-136447494D01*
X101525524Y-136635852D01*
X101487879Y-136825109D01*
X101484171Y-136828817D01*
X101453261Y-136854184D01*
X101427896Y-136885092D01*
X101352039Y-136977523D01*
X101307940Y-137060028D01*
X101276826Y-137118239D01*
X101230509Y-137270924D01*
X101229093Y-137285302D01*
X101214869Y-137429712D01*
X101218789Y-137469510D01*
X101218789Y-138041009D01*
X98323000Y-138041009D01*
X98323000Y-134797553D01*
X98326205Y-134792756D01*
X98404226Y-134604398D01*
X98444000Y-134404439D01*
X98444000Y-134200561D01*
X98404226Y-134000602D01*
X98326205Y-133812244D01*
X98212937Y-133642726D01*
X98068774Y-133498563D01*
X97899256Y-133385295D01*
X97710898Y-133307274D01*
X97510939Y-133267500D01*
X97307061Y-133267500D01*
X97107102Y-133307274D01*
X96918744Y-133385295D01*
X96749226Y-133498563D01*
X96605063Y-133642726D01*
X96491795Y-133812244D01*
X96413774Y-134000602D01*
X96374000Y-134200561D01*
X96374000Y-134404439D01*
X96413774Y-134604398D01*
X96491795Y-134792756D01*
X96605063Y-134962274D01*
X96703001Y-135060212D01*
X96703000Y-137937500D01*
X93575288Y-137937500D01*
X93535500Y-137933581D01*
X93495712Y-137937500D01*
X93495709Y-137937500D01*
X93376712Y-137949220D01*
X93224027Y-137995537D01*
X93168498Y-138025218D01*
X93083310Y-138070751D01*
X93039798Y-138106461D01*
X92959972Y-138171972D01*
X92934605Y-138202882D01*
X87236269Y-143901219D01*
X87047012Y-143938864D01*
X86858654Y-144016885D01*
X86689136Y-144130153D01*
X86544973Y-144274316D01*
X86431705Y-144443834D01*
X86353684Y-144632192D01*
X86316039Y-144821449D01*
X85516488Y-145621000D01*
X83682121Y-145621000D01*
X87705253Y-141597869D01*
X87767390Y-141597869D01*
X87967349Y-141558095D01*
X88155707Y-141480074D01*
X88325225Y-141366806D01*
X88469388Y-141222643D01*
X88582656Y-141053125D01*
X88660677Y-140864767D01*
X88700451Y-140664808D01*
X88700451Y-140460930D01*
X88660677Y-140260971D01*
X88582656Y-140072613D01*
X88469388Y-139903095D01*
X88325225Y-139758932D01*
X88155707Y-139645664D01*
X87967349Y-139567643D01*
X87767390Y-139527869D01*
X87563512Y-139527869D01*
X87363553Y-139567643D01*
X87175195Y-139645664D01*
X87005677Y-139758932D01*
X86861514Y-139903095D01*
X86748246Y-140072613D01*
X86670225Y-140260971D01*
X86630451Y-140460930D01*
X86630451Y-140523067D01*
X81557383Y-145596136D01*
X81508939Y-145586500D01*
X81305061Y-145586500D01*
X81105102Y-145626274D01*
X81076000Y-145638329D01*
X81076000Y-140512000D01*
X83421846Y-140512000D01*
X83431814Y-140511018D01*
X83478318Y-140509660D01*
X83509940Y-140505624D01*
X83541806Y-140504845D01*
X83551291Y-140503613D01*
X84288139Y-140402671D01*
X84348524Y-140388285D01*
X84409123Y-140374739D01*
X84418188Y-140371688D01*
X85121397Y-140129547D01*
X85177857Y-140103697D01*
X85234651Y-140078647D01*
X85242951Y-140073894D01*
X85885735Y-139699777D01*
X85936098Y-139663453D01*
X85986946Y-139627848D01*
X85994164Y-139621574D01*
X86552041Y-139129731D01*
X86594403Y-139084302D01*
X86637352Y-139039514D01*
X86643214Y-139031957D01*
X87094933Y-138441123D01*
X87127636Y-138388377D01*
X87161098Y-138336053D01*
X87165380Y-138327502D01*
X87493736Y-137660181D01*
X87515574Y-137602080D01*
X87538233Y-137544260D01*
X87540773Y-137535039D01*
X87715801Y-136881800D01*
X87715803Y-136881797D01*
X87727629Y-136837657D01*
X87733258Y-136816649D01*
X87733260Y-136816638D01*
X87741972Y-136784119D01*
X88782701Y-130479000D01*
X89982379Y-130479000D01*
X89914956Y-130546423D01*
G37*
X89914956Y-130546423D02*
X89771593Y-130760982D01*
X89672842Y-130999387D01*
X89622500Y-131252476D01*
X89622500Y-131510524D01*
X89672842Y-131763613D01*
X89771593Y-132002018D01*
X89914956Y-132216577D01*
X90097423Y-132399044D01*
X90311982Y-132542407D01*
X90550387Y-132641158D01*
X90803476Y-132691500D01*
X91061524Y-132691500D01*
X91314613Y-132641158D01*
X91553018Y-132542407D01*
X91767577Y-132399044D01*
X91932500Y-132234121D01*
X92097423Y-132399044D01*
X92311982Y-132542407D01*
X92550387Y-132641158D01*
X92803476Y-132691500D01*
X93061524Y-132691500D01*
X93314613Y-132641158D01*
X93553018Y-132542407D01*
X93735013Y-132420803D01*
X93806315Y-132507685D01*
X93903006Y-132587037D01*
X94013320Y-132646002D01*
X94133018Y-132682312D01*
X94257500Y-132694572D01*
X95607500Y-132694572D01*
X95731982Y-132682312D01*
X95851680Y-132646002D01*
X95961994Y-132587037D01*
X96058685Y-132507685D01*
X96138037Y-132410994D01*
X96197002Y-132300680D01*
X96233312Y-132180982D01*
X96245572Y-132056500D01*
X96245572Y-130706500D01*
X96233312Y-130582018D01*
X96202062Y-130479000D01*
X98690572Y-130479000D01*
X98686928Y-130516000D01*
X98686928Y-131866000D01*
X98699188Y-131990482D01*
X98735498Y-132110180D01*
X98794463Y-132220494D01*
X98873815Y-132317185D01*
X98970506Y-132396537D01*
X99080820Y-132455502D01*
X99200518Y-132491812D01*
X99325000Y-132504072D01*
X100675000Y-132504072D01*
X100799482Y-132491812D01*
X100919180Y-132455502D01*
X101029494Y-132396537D01*
X101126185Y-132317185D01*
X101203119Y-132223441D01*
X101336371Y-132320473D01*
X101569472Y-132428238D01*
X101670600Y-132458910D01*
X101873000Y-132335224D01*
X101873000Y-131318000D01*
X102127000Y-131318000D01*
X102127000Y-132335224D01*
X102329400Y-132458910D01*
X102430528Y-132428238D01*
X102663629Y-132320473D01*
X102871227Y-132169303D01*
X103045344Y-131980537D01*
X103179289Y-131761430D01*
X103267915Y-131520401D01*
X103742285Y-131520401D01*
X103830911Y-131761430D01*
X103964856Y-131980537D01*
X104138973Y-132169303D01*
X104346571Y-132320473D01*
X104579672Y-132428238D01*
X104680800Y-132458910D01*
X104883200Y-132335224D01*
X104883200Y-131318000D01*
X103865115Y-131318000D01*
X103742285Y-131520401D01*
X103267915Y-131520401D01*
X103145085Y-131318000D01*
X102127000Y-131318000D01*
X101873000Y-131318000D01*
X101853000Y-131318000D01*
X101853000Y-131064000D01*
X101873000Y-131064000D01*
X101873000Y-131044000D01*
X102127000Y-131044000D01*
X102127000Y-131064000D01*
X103145085Y-131064000D01*
X103267915Y-130861599D01*
X103179289Y-130620570D01*
X103092744Y-130479000D01*
X103917456Y-130479000D01*
X103830911Y-130620570D01*
X103742285Y-130861599D01*
X103865115Y-131064000D01*
X104883200Y-131064000D01*
X104883200Y-131044000D01*
X105137200Y-131044000D01*
X105137200Y-131064000D01*
X105157200Y-131064000D01*
X105157200Y-131318000D01*
X105137200Y-131318000D01*
X105137200Y-132335224D01*
X105339600Y-132458910D01*
X105440728Y-132428238D01*
X105673829Y-132320473D01*
X105807081Y-132223441D01*
X105884015Y-132317185D01*
X105980706Y-132396537D01*
X106091020Y-132455502D01*
X106210718Y-132491812D01*
X106335200Y-132504072D01*
X107685200Y-132504072D01*
X107809682Y-132491812D01*
X107929380Y-132455502D01*
X108039694Y-132396537D01*
X108136385Y-132317185D01*
X108170166Y-132276023D01*
X109061408Y-136952801D01*
X109089983Y-137049802D01*
X109093018Y-137055591D01*
X109277322Y-137640190D01*
X109300529Y-137694602D01*
X109322510Y-137749539D01*
X109326972Y-137757999D01*
X109676022Y-138408779D01*
X109710573Y-138460376D01*
X109744386Y-138512429D01*
X109750404Y-138519859D01*
X109750407Y-138519863D01*
X109750411Y-138519867D01*
X110219210Y-139090449D01*
X110263126Y-139134354D01*
X110306406Y-139178848D01*
X110313755Y-139184970D01*
X110884460Y-139653633D01*
X110936063Y-139688169D01*
X110987165Y-139723412D01*
X110995563Y-139727990D01*
X111646430Y-140076876D01*
X111703733Y-140100720D01*
X111760731Y-140125377D01*
X111769858Y-140128236D01*
X112476095Y-140344058D01*
X112536964Y-140356323D01*
X112597641Y-140369434D01*
X112607150Y-140370466D01*
X113275746Y-140438295D01*
X113276711Y-140438588D01*
X113377347Y-140448500D01*
X115685107Y-140448500D01*
X115685100Y-150254500D01*
X115093307Y-150254500D01*
X115091333Y-149320250D01*
X114932583Y-149161500D01*
X113660000Y-149161500D01*
X113660000Y-149181500D01*
X113406000Y-149181500D01*
X113406000Y-149161500D01*
X110890000Y-149161500D01*
X110890000Y-149181500D01*
X110636000Y-149181500D01*
X110636000Y-149161500D01*
X108120000Y-149161500D01*
X108120000Y-149181500D01*
X107866000Y-149181500D01*
X107866000Y-149161500D01*
X105350000Y-149161500D01*
X105350000Y-149181500D01*
X105096000Y-149181500D01*
X105096000Y-149161500D01*
X102580000Y-149161500D01*
X102580000Y-149181500D01*
X102326000Y-149181500D01*
X102326000Y-149161500D01*
X99810000Y-149161500D01*
X99810000Y-149181500D01*
X99556000Y-149181500D01*
X99556000Y-149161500D01*
X97040000Y-149161500D01*
X97040000Y-149181500D01*
X96786000Y-149181500D01*
X96786000Y-149161500D01*
X94270000Y-149161500D01*
X94270000Y-149181500D01*
X94016000Y-149181500D01*
X94016000Y-149161500D01*
X93996000Y-149161500D01*
X93996000Y-148907500D01*
X94016000Y-148907500D01*
X94016000Y-146818250D01*
X94270000Y-146818250D01*
X94270000Y-148907500D01*
X96786000Y-148907500D01*
X96786000Y-146818250D01*
X97040000Y-146818250D01*
X97040000Y-148907500D01*
X99556000Y-148907500D01*
X99556000Y-146818250D01*
X99810000Y-146818250D01*
X99810000Y-148907500D01*
X102326000Y-148907500D01*
X102326000Y-146818250D01*
X102580000Y-146818250D01*
X102580000Y-148907500D01*
X105096000Y-148907500D01*
X105096000Y-146818250D01*
X105350000Y-146818250D01*
X105350000Y-148907500D01*
X107866000Y-148907500D01*
X107866000Y-146818250D01*
X108120000Y-146818250D01*
X108120000Y-148907500D01*
X110636000Y-148907500D01*
X110636000Y-146818250D01*
X110890000Y-146818250D01*
X110890000Y-148907500D01*
X113406000Y-148907500D01*
X113406000Y-146818250D01*
X113660000Y-146818250D01*
X113660000Y-148907500D01*
X114932583Y-148907500D01*
X115091333Y-148748750D01*
X115094405Y-147294500D01*
X115082145Y-147170018D01*
X115045835Y-147050320D01*
X114986870Y-146940006D01*
X114907518Y-146843315D01*
X114810827Y-146763963D01*
X114700513Y-146704998D01*
X114580815Y-146668688D01*
X114456333Y-146656428D01*
X113818750Y-146659500D01*
X113660000Y-146818250D01*
X113406000Y-146818250D01*
X113247250Y-146659500D01*
X112609667Y-146656428D01*
X112485185Y-146668688D01*
X112365487Y-146704998D01*
X112255173Y-146763963D01*
X112158482Y-146843315D01*
X112148000Y-146856087D01*
X112137518Y-146843315D01*
X112040827Y-146763963D01*
X111930513Y-146704998D01*
X111810815Y-146668688D01*
X111686333Y-146656428D01*
X111048750Y-146659500D01*
X110890000Y-146818250D01*
X110636000Y-146818250D01*
X110477250Y-146659500D01*
X109839667Y-146656428D01*
X109715185Y-146668688D01*
X109595487Y-146704998D01*
X109485173Y-146763963D01*
X109388482Y-146843315D01*
X109378000Y-146856087D01*
X109367518Y-146843315D01*
X109270827Y-146763963D01*
X109160513Y-146704998D01*
X109040815Y-146668688D01*
X108916333Y-146656428D01*
X108278750Y-146659500D01*
X108120000Y-146818250D01*
X107866000Y-146818250D01*
X107707250Y-146659500D01*
X107069667Y-146656428D01*
X106945185Y-146668688D01*
X106825487Y-146704998D01*
X106715173Y-146763963D01*
X106618482Y-146843315D01*
X106608000Y-146856087D01*
X106597518Y-146843315D01*
X106500827Y-146763963D01*
X106390513Y-146704998D01*
X106270815Y-146668688D01*
X106146333Y-146656428D01*
X105508750Y-146659500D01*
X105350000Y-146818250D01*
X105096000Y-146818250D01*
X104937250Y-146659500D01*
X104299667Y-146656428D01*
X104175185Y-146668688D01*
X104055487Y-146704998D01*
X103945173Y-146763963D01*
X103848482Y-146843315D01*
X103838000Y-146856087D01*
X103827518Y-146843315D01*
X103730827Y-146763963D01*
X103620513Y-146704998D01*
X103500815Y-146668688D01*
X103376333Y-146656428D01*
X102738750Y-146659500D01*
X102580000Y-146818250D01*
X102326000Y-146818250D01*
X102167250Y-146659500D01*
X101529667Y-146656428D01*
X101405185Y-146668688D01*
X101285487Y-146704998D01*
X101175173Y-146763963D01*
X101078482Y-146843315D01*
X101068000Y-146856087D01*
X101057518Y-146843315D01*
X100960827Y-146763963D01*
X100850513Y-146704998D01*
X100730815Y-146668688D01*
X100606333Y-146656428D01*
X99968750Y-146659500D01*
X99810000Y-146818250D01*
X99556000Y-146818250D01*
X99397250Y-146659500D01*
X98759667Y-146656428D01*
X98635185Y-146668688D01*
X98515487Y-146704998D01*
X98405173Y-146763963D01*
X98308482Y-146843315D01*
X98298000Y-146856087D01*
X98287518Y-146843315D01*
X98190827Y-146763963D01*
X98080513Y-146704998D01*
X97960815Y-146668688D01*
X97836333Y-146656428D01*
X97198750Y-146659500D01*
X97040000Y-146818250D01*
X96786000Y-146818250D01*
X96627250Y-146659500D01*
X95989667Y-146656428D01*
X95865185Y-146668688D01*
X95745487Y-146704998D01*
X95635173Y-146763963D01*
X95538482Y-146843315D01*
X95528000Y-146856087D01*
X95517518Y-146843315D01*
X95420827Y-146763963D01*
X95310513Y-146704998D01*
X95190815Y-146668688D01*
X95066333Y-146656428D01*
X94428750Y-146659500D01*
X94270000Y-146818250D01*
X94016000Y-146818250D01*
X93857250Y-146659500D01*
X93219667Y-146656428D01*
X93095185Y-146668688D01*
X92975487Y-146704998D01*
X92865173Y-146763963D01*
X92768482Y-146843315D01*
X92758000Y-146856087D01*
X92747518Y-146843315D01*
X92650827Y-146763963D01*
X92540513Y-146704998D01*
X92420815Y-146668688D01*
X92296333Y-146656428D01*
X90449667Y-146656428D01*
X90325185Y-146668688D01*
X90205487Y-146704998D01*
X90095173Y-146763963D01*
X89998482Y-146843315D01*
X89988000Y-146856087D01*
X89977518Y-146843315D01*
X89880827Y-146763963D01*
X89770513Y-146704998D01*
X89650815Y-146668688D01*
X89526333Y-146656428D01*
X87679667Y-146656428D01*
X87555185Y-146668688D01*
X87435487Y-146704998D01*
X87325173Y-146763963D01*
X87228482Y-146843315D01*
X87218000Y-146856087D01*
X87207518Y-146843315D01*
X87110827Y-146763963D01*
X87000513Y-146704998D01*
X86880815Y-146668688D01*
X86770672Y-146657840D01*
X87461551Y-145966961D01*
X87650808Y-145929316D01*
X87839166Y-145851295D01*
X88008684Y-145738027D01*
X88152847Y-145593864D01*
X88266115Y-145424346D01*
X88344136Y-145235988D01*
X88381781Y-145046731D01*
X93871013Y-139557500D01*
X96890249Y-139557500D01*
X96890250Y-143208932D01*
X96809994Y-143242175D01*
X96640476Y-143355443D01*
X96496313Y-143499606D01*
X96383045Y-143669124D01*
X96305024Y-143857482D01*
X96265250Y-144057441D01*
X96265250Y-144261319D01*
X96305024Y-144461278D01*
X96383045Y-144649636D01*
X96496313Y-144819154D01*
X96640476Y-144963317D01*
X96809994Y-145076585D01*
X96998352Y-145154606D01*
X97198311Y-145194380D01*
X97402189Y-145194380D01*
X97602148Y-145154606D01*
X97790506Y-145076585D01*
X97960024Y-144963317D01*
X98104187Y-144819154D01*
X98217455Y-144649636D01*
X98295476Y-144461278D01*
X98334956Y-144262799D01*
X98376998Y-144211570D01*
X98452212Y-144070854D01*
X98498529Y-143918169D01*
X98510249Y-143799172D01*
X98510249Y-143799170D01*
X98514168Y-143759382D01*
X98510249Y-143719594D01*
X98510249Y-139661009D01*
X101218788Y-139661009D01*
X101218789Y-143644990D01*
X101214869Y-143684788D01*
X101228168Y-143819811D01*
X101230509Y-143843576D01*
X101247349Y-143899090D01*
X101276826Y-143996261D01*
X101352039Y-144136977D01*
X101376320Y-144166563D01*
X101453261Y-144260316D01*
X101484171Y-144285683D01*
X102281629Y-145083141D01*
X102319274Y-145272398D01*
X102397295Y-145460756D01*
X102510563Y-145630274D01*
X102654726Y-145774437D01*
X102824244Y-145887705D01*
X103012602Y-145965726D01*
X103212561Y-146005500D01*
X103416439Y-146005500D01*
X103616398Y-145965726D01*
X103804756Y-145887705D01*
X103974274Y-145774437D01*
X104118437Y-145630274D01*
X104231705Y-145460756D01*
X104309726Y-145272398D01*
X104349500Y-145072439D01*
X104349500Y-144868561D01*
X104309726Y-144668602D01*
X104231705Y-144480244D01*
X104118437Y-144310726D01*
X103974274Y-144166563D01*
X103804756Y-144053295D01*
X103616398Y-143975274D01*
X103427141Y-143937629D01*
X102838788Y-143349276D01*
X102838788Y-139501709D01*
X102945993Y-139341265D01*
X103024014Y-139152907D01*
X103063788Y-138952948D01*
X103063788Y-138749070D01*
X103024014Y-138549111D01*
X102945993Y-138360753D01*
X102838788Y-138200309D01*
X102838788Y-137926291D01*
X103011006Y-137854955D01*
X103180524Y-137741687D01*
X103324687Y-137597524D01*
X103437955Y-137428006D01*
X103515976Y-137239648D01*
X103555750Y-137039689D01*
X103555750Y-136835811D01*
X103515976Y-136635852D01*
X103437955Y-136447494D01*
X103324687Y-136277976D01*
X103180524Y-136133813D01*
X103011006Y-136020545D01*
X102822648Y-135942524D01*
X102622689Y-135902750D01*
X102418811Y-135902750D01*
X102218852Y-135942524D01*
X102030494Y-136020545D01*
X101860976Y-136133813D01*
X101716813Y-136277976D01*
X101603545Y-136447494D01*
X101525524Y-136635852D01*
X101487879Y-136825109D01*
X101484171Y-136828817D01*
X101453261Y-136854184D01*
X101427896Y-136885092D01*
X101352039Y-136977523D01*
X101307940Y-137060028D01*
X101276826Y-137118239D01*
X101230509Y-137270924D01*
X101229093Y-137285302D01*
X101214869Y-137429712D01*
X101218789Y-137469510D01*
X101218789Y-138041009D01*
X98323000Y-138041009D01*
X98323000Y-134797553D01*
X98326205Y-134792756D01*
X98404226Y-134604398D01*
X98444000Y-134404439D01*
X98444000Y-134200561D01*
X98404226Y-134000602D01*
X98326205Y-133812244D01*
X98212937Y-133642726D01*
X98068774Y-133498563D01*
X97899256Y-133385295D01*
X97710898Y-133307274D01*
X97510939Y-133267500D01*
X97307061Y-133267500D01*
X97107102Y-133307274D01*
X96918744Y-133385295D01*
X96749226Y-133498563D01*
X96605063Y-133642726D01*
X96491795Y-133812244D01*
X96413774Y-134000602D01*
X96374000Y-134200561D01*
X96374000Y-134404439D01*
X96413774Y-134604398D01*
X96491795Y-134792756D01*
X96605063Y-134962274D01*
X96703001Y-135060212D01*
X96703000Y-137937500D01*
X93575288Y-137937500D01*
X93535500Y-137933581D01*
X93495712Y-137937500D01*
X93495709Y-137937500D01*
X93376712Y-137949220D01*
X93224027Y-137995537D01*
X93168498Y-138025218D01*
X93083310Y-138070751D01*
X93039798Y-138106461D01*
X92959972Y-138171972D01*
X92934605Y-138202882D01*
X87236269Y-143901219D01*
X87047012Y-143938864D01*
X86858654Y-144016885D01*
X86689136Y-144130153D01*
X86544973Y-144274316D01*
X86431705Y-144443834D01*
X86353684Y-144632192D01*
X86316039Y-144821449D01*
X85516488Y-145621000D01*
X83682121Y-145621000D01*
X87705253Y-141597869D01*
X87767390Y-141597869D01*
X87967349Y-141558095D01*
X88155707Y-141480074D01*
X88325225Y-141366806D01*
X88469388Y-141222643D01*
X88582656Y-141053125D01*
X88660677Y-140864767D01*
X88700451Y-140664808D01*
X88700451Y-140460930D01*
X88660677Y-140260971D01*
X88582656Y-140072613D01*
X88469388Y-139903095D01*
X88325225Y-139758932D01*
X88155707Y-139645664D01*
X87967349Y-139567643D01*
X87767390Y-139527869D01*
X87563512Y-139527869D01*
X87363553Y-139567643D01*
X87175195Y-139645664D01*
X87005677Y-139758932D01*
X86861514Y-139903095D01*
X86748246Y-140072613D01*
X86670225Y-140260971D01*
X86630451Y-140460930D01*
X86630451Y-140523067D01*
X81557383Y-145596136D01*
X81508939Y-145586500D01*
X81305061Y-145586500D01*
X81105102Y-145626274D01*
X81076000Y-145638329D01*
X81076000Y-140512000D01*
X83421846Y-140512000D01*
X83431814Y-140511018D01*
X83478318Y-140509660D01*
X83509940Y-140505624D01*
X83541806Y-140504845D01*
X83551291Y-140503613D01*
X84288139Y-140402671D01*
X84348524Y-140388285D01*
X84409123Y-140374739D01*
X84418188Y-140371688D01*
X85121397Y-140129547D01*
X85177857Y-140103697D01*
X85234651Y-140078647D01*
X85242951Y-140073894D01*
X85885735Y-139699777D01*
X85936098Y-139663453D01*
X85986946Y-139627848D01*
X85994164Y-139621574D01*
X86552041Y-139129731D01*
X86594403Y-139084302D01*
X86637352Y-139039514D01*
X86643214Y-139031957D01*
X87094933Y-138441123D01*
X87127636Y-138388377D01*
X87161098Y-138336053D01*
X87165380Y-138327502D01*
X87493736Y-137660181D01*
X87515574Y-137602080D01*
X87538233Y-137544260D01*
X87540773Y-137535039D01*
X87715801Y-136881800D01*
X87715803Y-136881797D01*
X87727629Y-136837657D01*
X87733258Y-136816649D01*
X87733260Y-136816638D01*
X87741972Y-136784119D01*
X88782701Y-130479000D01*
X89982379Y-130479000D01*
X89914956Y-130546423D01*
%TD*%
M02*
