%TF.GenerationSoftware,KiCad,Pcbnew,(5.1.6)-1*%
%TF.CreationDate,2020-07-31T08:50:18+01:00*%
%TF.ProjectId,open-amiga-sampler-smd,6f70656e-2d61-46d6-9967-612d73616d70,rev?*%
%TF.SameCoordinates,Original*%
%TF.FileFunction,Legend,Bot*%
%TF.FilePolarity,Positive*%
%FSLAX46Y46*%
G04 Gerber Fmt 4.6, Leading zero omitted, Abs format (unit mm)*
G04 Created by KiCad (PCBNEW (5.1.6)-1) date 2020-07-31 08:50:18*
%MOMM*%
%LPD*%
G01*
G04 APERTURE LIST*
%ADD10C,0.150000*%
%ADD11C,0.010000*%
G04 APERTURE END LIST*
D10*
X94194166Y-133421380D02*
X94194166Y-132421380D01*
X93813214Y-132421380D01*
X93717976Y-132469000D01*
X93670357Y-132516619D01*
X93622738Y-132611857D01*
X93622738Y-132754714D01*
X93670357Y-132849952D01*
X93717976Y-132897571D01*
X93813214Y-132945190D01*
X94194166Y-132945190D01*
X93003690Y-132421380D02*
X92813214Y-132421380D01*
X92717976Y-132469000D01*
X92622738Y-132564238D01*
X92575119Y-132754714D01*
X92575119Y-133088047D01*
X92622738Y-133278523D01*
X92717976Y-133373761D01*
X92813214Y-133421380D01*
X93003690Y-133421380D01*
X93098928Y-133373761D01*
X93194166Y-133278523D01*
X93241785Y-133088047D01*
X93241785Y-132754714D01*
X93194166Y-132564238D01*
X93098928Y-132469000D01*
X93003690Y-132421380D01*
X92289404Y-132421380D02*
X91717976Y-132421380D01*
X92003690Y-133421380D02*
X92003690Y-132421380D01*
X107441500Y-133357880D02*
X107917690Y-133357880D01*
X107917690Y-132357880D01*
X104298642Y-132405500D02*
X104393880Y-132357880D01*
X104536738Y-132357880D01*
X104679595Y-132405500D01*
X104774833Y-132500738D01*
X104822452Y-132595976D01*
X104870071Y-132786452D01*
X104870071Y-132929309D01*
X104822452Y-133119785D01*
X104774833Y-133215023D01*
X104679595Y-133310261D01*
X104536738Y-133357880D01*
X104441500Y-133357880D01*
X104298642Y-133310261D01*
X104251023Y-133262642D01*
X104251023Y-132929309D01*
X104441500Y-132929309D01*
X103822452Y-133357880D02*
X103822452Y-132357880D01*
X103251023Y-133357880D01*
X103251023Y-132357880D01*
X102774833Y-133357880D02*
X102774833Y-132357880D01*
X102536738Y-132357880D01*
X102393880Y-132405500D01*
X102298642Y-132500738D01*
X102251023Y-132595976D01*
X102203404Y-132786452D01*
X102203404Y-132929309D01*
X102251023Y-133119785D01*
X102298642Y-133215023D01*
X102393880Y-133310261D01*
X102536738Y-133357880D01*
X102774833Y-133357880D01*
X98917690Y-133357880D02*
X99251023Y-132881690D01*
X99489119Y-133357880D02*
X99489119Y-132357880D01*
X99108166Y-132357880D01*
X99012928Y-132405500D01*
X98965309Y-132453119D01*
X98917690Y-132548357D01*
X98917690Y-132691214D01*
X98965309Y-132786452D01*
X99012928Y-132834071D01*
X99108166Y-132881690D01*
X99489119Y-132881690D01*
X115297928Y-140360380D02*
X115107452Y-140360380D01*
X115012214Y-140408000D01*
X114916976Y-140503238D01*
X114869357Y-140693714D01*
X114869357Y-141027047D01*
X114916976Y-141217523D01*
X115012214Y-141312761D01*
X115107452Y-141360380D01*
X115297928Y-141360380D01*
X115393166Y-141312761D01*
X115488404Y-141217523D01*
X115536023Y-141027047D01*
X115536023Y-140693714D01*
X115488404Y-140503238D01*
X115393166Y-140408000D01*
X115297928Y-140360380D01*
X114440785Y-140693714D02*
X114440785Y-141693714D01*
X114440785Y-140741333D02*
X114345547Y-140693714D01*
X114155071Y-140693714D01*
X114059833Y-140741333D01*
X114012214Y-140788952D01*
X113964595Y-140884190D01*
X113964595Y-141169904D01*
X114012214Y-141265142D01*
X114059833Y-141312761D01*
X114155071Y-141360380D01*
X114345547Y-141360380D01*
X114440785Y-141312761D01*
X113155071Y-141312761D02*
X113250309Y-141360380D01*
X113440785Y-141360380D01*
X113536023Y-141312761D01*
X113583642Y-141217523D01*
X113583642Y-140836571D01*
X113536023Y-140741333D01*
X113440785Y-140693714D01*
X113250309Y-140693714D01*
X113155071Y-140741333D01*
X113107452Y-140836571D01*
X113107452Y-140931809D01*
X113583642Y-141027047D01*
X112678880Y-140693714D02*
X112678880Y-141360380D01*
X112678880Y-140788952D02*
X112631261Y-140741333D01*
X112536023Y-140693714D01*
X112393166Y-140693714D01*
X112297928Y-140741333D01*
X112250309Y-140836571D01*
X112250309Y-141360380D01*
X111059833Y-141074666D02*
X110583642Y-141074666D01*
X111155071Y-141360380D02*
X110821738Y-140360380D01*
X110488404Y-141360380D01*
X110155071Y-141360380D02*
X110155071Y-140693714D01*
X110155071Y-140788952D02*
X110107452Y-140741333D01*
X110012214Y-140693714D01*
X109869357Y-140693714D01*
X109774119Y-140741333D01*
X109726500Y-140836571D01*
X109726500Y-141360380D01*
X109726500Y-140836571D02*
X109678880Y-140741333D01*
X109583642Y-140693714D01*
X109440785Y-140693714D01*
X109345547Y-140741333D01*
X109297928Y-140836571D01*
X109297928Y-141360380D01*
X108821738Y-141360380D02*
X108821738Y-140693714D01*
X108821738Y-140360380D02*
X108869357Y-140408000D01*
X108821738Y-140455619D01*
X108774119Y-140408000D01*
X108821738Y-140360380D01*
X108821738Y-140455619D01*
X107916976Y-140693714D02*
X107916976Y-141503238D01*
X107964595Y-141598476D01*
X108012214Y-141646095D01*
X108107452Y-141693714D01*
X108250309Y-141693714D01*
X108345547Y-141646095D01*
X107916976Y-141312761D02*
X108012214Y-141360380D01*
X108202690Y-141360380D01*
X108297928Y-141312761D01*
X108345547Y-141265142D01*
X108393166Y-141169904D01*
X108393166Y-140884190D01*
X108345547Y-140788952D01*
X108297928Y-140741333D01*
X108202690Y-140693714D01*
X108012214Y-140693714D01*
X107916976Y-140741333D01*
X107012214Y-141360380D02*
X107012214Y-140836571D01*
X107059833Y-140741333D01*
X107155071Y-140693714D01*
X107345547Y-140693714D01*
X107440785Y-140741333D01*
X107012214Y-141312761D02*
X107107452Y-141360380D01*
X107345547Y-141360380D01*
X107440785Y-141312761D01*
X107488404Y-141217523D01*
X107488404Y-141122285D01*
X107440785Y-141027047D01*
X107345547Y-140979428D01*
X107107452Y-140979428D01*
X107012214Y-140931809D01*
X105821738Y-141312761D02*
X105678880Y-141360380D01*
X105440785Y-141360380D01*
X105345547Y-141312761D01*
X105297928Y-141265142D01*
X105250309Y-141169904D01*
X105250309Y-141074666D01*
X105297928Y-140979428D01*
X105345547Y-140931809D01*
X105440785Y-140884190D01*
X105631261Y-140836571D01*
X105726500Y-140788952D01*
X105774119Y-140741333D01*
X105821738Y-140646095D01*
X105821738Y-140550857D01*
X105774119Y-140455619D01*
X105726500Y-140408000D01*
X105631261Y-140360380D01*
X105393166Y-140360380D01*
X105250309Y-140408000D01*
X104393166Y-141360380D02*
X104393166Y-140836571D01*
X104440785Y-140741333D01*
X104536023Y-140693714D01*
X104726500Y-140693714D01*
X104821738Y-140741333D01*
X104393166Y-141312761D02*
X104488404Y-141360380D01*
X104726500Y-141360380D01*
X104821738Y-141312761D01*
X104869357Y-141217523D01*
X104869357Y-141122285D01*
X104821738Y-141027047D01*
X104726500Y-140979428D01*
X104488404Y-140979428D01*
X104393166Y-140931809D01*
X103916976Y-141360380D02*
X103916976Y-140693714D01*
X103916976Y-140788952D02*
X103869357Y-140741333D01*
X103774119Y-140693714D01*
X103631261Y-140693714D01*
X103536023Y-140741333D01*
X103488404Y-140836571D01*
X103488404Y-141360380D01*
X103488404Y-140836571D02*
X103440785Y-140741333D01*
X103345547Y-140693714D01*
X103202690Y-140693714D01*
X103107452Y-140741333D01*
X103059833Y-140836571D01*
X103059833Y-141360380D01*
X102583642Y-140693714D02*
X102583642Y-141693714D01*
X102583642Y-140741333D02*
X102488404Y-140693714D01*
X102297928Y-140693714D01*
X102202690Y-140741333D01*
X102155071Y-140788952D01*
X102107452Y-140884190D01*
X102107452Y-141169904D01*
X102155071Y-141265142D01*
X102202690Y-141312761D01*
X102297928Y-141360380D01*
X102488404Y-141360380D01*
X102583642Y-141312761D01*
X101536023Y-141360380D02*
X101631261Y-141312761D01*
X101678880Y-141217523D01*
X101678880Y-140360380D01*
X100774119Y-141312761D02*
X100869357Y-141360380D01*
X101059833Y-141360380D01*
X101155071Y-141312761D01*
X101202690Y-141217523D01*
X101202690Y-140836571D01*
X101155071Y-140741333D01*
X101059833Y-140693714D01*
X100869357Y-140693714D01*
X100774119Y-140741333D01*
X100726500Y-140836571D01*
X100726500Y-140931809D01*
X101202690Y-141027047D01*
X100297928Y-141360380D02*
X100297928Y-140693714D01*
X100297928Y-140884190D02*
X100250309Y-140788952D01*
X100202690Y-140741333D01*
X100107452Y-140693714D01*
X100012214Y-140693714D01*
X114869357Y-142534190D02*
X114916976Y-142486571D01*
X115012214Y-142438952D01*
X115107452Y-142438952D01*
X115202690Y-142486571D01*
X115250309Y-142534190D01*
X115297928Y-142629428D01*
X115297928Y-142724666D01*
X115250309Y-142819904D01*
X115202690Y-142867523D01*
X115107452Y-142915142D01*
X115012214Y-142915142D01*
X114916976Y-142867523D01*
X114869357Y-142819904D01*
X114869357Y-142438952D02*
X114869357Y-142819904D01*
X114821738Y-142867523D01*
X114774119Y-142867523D01*
X114678880Y-142819904D01*
X114631261Y-142724666D01*
X114631261Y-142486571D01*
X114726500Y-142343714D01*
X114869357Y-142248476D01*
X115059833Y-142200857D01*
X115250309Y-142248476D01*
X115393166Y-142343714D01*
X115488404Y-142486571D01*
X115536023Y-142677047D01*
X115488404Y-142867523D01*
X115393166Y-143010380D01*
X115250309Y-143105619D01*
X115059833Y-143153238D01*
X114869357Y-143105619D01*
X114726500Y-143010380D01*
X113821738Y-142962761D02*
X113916976Y-143010380D01*
X114107452Y-143010380D01*
X114202690Y-142962761D01*
X114250309Y-142867523D01*
X114250309Y-142486571D01*
X114202690Y-142391333D01*
X114107452Y-142343714D01*
X113916976Y-142343714D01*
X113821738Y-142391333D01*
X113774119Y-142486571D01*
X113774119Y-142581809D01*
X114250309Y-142677047D01*
X112916976Y-142962761D02*
X113012214Y-143010380D01*
X113202690Y-143010380D01*
X113297928Y-142962761D01*
X113345547Y-142915142D01*
X113393166Y-142819904D01*
X113393166Y-142534190D01*
X113345547Y-142438952D01*
X113297928Y-142391333D01*
X113202690Y-142343714D01*
X113012214Y-142343714D01*
X112916976Y-142391333D01*
X112488404Y-143010380D02*
X112488404Y-142010380D01*
X112059833Y-143010380D02*
X112059833Y-142486571D01*
X112107452Y-142391333D01*
X112202690Y-142343714D01*
X112345547Y-142343714D01*
X112440785Y-142391333D01*
X112488404Y-142438952D01*
X111440785Y-143010380D02*
X111536023Y-142962761D01*
X111583642Y-142915142D01*
X111631261Y-142819904D01*
X111631261Y-142534190D01*
X111583642Y-142438952D01*
X111536023Y-142391333D01*
X111440785Y-142343714D01*
X111297928Y-142343714D01*
X111202690Y-142391333D01*
X111155071Y-142438952D01*
X111107452Y-142534190D01*
X111107452Y-142819904D01*
X111155071Y-142915142D01*
X111202690Y-142962761D01*
X111297928Y-143010380D01*
X111440785Y-143010380D01*
X110536023Y-143010380D02*
X110631261Y-142962761D01*
X110678880Y-142867523D01*
X110678880Y-142010380D01*
X109774119Y-142962761D02*
X109869357Y-143010380D01*
X110059833Y-143010380D01*
X110155071Y-142962761D01*
X110202690Y-142867523D01*
X110202690Y-142486571D01*
X110155071Y-142391333D01*
X110059833Y-142343714D01*
X109869357Y-142343714D01*
X109774119Y-142391333D01*
X109726500Y-142486571D01*
X109726500Y-142581809D01*
X110202690Y-142677047D01*
X109393166Y-142343714D02*
X109155071Y-143010380D01*
X108916976Y-142343714D01*
X108155071Y-142962761D02*
X108250309Y-143010380D01*
X108440785Y-143010380D01*
X108536023Y-142962761D01*
X108583642Y-142867523D01*
X108583642Y-142486571D01*
X108536023Y-142391333D01*
X108440785Y-142343714D01*
X108250309Y-142343714D01*
X108155071Y-142391333D01*
X108107452Y-142486571D01*
X108107452Y-142581809D01*
X108583642Y-142677047D01*
X107536023Y-143010380D02*
X107631261Y-142962761D01*
X107678880Y-142867523D01*
X107678880Y-142010380D01*
X114869357Y-144184190D02*
X114916976Y-144136571D01*
X115012214Y-144088952D01*
X115107452Y-144088952D01*
X115202690Y-144136571D01*
X115250309Y-144184190D01*
X115297928Y-144279428D01*
X115297928Y-144374666D01*
X115250309Y-144469904D01*
X115202690Y-144517523D01*
X115107452Y-144565142D01*
X115012214Y-144565142D01*
X114916976Y-144517523D01*
X114869357Y-144469904D01*
X114869357Y-144088952D02*
X114869357Y-144469904D01*
X114821738Y-144517523D01*
X114774119Y-144517523D01*
X114678880Y-144469904D01*
X114631261Y-144374666D01*
X114631261Y-144136571D01*
X114726500Y-143993714D01*
X114869357Y-143898476D01*
X115059833Y-143850857D01*
X115250309Y-143898476D01*
X115393166Y-143993714D01*
X115488404Y-144136571D01*
X115536023Y-144327047D01*
X115488404Y-144517523D01*
X115393166Y-144660380D01*
X115250309Y-144755619D01*
X115059833Y-144803238D01*
X114869357Y-144755619D01*
X114726500Y-144660380D01*
X114202690Y-144660380D02*
X114202690Y-143993714D01*
X114202690Y-144088952D02*
X114155071Y-144041333D01*
X114059833Y-143993714D01*
X113916976Y-143993714D01*
X113821738Y-144041333D01*
X113774119Y-144136571D01*
X113774119Y-144660380D01*
X113774119Y-144136571D02*
X113726500Y-144041333D01*
X113631261Y-143993714D01*
X113488404Y-143993714D01*
X113393166Y-144041333D01*
X113345547Y-144136571D01*
X113345547Y-144660380D01*
X112869357Y-143993714D02*
X112869357Y-144660380D01*
X112869357Y-144088952D02*
X112821738Y-144041333D01*
X112726500Y-143993714D01*
X112583642Y-143993714D01*
X112488404Y-144041333D01*
X112440785Y-144136571D01*
X112440785Y-144660380D01*
X112012214Y-144612761D02*
X111916976Y-144660380D01*
X111726500Y-144660380D01*
X111631261Y-144612761D01*
X111583642Y-144517523D01*
X111583642Y-144469904D01*
X111631261Y-144374666D01*
X111726500Y-144327047D01*
X111869357Y-144327047D01*
X111964595Y-144279428D01*
X112012214Y-144184190D01*
X112012214Y-144136571D01*
X111964595Y-144041333D01*
X111869357Y-143993714D01*
X111726500Y-143993714D01*
X111631261Y-144041333D01*
X111297928Y-143993714D02*
X110916976Y-143993714D01*
X111155071Y-143660380D02*
X111155071Y-144517523D01*
X111107452Y-144612761D01*
X111012214Y-144660380D01*
X110916976Y-144660380D01*
X110583642Y-144660380D02*
X110583642Y-143993714D01*
X110583642Y-144184190D02*
X110536023Y-144088952D01*
X110488404Y-144041333D01*
X110393166Y-143993714D01*
X110297928Y-143993714D01*
X109964595Y-144660380D02*
X109964595Y-143993714D01*
X109964595Y-144088952D02*
X109916976Y-144041333D01*
X109821738Y-143993714D01*
X109678880Y-143993714D01*
X109583642Y-144041333D01*
X109536023Y-144136571D01*
X109536023Y-144660380D01*
X109536023Y-144136571D02*
X109488404Y-144041333D01*
X109393166Y-143993714D01*
X109250309Y-143993714D01*
X109155071Y-144041333D01*
X109107452Y-144136571D01*
X109107452Y-144660380D01*
X108631261Y-143993714D02*
X108631261Y-144660380D01*
X108631261Y-144088952D02*
X108583642Y-144041333D01*
X108488404Y-143993714D01*
X108345547Y-143993714D01*
X108250309Y-144041333D01*
X108202690Y-144136571D01*
X108202690Y-144660380D01*
X107297928Y-144612761D02*
X107393166Y-144660380D01*
X107583642Y-144660380D01*
X107678880Y-144612761D01*
X107726500Y-144565142D01*
X107774119Y-144469904D01*
X107774119Y-144184190D01*
X107726500Y-144088952D01*
X107678880Y-144041333D01*
X107583642Y-143993714D01*
X107393166Y-143993714D01*
X107297928Y-144041333D01*
X106869357Y-144660380D02*
X106869357Y-143660380D01*
X106440785Y-144660380D02*
X106440785Y-144136571D01*
X106488404Y-144041333D01*
X106583642Y-143993714D01*
X106726500Y-143993714D01*
X106821738Y-144041333D01*
X106869357Y-144088952D01*
X114869357Y-145834190D02*
X114916976Y-145786571D01*
X115012214Y-145738952D01*
X115107452Y-145738952D01*
X115202690Y-145786571D01*
X115250309Y-145834190D01*
X115297928Y-145929428D01*
X115297928Y-146024666D01*
X115250309Y-146119904D01*
X115202690Y-146167523D01*
X115107452Y-146215142D01*
X115012214Y-146215142D01*
X114916976Y-146167523D01*
X114869357Y-146119904D01*
X114869357Y-145738952D02*
X114869357Y-146119904D01*
X114821738Y-146167523D01*
X114774119Y-146167523D01*
X114678880Y-146119904D01*
X114631261Y-146024666D01*
X114631261Y-145786571D01*
X114726500Y-145643714D01*
X114869357Y-145548476D01*
X115059833Y-145500857D01*
X115250309Y-145548476D01*
X115393166Y-145643714D01*
X115488404Y-145786571D01*
X115536023Y-145977047D01*
X115488404Y-146167523D01*
X115393166Y-146310380D01*
X115250309Y-146405619D01*
X115059833Y-146453238D01*
X114869357Y-146405619D01*
X114726500Y-146310380D01*
X113774119Y-146310380D02*
X113774119Y-145786571D01*
X113821738Y-145691333D01*
X113916976Y-145643714D01*
X114107452Y-145643714D01*
X114202690Y-145691333D01*
X113774119Y-146262761D02*
X113869357Y-146310380D01*
X114107452Y-146310380D01*
X114202690Y-146262761D01*
X114250309Y-146167523D01*
X114250309Y-146072285D01*
X114202690Y-145977047D01*
X114107452Y-145929428D01*
X113869357Y-145929428D01*
X113774119Y-145881809D01*
X113297928Y-146310380D02*
X113297928Y-145310380D01*
X113297928Y-145691333D02*
X113202690Y-145643714D01*
X113012214Y-145643714D01*
X112916976Y-145691333D01*
X112869357Y-145738952D01*
X112821738Y-145834190D01*
X112821738Y-146119904D01*
X112869357Y-146215142D01*
X112916976Y-146262761D01*
X113012214Y-146310380D01*
X113202690Y-146310380D01*
X113297928Y-146262761D01*
X112393166Y-146310380D02*
X112393166Y-145643714D01*
X112393166Y-145834190D02*
X112345547Y-145738952D01*
X112297928Y-145691333D01*
X112202690Y-145643714D01*
X112107452Y-145643714D01*
X111345547Y-145643714D02*
X111345547Y-146310380D01*
X111774119Y-145643714D02*
X111774119Y-146167523D01*
X111726500Y-146262761D01*
X111631261Y-146310380D01*
X111488404Y-146310380D01*
X111393166Y-146262761D01*
X111345547Y-146215142D01*
X110440785Y-145643714D02*
X110440785Y-146453238D01*
X110488404Y-146548476D01*
X110536023Y-146596095D01*
X110631261Y-146643714D01*
X110774119Y-146643714D01*
X110869357Y-146596095D01*
X110440785Y-146262761D02*
X110536023Y-146310380D01*
X110726500Y-146310380D01*
X110821738Y-146262761D01*
X110869357Y-146215142D01*
X110916976Y-146119904D01*
X110916976Y-145834190D01*
X110869357Y-145738952D01*
X110821738Y-145691333D01*
X110726500Y-145643714D01*
X110536023Y-145643714D01*
X110440785Y-145691333D01*
X110012214Y-146262761D02*
X109916976Y-146310380D01*
X109726500Y-146310380D01*
X109631261Y-146262761D01*
X109583642Y-146167523D01*
X109583642Y-146119904D01*
X109631261Y-146024666D01*
X109726500Y-145977047D01*
X109869357Y-145977047D01*
X109964595Y-145929428D01*
X110012214Y-145834190D01*
X110012214Y-145786571D01*
X109964595Y-145691333D01*
X109869357Y-145643714D01*
X109726500Y-145643714D01*
X109631261Y-145691333D01*
X108726500Y-146262761D02*
X108821738Y-146310380D01*
X109012214Y-146310380D01*
X109107452Y-146262761D01*
X109155071Y-146215142D01*
X109202690Y-146119904D01*
X109202690Y-145834190D01*
X109155071Y-145738952D01*
X109107452Y-145691333D01*
X109012214Y-145643714D01*
X108821738Y-145643714D01*
X108726500Y-145691333D01*
X108297928Y-146310380D02*
X108297928Y-145310380D01*
X107869357Y-146310380D02*
X107869357Y-145786571D01*
X107916976Y-145691333D01*
X108012214Y-145643714D01*
X108155071Y-145643714D01*
X108250309Y-145691333D01*
X108297928Y-145738952D01*
D11*
%TO.C,REF\u002A\u002A*%
G36*
X93967122Y-136622776D02*
G01*
X93861388Y-136623355D01*
X93784868Y-136624922D01*
X93732628Y-136627972D01*
X93699737Y-136632996D01*
X93681263Y-136640489D01*
X93672273Y-136650944D01*
X93667837Y-136664853D01*
X93667406Y-136666654D01*
X93660667Y-136699145D01*
X93648192Y-136763252D01*
X93631281Y-136852151D01*
X93611229Y-136959019D01*
X93589336Y-137077033D01*
X93588571Y-137081178D01*
X93566641Y-137196831D01*
X93546123Y-137299014D01*
X93528341Y-137381598D01*
X93514619Y-137438456D01*
X93506282Y-137463458D01*
X93505884Y-137463901D01*
X93481323Y-137476110D01*
X93430685Y-137496456D01*
X93364905Y-137520545D01*
X93364539Y-137520674D01*
X93281683Y-137551818D01*
X93184000Y-137591491D01*
X93091923Y-137631381D01*
X93087566Y-137633353D01*
X92937593Y-137701420D01*
X92605502Y-137474639D01*
X92503626Y-137405504D01*
X92411343Y-137343697D01*
X92333997Y-137292733D01*
X92276936Y-137256127D01*
X92245505Y-137237394D01*
X92242521Y-137236004D01*
X92219679Y-137242190D01*
X92177018Y-137272035D01*
X92112872Y-137326947D01*
X92025579Y-137408334D01*
X91936465Y-137494922D01*
X91850559Y-137580247D01*
X91773673Y-137658108D01*
X91710436Y-137723697D01*
X91665477Y-137772205D01*
X91643424Y-137798825D01*
X91642604Y-137800195D01*
X91640166Y-137818463D01*
X91649350Y-137848295D01*
X91672426Y-137893721D01*
X91711663Y-137958770D01*
X91769330Y-138047470D01*
X91846205Y-138161657D01*
X91914430Y-138262162D01*
X91975418Y-138352303D01*
X92025644Y-138426849D01*
X92061584Y-138480565D01*
X92079713Y-138508218D01*
X92080854Y-138510095D01*
X92078641Y-138536590D01*
X92061862Y-138588086D01*
X92033858Y-138654851D01*
X92023878Y-138676172D01*
X91980328Y-138771159D01*
X91933866Y-138878937D01*
X91896123Y-138972192D01*
X91868927Y-139041406D01*
X91847325Y-139094006D01*
X91834842Y-139121497D01*
X91833291Y-139123616D01*
X91810332Y-139127124D01*
X91756214Y-139136738D01*
X91678132Y-139151089D01*
X91583281Y-139168807D01*
X91478857Y-139188525D01*
X91372056Y-139208874D01*
X91270074Y-139228486D01*
X91180106Y-139245991D01*
X91109347Y-139260022D01*
X91064994Y-139269209D01*
X91054115Y-139271807D01*
X91042878Y-139278218D01*
X91034395Y-139292697D01*
X91028286Y-139320133D01*
X91024168Y-139365411D01*
X91021659Y-139433420D01*
X91020379Y-139529047D01*
X91019946Y-139657180D01*
X91019923Y-139709701D01*
X91019923Y-140136845D01*
X91122500Y-140157091D01*
X91179569Y-140168070D01*
X91264731Y-140184095D01*
X91367628Y-140203233D01*
X91477904Y-140223551D01*
X91508385Y-140229132D01*
X91610145Y-140248917D01*
X91698795Y-140268373D01*
X91766892Y-140285697D01*
X91806996Y-140299088D01*
X91813677Y-140303079D01*
X91830081Y-140331342D01*
X91853601Y-140386109D01*
X91879684Y-140456588D01*
X91884858Y-140471769D01*
X91919044Y-140565896D01*
X91961477Y-140672101D01*
X92003003Y-140767473D01*
X92003208Y-140767916D01*
X92072360Y-140917525D01*
X91617488Y-141586617D01*
X91909500Y-141879116D01*
X91997820Y-141966170D01*
X92078375Y-142042909D01*
X92146640Y-142105237D01*
X92198092Y-142149056D01*
X92228206Y-142170270D01*
X92232526Y-142171616D01*
X92257889Y-142161016D01*
X92309642Y-142131547D01*
X92382132Y-142086705D01*
X92469706Y-142029984D01*
X92564388Y-141966462D01*
X92660484Y-141901668D01*
X92746163Y-141845287D01*
X92815984Y-141800788D01*
X92864506Y-141771639D01*
X92886218Y-141761308D01*
X92912707Y-141770050D01*
X92962938Y-141793087D01*
X93026549Y-141825631D01*
X93033292Y-141829249D01*
X93118954Y-141872210D01*
X93177694Y-141893279D01*
X93214228Y-141893503D01*
X93233269Y-141873928D01*
X93233380Y-141873654D01*
X93242898Y-141850472D01*
X93265597Y-141795441D01*
X93299718Y-141712822D01*
X93343500Y-141606872D01*
X93395184Y-141481852D01*
X93453008Y-141342020D01*
X93509009Y-141206637D01*
X93570553Y-141057234D01*
X93627061Y-140918832D01*
X93676839Y-140795673D01*
X93718194Y-140692002D01*
X93749432Y-140612059D01*
X93768859Y-140560088D01*
X93774846Y-140540692D01*
X93759832Y-140518443D01*
X93720561Y-140482982D01*
X93668193Y-140443887D01*
X93519059Y-140320245D01*
X93402489Y-140178522D01*
X93319882Y-140021704D01*
X93272634Y-139852775D01*
X93262143Y-139674722D01*
X93269769Y-139592539D01*
X93311318Y-139422031D01*
X93382877Y-139271459D01*
X93480005Y-139142309D01*
X93598266Y-139036064D01*
X93733220Y-138954210D01*
X93880429Y-138898232D01*
X94035456Y-138869615D01*
X94193861Y-138869844D01*
X94351206Y-138900405D01*
X94503054Y-138962782D01*
X94644965Y-139058460D01*
X94704197Y-139112572D01*
X94817797Y-139251520D01*
X94896894Y-139403361D01*
X94942014Y-139563667D01*
X94953684Y-139728012D01*
X94932431Y-139891971D01*
X94878780Y-140051118D01*
X94793260Y-140201025D01*
X94676395Y-140337267D01*
X94545807Y-140443887D01*
X94491412Y-140484642D01*
X94452986Y-140519718D01*
X94439154Y-140540726D01*
X94446397Y-140563635D01*
X94466995Y-140618365D01*
X94499254Y-140700672D01*
X94541479Y-140806315D01*
X94591977Y-140931050D01*
X94649052Y-141070636D01*
X94705146Y-141206670D01*
X94767033Y-141356201D01*
X94824356Y-141494767D01*
X94875356Y-141618107D01*
X94918273Y-141721964D01*
X94951347Y-141802080D01*
X94972819Y-141854195D01*
X94980775Y-141873654D01*
X94999571Y-141893423D01*
X95035926Y-141893365D01*
X95094521Y-141872441D01*
X95180032Y-141829613D01*
X95180708Y-141829249D01*
X95245093Y-141796012D01*
X95297139Y-141771802D01*
X95326488Y-141761404D01*
X95327783Y-141761308D01*
X95349876Y-141771855D01*
X95398652Y-141801184D01*
X95468669Y-141845827D01*
X95554486Y-141902314D01*
X95649612Y-141966462D01*
X95746460Y-142031411D01*
X95833747Y-142087896D01*
X95905819Y-142132421D01*
X95957023Y-142161490D01*
X95981474Y-142171616D01*
X96003990Y-142158307D01*
X96049258Y-142121112D01*
X96112756Y-142064128D01*
X96189961Y-141991449D01*
X96276349Y-141907171D01*
X96304601Y-141879016D01*
X96596713Y-141586416D01*
X96374369Y-141260104D01*
X96306798Y-141159897D01*
X96247493Y-141069963D01*
X96199783Y-140995510D01*
X96166993Y-140941751D01*
X96152452Y-140913894D01*
X96152026Y-140911912D01*
X96159692Y-140885655D01*
X96180311Y-140832837D01*
X96210315Y-140762310D01*
X96231375Y-140715093D01*
X96270752Y-140624694D01*
X96307835Y-140533366D01*
X96336585Y-140456200D01*
X96344395Y-140432692D01*
X96366583Y-140369916D01*
X96388273Y-140321411D01*
X96400187Y-140303079D01*
X96426477Y-140291859D01*
X96483858Y-140275954D01*
X96564882Y-140257167D01*
X96662105Y-140237299D01*
X96705615Y-140229132D01*
X96816104Y-140208829D01*
X96922084Y-140189170D01*
X97013199Y-140172088D01*
X97079092Y-140159518D01*
X97091500Y-140157091D01*
X97194077Y-140136845D01*
X97194077Y-139709701D01*
X97193847Y-139569246D01*
X97192901Y-139462979D01*
X97190859Y-139386013D01*
X97187338Y-139333460D01*
X97181957Y-139300433D01*
X97174334Y-139282045D01*
X97164088Y-139273408D01*
X97159885Y-139271807D01*
X97134530Y-139266127D01*
X97078516Y-139254795D01*
X96999036Y-139239179D01*
X96903288Y-139220647D01*
X96798467Y-139200569D01*
X96691768Y-139180312D01*
X96590387Y-139161246D01*
X96501521Y-139144739D01*
X96432363Y-139132159D01*
X96390111Y-139124875D01*
X96380710Y-139123616D01*
X96372193Y-139106763D01*
X96353340Y-139061870D01*
X96327676Y-138997430D01*
X96317877Y-138972192D01*
X96278352Y-138874686D01*
X96231808Y-138766959D01*
X96190123Y-138676172D01*
X96159450Y-138606753D01*
X96139044Y-138549710D01*
X96132232Y-138514777D01*
X96133318Y-138510095D01*
X96147715Y-138487991D01*
X96180588Y-138438831D01*
X96228410Y-138367848D01*
X96287652Y-138280278D01*
X96354785Y-138181357D01*
X96368059Y-138161830D01*
X96445954Y-138046140D01*
X96503213Y-137958044D01*
X96542119Y-137893486D01*
X96564956Y-137848411D01*
X96574006Y-137818763D01*
X96571552Y-137800485D01*
X96571489Y-137800369D01*
X96552173Y-137776361D01*
X96509449Y-137729947D01*
X96447949Y-137665937D01*
X96372302Y-137589145D01*
X96287139Y-137504382D01*
X96277535Y-137494922D01*
X96170210Y-137390989D01*
X96087385Y-137314675D01*
X96027395Y-137264571D01*
X95988577Y-137239270D01*
X95971480Y-137236004D01*
X95946527Y-137250250D01*
X95894745Y-137283156D01*
X95821480Y-137331208D01*
X95732080Y-137390890D01*
X95631889Y-137458688D01*
X95608499Y-137474639D01*
X95276407Y-137701420D01*
X95126435Y-137633353D01*
X95035230Y-137593685D01*
X94937331Y-137553791D01*
X94853169Y-137521983D01*
X94849462Y-137520674D01*
X94783631Y-137496576D01*
X94732884Y-137476200D01*
X94708158Y-137463936D01*
X94708116Y-137463901D01*
X94700271Y-137441734D01*
X94686934Y-137387217D01*
X94669430Y-137306480D01*
X94649083Y-137205650D01*
X94627218Y-137090856D01*
X94625429Y-137081178D01*
X94603496Y-136962904D01*
X94583360Y-136855542D01*
X94566320Y-136765917D01*
X94553672Y-136700851D01*
X94546716Y-136667168D01*
X94546594Y-136666654D01*
X94542361Y-136652325D01*
X94534129Y-136641507D01*
X94516967Y-136633706D01*
X94485942Y-136628429D01*
X94436122Y-136625182D01*
X94362576Y-136623472D01*
X94260371Y-136622807D01*
X94124575Y-136622693D01*
X94107000Y-136622692D01*
X93967122Y-136622776D01*
G37*
X93967122Y-136622776D02*
X93861388Y-136623355D01*
X93784868Y-136624922D01*
X93732628Y-136627972D01*
X93699737Y-136632996D01*
X93681263Y-136640489D01*
X93672273Y-136650944D01*
X93667837Y-136664853D01*
X93667406Y-136666654D01*
X93660667Y-136699145D01*
X93648192Y-136763252D01*
X93631281Y-136852151D01*
X93611229Y-136959019D01*
X93589336Y-137077033D01*
X93588571Y-137081178D01*
X93566641Y-137196831D01*
X93546123Y-137299014D01*
X93528341Y-137381598D01*
X93514619Y-137438456D01*
X93506282Y-137463458D01*
X93505884Y-137463901D01*
X93481323Y-137476110D01*
X93430685Y-137496456D01*
X93364905Y-137520545D01*
X93364539Y-137520674D01*
X93281683Y-137551818D01*
X93184000Y-137591491D01*
X93091923Y-137631381D01*
X93087566Y-137633353D01*
X92937593Y-137701420D01*
X92605502Y-137474639D01*
X92503626Y-137405504D01*
X92411343Y-137343697D01*
X92333997Y-137292733D01*
X92276936Y-137256127D01*
X92245505Y-137237394D01*
X92242521Y-137236004D01*
X92219679Y-137242190D01*
X92177018Y-137272035D01*
X92112872Y-137326947D01*
X92025579Y-137408334D01*
X91936465Y-137494922D01*
X91850559Y-137580247D01*
X91773673Y-137658108D01*
X91710436Y-137723697D01*
X91665477Y-137772205D01*
X91643424Y-137798825D01*
X91642604Y-137800195D01*
X91640166Y-137818463D01*
X91649350Y-137848295D01*
X91672426Y-137893721D01*
X91711663Y-137958770D01*
X91769330Y-138047470D01*
X91846205Y-138161657D01*
X91914430Y-138262162D01*
X91975418Y-138352303D01*
X92025644Y-138426849D01*
X92061584Y-138480565D01*
X92079713Y-138508218D01*
X92080854Y-138510095D01*
X92078641Y-138536590D01*
X92061862Y-138588086D01*
X92033858Y-138654851D01*
X92023878Y-138676172D01*
X91980328Y-138771159D01*
X91933866Y-138878937D01*
X91896123Y-138972192D01*
X91868927Y-139041406D01*
X91847325Y-139094006D01*
X91834842Y-139121497D01*
X91833291Y-139123616D01*
X91810332Y-139127124D01*
X91756214Y-139136738D01*
X91678132Y-139151089D01*
X91583281Y-139168807D01*
X91478857Y-139188525D01*
X91372056Y-139208874D01*
X91270074Y-139228486D01*
X91180106Y-139245991D01*
X91109347Y-139260022D01*
X91064994Y-139269209D01*
X91054115Y-139271807D01*
X91042878Y-139278218D01*
X91034395Y-139292697D01*
X91028286Y-139320133D01*
X91024168Y-139365411D01*
X91021659Y-139433420D01*
X91020379Y-139529047D01*
X91019946Y-139657180D01*
X91019923Y-139709701D01*
X91019923Y-140136845D01*
X91122500Y-140157091D01*
X91179569Y-140168070D01*
X91264731Y-140184095D01*
X91367628Y-140203233D01*
X91477904Y-140223551D01*
X91508385Y-140229132D01*
X91610145Y-140248917D01*
X91698795Y-140268373D01*
X91766892Y-140285697D01*
X91806996Y-140299088D01*
X91813677Y-140303079D01*
X91830081Y-140331342D01*
X91853601Y-140386109D01*
X91879684Y-140456588D01*
X91884858Y-140471769D01*
X91919044Y-140565896D01*
X91961477Y-140672101D01*
X92003003Y-140767473D01*
X92003208Y-140767916D01*
X92072360Y-140917525D01*
X91617488Y-141586617D01*
X91909500Y-141879116D01*
X91997820Y-141966170D01*
X92078375Y-142042909D01*
X92146640Y-142105237D01*
X92198092Y-142149056D01*
X92228206Y-142170270D01*
X92232526Y-142171616D01*
X92257889Y-142161016D01*
X92309642Y-142131547D01*
X92382132Y-142086705D01*
X92469706Y-142029984D01*
X92564388Y-141966462D01*
X92660484Y-141901668D01*
X92746163Y-141845287D01*
X92815984Y-141800788D01*
X92864506Y-141771639D01*
X92886218Y-141761308D01*
X92912707Y-141770050D01*
X92962938Y-141793087D01*
X93026549Y-141825631D01*
X93033292Y-141829249D01*
X93118954Y-141872210D01*
X93177694Y-141893279D01*
X93214228Y-141893503D01*
X93233269Y-141873928D01*
X93233380Y-141873654D01*
X93242898Y-141850472D01*
X93265597Y-141795441D01*
X93299718Y-141712822D01*
X93343500Y-141606872D01*
X93395184Y-141481852D01*
X93453008Y-141342020D01*
X93509009Y-141206637D01*
X93570553Y-141057234D01*
X93627061Y-140918832D01*
X93676839Y-140795673D01*
X93718194Y-140692002D01*
X93749432Y-140612059D01*
X93768859Y-140560088D01*
X93774846Y-140540692D01*
X93759832Y-140518443D01*
X93720561Y-140482982D01*
X93668193Y-140443887D01*
X93519059Y-140320245D01*
X93402489Y-140178522D01*
X93319882Y-140021704D01*
X93272634Y-139852775D01*
X93262143Y-139674722D01*
X93269769Y-139592539D01*
X93311318Y-139422031D01*
X93382877Y-139271459D01*
X93480005Y-139142309D01*
X93598266Y-139036064D01*
X93733220Y-138954210D01*
X93880429Y-138898232D01*
X94035456Y-138869615D01*
X94193861Y-138869844D01*
X94351206Y-138900405D01*
X94503054Y-138962782D01*
X94644965Y-139058460D01*
X94704197Y-139112572D01*
X94817797Y-139251520D01*
X94896894Y-139403361D01*
X94942014Y-139563667D01*
X94953684Y-139728012D01*
X94932431Y-139891971D01*
X94878780Y-140051118D01*
X94793260Y-140201025D01*
X94676395Y-140337267D01*
X94545807Y-140443887D01*
X94491412Y-140484642D01*
X94452986Y-140519718D01*
X94439154Y-140540726D01*
X94446397Y-140563635D01*
X94466995Y-140618365D01*
X94499254Y-140700672D01*
X94541479Y-140806315D01*
X94591977Y-140931050D01*
X94649052Y-141070636D01*
X94705146Y-141206670D01*
X94767033Y-141356201D01*
X94824356Y-141494767D01*
X94875356Y-141618107D01*
X94918273Y-141721964D01*
X94951347Y-141802080D01*
X94972819Y-141854195D01*
X94980775Y-141873654D01*
X94999571Y-141893423D01*
X95035926Y-141893365D01*
X95094521Y-141872441D01*
X95180032Y-141829613D01*
X95180708Y-141829249D01*
X95245093Y-141796012D01*
X95297139Y-141771802D01*
X95326488Y-141761404D01*
X95327783Y-141761308D01*
X95349876Y-141771855D01*
X95398652Y-141801184D01*
X95468669Y-141845827D01*
X95554486Y-141902314D01*
X95649612Y-141966462D01*
X95746460Y-142031411D01*
X95833747Y-142087896D01*
X95905819Y-142132421D01*
X95957023Y-142161490D01*
X95981474Y-142171616D01*
X96003990Y-142158307D01*
X96049258Y-142121112D01*
X96112756Y-142064128D01*
X96189961Y-141991449D01*
X96276349Y-141907171D01*
X96304601Y-141879016D01*
X96596713Y-141586416D01*
X96374369Y-141260104D01*
X96306798Y-141159897D01*
X96247493Y-141069963D01*
X96199783Y-140995510D01*
X96166993Y-140941751D01*
X96152452Y-140913894D01*
X96152026Y-140911912D01*
X96159692Y-140885655D01*
X96180311Y-140832837D01*
X96210315Y-140762310D01*
X96231375Y-140715093D01*
X96270752Y-140624694D01*
X96307835Y-140533366D01*
X96336585Y-140456200D01*
X96344395Y-140432692D01*
X96366583Y-140369916D01*
X96388273Y-140321411D01*
X96400187Y-140303079D01*
X96426477Y-140291859D01*
X96483858Y-140275954D01*
X96564882Y-140257167D01*
X96662105Y-140237299D01*
X96705615Y-140229132D01*
X96816104Y-140208829D01*
X96922084Y-140189170D01*
X97013199Y-140172088D01*
X97079092Y-140159518D01*
X97091500Y-140157091D01*
X97194077Y-140136845D01*
X97194077Y-139709701D01*
X97193847Y-139569246D01*
X97192901Y-139462979D01*
X97190859Y-139386013D01*
X97187338Y-139333460D01*
X97181957Y-139300433D01*
X97174334Y-139282045D01*
X97164088Y-139273408D01*
X97159885Y-139271807D01*
X97134530Y-139266127D01*
X97078516Y-139254795D01*
X96999036Y-139239179D01*
X96903288Y-139220647D01*
X96798467Y-139200569D01*
X96691768Y-139180312D01*
X96590387Y-139161246D01*
X96501521Y-139144739D01*
X96432363Y-139132159D01*
X96390111Y-139124875D01*
X96380710Y-139123616D01*
X96372193Y-139106763D01*
X96353340Y-139061870D01*
X96327676Y-138997430D01*
X96317877Y-138972192D01*
X96278352Y-138874686D01*
X96231808Y-138766959D01*
X96190123Y-138676172D01*
X96159450Y-138606753D01*
X96139044Y-138549710D01*
X96132232Y-138514777D01*
X96133318Y-138510095D01*
X96147715Y-138487991D01*
X96180588Y-138438831D01*
X96228410Y-138367848D01*
X96287652Y-138280278D01*
X96354785Y-138181357D01*
X96368059Y-138161830D01*
X96445954Y-138046140D01*
X96503213Y-137958044D01*
X96542119Y-137893486D01*
X96564956Y-137848411D01*
X96574006Y-137818763D01*
X96571552Y-137800485D01*
X96571489Y-137800369D01*
X96552173Y-137776361D01*
X96509449Y-137729947D01*
X96447949Y-137665937D01*
X96372302Y-137589145D01*
X96287139Y-137504382D01*
X96277535Y-137494922D01*
X96170210Y-137390989D01*
X96087385Y-137314675D01*
X96027395Y-137264571D01*
X95988577Y-137239270D01*
X95971480Y-137236004D01*
X95946527Y-137250250D01*
X95894745Y-137283156D01*
X95821480Y-137331208D01*
X95732080Y-137390890D01*
X95631889Y-137458688D01*
X95608499Y-137474639D01*
X95276407Y-137701420D01*
X95126435Y-137633353D01*
X95035230Y-137593685D01*
X94937331Y-137553791D01*
X94853169Y-137521983D01*
X94849462Y-137520674D01*
X94783631Y-137496576D01*
X94732884Y-137476200D01*
X94708158Y-137463936D01*
X94708116Y-137463901D01*
X94700271Y-137441734D01*
X94686934Y-137387217D01*
X94669430Y-137306480D01*
X94649083Y-137205650D01*
X94627218Y-137090856D01*
X94625429Y-137081178D01*
X94603496Y-136962904D01*
X94583360Y-136855542D01*
X94566320Y-136765917D01*
X94553672Y-136700851D01*
X94546716Y-136667168D01*
X94546594Y-136666654D01*
X94542361Y-136652325D01*
X94534129Y-136641507D01*
X94516967Y-136633706D01*
X94485942Y-136628429D01*
X94436122Y-136625182D01*
X94362576Y-136623472D01*
X94260371Y-136622807D01*
X94124575Y-136622693D01*
X94107000Y-136622692D01*
X93967122Y-136622776D01*
G36*
X89861776Y-142982838D02*
G01*
X89784472Y-143033361D01*
X89747186Y-143078590D01*
X89717647Y-143160663D01*
X89715301Y-143225607D01*
X89720615Y-143312445D01*
X89920885Y-143400103D01*
X90018261Y-143444887D01*
X90081887Y-143480913D01*
X90114971Y-143512117D01*
X90120720Y-143542436D01*
X90102342Y-143575805D01*
X90082077Y-143597923D01*
X90023111Y-143633393D01*
X89958976Y-143635879D01*
X89900074Y-143608235D01*
X89856803Y-143553320D01*
X89849064Y-143533928D01*
X89811994Y-143473364D01*
X89769346Y-143447552D01*
X89710846Y-143425471D01*
X89710846Y-143509184D01*
X89716018Y-143566150D01*
X89736277Y-143614189D01*
X89778738Y-143669346D01*
X89785049Y-143676514D01*
X89832280Y-143725585D01*
X89872879Y-143751920D01*
X89923672Y-143764035D01*
X89965780Y-143768003D01*
X90041098Y-143768991D01*
X90094714Y-143756466D01*
X90128162Y-143737869D01*
X90180732Y-143696975D01*
X90217121Y-143652748D01*
X90240150Y-143597126D01*
X90252641Y-143522047D01*
X90257413Y-143419449D01*
X90257794Y-143367376D01*
X90256499Y-143304948D01*
X90138529Y-143304948D01*
X90137161Y-143338438D01*
X90133751Y-143343923D01*
X90111247Y-143336472D01*
X90062818Y-143316753D01*
X89998092Y-143288718D01*
X89984557Y-143282692D01*
X89902756Y-143241096D01*
X89857688Y-143204538D01*
X89847783Y-143170296D01*
X89871474Y-143135648D01*
X89891040Y-143120339D01*
X89961640Y-143089721D01*
X90027720Y-143094780D01*
X90083041Y-143132151D01*
X90121364Y-143198473D01*
X90133651Y-143251116D01*
X90138529Y-143304948D01*
X90256499Y-143304948D01*
X90255270Y-143245720D01*
X90245968Y-143155710D01*
X90227540Y-143090167D01*
X90197640Y-143041912D01*
X90153920Y-143003767D01*
X90134859Y-142991440D01*
X90048274Y-142959336D01*
X89953478Y-142957316D01*
X89861776Y-142982838D01*
G37*
X89861776Y-142982838D02*
X89784472Y-143033361D01*
X89747186Y-143078590D01*
X89717647Y-143160663D01*
X89715301Y-143225607D01*
X89720615Y-143312445D01*
X89920885Y-143400103D01*
X90018261Y-143444887D01*
X90081887Y-143480913D01*
X90114971Y-143512117D01*
X90120720Y-143542436D01*
X90102342Y-143575805D01*
X90082077Y-143597923D01*
X90023111Y-143633393D01*
X89958976Y-143635879D01*
X89900074Y-143608235D01*
X89856803Y-143553320D01*
X89849064Y-143533928D01*
X89811994Y-143473364D01*
X89769346Y-143447552D01*
X89710846Y-143425471D01*
X89710846Y-143509184D01*
X89716018Y-143566150D01*
X89736277Y-143614189D01*
X89778738Y-143669346D01*
X89785049Y-143676514D01*
X89832280Y-143725585D01*
X89872879Y-143751920D01*
X89923672Y-143764035D01*
X89965780Y-143768003D01*
X90041098Y-143768991D01*
X90094714Y-143756466D01*
X90128162Y-143737869D01*
X90180732Y-143696975D01*
X90217121Y-143652748D01*
X90240150Y-143597126D01*
X90252641Y-143522047D01*
X90257413Y-143419449D01*
X90257794Y-143367376D01*
X90256499Y-143304948D01*
X90138529Y-143304948D01*
X90137161Y-143338438D01*
X90133751Y-143343923D01*
X90111247Y-143336472D01*
X90062818Y-143316753D01*
X89998092Y-143288718D01*
X89984557Y-143282692D01*
X89902756Y-143241096D01*
X89857688Y-143204538D01*
X89847783Y-143170296D01*
X89871474Y-143135648D01*
X89891040Y-143120339D01*
X89961640Y-143089721D01*
X90027720Y-143094780D01*
X90083041Y-143132151D01*
X90121364Y-143198473D01*
X90133651Y-143251116D01*
X90138529Y-143304948D01*
X90256499Y-143304948D01*
X90255270Y-143245720D01*
X90245968Y-143155710D01*
X90227540Y-143090167D01*
X90197640Y-143041912D01*
X90153920Y-143003767D01*
X90134859Y-142991440D01*
X90048274Y-142959336D01*
X89953478Y-142957316D01*
X89861776Y-142982838D01*
G36*
X90536193Y-142971782D02*
G01*
X90512839Y-142981988D01*
X90457098Y-143026134D01*
X90409431Y-143089967D01*
X90379952Y-143158087D01*
X90375154Y-143191670D01*
X90391240Y-143238556D01*
X90426525Y-143263365D01*
X90464356Y-143278387D01*
X90481679Y-143281155D01*
X90490114Y-143261066D01*
X90506770Y-143217351D01*
X90514077Y-143197598D01*
X90555052Y-143129271D01*
X90614378Y-143095191D01*
X90690448Y-143096239D01*
X90696082Y-143097581D01*
X90736695Y-143116836D01*
X90766552Y-143154375D01*
X90786945Y-143214809D01*
X90799164Y-143302751D01*
X90804500Y-143422813D01*
X90805000Y-143486698D01*
X90805248Y-143587403D01*
X90806874Y-143656054D01*
X90811199Y-143699673D01*
X90819546Y-143725282D01*
X90833235Y-143739903D01*
X90853589Y-143750558D01*
X90854766Y-143751095D01*
X90893962Y-143767667D01*
X90913381Y-143773769D01*
X90916365Y-143755319D01*
X90918919Y-143704323D01*
X90920860Y-143627308D01*
X90922003Y-143530805D01*
X90922231Y-143460184D01*
X90921068Y-143323525D01*
X90916521Y-143219851D01*
X90907001Y-143143108D01*
X90890919Y-143087246D01*
X90866687Y-143046212D01*
X90832714Y-143013954D01*
X90799167Y-142991440D01*
X90718501Y-142961476D01*
X90624619Y-142954718D01*
X90536193Y-142971782D01*
G37*
X90536193Y-142971782D02*
X90512839Y-142981988D01*
X90457098Y-143026134D01*
X90409431Y-143089967D01*
X90379952Y-143158087D01*
X90375154Y-143191670D01*
X90391240Y-143238556D01*
X90426525Y-143263365D01*
X90464356Y-143278387D01*
X90481679Y-143281155D01*
X90490114Y-143261066D01*
X90506770Y-143217351D01*
X90514077Y-143197598D01*
X90555052Y-143129271D01*
X90614378Y-143095191D01*
X90690448Y-143096239D01*
X90696082Y-143097581D01*
X90736695Y-143116836D01*
X90766552Y-143154375D01*
X90786945Y-143214809D01*
X90799164Y-143302751D01*
X90804500Y-143422813D01*
X90805000Y-143486698D01*
X90805248Y-143587403D01*
X90806874Y-143656054D01*
X90811199Y-143699673D01*
X90819546Y-143725282D01*
X90833235Y-143739903D01*
X90853589Y-143750558D01*
X90854766Y-143751095D01*
X90893962Y-143767667D01*
X90913381Y-143773769D01*
X90916365Y-143755319D01*
X90918919Y-143704323D01*
X90920860Y-143627308D01*
X90922003Y-143530805D01*
X90922231Y-143460184D01*
X90921068Y-143323525D01*
X90916521Y-143219851D01*
X90907001Y-143143108D01*
X90890919Y-143087246D01*
X90866687Y-143046212D01*
X90832714Y-143013954D01*
X90799167Y-142991440D01*
X90718501Y-142961476D01*
X90624619Y-142954718D01*
X90536193Y-142971782D01*
G36*
X91219667Y-142968528D02*
G01*
X91163410Y-142994117D01*
X91119253Y-143025124D01*
X91086899Y-143059795D01*
X91064562Y-143104520D01*
X91050454Y-143165692D01*
X91042789Y-143249701D01*
X91039780Y-143362940D01*
X91039462Y-143437509D01*
X91039462Y-143728420D01*
X91089227Y-143751095D01*
X91128424Y-143767667D01*
X91147843Y-143773769D01*
X91151558Y-143755610D01*
X91154505Y-143706648D01*
X91156309Y-143635153D01*
X91156692Y-143578385D01*
X91158339Y-143496371D01*
X91162778Y-143431309D01*
X91169260Y-143391467D01*
X91174410Y-143383000D01*
X91209023Y-143391646D01*
X91263360Y-143413823D01*
X91326278Y-143443886D01*
X91386632Y-143476192D01*
X91433279Y-143505098D01*
X91455074Y-143524961D01*
X91455161Y-143525175D01*
X91453286Y-143561935D01*
X91436475Y-143597026D01*
X91406961Y-143625528D01*
X91363884Y-143635061D01*
X91327068Y-143633950D01*
X91274926Y-143633133D01*
X91247556Y-143645349D01*
X91231118Y-143677624D01*
X91229045Y-143683710D01*
X91221919Y-143729739D01*
X91240976Y-143757687D01*
X91290647Y-143771007D01*
X91344303Y-143773470D01*
X91440858Y-143755210D01*
X91490841Y-143729131D01*
X91552571Y-143667868D01*
X91585310Y-143592670D01*
X91588247Y-143513211D01*
X91560576Y-143439167D01*
X91518953Y-143392769D01*
X91477396Y-143366793D01*
X91412078Y-143333907D01*
X91335962Y-143300557D01*
X91323274Y-143295461D01*
X91239667Y-143258565D01*
X91191470Y-143226046D01*
X91175970Y-143193718D01*
X91190450Y-143157394D01*
X91215308Y-143129000D01*
X91274061Y-143094039D01*
X91338707Y-143091417D01*
X91397992Y-143118358D01*
X91440661Y-143172088D01*
X91446261Y-143185950D01*
X91478867Y-143236936D01*
X91526470Y-143274787D01*
X91586539Y-143305850D01*
X91586539Y-143217768D01*
X91583003Y-143163951D01*
X91567844Y-143121534D01*
X91534232Y-143076279D01*
X91501965Y-143041420D01*
X91451791Y-142992062D01*
X91412807Y-142965547D01*
X91370936Y-142954911D01*
X91323540Y-142953154D01*
X91219667Y-142968528D01*
G37*
X91219667Y-142968528D02*
X91163410Y-142994117D01*
X91119253Y-143025124D01*
X91086899Y-143059795D01*
X91064562Y-143104520D01*
X91050454Y-143165692D01*
X91042789Y-143249701D01*
X91039780Y-143362940D01*
X91039462Y-143437509D01*
X91039462Y-143728420D01*
X91089227Y-143751095D01*
X91128424Y-143767667D01*
X91147843Y-143773769D01*
X91151558Y-143755610D01*
X91154505Y-143706648D01*
X91156309Y-143635153D01*
X91156692Y-143578385D01*
X91158339Y-143496371D01*
X91162778Y-143431309D01*
X91169260Y-143391467D01*
X91174410Y-143383000D01*
X91209023Y-143391646D01*
X91263360Y-143413823D01*
X91326278Y-143443886D01*
X91386632Y-143476192D01*
X91433279Y-143505098D01*
X91455074Y-143524961D01*
X91455161Y-143525175D01*
X91453286Y-143561935D01*
X91436475Y-143597026D01*
X91406961Y-143625528D01*
X91363884Y-143635061D01*
X91327068Y-143633950D01*
X91274926Y-143633133D01*
X91247556Y-143645349D01*
X91231118Y-143677624D01*
X91229045Y-143683710D01*
X91221919Y-143729739D01*
X91240976Y-143757687D01*
X91290647Y-143771007D01*
X91344303Y-143773470D01*
X91440858Y-143755210D01*
X91490841Y-143729131D01*
X91552571Y-143667868D01*
X91585310Y-143592670D01*
X91588247Y-143513211D01*
X91560576Y-143439167D01*
X91518953Y-143392769D01*
X91477396Y-143366793D01*
X91412078Y-143333907D01*
X91335962Y-143300557D01*
X91323274Y-143295461D01*
X91239667Y-143258565D01*
X91191470Y-143226046D01*
X91175970Y-143193718D01*
X91190450Y-143157394D01*
X91215308Y-143129000D01*
X91274061Y-143094039D01*
X91338707Y-143091417D01*
X91397992Y-143118358D01*
X91440661Y-143172088D01*
X91446261Y-143185950D01*
X91478867Y-143236936D01*
X91526470Y-143274787D01*
X91586539Y-143305850D01*
X91586539Y-143217768D01*
X91583003Y-143163951D01*
X91567844Y-143121534D01*
X91534232Y-143076279D01*
X91501965Y-143041420D01*
X91451791Y-142992062D01*
X91412807Y-142965547D01*
X91370936Y-142954911D01*
X91323540Y-142953154D01*
X91219667Y-142968528D01*
G36*
X91711071Y-142971662D02*
G01*
X91708089Y-143023068D01*
X91705753Y-143101192D01*
X91704251Y-143199857D01*
X91703769Y-143303343D01*
X91703769Y-143653533D01*
X91765599Y-143715363D01*
X91808207Y-143753462D01*
X91845610Y-143768895D01*
X91896730Y-143767918D01*
X91917022Y-143765433D01*
X91980446Y-143758200D01*
X92032905Y-143754055D01*
X92045692Y-143753672D01*
X92088801Y-143756176D01*
X92150456Y-143762462D01*
X92174362Y-143765433D01*
X92233078Y-143770028D01*
X92272536Y-143760046D01*
X92311662Y-143729228D01*
X92325785Y-143715363D01*
X92387615Y-143653533D01*
X92387615Y-142998503D01*
X92337850Y-142975829D01*
X92294998Y-142959034D01*
X92269927Y-142953154D01*
X92263499Y-142971736D01*
X92257491Y-143023655D01*
X92252303Y-143103172D01*
X92248336Y-143204546D01*
X92246423Y-143290192D01*
X92241077Y-143627231D01*
X92194440Y-143633825D01*
X92152024Y-143629214D01*
X92131240Y-143614287D01*
X92125430Y-143586377D01*
X92120470Y-143526925D01*
X92116754Y-143443466D01*
X92114676Y-143343532D01*
X92114376Y-143292104D01*
X92114077Y-142996054D01*
X92052546Y-142974604D01*
X92008996Y-142960020D01*
X91985306Y-142953219D01*
X91984623Y-142953154D01*
X91982246Y-142971642D01*
X91979634Y-143022906D01*
X91977005Y-143100649D01*
X91974579Y-143198574D01*
X91972885Y-143290192D01*
X91967539Y-143627231D01*
X91850308Y-143627231D01*
X91844928Y-143319746D01*
X91839549Y-143012261D01*
X91782399Y-142982707D01*
X91740203Y-142962413D01*
X91715230Y-142953204D01*
X91714509Y-142953154D01*
X91711071Y-142971662D01*
G37*
X91711071Y-142971662D02*
X91708089Y-143023068D01*
X91705753Y-143101192D01*
X91704251Y-143199857D01*
X91703769Y-143303343D01*
X91703769Y-143653533D01*
X91765599Y-143715363D01*
X91808207Y-143753462D01*
X91845610Y-143768895D01*
X91896730Y-143767918D01*
X91917022Y-143765433D01*
X91980446Y-143758200D01*
X92032905Y-143754055D01*
X92045692Y-143753672D01*
X92088801Y-143756176D01*
X92150456Y-143762462D01*
X92174362Y-143765433D01*
X92233078Y-143770028D01*
X92272536Y-143760046D01*
X92311662Y-143729228D01*
X92325785Y-143715363D01*
X92387615Y-143653533D01*
X92387615Y-142998503D01*
X92337850Y-142975829D01*
X92294998Y-142959034D01*
X92269927Y-142953154D01*
X92263499Y-142971736D01*
X92257491Y-143023655D01*
X92252303Y-143103172D01*
X92248336Y-143204546D01*
X92246423Y-143290192D01*
X92241077Y-143627231D01*
X92194440Y-143633825D01*
X92152024Y-143629214D01*
X92131240Y-143614287D01*
X92125430Y-143586377D01*
X92120470Y-143526925D01*
X92116754Y-143443466D01*
X92114676Y-143343532D01*
X92114376Y-143292104D01*
X92114077Y-142996054D01*
X92052546Y-142974604D01*
X92008996Y-142960020D01*
X91985306Y-142953219D01*
X91984623Y-142953154D01*
X91982246Y-142971642D01*
X91979634Y-143022906D01*
X91977005Y-143100649D01*
X91974579Y-143198574D01*
X91972885Y-143290192D01*
X91967539Y-143627231D01*
X91850308Y-143627231D01*
X91844928Y-143319746D01*
X91839549Y-143012261D01*
X91782399Y-142982707D01*
X91740203Y-142962413D01*
X91715230Y-142953204D01*
X91714509Y-142953154D01*
X91711071Y-142971662D01*
G36*
X92504919Y-143115289D02*
G01*
X92505167Y-143261320D01*
X92506128Y-143373655D01*
X92508206Y-143457678D01*
X92511807Y-143518769D01*
X92517335Y-143562309D01*
X92525196Y-143593679D01*
X92535793Y-143618262D01*
X92543818Y-143632294D01*
X92610272Y-143708388D01*
X92694530Y-143756084D01*
X92787751Y-143773199D01*
X92881100Y-143757546D01*
X92936688Y-143729418D01*
X92995043Y-143680760D01*
X93034814Y-143621333D01*
X93058810Y-143543507D01*
X93069839Y-143439652D01*
X93071401Y-143363462D01*
X93071191Y-143357986D01*
X92934692Y-143357986D01*
X92933859Y-143445355D01*
X92930039Y-143503192D01*
X92921254Y-143541029D01*
X92905526Y-143568398D01*
X92886734Y-143589042D01*
X92823625Y-143628890D01*
X92755863Y-143632295D01*
X92691821Y-143599025D01*
X92686836Y-143594517D01*
X92665561Y-143571067D01*
X92652221Y-143543166D01*
X92644999Y-143501641D01*
X92642077Y-143437316D01*
X92641615Y-143366200D01*
X92642617Y-143276858D01*
X92646762Y-143217258D01*
X92655764Y-143178089D01*
X92671333Y-143150040D01*
X92684098Y-143135144D01*
X92743400Y-143097575D01*
X92811699Y-143093057D01*
X92876890Y-143121753D01*
X92889472Y-143132406D01*
X92910889Y-143156063D01*
X92924256Y-143184251D01*
X92931434Y-143226245D01*
X92934281Y-143291319D01*
X92934692Y-143357986D01*
X93071191Y-143357986D01*
X93066678Y-143240765D01*
X93050638Y-143148577D01*
X93020472Y-143079269D01*
X92973371Y-143025211D01*
X92936688Y-142997505D01*
X92870010Y-142967572D01*
X92792728Y-142953678D01*
X92720890Y-142957397D01*
X92680692Y-142972400D01*
X92664918Y-142976670D01*
X92654450Y-142960750D01*
X92647144Y-142918089D01*
X92641615Y-142853106D01*
X92635563Y-142780732D01*
X92627156Y-142737187D01*
X92611859Y-142712287D01*
X92585136Y-142695845D01*
X92568346Y-142688564D01*
X92504846Y-142661963D01*
X92504919Y-143115289D01*
G37*
X92504919Y-143115289D02*
X92505167Y-143261320D01*
X92506128Y-143373655D01*
X92508206Y-143457678D01*
X92511807Y-143518769D01*
X92517335Y-143562309D01*
X92525196Y-143593679D01*
X92535793Y-143618262D01*
X92543818Y-143632294D01*
X92610272Y-143708388D01*
X92694530Y-143756084D01*
X92787751Y-143773199D01*
X92881100Y-143757546D01*
X92936688Y-143729418D01*
X92995043Y-143680760D01*
X93034814Y-143621333D01*
X93058810Y-143543507D01*
X93069839Y-143439652D01*
X93071401Y-143363462D01*
X93071191Y-143357986D01*
X92934692Y-143357986D01*
X92933859Y-143445355D01*
X92930039Y-143503192D01*
X92921254Y-143541029D01*
X92905526Y-143568398D01*
X92886734Y-143589042D01*
X92823625Y-143628890D01*
X92755863Y-143632295D01*
X92691821Y-143599025D01*
X92686836Y-143594517D01*
X92665561Y-143571067D01*
X92652221Y-143543166D01*
X92644999Y-143501641D01*
X92642077Y-143437316D01*
X92641615Y-143366200D01*
X92642617Y-143276858D01*
X92646762Y-143217258D01*
X92655764Y-143178089D01*
X92671333Y-143150040D01*
X92684098Y-143135144D01*
X92743400Y-143097575D01*
X92811699Y-143093057D01*
X92876890Y-143121753D01*
X92889472Y-143132406D01*
X92910889Y-143156063D01*
X92924256Y-143184251D01*
X92931434Y-143226245D01*
X92934281Y-143291319D01*
X92934692Y-143357986D01*
X93071191Y-143357986D01*
X93066678Y-143240765D01*
X93050638Y-143148577D01*
X93020472Y-143079269D01*
X92973371Y-143025211D01*
X92936688Y-142997505D01*
X92870010Y-142967572D01*
X92792728Y-142953678D01*
X92720890Y-142957397D01*
X92680692Y-142972400D01*
X92664918Y-142976670D01*
X92654450Y-142960750D01*
X92647144Y-142918089D01*
X92641615Y-142853106D01*
X92635563Y-142780732D01*
X92627156Y-142737187D01*
X92611859Y-142712287D01*
X92585136Y-142695845D01*
X92568346Y-142688564D01*
X92504846Y-142661963D01*
X92504919Y-143115289D01*
G36*
X93393638Y-142959670D02*
G01*
X93304883Y-142992421D01*
X93232978Y-143050350D01*
X93204856Y-143091128D01*
X93174198Y-143165954D01*
X93174835Y-143220058D01*
X93207013Y-143256446D01*
X93218919Y-143262633D01*
X93270325Y-143281925D01*
X93296578Y-143276982D01*
X93305470Y-143244587D01*
X93305923Y-143226692D01*
X93322203Y-143160859D01*
X93364635Y-143114807D01*
X93423612Y-143092564D01*
X93489525Y-143098161D01*
X93543105Y-143127229D01*
X93561202Y-143143810D01*
X93574029Y-143163925D01*
X93582694Y-143194332D01*
X93588304Y-143241788D01*
X93591965Y-143313050D01*
X93594785Y-143414875D01*
X93595516Y-143447115D01*
X93598180Y-143557410D01*
X93601208Y-143635036D01*
X93605750Y-143686396D01*
X93612954Y-143717890D01*
X93623967Y-143735920D01*
X93639940Y-143746888D01*
X93650166Y-143751733D01*
X93693594Y-143768301D01*
X93719158Y-143773769D01*
X93727605Y-143755507D01*
X93732761Y-143700296D01*
X93734654Y-143607499D01*
X93733311Y-143476478D01*
X93732893Y-143456269D01*
X93729942Y-143336733D01*
X93726452Y-143249449D01*
X93721486Y-143187591D01*
X93714107Y-143144336D01*
X93703376Y-143112860D01*
X93688355Y-143086339D01*
X93680498Y-143074975D01*
X93635447Y-143024692D01*
X93585060Y-142985581D01*
X93578892Y-142982167D01*
X93488542Y-142955212D01*
X93393638Y-142959670D01*
G37*
X93393638Y-142959670D02*
X93304883Y-142992421D01*
X93232978Y-143050350D01*
X93204856Y-143091128D01*
X93174198Y-143165954D01*
X93174835Y-143220058D01*
X93207013Y-143256446D01*
X93218919Y-143262633D01*
X93270325Y-143281925D01*
X93296578Y-143276982D01*
X93305470Y-143244587D01*
X93305923Y-143226692D01*
X93322203Y-143160859D01*
X93364635Y-143114807D01*
X93423612Y-143092564D01*
X93489525Y-143098161D01*
X93543105Y-143127229D01*
X93561202Y-143143810D01*
X93574029Y-143163925D01*
X93582694Y-143194332D01*
X93588304Y-143241788D01*
X93591965Y-143313050D01*
X93594785Y-143414875D01*
X93595516Y-143447115D01*
X93598180Y-143557410D01*
X93601208Y-143635036D01*
X93605750Y-143686396D01*
X93612954Y-143717890D01*
X93623967Y-143735920D01*
X93639940Y-143746888D01*
X93650166Y-143751733D01*
X93693594Y-143768301D01*
X93719158Y-143773769D01*
X93727605Y-143755507D01*
X93732761Y-143700296D01*
X93734654Y-143607499D01*
X93733311Y-143476478D01*
X93732893Y-143456269D01*
X93729942Y-143336733D01*
X93726452Y-143249449D01*
X93721486Y-143187591D01*
X93714107Y-143144336D01*
X93703376Y-143112860D01*
X93688355Y-143086339D01*
X93680498Y-143074975D01*
X93635447Y-143024692D01*
X93585060Y-142985581D01*
X93578892Y-142982167D01*
X93488542Y-142955212D01*
X93393638Y-142959670D01*
G36*
X94053499Y-142961303D02*
G01*
X93976940Y-142989733D01*
X93976064Y-142990279D01*
X93928715Y-143025127D01*
X93893759Y-143065852D01*
X93869175Y-143118925D01*
X93852938Y-143190814D01*
X93843025Y-143287992D01*
X93837414Y-143416928D01*
X93836923Y-143435298D01*
X93829859Y-143712287D01*
X93889305Y-143743028D01*
X93932319Y-143763802D01*
X93958290Y-143773646D01*
X93959491Y-143773769D01*
X93963986Y-143755606D01*
X93967556Y-143706612D01*
X93969752Y-143635031D01*
X93970231Y-143577068D01*
X93970242Y-143483170D01*
X93974534Y-143424203D01*
X93989497Y-143396079D01*
X94021518Y-143394706D01*
X94076986Y-143415998D01*
X94160731Y-143455136D01*
X94222311Y-143487643D01*
X94253983Y-143515845D01*
X94263294Y-143546582D01*
X94263308Y-143548104D01*
X94247943Y-143601054D01*
X94202453Y-143629660D01*
X94132834Y-143633803D01*
X94082687Y-143633084D01*
X94056246Y-143647527D01*
X94039757Y-143682218D01*
X94030267Y-143726416D01*
X94043943Y-143751493D01*
X94049093Y-143755082D01*
X94097575Y-143769496D01*
X94165469Y-143771537D01*
X94235388Y-143761983D01*
X94284932Y-143744522D01*
X94353430Y-143686364D01*
X94392366Y-143605408D01*
X94400077Y-143542160D01*
X94394193Y-143485111D01*
X94372899Y-143438542D01*
X94330735Y-143397181D01*
X94262241Y-143355755D01*
X94161956Y-143308993D01*
X94155846Y-143306350D01*
X94065510Y-143264617D01*
X94009765Y-143230391D01*
X93985871Y-143199635D01*
X93991087Y-143168311D01*
X94022672Y-143132383D01*
X94032117Y-143124116D01*
X94095383Y-143092058D01*
X94160936Y-143093407D01*
X94218028Y-143124838D01*
X94255907Y-143183024D01*
X94259426Y-143194446D01*
X94293700Y-143249837D01*
X94337191Y-143276518D01*
X94400077Y-143302960D01*
X94400077Y-143234548D01*
X94380948Y-143135110D01*
X94324169Y-143043902D01*
X94294622Y-143013389D01*
X94227458Y-142974228D01*
X94142044Y-142956500D01*
X94053499Y-142961303D01*
G37*
X94053499Y-142961303D02*
X93976940Y-142989733D01*
X93976064Y-142990279D01*
X93928715Y-143025127D01*
X93893759Y-143065852D01*
X93869175Y-143118925D01*
X93852938Y-143190814D01*
X93843025Y-143287992D01*
X93837414Y-143416928D01*
X93836923Y-143435298D01*
X93829859Y-143712287D01*
X93889305Y-143743028D01*
X93932319Y-143763802D01*
X93958290Y-143773646D01*
X93959491Y-143773769D01*
X93963986Y-143755606D01*
X93967556Y-143706612D01*
X93969752Y-143635031D01*
X93970231Y-143577068D01*
X93970242Y-143483170D01*
X93974534Y-143424203D01*
X93989497Y-143396079D01*
X94021518Y-143394706D01*
X94076986Y-143415998D01*
X94160731Y-143455136D01*
X94222311Y-143487643D01*
X94253983Y-143515845D01*
X94263294Y-143546582D01*
X94263308Y-143548104D01*
X94247943Y-143601054D01*
X94202453Y-143629660D01*
X94132834Y-143633803D01*
X94082687Y-143633084D01*
X94056246Y-143647527D01*
X94039757Y-143682218D01*
X94030267Y-143726416D01*
X94043943Y-143751493D01*
X94049093Y-143755082D01*
X94097575Y-143769496D01*
X94165469Y-143771537D01*
X94235388Y-143761983D01*
X94284932Y-143744522D01*
X94353430Y-143686364D01*
X94392366Y-143605408D01*
X94400077Y-143542160D01*
X94394193Y-143485111D01*
X94372899Y-143438542D01*
X94330735Y-143397181D01*
X94262241Y-143355755D01*
X94161956Y-143308993D01*
X94155846Y-143306350D01*
X94065510Y-143264617D01*
X94009765Y-143230391D01*
X93985871Y-143199635D01*
X93991087Y-143168311D01*
X94022672Y-143132383D01*
X94032117Y-143124116D01*
X94095383Y-143092058D01*
X94160936Y-143093407D01*
X94218028Y-143124838D01*
X94255907Y-143183024D01*
X94259426Y-143194446D01*
X94293700Y-143249837D01*
X94337191Y-143276518D01*
X94400077Y-143302960D01*
X94400077Y-143234548D01*
X94380948Y-143135110D01*
X94324169Y-143043902D01*
X94294622Y-143013389D01*
X94227458Y-142974228D01*
X94142044Y-142956500D01*
X94053499Y-142961303D01*
G36*
X94947154Y-142827120D02*
G01*
X94941428Y-142906980D01*
X94934851Y-142954039D01*
X94925738Y-142974566D01*
X94912402Y-142974829D01*
X94908077Y-142972378D01*
X94850556Y-142954636D01*
X94775732Y-142955672D01*
X94699661Y-142973910D01*
X94652082Y-142997505D01*
X94603298Y-143035198D01*
X94567636Y-143077855D01*
X94543155Y-143132057D01*
X94527913Y-143204384D01*
X94519970Y-143301419D01*
X94517384Y-143429742D01*
X94517338Y-143454358D01*
X94517308Y-143730870D01*
X94578839Y-143752320D01*
X94622541Y-143766912D01*
X94646518Y-143773706D01*
X94647223Y-143773769D01*
X94649585Y-143755345D01*
X94651594Y-143704526D01*
X94653099Y-143627993D01*
X94653947Y-143532430D01*
X94654077Y-143474329D01*
X94654349Y-143359771D01*
X94655748Y-143277667D01*
X94659151Y-143221393D01*
X94665433Y-143184326D01*
X94675471Y-143159844D01*
X94690139Y-143141325D01*
X94699298Y-143132406D01*
X94762211Y-143096466D01*
X94830864Y-143093775D01*
X94893152Y-143124170D01*
X94904671Y-143135144D01*
X94921567Y-143155779D01*
X94933286Y-143180256D01*
X94940767Y-143215647D01*
X94944946Y-143269026D01*
X94946763Y-143347466D01*
X94947154Y-143455617D01*
X94947154Y-143730870D01*
X95008685Y-143752320D01*
X95052387Y-143766912D01*
X95076364Y-143773706D01*
X95077070Y-143773769D01*
X95078874Y-143755069D01*
X95080500Y-143702322D01*
X95081883Y-143620557D01*
X95082958Y-143514805D01*
X95083660Y-143390094D01*
X95083923Y-143251455D01*
X95083923Y-142716806D01*
X94956923Y-142663236D01*
X94947154Y-142827120D01*
G37*
X94947154Y-142827120D02*
X94941428Y-142906980D01*
X94934851Y-142954039D01*
X94925738Y-142974566D01*
X94912402Y-142974829D01*
X94908077Y-142972378D01*
X94850556Y-142954636D01*
X94775732Y-142955672D01*
X94699661Y-142973910D01*
X94652082Y-142997505D01*
X94603298Y-143035198D01*
X94567636Y-143077855D01*
X94543155Y-143132057D01*
X94527913Y-143204384D01*
X94519970Y-143301419D01*
X94517384Y-143429742D01*
X94517338Y-143454358D01*
X94517308Y-143730870D01*
X94578839Y-143752320D01*
X94622541Y-143766912D01*
X94646518Y-143773706D01*
X94647223Y-143773769D01*
X94649585Y-143755345D01*
X94651594Y-143704526D01*
X94653099Y-143627993D01*
X94653947Y-143532430D01*
X94654077Y-143474329D01*
X94654349Y-143359771D01*
X94655748Y-143277667D01*
X94659151Y-143221393D01*
X94665433Y-143184326D01*
X94675471Y-143159844D01*
X94690139Y-143141325D01*
X94699298Y-143132406D01*
X94762211Y-143096466D01*
X94830864Y-143093775D01*
X94893152Y-143124170D01*
X94904671Y-143135144D01*
X94921567Y-143155779D01*
X94933286Y-143180256D01*
X94940767Y-143215647D01*
X94944946Y-143269026D01*
X94946763Y-143347466D01*
X94947154Y-143455617D01*
X94947154Y-143730870D01*
X95008685Y-143752320D01*
X95052387Y-143766912D01*
X95076364Y-143773706D01*
X95077070Y-143773769D01*
X95078874Y-143755069D01*
X95080500Y-143702322D01*
X95081883Y-143620557D01*
X95082958Y-143514805D01*
X95083660Y-143390094D01*
X95083923Y-143251455D01*
X95083923Y-142716806D01*
X94956923Y-142663236D01*
X94947154Y-142827120D01*
G36*
X96572746Y-142934745D02*
G01*
X96495714Y-142986567D01*
X96436184Y-143061412D01*
X96400622Y-143156654D01*
X96393429Y-143226756D01*
X96394246Y-143256009D01*
X96401086Y-143278407D01*
X96419888Y-143298474D01*
X96456592Y-143320733D01*
X96517138Y-143349709D01*
X96607466Y-143389927D01*
X96607923Y-143390129D01*
X96691067Y-143428210D01*
X96759247Y-143462025D01*
X96805495Y-143487933D01*
X96822842Y-143502295D01*
X96822846Y-143502411D01*
X96807557Y-143533685D01*
X96771804Y-143568157D01*
X96730758Y-143592990D01*
X96709963Y-143597923D01*
X96653230Y-143580862D01*
X96604373Y-143538133D01*
X96580535Y-143491155D01*
X96557603Y-143456522D01*
X96512682Y-143417081D01*
X96459877Y-143383009D01*
X96413290Y-143364480D01*
X96403548Y-143363462D01*
X96392582Y-143380215D01*
X96391921Y-143423039D01*
X96399980Y-143480781D01*
X96415173Y-143542289D01*
X96435914Y-143596409D01*
X96436962Y-143598510D01*
X96499379Y-143685660D01*
X96580274Y-143744939D01*
X96672144Y-143774034D01*
X96767487Y-143770634D01*
X96858802Y-143732428D01*
X96862862Y-143729741D01*
X96934694Y-143664642D01*
X96981927Y-143579705D01*
X97008066Y-143468021D01*
X97011574Y-143436643D01*
X97017787Y-143288536D01*
X97010339Y-143219468D01*
X96822846Y-143219468D01*
X96820410Y-143262552D01*
X96807086Y-143275126D01*
X96773868Y-143265719D01*
X96721506Y-143243483D01*
X96662976Y-143215610D01*
X96661521Y-143214872D01*
X96611911Y-143188777D01*
X96592000Y-143171363D01*
X96596910Y-143153107D01*
X96617584Y-143129120D01*
X96670181Y-143094406D01*
X96726823Y-143091856D01*
X96777631Y-143117119D01*
X96812724Y-143165847D01*
X96822846Y-143219468D01*
X97010339Y-143219468D01*
X97005008Y-143170036D01*
X96972222Y-143076055D01*
X96926579Y-143010215D01*
X96844198Y-142943681D01*
X96753454Y-142910676D01*
X96660815Y-142908573D01*
X96572746Y-142934745D01*
G37*
X96572746Y-142934745D02*
X96495714Y-142986567D01*
X96436184Y-143061412D01*
X96400622Y-143156654D01*
X96393429Y-143226756D01*
X96394246Y-143256009D01*
X96401086Y-143278407D01*
X96419888Y-143298474D01*
X96456592Y-143320733D01*
X96517138Y-143349709D01*
X96607466Y-143389927D01*
X96607923Y-143390129D01*
X96691067Y-143428210D01*
X96759247Y-143462025D01*
X96805495Y-143487933D01*
X96822842Y-143502295D01*
X96822846Y-143502411D01*
X96807557Y-143533685D01*
X96771804Y-143568157D01*
X96730758Y-143592990D01*
X96709963Y-143597923D01*
X96653230Y-143580862D01*
X96604373Y-143538133D01*
X96580535Y-143491155D01*
X96557603Y-143456522D01*
X96512682Y-143417081D01*
X96459877Y-143383009D01*
X96413290Y-143364480D01*
X96403548Y-143363462D01*
X96392582Y-143380215D01*
X96391921Y-143423039D01*
X96399980Y-143480781D01*
X96415173Y-143542289D01*
X96435914Y-143596409D01*
X96436962Y-143598510D01*
X96499379Y-143685660D01*
X96580274Y-143744939D01*
X96672144Y-143774034D01*
X96767487Y-143770634D01*
X96858802Y-143732428D01*
X96862862Y-143729741D01*
X96934694Y-143664642D01*
X96981927Y-143579705D01*
X97008066Y-143468021D01*
X97011574Y-143436643D01*
X97017787Y-143288536D01*
X97010339Y-143219468D01*
X96822846Y-143219468D01*
X96820410Y-143262552D01*
X96807086Y-143275126D01*
X96773868Y-143265719D01*
X96721506Y-143243483D01*
X96662976Y-143215610D01*
X96661521Y-143214872D01*
X96611911Y-143188777D01*
X96592000Y-143171363D01*
X96596910Y-143153107D01*
X96617584Y-143129120D01*
X96670181Y-143094406D01*
X96726823Y-143091856D01*
X96777631Y-143117119D01*
X96812724Y-143165847D01*
X96822846Y-143219468D01*
X97010339Y-143219468D01*
X97005008Y-143170036D01*
X96972222Y-143076055D01*
X96926579Y-143010215D01*
X96844198Y-142943681D01*
X96753454Y-142910676D01*
X96660815Y-142908573D01*
X96572746Y-142934745D01*
G36*
X98090114Y-142922256D02*
G01*
X97998536Y-142970409D01*
X97930951Y-143047905D01*
X97906943Y-143097727D01*
X97888262Y-143172533D01*
X97878699Y-143267052D01*
X97877792Y-143370210D01*
X97885079Y-143470935D01*
X97900097Y-143558153D01*
X97922385Y-143620791D01*
X97929235Y-143631579D01*
X98010368Y-143712105D01*
X98106734Y-143760336D01*
X98211299Y-143774450D01*
X98317032Y-143752629D01*
X98346457Y-143739547D01*
X98403759Y-143699231D01*
X98454050Y-143645775D01*
X98458803Y-143638995D01*
X98478122Y-143606321D01*
X98490892Y-143571394D01*
X98498436Y-143525414D01*
X98502076Y-143459584D01*
X98503135Y-143365105D01*
X98503154Y-143343923D01*
X98503106Y-143337182D01*
X98307769Y-143337182D01*
X98306632Y-143426349D01*
X98302159Y-143485520D01*
X98292754Y-143523741D01*
X98276824Y-143550053D01*
X98268692Y-143558846D01*
X98221942Y-143592261D01*
X98176553Y-143590737D01*
X98130660Y-143561752D01*
X98103288Y-143530809D01*
X98087077Y-143485643D01*
X98077974Y-143414420D01*
X98077349Y-143406114D01*
X98075796Y-143277037D01*
X98092035Y-143181172D01*
X98125848Y-143119107D01*
X98177016Y-143091432D01*
X98195280Y-143089923D01*
X98243240Y-143097513D01*
X98276047Y-143123808D01*
X98296105Y-143174095D01*
X98305822Y-143253664D01*
X98307769Y-143337182D01*
X98503106Y-143337182D01*
X98502426Y-143243249D01*
X98499371Y-143172906D01*
X98492678Y-143124163D01*
X98481040Y-143088288D01*
X98463147Y-143056548D01*
X98459192Y-143050648D01*
X98392733Y-142971104D01*
X98320315Y-142924929D01*
X98232151Y-142906599D01*
X98202213Y-142905703D01*
X98090114Y-142922256D01*
G37*
X98090114Y-142922256D02*
X97998536Y-142970409D01*
X97930951Y-143047905D01*
X97906943Y-143097727D01*
X97888262Y-143172533D01*
X97878699Y-143267052D01*
X97877792Y-143370210D01*
X97885079Y-143470935D01*
X97900097Y-143558153D01*
X97922385Y-143620791D01*
X97929235Y-143631579D01*
X98010368Y-143712105D01*
X98106734Y-143760336D01*
X98211299Y-143774450D01*
X98317032Y-143752629D01*
X98346457Y-143739547D01*
X98403759Y-143699231D01*
X98454050Y-143645775D01*
X98458803Y-143638995D01*
X98478122Y-143606321D01*
X98490892Y-143571394D01*
X98498436Y-143525414D01*
X98502076Y-143459584D01*
X98503135Y-143365105D01*
X98503154Y-143343923D01*
X98503106Y-143337182D01*
X98307769Y-143337182D01*
X98306632Y-143426349D01*
X98302159Y-143485520D01*
X98292754Y-143523741D01*
X98276824Y-143550053D01*
X98268692Y-143558846D01*
X98221942Y-143592261D01*
X98176553Y-143590737D01*
X98130660Y-143561752D01*
X98103288Y-143530809D01*
X98087077Y-143485643D01*
X98077974Y-143414420D01*
X98077349Y-143406114D01*
X98075796Y-143277037D01*
X98092035Y-143181172D01*
X98125848Y-143119107D01*
X98177016Y-143091432D01*
X98195280Y-143089923D01*
X98243240Y-143097513D01*
X98276047Y-143123808D01*
X98296105Y-143174095D01*
X98305822Y-143253664D01*
X98307769Y-143337182D01*
X98503106Y-143337182D01*
X98502426Y-143243249D01*
X98499371Y-143172906D01*
X98492678Y-143124163D01*
X98481040Y-143088288D01*
X98463147Y-143056548D01*
X98459192Y-143050648D01*
X98392733Y-142971104D01*
X98320315Y-142924929D01*
X98232151Y-142906599D01*
X98202213Y-142905703D01*
X98090114Y-142922256D01*
G36*
X95835336Y-142930089D02*
G01*
X95772633Y-142966358D01*
X95729039Y-143002358D01*
X95697155Y-143040075D01*
X95675190Y-143086199D01*
X95661351Y-143147421D01*
X95653847Y-143230431D01*
X95650883Y-143341919D01*
X95650539Y-143422062D01*
X95650539Y-143717065D01*
X95816615Y-143791515D01*
X95826385Y-143468402D01*
X95830421Y-143347729D01*
X95834656Y-143260141D01*
X95839903Y-143199650D01*
X95846975Y-143160268D01*
X95856689Y-143136007D01*
X95869856Y-143120880D01*
X95874081Y-143117606D01*
X95938091Y-143092034D01*
X96002792Y-143102153D01*
X96041308Y-143129000D01*
X96056975Y-143148024D01*
X96067820Y-143172988D01*
X96074712Y-143210834D01*
X96078521Y-143268502D01*
X96080117Y-143352935D01*
X96080385Y-143440928D01*
X96080437Y-143551323D01*
X96082328Y-143629463D01*
X96088655Y-143682165D01*
X96102017Y-143716242D01*
X96125015Y-143738511D01*
X96160246Y-143755787D01*
X96207303Y-143773738D01*
X96258697Y-143793278D01*
X96252579Y-143446485D01*
X96250116Y-143321468D01*
X96247233Y-143229082D01*
X96243102Y-143162881D01*
X96236893Y-143116420D01*
X96227774Y-143083256D01*
X96214917Y-143056944D01*
X96199416Y-143033729D01*
X96124629Y-142959569D01*
X96033372Y-142916684D01*
X95934117Y-142906412D01*
X95835336Y-142930089D01*
G37*
X95835336Y-142930089D02*
X95772633Y-142966358D01*
X95729039Y-143002358D01*
X95697155Y-143040075D01*
X95675190Y-143086199D01*
X95661351Y-143147421D01*
X95653847Y-143230431D01*
X95650883Y-143341919D01*
X95650539Y-143422062D01*
X95650539Y-143717065D01*
X95816615Y-143791515D01*
X95826385Y-143468402D01*
X95830421Y-143347729D01*
X95834656Y-143260141D01*
X95839903Y-143199650D01*
X95846975Y-143160268D01*
X95856689Y-143136007D01*
X95869856Y-143120880D01*
X95874081Y-143117606D01*
X95938091Y-143092034D01*
X96002792Y-143102153D01*
X96041308Y-143129000D01*
X96056975Y-143148024D01*
X96067820Y-143172988D01*
X96074712Y-143210834D01*
X96078521Y-143268502D01*
X96080117Y-143352935D01*
X96080385Y-143440928D01*
X96080437Y-143551323D01*
X96082328Y-143629463D01*
X96088655Y-143682165D01*
X96102017Y-143716242D01*
X96125015Y-143738511D01*
X96160246Y-143755787D01*
X96207303Y-143773738D01*
X96258697Y-143793278D01*
X96252579Y-143446485D01*
X96250116Y-143321468D01*
X96247233Y-143229082D01*
X96243102Y-143162881D01*
X96236893Y-143116420D01*
X96227774Y-143083256D01*
X96214917Y-143056944D01*
X96199416Y-143033729D01*
X96124629Y-142959569D01*
X96033372Y-142916684D01*
X95934117Y-142906412D01*
X95835336Y-142930089D01*
G36*
X97338114Y-142919505D02*
G01*
X97263461Y-142956727D01*
X97197569Y-143025261D01*
X97179423Y-143050648D01*
X97159655Y-143083866D01*
X97146828Y-143119945D01*
X97139490Y-143168098D01*
X97136187Y-143237536D01*
X97135462Y-143329206D01*
X97138737Y-143454830D01*
X97150123Y-143549154D01*
X97171959Y-143619523D01*
X97206581Y-143673286D01*
X97256330Y-143717788D01*
X97259986Y-143720423D01*
X97309015Y-143747377D01*
X97368055Y-143760712D01*
X97443141Y-143764000D01*
X97565205Y-143764000D01*
X97565256Y-143882497D01*
X97566392Y-143948492D01*
X97573314Y-143987202D01*
X97591402Y-144010419D01*
X97626038Y-144029933D01*
X97634355Y-144033920D01*
X97673280Y-144052603D01*
X97703417Y-144064403D01*
X97725826Y-144065422D01*
X97741567Y-144051761D01*
X97751698Y-144019522D01*
X97757277Y-143964804D01*
X97759365Y-143883711D01*
X97759019Y-143772344D01*
X97757300Y-143626802D01*
X97756763Y-143583269D01*
X97754828Y-143433205D01*
X97753096Y-143335042D01*
X97565308Y-143335042D01*
X97564252Y-143418364D01*
X97559562Y-143472880D01*
X97548949Y-143508837D01*
X97530128Y-143536482D01*
X97517350Y-143549965D01*
X97465110Y-143589417D01*
X97418858Y-143592628D01*
X97371133Y-143560049D01*
X97369923Y-143558846D01*
X97350506Y-143533668D01*
X97338693Y-143499447D01*
X97332735Y-143446748D01*
X97330880Y-143366131D01*
X97330846Y-143348271D01*
X97335330Y-143237175D01*
X97349926Y-143160161D01*
X97376350Y-143113147D01*
X97416317Y-143092050D01*
X97439416Y-143089923D01*
X97494238Y-143099900D01*
X97531842Y-143132752D01*
X97554477Y-143192857D01*
X97564394Y-143284598D01*
X97565308Y-143335042D01*
X97753096Y-143335042D01*
X97752778Y-143317060D01*
X97750127Y-143229679D01*
X97746394Y-143165905D01*
X97741093Y-143120582D01*
X97733742Y-143088555D01*
X97723857Y-143064668D01*
X97710954Y-143043764D01*
X97705421Y-143035898D01*
X97632031Y-142961595D01*
X97539240Y-142919467D01*
X97431904Y-142907722D01*
X97338114Y-142919505D01*
G37*
X97338114Y-142919505D02*
X97263461Y-142956727D01*
X97197569Y-143025261D01*
X97179423Y-143050648D01*
X97159655Y-143083866D01*
X97146828Y-143119945D01*
X97139490Y-143168098D01*
X97136187Y-143237536D01*
X97135462Y-143329206D01*
X97138737Y-143454830D01*
X97150123Y-143549154D01*
X97171959Y-143619523D01*
X97206581Y-143673286D01*
X97256330Y-143717788D01*
X97259986Y-143720423D01*
X97309015Y-143747377D01*
X97368055Y-143760712D01*
X97443141Y-143764000D01*
X97565205Y-143764000D01*
X97565256Y-143882497D01*
X97566392Y-143948492D01*
X97573314Y-143987202D01*
X97591402Y-144010419D01*
X97626038Y-144029933D01*
X97634355Y-144033920D01*
X97673280Y-144052603D01*
X97703417Y-144064403D01*
X97725826Y-144065422D01*
X97741567Y-144051761D01*
X97751698Y-144019522D01*
X97757277Y-143964804D01*
X97759365Y-143883711D01*
X97759019Y-143772344D01*
X97757300Y-143626802D01*
X97756763Y-143583269D01*
X97754828Y-143433205D01*
X97753096Y-143335042D01*
X97565308Y-143335042D01*
X97564252Y-143418364D01*
X97559562Y-143472880D01*
X97548949Y-143508837D01*
X97530128Y-143536482D01*
X97517350Y-143549965D01*
X97465110Y-143589417D01*
X97418858Y-143592628D01*
X97371133Y-143560049D01*
X97369923Y-143558846D01*
X97350506Y-143533668D01*
X97338693Y-143499447D01*
X97332735Y-143446748D01*
X97330880Y-143366131D01*
X97330846Y-143348271D01*
X97335330Y-143237175D01*
X97349926Y-143160161D01*
X97376350Y-143113147D01*
X97416317Y-143092050D01*
X97439416Y-143089923D01*
X97494238Y-143099900D01*
X97531842Y-143132752D01*
X97554477Y-143192857D01*
X97564394Y-143284598D01*
X97565308Y-143335042D01*
X97753096Y-143335042D01*
X97752778Y-143317060D01*
X97750127Y-143229679D01*
X97746394Y-143165905D01*
X97741093Y-143120582D01*
X97733742Y-143088555D01*
X97723857Y-143064668D01*
X97710954Y-143043764D01*
X97705421Y-143035898D01*
X97632031Y-142961595D01*
X97539240Y-142919467D01*
X97431904Y-142907722D01*
X97338114Y-142919505D01*
%TD*%
M02*
