%TF.GenerationSoftware,KiCad,Pcbnew,(5.1.6)-1*%
%TF.CreationDate,2020-07-31T08:50:18+01:00*%
%TF.ProjectId,open-amiga-sampler-smd,6f70656e-2d61-46d6-9967-612d73616d70,rev?*%
%TF.SameCoordinates,Original*%
%TF.FileFunction,Legend,Top*%
%TF.FilePolarity,Positive*%
%FSLAX46Y46*%
G04 Gerber Fmt 4.6, Leading zero omitted, Abs format (unit mm)*
G04 Created by KiCad (PCBNEW (5.1.6)-1) date 2020-07-31 08:50:18*
%MOMM*%
%LPD*%
G01*
G04 APERTURE LIST*
%ADD10C,0.150000*%
%ADD11C,0.120000*%
G04 APERTURE END LIST*
D10*
X88318459Y-133159500D02*
G75*
G03*
X88318459Y-133159500I-243959J0D01*
G01*
D11*
%TO.C,C4*%
X81121000Y-146260000D02*
X81621000Y-146260000D01*
X81371000Y-146510000D02*
X81371000Y-146010000D01*
X84126563Y-145770000D02*
X85191000Y-144705563D01*
X81735437Y-145770000D02*
X80671000Y-144705563D01*
X81735437Y-145770000D02*
X81871000Y-145770000D01*
X84126563Y-145770000D02*
X83991000Y-145770000D01*
X85191000Y-144705563D02*
X85191000Y-141250000D01*
X80671000Y-144705563D02*
X80671000Y-141250000D01*
X80671000Y-141250000D02*
X81871000Y-141250000D01*
X85191000Y-141250000D02*
X83991000Y-141250000D01*
%TO.C,RV1*%
X95992500Y-130321500D02*
X95992500Y-131381500D01*
X94932500Y-130321500D02*
X95992500Y-130321500D01*
X93932500Y-130321500D02*
X93932500Y-132441500D01*
X93932500Y-132441500D02*
X89872500Y-132441500D01*
X93932500Y-130321500D02*
X89872500Y-130321500D01*
X89872500Y-130321500D02*
X89872500Y-132441500D01*
%TO.C,J2*%
X98940000Y-132251000D02*
X98940000Y-131191000D01*
X100000000Y-132251000D02*
X98940000Y-132251000D01*
X101000000Y-132251000D02*
X101000000Y-130131000D01*
X101000000Y-130131000D02*
X103060000Y-130131000D01*
X101000000Y-132251000D02*
X103060000Y-132251000D01*
X103060000Y-132251000D02*
X103060000Y-130131000D01*
%TO.C,J1*%
X108070200Y-130131000D02*
X108070200Y-131191000D01*
X107010200Y-130131000D02*
X108070200Y-130131000D01*
X106010200Y-130131000D02*
X106010200Y-132251000D01*
X106010200Y-132251000D02*
X103950200Y-132251000D01*
X106010200Y-130131000D02*
X103950200Y-130131000D01*
X103950200Y-130131000D02*
X103950200Y-132251000D01*
%TO.C,C1*%
X105592000Y-141524000D02*
X109677000Y-141524000D01*
X105592000Y-139654000D02*
X105592000Y-141524000D01*
X109677000Y-139654000D02*
X105592000Y-139654000D01*
%TO.C,C2*%
X106036500Y-145842000D02*
X110121500Y-145842000D01*
X106036500Y-143972000D02*
X106036500Y-145842000D01*
X110121500Y-143972000D02*
X106036500Y-143972000D01*
%TO.C,C3*%
X100636000Y-134295248D02*
X100636000Y-134817752D01*
X102056000Y-134295248D02*
X102056000Y-134817752D01*
%TO.C,C5*%
X104259748Y-136069000D02*
X104782252Y-136069000D01*
X104259748Y-137489000D02*
X104782252Y-137489000D01*
%TO.C,J3*%
X116101333Y-150774500D02*
X116101333Y-147034500D01*
X116101333Y-147034500D02*
X80494667Y-147034500D01*
X80494667Y-147034500D02*
X80494667Y-150774500D01*
X80254667Y-149034500D02*
X80254667Y-146794500D01*
X80254667Y-146794500D02*
X84448000Y-146794500D01*
%TO.C,R1*%
X108710800Y-136887852D02*
X108710800Y-136365348D01*
X107290800Y-136887852D02*
X107290800Y-136365348D01*
%TO.C,R2*%
X104718752Y-135266500D02*
X104196248Y-135266500D01*
X104718752Y-133846500D02*
X104196248Y-133846500D01*
%TO.C,R3*%
X86285000Y-142232748D02*
X86285000Y-142755252D01*
X87705000Y-142232748D02*
X87705000Y-142755252D01*
%TO.C,R4*%
X107625248Y-141911000D02*
X108147752Y-141911000D01*
X107625248Y-143331000D02*
X108147752Y-143331000D01*
%TO.C,R5*%
X101652000Y-144137748D02*
X101652000Y-144660252D01*
X103072000Y-144137748D02*
X103072000Y-144660252D01*
%TO.C,R6*%
X104065000Y-144660252D02*
X104065000Y-144137748D01*
X105485000Y-144660252D02*
X105485000Y-144137748D01*
%TO.C,U1*%
X94107000Y-146083000D02*
X97967000Y-146083000D01*
X97967000Y-146083000D02*
X97967000Y-145848000D01*
X94107000Y-146083000D02*
X90247000Y-146083000D01*
X90247000Y-146083000D02*
X90247000Y-145848000D01*
X94107000Y-133063000D02*
X97967000Y-133063000D01*
X97967000Y-133063000D02*
X97967000Y-133298000D01*
X94107000Y-133063000D02*
X90247000Y-133063000D01*
X90247000Y-133063000D02*
X90247000Y-133298000D01*
X90247000Y-133298000D02*
X88432000Y-133298000D01*
%TO.C,U2*%
X105369000Y-140981000D02*
X105369000Y-139181000D01*
X102149000Y-139181000D02*
X102149000Y-141631000D01*
%TO.C,C4*%
D10*
X84859833Y-140882642D02*
X84812214Y-140930261D01*
X84669357Y-140977880D01*
X84574119Y-140977880D01*
X84431261Y-140930261D01*
X84336023Y-140835023D01*
X84288404Y-140739785D01*
X84240785Y-140549309D01*
X84240785Y-140406452D01*
X84288404Y-140215976D01*
X84336023Y-140120738D01*
X84431261Y-140025500D01*
X84574119Y-139977880D01*
X84669357Y-139977880D01*
X84812214Y-140025500D01*
X84859833Y-140073119D01*
X85716976Y-140311214D02*
X85716976Y-140977880D01*
X85478880Y-139930261D02*
X85240785Y-140644547D01*
X85859833Y-140644547D01*
%TO.C,RV1*%
X89221380Y-131824838D02*
X88745190Y-132158171D01*
X89221380Y-132396266D02*
X88221380Y-132396266D01*
X88221380Y-132015314D01*
X88269000Y-131920076D01*
X88316619Y-131872457D01*
X88411857Y-131824838D01*
X88554714Y-131824838D01*
X88649952Y-131872457D01*
X88697571Y-131920076D01*
X88745190Y-132015314D01*
X88745190Y-132396266D01*
X88221380Y-131539123D02*
X89221380Y-131205790D01*
X88221380Y-130872457D01*
X89221380Y-130015314D02*
X89221380Y-130586742D01*
X89221380Y-130301028D02*
X88221380Y-130301028D01*
X88364238Y-130396266D01*
X88459476Y-130491504D01*
X88507095Y-130586742D01*
%TO.C,J2*%
X97280480Y-131410533D02*
X97994766Y-131410533D01*
X98137623Y-131458152D01*
X98232861Y-131553390D01*
X98280480Y-131696247D01*
X98280480Y-131791485D01*
X97375719Y-130981961D02*
X97328100Y-130934342D01*
X97280480Y-130839104D01*
X97280480Y-130601009D01*
X97328100Y-130505771D01*
X97375719Y-130458152D01*
X97470957Y-130410533D01*
X97566195Y-130410533D01*
X97709052Y-130458152D01*
X98280480Y-131029580D01*
X98280480Y-130410533D01*
%TO.C,J1*%
X107489666Y-132713480D02*
X107489666Y-133427766D01*
X107442047Y-133570623D01*
X107346809Y-133665861D01*
X107203952Y-133713480D01*
X107108714Y-133713480D01*
X108489666Y-133713480D02*
X107918238Y-133713480D01*
X108203952Y-133713480D02*
X108203952Y-132713480D01*
X108108714Y-132856338D01*
X108013476Y-132951576D01*
X107918238Y-132999195D01*
%TO.C,C1*%
X111339333Y-140908042D02*
X111291714Y-140955661D01*
X111148857Y-141003280D01*
X111053619Y-141003280D01*
X110910761Y-140955661D01*
X110815523Y-140860423D01*
X110767904Y-140765185D01*
X110720285Y-140574709D01*
X110720285Y-140431852D01*
X110767904Y-140241376D01*
X110815523Y-140146138D01*
X110910761Y-140050900D01*
X111053619Y-140003280D01*
X111148857Y-140003280D01*
X111291714Y-140050900D01*
X111339333Y-140098519D01*
X112291714Y-141003280D02*
X111720285Y-141003280D01*
X112006000Y-141003280D02*
X112006000Y-140003280D01*
X111910761Y-140146138D01*
X111815523Y-140241376D01*
X111720285Y-140288995D01*
%TO.C,C2*%
X111834633Y-145238742D02*
X111787014Y-145286361D01*
X111644157Y-145333980D01*
X111548919Y-145333980D01*
X111406061Y-145286361D01*
X111310823Y-145191123D01*
X111263204Y-145095885D01*
X111215585Y-144905409D01*
X111215585Y-144762552D01*
X111263204Y-144572076D01*
X111310823Y-144476838D01*
X111406061Y-144381600D01*
X111548919Y-144333980D01*
X111644157Y-144333980D01*
X111787014Y-144381600D01*
X111834633Y-144429219D01*
X112215585Y-144429219D02*
X112263204Y-144381600D01*
X112358442Y-144333980D01*
X112596538Y-144333980D01*
X112691776Y-144381600D01*
X112739395Y-144429219D01*
X112787014Y-144524457D01*
X112787014Y-144619695D01*
X112739395Y-144762552D01*
X112167966Y-145333980D01*
X112787014Y-145333980D01*
%TO.C,C3*%
X99401333Y-133008642D02*
X99353714Y-133056261D01*
X99210857Y-133103880D01*
X99115619Y-133103880D01*
X98972761Y-133056261D01*
X98877523Y-132961023D01*
X98829904Y-132865785D01*
X98782285Y-132675309D01*
X98782285Y-132532452D01*
X98829904Y-132341976D01*
X98877523Y-132246738D01*
X98972761Y-132151500D01*
X99115619Y-132103880D01*
X99210857Y-132103880D01*
X99353714Y-132151500D01*
X99401333Y-132199119D01*
X99734666Y-132103880D02*
X100353714Y-132103880D01*
X100020380Y-132484833D01*
X100163238Y-132484833D01*
X100258476Y-132532452D01*
X100306095Y-132580071D01*
X100353714Y-132675309D01*
X100353714Y-132913404D01*
X100306095Y-133008642D01*
X100258476Y-133056261D01*
X100163238Y-133103880D01*
X99877523Y-133103880D01*
X99782285Y-133056261D01*
X99734666Y-133008642D01*
%TO.C,C5*%
X101242833Y-137961642D02*
X101195214Y-138009261D01*
X101052357Y-138056880D01*
X100957119Y-138056880D01*
X100814261Y-138009261D01*
X100719023Y-137914023D01*
X100671404Y-137818785D01*
X100623785Y-137628309D01*
X100623785Y-137485452D01*
X100671404Y-137294976D01*
X100719023Y-137199738D01*
X100814261Y-137104500D01*
X100957119Y-137056880D01*
X101052357Y-137056880D01*
X101195214Y-137104500D01*
X101242833Y-137152119D01*
X102147595Y-137056880D02*
X101671404Y-137056880D01*
X101623785Y-137533071D01*
X101671404Y-137485452D01*
X101766642Y-137437833D01*
X102004738Y-137437833D01*
X102099976Y-137485452D01*
X102147595Y-137533071D01*
X102195214Y-137628309D01*
X102195214Y-137866404D01*
X102147595Y-137961642D01*
X102099976Y-138009261D01*
X102004738Y-138056880D01*
X101766642Y-138056880D01*
X101671404Y-138009261D01*
X101623785Y-137961642D01*
%TO.C,J3*%
X112887166Y-145756380D02*
X112887166Y-146470666D01*
X112839547Y-146613523D01*
X112744309Y-146708761D01*
X112601452Y-146756380D01*
X112506214Y-146756380D01*
X113268119Y-145756380D02*
X113887166Y-145756380D01*
X113553833Y-146137333D01*
X113696690Y-146137333D01*
X113791928Y-146184952D01*
X113839547Y-146232571D01*
X113887166Y-146327809D01*
X113887166Y-146565904D01*
X113839547Y-146661142D01*
X113791928Y-146708761D01*
X113696690Y-146756380D01*
X113410976Y-146756380D01*
X113315738Y-146708761D01*
X113268119Y-146661142D01*
%TO.C,R1*%
X109989880Y-138596666D02*
X109513690Y-138930000D01*
X109989880Y-139168095D02*
X108989880Y-139168095D01*
X108989880Y-138787142D01*
X109037500Y-138691904D01*
X109085119Y-138644285D01*
X109180357Y-138596666D01*
X109323214Y-138596666D01*
X109418452Y-138644285D01*
X109466071Y-138691904D01*
X109513690Y-138787142D01*
X109513690Y-139168095D01*
X109989880Y-137644285D02*
X109989880Y-138215714D01*
X109989880Y-137930000D02*
X108989880Y-137930000D01*
X109132738Y-138025238D01*
X109227976Y-138120476D01*
X109275595Y-138215714D01*
%TO.C,R2*%
X104227333Y-133484880D02*
X103894000Y-133008690D01*
X103655904Y-133484880D02*
X103655904Y-132484880D01*
X104036857Y-132484880D01*
X104132095Y-132532500D01*
X104179714Y-132580119D01*
X104227333Y-132675357D01*
X104227333Y-132818214D01*
X104179714Y-132913452D01*
X104132095Y-132961071D01*
X104036857Y-133008690D01*
X103655904Y-133008690D01*
X104608285Y-132580119D02*
X104655904Y-132532500D01*
X104751142Y-132484880D01*
X104989238Y-132484880D01*
X105084476Y-132532500D01*
X105132095Y-132580119D01*
X105179714Y-132675357D01*
X105179714Y-132770595D01*
X105132095Y-132913452D01*
X104560666Y-133484880D01*
X105179714Y-133484880D01*
%TO.C,R3*%
X87155280Y-145619766D02*
X86679090Y-145953100D01*
X87155280Y-146191195D02*
X86155280Y-146191195D01*
X86155280Y-145810242D01*
X86202900Y-145715004D01*
X86250519Y-145667385D01*
X86345757Y-145619766D01*
X86488614Y-145619766D01*
X86583852Y-145667385D01*
X86631471Y-145715004D01*
X86679090Y-145810242D01*
X86679090Y-146191195D01*
X86155280Y-145286433D02*
X86155280Y-144667385D01*
X86536233Y-145000719D01*
X86536233Y-144857861D01*
X86583852Y-144762623D01*
X86631471Y-144715004D01*
X86726709Y-144667385D01*
X86964804Y-144667385D01*
X87060042Y-144715004D01*
X87107661Y-144762623D01*
X87155280Y-144857861D01*
X87155280Y-145143576D01*
X87107661Y-145238814D01*
X87060042Y-145286433D01*
%TO.C,R4*%
X110590033Y-142933680D02*
X110256700Y-142457490D01*
X110018604Y-142933680D02*
X110018604Y-141933680D01*
X110399557Y-141933680D01*
X110494795Y-141981300D01*
X110542414Y-142028919D01*
X110590033Y-142124157D01*
X110590033Y-142267014D01*
X110542414Y-142362252D01*
X110494795Y-142409871D01*
X110399557Y-142457490D01*
X110018604Y-142457490D01*
X111447176Y-142267014D02*
X111447176Y-142933680D01*
X111209080Y-141886061D02*
X110970985Y-142600347D01*
X111590033Y-142600347D01*
%TO.C,R5*%
X100480833Y-146883380D02*
X100147500Y-146407190D01*
X99909404Y-146883380D02*
X99909404Y-145883380D01*
X100290357Y-145883380D01*
X100385595Y-145931000D01*
X100433214Y-145978619D01*
X100480833Y-146073857D01*
X100480833Y-146216714D01*
X100433214Y-146311952D01*
X100385595Y-146359571D01*
X100290357Y-146407190D01*
X99909404Y-146407190D01*
X101385595Y-145883380D02*
X100909404Y-145883380D01*
X100861785Y-146359571D01*
X100909404Y-146311952D01*
X101004642Y-146264333D01*
X101242738Y-146264333D01*
X101337976Y-146311952D01*
X101385595Y-146359571D01*
X101433214Y-146454809D01*
X101433214Y-146692904D01*
X101385595Y-146788142D01*
X101337976Y-146835761D01*
X101242738Y-146883380D01*
X101004642Y-146883380D01*
X100909404Y-146835761D01*
X100861785Y-146788142D01*
%TO.C,R6*%
X106259333Y-146883380D02*
X105926000Y-146407190D01*
X105687904Y-146883380D02*
X105687904Y-145883380D01*
X106068857Y-145883380D01*
X106164095Y-145931000D01*
X106211714Y-145978619D01*
X106259333Y-146073857D01*
X106259333Y-146216714D01*
X106211714Y-146311952D01*
X106164095Y-146359571D01*
X106068857Y-146407190D01*
X105687904Y-146407190D01*
X107116476Y-145883380D02*
X106926000Y-145883380D01*
X106830761Y-145931000D01*
X106783142Y-145978619D01*
X106687904Y-146121476D01*
X106640285Y-146311952D01*
X106640285Y-146692904D01*
X106687904Y-146788142D01*
X106735523Y-146835761D01*
X106830761Y-146883380D01*
X107021238Y-146883380D01*
X107116476Y-146835761D01*
X107164095Y-146788142D01*
X107211714Y-146692904D01*
X107211714Y-146454809D01*
X107164095Y-146359571D01*
X107116476Y-146311952D01*
X107021238Y-146264333D01*
X106830761Y-146264333D01*
X106735523Y-146311952D01*
X106687904Y-146359571D01*
X106640285Y-146454809D01*
%TO.C,U1*%
X92773595Y-133437380D02*
X92773595Y-134246904D01*
X92821214Y-134342142D01*
X92868833Y-134389761D01*
X92964071Y-134437380D01*
X93154547Y-134437380D01*
X93249785Y-134389761D01*
X93297404Y-134342142D01*
X93345023Y-134246904D01*
X93345023Y-133437380D01*
X94345023Y-134437380D02*
X93773595Y-134437380D01*
X94059309Y-134437380D02*
X94059309Y-133437380D01*
X93964071Y-133580238D01*
X93868833Y-133675476D01*
X93773595Y-133723095D01*
%TO.C,U2*%
X100811080Y-140995304D02*
X101620604Y-140995304D01*
X101715842Y-140947685D01*
X101763461Y-140900066D01*
X101811080Y-140804828D01*
X101811080Y-140614352D01*
X101763461Y-140519114D01*
X101715842Y-140471495D01*
X101620604Y-140423876D01*
X100811080Y-140423876D01*
X100906319Y-139995304D02*
X100858700Y-139947685D01*
X100811080Y-139852447D01*
X100811080Y-139614352D01*
X100858700Y-139519114D01*
X100906319Y-139471495D01*
X101001557Y-139423876D01*
X101096795Y-139423876D01*
X101239652Y-139471495D01*
X101811080Y-140042923D01*
X101811080Y-139423876D01*
%TD*%
M02*
