%TF.GenerationSoftware,KiCad,Pcbnew,(5.1.6)-1*%
%TF.CreationDate,2020-07-29T13:21:14+01:00*%
%TF.ProjectId,open-amiga-sampler-smd,6f70656e-2d61-46d6-9967-612d73616d70,rev?*%
%TF.SameCoordinates,Original*%
%TF.FileFunction,Legend,Bot*%
%TF.FilePolarity,Positive*%
%FSLAX46Y46*%
G04 Gerber Fmt 4.6, Leading zero omitted, Abs format (unit mm)*
G04 Created by KiCad (PCBNEW (5.1.6)-1) date 2020-07-29 13:21:14*
%MOMM*%
%LPD*%
G01*
G04 APERTURE LIST*
%ADD10C,0.150000*%
%ADD11C,0.010000*%
G04 APERTURE END LIST*
D10*
X94194166Y-133421380D02*
X94194166Y-132421380D01*
X93813214Y-132421380D01*
X93717976Y-132469000D01*
X93670357Y-132516619D01*
X93622738Y-132611857D01*
X93622738Y-132754714D01*
X93670357Y-132849952D01*
X93717976Y-132897571D01*
X93813214Y-132945190D01*
X94194166Y-132945190D01*
X93003690Y-132421380D02*
X92813214Y-132421380D01*
X92717976Y-132469000D01*
X92622738Y-132564238D01*
X92575119Y-132754714D01*
X92575119Y-133088047D01*
X92622738Y-133278523D01*
X92717976Y-133373761D01*
X92813214Y-133421380D01*
X93003690Y-133421380D01*
X93098928Y-133373761D01*
X93194166Y-133278523D01*
X93241785Y-133088047D01*
X93241785Y-132754714D01*
X93194166Y-132564238D01*
X93098928Y-132469000D01*
X93003690Y-132421380D01*
X92289404Y-132421380D02*
X91717976Y-132421380D01*
X92003690Y-133421380D02*
X92003690Y-132421380D01*
X107441500Y-133357880D02*
X107917690Y-133357880D01*
X107917690Y-132357880D01*
X104298642Y-132405500D02*
X104393880Y-132357880D01*
X104536738Y-132357880D01*
X104679595Y-132405500D01*
X104774833Y-132500738D01*
X104822452Y-132595976D01*
X104870071Y-132786452D01*
X104870071Y-132929309D01*
X104822452Y-133119785D01*
X104774833Y-133215023D01*
X104679595Y-133310261D01*
X104536738Y-133357880D01*
X104441500Y-133357880D01*
X104298642Y-133310261D01*
X104251023Y-133262642D01*
X104251023Y-132929309D01*
X104441500Y-132929309D01*
X103822452Y-133357880D02*
X103822452Y-132357880D01*
X103251023Y-133357880D01*
X103251023Y-132357880D01*
X102774833Y-133357880D02*
X102774833Y-132357880D01*
X102536738Y-132357880D01*
X102393880Y-132405500D01*
X102298642Y-132500738D01*
X102251023Y-132595976D01*
X102203404Y-132786452D01*
X102203404Y-132929309D01*
X102251023Y-133119785D01*
X102298642Y-133215023D01*
X102393880Y-133310261D01*
X102536738Y-133357880D01*
X102774833Y-133357880D01*
X98917690Y-133357880D02*
X99251023Y-132881690D01*
X99489119Y-133357880D02*
X99489119Y-132357880D01*
X99108166Y-132357880D01*
X99012928Y-132405500D01*
X98965309Y-132453119D01*
X98917690Y-132548357D01*
X98917690Y-132691214D01*
X98965309Y-132786452D01*
X99012928Y-132834071D01*
X99108166Y-132881690D01*
X99489119Y-132881690D01*
X115297928Y-140360380D02*
X115107452Y-140360380D01*
X115012214Y-140408000D01*
X114916976Y-140503238D01*
X114869357Y-140693714D01*
X114869357Y-141027047D01*
X114916976Y-141217523D01*
X115012214Y-141312761D01*
X115107452Y-141360380D01*
X115297928Y-141360380D01*
X115393166Y-141312761D01*
X115488404Y-141217523D01*
X115536023Y-141027047D01*
X115536023Y-140693714D01*
X115488404Y-140503238D01*
X115393166Y-140408000D01*
X115297928Y-140360380D01*
X114440785Y-140693714D02*
X114440785Y-141693714D01*
X114440785Y-140741333D02*
X114345547Y-140693714D01*
X114155071Y-140693714D01*
X114059833Y-140741333D01*
X114012214Y-140788952D01*
X113964595Y-140884190D01*
X113964595Y-141169904D01*
X114012214Y-141265142D01*
X114059833Y-141312761D01*
X114155071Y-141360380D01*
X114345547Y-141360380D01*
X114440785Y-141312761D01*
X113155071Y-141312761D02*
X113250309Y-141360380D01*
X113440785Y-141360380D01*
X113536023Y-141312761D01*
X113583642Y-141217523D01*
X113583642Y-140836571D01*
X113536023Y-140741333D01*
X113440785Y-140693714D01*
X113250309Y-140693714D01*
X113155071Y-140741333D01*
X113107452Y-140836571D01*
X113107452Y-140931809D01*
X113583642Y-141027047D01*
X112678880Y-140693714D02*
X112678880Y-141360380D01*
X112678880Y-140788952D02*
X112631261Y-140741333D01*
X112536023Y-140693714D01*
X112393166Y-140693714D01*
X112297928Y-140741333D01*
X112250309Y-140836571D01*
X112250309Y-141360380D01*
X111059833Y-141074666D02*
X110583642Y-141074666D01*
X111155071Y-141360380D02*
X110821738Y-140360380D01*
X110488404Y-141360380D01*
X110155071Y-141360380D02*
X110155071Y-140693714D01*
X110155071Y-140788952D02*
X110107452Y-140741333D01*
X110012214Y-140693714D01*
X109869357Y-140693714D01*
X109774119Y-140741333D01*
X109726500Y-140836571D01*
X109726500Y-141360380D01*
X109726500Y-140836571D02*
X109678880Y-140741333D01*
X109583642Y-140693714D01*
X109440785Y-140693714D01*
X109345547Y-140741333D01*
X109297928Y-140836571D01*
X109297928Y-141360380D01*
X108821738Y-141360380D02*
X108821738Y-140693714D01*
X108821738Y-140360380D02*
X108869357Y-140408000D01*
X108821738Y-140455619D01*
X108774119Y-140408000D01*
X108821738Y-140360380D01*
X108821738Y-140455619D01*
X107916976Y-140693714D02*
X107916976Y-141503238D01*
X107964595Y-141598476D01*
X108012214Y-141646095D01*
X108107452Y-141693714D01*
X108250309Y-141693714D01*
X108345547Y-141646095D01*
X107916976Y-141312761D02*
X108012214Y-141360380D01*
X108202690Y-141360380D01*
X108297928Y-141312761D01*
X108345547Y-141265142D01*
X108393166Y-141169904D01*
X108393166Y-140884190D01*
X108345547Y-140788952D01*
X108297928Y-140741333D01*
X108202690Y-140693714D01*
X108012214Y-140693714D01*
X107916976Y-140741333D01*
X107012214Y-141360380D02*
X107012214Y-140836571D01*
X107059833Y-140741333D01*
X107155071Y-140693714D01*
X107345547Y-140693714D01*
X107440785Y-140741333D01*
X107012214Y-141312761D02*
X107107452Y-141360380D01*
X107345547Y-141360380D01*
X107440785Y-141312761D01*
X107488404Y-141217523D01*
X107488404Y-141122285D01*
X107440785Y-141027047D01*
X107345547Y-140979428D01*
X107107452Y-140979428D01*
X107012214Y-140931809D01*
X105821738Y-141312761D02*
X105678880Y-141360380D01*
X105440785Y-141360380D01*
X105345547Y-141312761D01*
X105297928Y-141265142D01*
X105250309Y-141169904D01*
X105250309Y-141074666D01*
X105297928Y-140979428D01*
X105345547Y-140931809D01*
X105440785Y-140884190D01*
X105631261Y-140836571D01*
X105726500Y-140788952D01*
X105774119Y-140741333D01*
X105821738Y-140646095D01*
X105821738Y-140550857D01*
X105774119Y-140455619D01*
X105726500Y-140408000D01*
X105631261Y-140360380D01*
X105393166Y-140360380D01*
X105250309Y-140408000D01*
X104393166Y-141360380D02*
X104393166Y-140836571D01*
X104440785Y-140741333D01*
X104536023Y-140693714D01*
X104726500Y-140693714D01*
X104821738Y-140741333D01*
X104393166Y-141312761D02*
X104488404Y-141360380D01*
X104726500Y-141360380D01*
X104821738Y-141312761D01*
X104869357Y-141217523D01*
X104869357Y-141122285D01*
X104821738Y-141027047D01*
X104726500Y-140979428D01*
X104488404Y-140979428D01*
X104393166Y-140931809D01*
X103916976Y-141360380D02*
X103916976Y-140693714D01*
X103916976Y-140788952D02*
X103869357Y-140741333D01*
X103774119Y-140693714D01*
X103631261Y-140693714D01*
X103536023Y-140741333D01*
X103488404Y-140836571D01*
X103488404Y-141360380D01*
X103488404Y-140836571D02*
X103440785Y-140741333D01*
X103345547Y-140693714D01*
X103202690Y-140693714D01*
X103107452Y-140741333D01*
X103059833Y-140836571D01*
X103059833Y-141360380D01*
X102583642Y-140693714D02*
X102583642Y-141693714D01*
X102583642Y-140741333D02*
X102488404Y-140693714D01*
X102297928Y-140693714D01*
X102202690Y-140741333D01*
X102155071Y-140788952D01*
X102107452Y-140884190D01*
X102107452Y-141169904D01*
X102155071Y-141265142D01*
X102202690Y-141312761D01*
X102297928Y-141360380D01*
X102488404Y-141360380D01*
X102583642Y-141312761D01*
X101536023Y-141360380D02*
X101631261Y-141312761D01*
X101678880Y-141217523D01*
X101678880Y-140360380D01*
X100774119Y-141312761D02*
X100869357Y-141360380D01*
X101059833Y-141360380D01*
X101155071Y-141312761D01*
X101202690Y-141217523D01*
X101202690Y-140836571D01*
X101155071Y-140741333D01*
X101059833Y-140693714D01*
X100869357Y-140693714D01*
X100774119Y-140741333D01*
X100726500Y-140836571D01*
X100726500Y-140931809D01*
X101202690Y-141027047D01*
X100297928Y-141360380D02*
X100297928Y-140693714D01*
X100297928Y-140884190D02*
X100250309Y-140788952D01*
X100202690Y-140741333D01*
X100107452Y-140693714D01*
X100012214Y-140693714D01*
X114869357Y-142534190D02*
X114916976Y-142486571D01*
X115012214Y-142438952D01*
X115107452Y-142438952D01*
X115202690Y-142486571D01*
X115250309Y-142534190D01*
X115297928Y-142629428D01*
X115297928Y-142724666D01*
X115250309Y-142819904D01*
X115202690Y-142867523D01*
X115107452Y-142915142D01*
X115012214Y-142915142D01*
X114916976Y-142867523D01*
X114869357Y-142819904D01*
X114869357Y-142438952D02*
X114869357Y-142819904D01*
X114821738Y-142867523D01*
X114774119Y-142867523D01*
X114678880Y-142819904D01*
X114631261Y-142724666D01*
X114631261Y-142486571D01*
X114726500Y-142343714D01*
X114869357Y-142248476D01*
X115059833Y-142200857D01*
X115250309Y-142248476D01*
X115393166Y-142343714D01*
X115488404Y-142486571D01*
X115536023Y-142677047D01*
X115488404Y-142867523D01*
X115393166Y-143010380D01*
X115250309Y-143105619D01*
X115059833Y-143153238D01*
X114869357Y-143105619D01*
X114726500Y-143010380D01*
X113821738Y-142962761D02*
X113916976Y-143010380D01*
X114107452Y-143010380D01*
X114202690Y-142962761D01*
X114250309Y-142867523D01*
X114250309Y-142486571D01*
X114202690Y-142391333D01*
X114107452Y-142343714D01*
X113916976Y-142343714D01*
X113821738Y-142391333D01*
X113774119Y-142486571D01*
X113774119Y-142581809D01*
X114250309Y-142677047D01*
X112916976Y-142962761D02*
X113012214Y-143010380D01*
X113202690Y-143010380D01*
X113297928Y-142962761D01*
X113345547Y-142915142D01*
X113393166Y-142819904D01*
X113393166Y-142534190D01*
X113345547Y-142438952D01*
X113297928Y-142391333D01*
X113202690Y-142343714D01*
X113012214Y-142343714D01*
X112916976Y-142391333D01*
X112488404Y-143010380D02*
X112488404Y-142010380D01*
X112059833Y-143010380D02*
X112059833Y-142486571D01*
X112107452Y-142391333D01*
X112202690Y-142343714D01*
X112345547Y-142343714D01*
X112440785Y-142391333D01*
X112488404Y-142438952D01*
X111440785Y-143010380D02*
X111536023Y-142962761D01*
X111583642Y-142915142D01*
X111631261Y-142819904D01*
X111631261Y-142534190D01*
X111583642Y-142438952D01*
X111536023Y-142391333D01*
X111440785Y-142343714D01*
X111297928Y-142343714D01*
X111202690Y-142391333D01*
X111155071Y-142438952D01*
X111107452Y-142534190D01*
X111107452Y-142819904D01*
X111155071Y-142915142D01*
X111202690Y-142962761D01*
X111297928Y-143010380D01*
X111440785Y-143010380D01*
X110536023Y-143010380D02*
X110631261Y-142962761D01*
X110678880Y-142867523D01*
X110678880Y-142010380D01*
X109774119Y-142962761D02*
X109869357Y-143010380D01*
X110059833Y-143010380D01*
X110155071Y-142962761D01*
X110202690Y-142867523D01*
X110202690Y-142486571D01*
X110155071Y-142391333D01*
X110059833Y-142343714D01*
X109869357Y-142343714D01*
X109774119Y-142391333D01*
X109726500Y-142486571D01*
X109726500Y-142581809D01*
X110202690Y-142677047D01*
X109393166Y-142343714D02*
X109155071Y-143010380D01*
X108916976Y-142343714D01*
X108155071Y-142962761D02*
X108250309Y-143010380D01*
X108440785Y-143010380D01*
X108536023Y-142962761D01*
X108583642Y-142867523D01*
X108583642Y-142486571D01*
X108536023Y-142391333D01*
X108440785Y-142343714D01*
X108250309Y-142343714D01*
X108155071Y-142391333D01*
X108107452Y-142486571D01*
X108107452Y-142581809D01*
X108583642Y-142677047D01*
X107536023Y-143010380D02*
X107631261Y-142962761D01*
X107678880Y-142867523D01*
X107678880Y-142010380D01*
X114869357Y-144184190D02*
X114916976Y-144136571D01*
X115012214Y-144088952D01*
X115107452Y-144088952D01*
X115202690Y-144136571D01*
X115250309Y-144184190D01*
X115297928Y-144279428D01*
X115297928Y-144374666D01*
X115250309Y-144469904D01*
X115202690Y-144517523D01*
X115107452Y-144565142D01*
X115012214Y-144565142D01*
X114916976Y-144517523D01*
X114869357Y-144469904D01*
X114869357Y-144088952D02*
X114869357Y-144469904D01*
X114821738Y-144517523D01*
X114774119Y-144517523D01*
X114678880Y-144469904D01*
X114631261Y-144374666D01*
X114631261Y-144136571D01*
X114726500Y-143993714D01*
X114869357Y-143898476D01*
X115059833Y-143850857D01*
X115250309Y-143898476D01*
X115393166Y-143993714D01*
X115488404Y-144136571D01*
X115536023Y-144327047D01*
X115488404Y-144517523D01*
X115393166Y-144660380D01*
X115250309Y-144755619D01*
X115059833Y-144803238D01*
X114869357Y-144755619D01*
X114726500Y-144660380D01*
X114202690Y-144660380D02*
X114202690Y-143993714D01*
X114202690Y-144088952D02*
X114155071Y-144041333D01*
X114059833Y-143993714D01*
X113916976Y-143993714D01*
X113821738Y-144041333D01*
X113774119Y-144136571D01*
X113774119Y-144660380D01*
X113774119Y-144136571D02*
X113726500Y-144041333D01*
X113631261Y-143993714D01*
X113488404Y-143993714D01*
X113393166Y-144041333D01*
X113345547Y-144136571D01*
X113345547Y-144660380D01*
X112869357Y-143993714D02*
X112869357Y-144660380D01*
X112869357Y-144088952D02*
X112821738Y-144041333D01*
X112726500Y-143993714D01*
X112583642Y-143993714D01*
X112488404Y-144041333D01*
X112440785Y-144136571D01*
X112440785Y-144660380D01*
X112012214Y-144612761D02*
X111916976Y-144660380D01*
X111726500Y-144660380D01*
X111631261Y-144612761D01*
X111583642Y-144517523D01*
X111583642Y-144469904D01*
X111631261Y-144374666D01*
X111726500Y-144327047D01*
X111869357Y-144327047D01*
X111964595Y-144279428D01*
X112012214Y-144184190D01*
X112012214Y-144136571D01*
X111964595Y-144041333D01*
X111869357Y-143993714D01*
X111726500Y-143993714D01*
X111631261Y-144041333D01*
X111297928Y-143993714D02*
X110916976Y-143993714D01*
X111155071Y-143660380D02*
X111155071Y-144517523D01*
X111107452Y-144612761D01*
X111012214Y-144660380D01*
X110916976Y-144660380D01*
X110583642Y-144660380D02*
X110583642Y-143993714D01*
X110583642Y-144184190D02*
X110536023Y-144088952D01*
X110488404Y-144041333D01*
X110393166Y-143993714D01*
X110297928Y-143993714D01*
X109964595Y-144660380D02*
X109964595Y-143993714D01*
X109964595Y-144088952D02*
X109916976Y-144041333D01*
X109821738Y-143993714D01*
X109678880Y-143993714D01*
X109583642Y-144041333D01*
X109536023Y-144136571D01*
X109536023Y-144660380D01*
X109536023Y-144136571D02*
X109488404Y-144041333D01*
X109393166Y-143993714D01*
X109250309Y-143993714D01*
X109155071Y-144041333D01*
X109107452Y-144136571D01*
X109107452Y-144660380D01*
X108631261Y-143993714D02*
X108631261Y-144660380D01*
X108631261Y-144088952D02*
X108583642Y-144041333D01*
X108488404Y-143993714D01*
X108345547Y-143993714D01*
X108250309Y-144041333D01*
X108202690Y-144136571D01*
X108202690Y-144660380D01*
X107297928Y-144612761D02*
X107393166Y-144660380D01*
X107583642Y-144660380D01*
X107678880Y-144612761D01*
X107726500Y-144565142D01*
X107774119Y-144469904D01*
X107774119Y-144184190D01*
X107726500Y-144088952D01*
X107678880Y-144041333D01*
X107583642Y-143993714D01*
X107393166Y-143993714D01*
X107297928Y-144041333D01*
X106869357Y-144660380D02*
X106869357Y-143660380D01*
X106440785Y-144660380D02*
X106440785Y-144136571D01*
X106488404Y-144041333D01*
X106583642Y-143993714D01*
X106726500Y-143993714D01*
X106821738Y-144041333D01*
X106869357Y-144088952D01*
X114869357Y-145834190D02*
X114916976Y-145786571D01*
X115012214Y-145738952D01*
X115107452Y-145738952D01*
X115202690Y-145786571D01*
X115250309Y-145834190D01*
X115297928Y-145929428D01*
X115297928Y-146024666D01*
X115250309Y-146119904D01*
X115202690Y-146167523D01*
X115107452Y-146215142D01*
X115012214Y-146215142D01*
X114916976Y-146167523D01*
X114869357Y-146119904D01*
X114869357Y-145738952D02*
X114869357Y-146119904D01*
X114821738Y-146167523D01*
X114774119Y-146167523D01*
X114678880Y-146119904D01*
X114631261Y-146024666D01*
X114631261Y-145786571D01*
X114726500Y-145643714D01*
X114869357Y-145548476D01*
X115059833Y-145500857D01*
X115250309Y-145548476D01*
X115393166Y-145643714D01*
X115488404Y-145786571D01*
X115536023Y-145977047D01*
X115488404Y-146167523D01*
X115393166Y-146310380D01*
X115250309Y-146405619D01*
X115059833Y-146453238D01*
X114869357Y-146405619D01*
X114726500Y-146310380D01*
X113774119Y-146310380D02*
X113774119Y-145786571D01*
X113821738Y-145691333D01*
X113916976Y-145643714D01*
X114107452Y-145643714D01*
X114202690Y-145691333D01*
X113774119Y-146262761D02*
X113869357Y-146310380D01*
X114107452Y-146310380D01*
X114202690Y-146262761D01*
X114250309Y-146167523D01*
X114250309Y-146072285D01*
X114202690Y-145977047D01*
X114107452Y-145929428D01*
X113869357Y-145929428D01*
X113774119Y-145881809D01*
X113297928Y-146310380D02*
X113297928Y-145310380D01*
X113297928Y-145691333D02*
X113202690Y-145643714D01*
X113012214Y-145643714D01*
X112916976Y-145691333D01*
X112869357Y-145738952D01*
X112821738Y-145834190D01*
X112821738Y-146119904D01*
X112869357Y-146215142D01*
X112916976Y-146262761D01*
X113012214Y-146310380D01*
X113202690Y-146310380D01*
X113297928Y-146262761D01*
X112393166Y-146310380D02*
X112393166Y-145643714D01*
X112393166Y-145834190D02*
X112345547Y-145738952D01*
X112297928Y-145691333D01*
X112202690Y-145643714D01*
X112107452Y-145643714D01*
X111345547Y-145643714D02*
X111345547Y-146310380D01*
X111774119Y-145643714D02*
X111774119Y-146167523D01*
X111726500Y-146262761D01*
X111631261Y-146310380D01*
X111488404Y-146310380D01*
X111393166Y-146262761D01*
X111345547Y-146215142D01*
X110440785Y-145643714D02*
X110440785Y-146453238D01*
X110488404Y-146548476D01*
X110536023Y-146596095D01*
X110631261Y-146643714D01*
X110774119Y-146643714D01*
X110869357Y-146596095D01*
X110440785Y-146262761D02*
X110536023Y-146310380D01*
X110726500Y-146310380D01*
X110821738Y-146262761D01*
X110869357Y-146215142D01*
X110916976Y-146119904D01*
X110916976Y-145834190D01*
X110869357Y-145738952D01*
X110821738Y-145691333D01*
X110726500Y-145643714D01*
X110536023Y-145643714D01*
X110440785Y-145691333D01*
X110012214Y-146262761D02*
X109916976Y-146310380D01*
X109726500Y-146310380D01*
X109631261Y-146262761D01*
X109583642Y-146167523D01*
X109583642Y-146119904D01*
X109631261Y-146024666D01*
X109726500Y-145977047D01*
X109869357Y-145977047D01*
X109964595Y-145929428D01*
X110012214Y-145834190D01*
X110012214Y-145786571D01*
X109964595Y-145691333D01*
X109869357Y-145643714D01*
X109726500Y-145643714D01*
X109631261Y-145691333D01*
X108726500Y-146262761D02*
X108821738Y-146310380D01*
X109012214Y-146310380D01*
X109107452Y-146262761D01*
X109155071Y-146215142D01*
X109202690Y-146119904D01*
X109202690Y-145834190D01*
X109155071Y-145738952D01*
X109107452Y-145691333D01*
X109012214Y-145643714D01*
X108821738Y-145643714D01*
X108726500Y-145691333D01*
X108297928Y-146310380D02*
X108297928Y-145310380D01*
X107869357Y-146310380D02*
X107869357Y-145786571D01*
X107916976Y-145691333D01*
X108012214Y-145643714D01*
X108155071Y-145643714D01*
X108250309Y-145691333D01*
X108297928Y-145738952D01*
D11*
%TO.C,REF\u002A\u002A*%
G36*
X88448114Y-145713505D02*
G01*
X88373461Y-145750727D01*
X88307569Y-145819261D01*
X88289423Y-145844648D01*
X88269655Y-145877866D01*
X88256828Y-145913945D01*
X88249490Y-145962098D01*
X88246187Y-146031536D01*
X88245462Y-146123206D01*
X88248737Y-146248830D01*
X88260123Y-146343154D01*
X88281959Y-146413523D01*
X88316581Y-146467286D01*
X88366330Y-146511788D01*
X88369986Y-146514423D01*
X88419015Y-146541377D01*
X88478055Y-146554712D01*
X88553141Y-146558000D01*
X88675205Y-146558000D01*
X88675256Y-146676497D01*
X88676392Y-146742492D01*
X88683314Y-146781202D01*
X88701402Y-146804419D01*
X88736038Y-146823933D01*
X88744355Y-146827920D01*
X88783280Y-146846603D01*
X88813417Y-146858403D01*
X88835826Y-146859422D01*
X88851567Y-146845761D01*
X88861698Y-146813522D01*
X88867277Y-146758804D01*
X88869365Y-146677711D01*
X88869019Y-146566344D01*
X88867300Y-146420802D01*
X88866763Y-146377269D01*
X88864828Y-146227205D01*
X88863096Y-146129042D01*
X88675308Y-146129042D01*
X88674252Y-146212364D01*
X88669562Y-146266880D01*
X88658949Y-146302837D01*
X88640128Y-146330482D01*
X88627350Y-146343965D01*
X88575110Y-146383417D01*
X88528858Y-146386628D01*
X88481133Y-146354049D01*
X88479923Y-146352846D01*
X88460506Y-146327668D01*
X88448693Y-146293447D01*
X88442735Y-146240748D01*
X88440880Y-146160131D01*
X88440846Y-146142271D01*
X88445330Y-146031175D01*
X88459926Y-145954161D01*
X88486350Y-145907147D01*
X88526317Y-145886050D01*
X88549416Y-145883923D01*
X88604238Y-145893900D01*
X88641842Y-145926752D01*
X88664477Y-145986857D01*
X88674394Y-146078598D01*
X88675308Y-146129042D01*
X88863096Y-146129042D01*
X88862778Y-146111060D01*
X88860127Y-146023679D01*
X88856394Y-145959905D01*
X88851093Y-145914582D01*
X88843742Y-145882555D01*
X88833857Y-145858668D01*
X88820954Y-145837764D01*
X88815421Y-145829898D01*
X88742031Y-145755595D01*
X88649240Y-145713467D01*
X88541904Y-145701722D01*
X88448114Y-145713505D01*
G37*
X88448114Y-145713505D02*
X88373461Y-145750727D01*
X88307569Y-145819261D01*
X88289423Y-145844648D01*
X88269655Y-145877866D01*
X88256828Y-145913945D01*
X88249490Y-145962098D01*
X88246187Y-146031536D01*
X88245462Y-146123206D01*
X88248737Y-146248830D01*
X88260123Y-146343154D01*
X88281959Y-146413523D01*
X88316581Y-146467286D01*
X88366330Y-146511788D01*
X88369986Y-146514423D01*
X88419015Y-146541377D01*
X88478055Y-146554712D01*
X88553141Y-146558000D01*
X88675205Y-146558000D01*
X88675256Y-146676497D01*
X88676392Y-146742492D01*
X88683314Y-146781202D01*
X88701402Y-146804419D01*
X88736038Y-146823933D01*
X88744355Y-146827920D01*
X88783280Y-146846603D01*
X88813417Y-146858403D01*
X88835826Y-146859422D01*
X88851567Y-146845761D01*
X88861698Y-146813522D01*
X88867277Y-146758804D01*
X88869365Y-146677711D01*
X88869019Y-146566344D01*
X88867300Y-146420802D01*
X88866763Y-146377269D01*
X88864828Y-146227205D01*
X88863096Y-146129042D01*
X88675308Y-146129042D01*
X88674252Y-146212364D01*
X88669562Y-146266880D01*
X88658949Y-146302837D01*
X88640128Y-146330482D01*
X88627350Y-146343965D01*
X88575110Y-146383417D01*
X88528858Y-146386628D01*
X88481133Y-146354049D01*
X88479923Y-146352846D01*
X88460506Y-146327668D01*
X88448693Y-146293447D01*
X88442735Y-146240748D01*
X88440880Y-146160131D01*
X88440846Y-146142271D01*
X88445330Y-146031175D01*
X88459926Y-145954161D01*
X88486350Y-145907147D01*
X88526317Y-145886050D01*
X88549416Y-145883923D01*
X88604238Y-145893900D01*
X88641842Y-145926752D01*
X88664477Y-145986857D01*
X88674394Y-146078598D01*
X88675308Y-146129042D01*
X88863096Y-146129042D01*
X88862778Y-146111060D01*
X88860127Y-146023679D01*
X88856394Y-145959905D01*
X88851093Y-145914582D01*
X88843742Y-145882555D01*
X88833857Y-145858668D01*
X88820954Y-145837764D01*
X88815421Y-145829898D01*
X88742031Y-145755595D01*
X88649240Y-145713467D01*
X88541904Y-145701722D01*
X88448114Y-145713505D01*
G36*
X86945336Y-145724089D02*
G01*
X86882633Y-145760358D01*
X86839039Y-145796358D01*
X86807155Y-145834075D01*
X86785190Y-145880199D01*
X86771351Y-145941421D01*
X86763847Y-146024431D01*
X86760883Y-146135919D01*
X86760539Y-146216062D01*
X86760539Y-146511065D01*
X86926615Y-146585515D01*
X86936385Y-146262402D01*
X86940421Y-146141729D01*
X86944656Y-146054141D01*
X86949903Y-145993650D01*
X86956975Y-145954268D01*
X86966689Y-145930007D01*
X86979856Y-145914880D01*
X86984081Y-145911606D01*
X87048091Y-145886034D01*
X87112792Y-145896153D01*
X87151308Y-145923000D01*
X87166975Y-145942024D01*
X87177820Y-145966988D01*
X87184712Y-146004834D01*
X87188521Y-146062502D01*
X87190117Y-146146935D01*
X87190385Y-146234928D01*
X87190437Y-146345323D01*
X87192328Y-146423463D01*
X87198655Y-146476165D01*
X87212017Y-146510242D01*
X87235015Y-146532511D01*
X87270246Y-146549787D01*
X87317303Y-146567738D01*
X87368697Y-146587278D01*
X87362579Y-146240485D01*
X87360116Y-146115468D01*
X87357233Y-146023082D01*
X87353102Y-145956881D01*
X87346893Y-145910420D01*
X87337774Y-145877256D01*
X87324917Y-145850944D01*
X87309416Y-145827729D01*
X87234629Y-145753569D01*
X87143372Y-145710684D01*
X87044117Y-145700412D01*
X86945336Y-145724089D01*
G37*
X86945336Y-145724089D02*
X86882633Y-145760358D01*
X86839039Y-145796358D01*
X86807155Y-145834075D01*
X86785190Y-145880199D01*
X86771351Y-145941421D01*
X86763847Y-146024431D01*
X86760883Y-146135919D01*
X86760539Y-146216062D01*
X86760539Y-146511065D01*
X86926615Y-146585515D01*
X86936385Y-146262402D01*
X86940421Y-146141729D01*
X86944656Y-146054141D01*
X86949903Y-145993650D01*
X86956975Y-145954268D01*
X86966689Y-145930007D01*
X86979856Y-145914880D01*
X86984081Y-145911606D01*
X87048091Y-145886034D01*
X87112792Y-145896153D01*
X87151308Y-145923000D01*
X87166975Y-145942024D01*
X87177820Y-145966988D01*
X87184712Y-146004834D01*
X87188521Y-146062502D01*
X87190117Y-146146935D01*
X87190385Y-146234928D01*
X87190437Y-146345323D01*
X87192328Y-146423463D01*
X87198655Y-146476165D01*
X87212017Y-146510242D01*
X87235015Y-146532511D01*
X87270246Y-146549787D01*
X87317303Y-146567738D01*
X87368697Y-146587278D01*
X87362579Y-146240485D01*
X87360116Y-146115468D01*
X87357233Y-146023082D01*
X87353102Y-145956881D01*
X87346893Y-145910420D01*
X87337774Y-145877256D01*
X87324917Y-145850944D01*
X87309416Y-145827729D01*
X87234629Y-145753569D01*
X87143372Y-145710684D01*
X87044117Y-145700412D01*
X86945336Y-145724089D01*
G36*
X89200114Y-145716256D02*
G01*
X89108536Y-145764409D01*
X89040951Y-145841905D01*
X89016943Y-145891727D01*
X88998262Y-145966533D01*
X88988699Y-146061052D01*
X88987792Y-146164210D01*
X88995079Y-146264935D01*
X89010097Y-146352153D01*
X89032385Y-146414791D01*
X89039235Y-146425579D01*
X89120368Y-146506105D01*
X89216734Y-146554336D01*
X89321299Y-146568450D01*
X89427032Y-146546629D01*
X89456457Y-146533547D01*
X89513759Y-146493231D01*
X89564050Y-146439775D01*
X89568803Y-146432995D01*
X89588122Y-146400321D01*
X89600892Y-146365394D01*
X89608436Y-146319414D01*
X89612076Y-146253584D01*
X89613135Y-146159105D01*
X89613154Y-146137923D01*
X89613106Y-146131182D01*
X89417769Y-146131182D01*
X89416632Y-146220349D01*
X89412159Y-146279520D01*
X89402754Y-146317741D01*
X89386824Y-146344053D01*
X89378692Y-146352846D01*
X89331942Y-146386261D01*
X89286553Y-146384737D01*
X89240660Y-146355752D01*
X89213288Y-146324809D01*
X89197077Y-146279643D01*
X89187974Y-146208420D01*
X89187349Y-146200114D01*
X89185796Y-146071037D01*
X89202035Y-145975172D01*
X89235848Y-145913107D01*
X89287016Y-145885432D01*
X89305280Y-145883923D01*
X89353240Y-145891513D01*
X89386047Y-145917808D01*
X89406105Y-145968095D01*
X89415822Y-146047664D01*
X89417769Y-146131182D01*
X89613106Y-146131182D01*
X89612426Y-146037249D01*
X89609371Y-145966906D01*
X89602678Y-145918163D01*
X89591040Y-145882288D01*
X89573147Y-145850548D01*
X89569192Y-145844648D01*
X89502733Y-145765104D01*
X89430315Y-145718929D01*
X89342151Y-145700599D01*
X89312213Y-145699703D01*
X89200114Y-145716256D01*
G37*
X89200114Y-145716256D02*
X89108536Y-145764409D01*
X89040951Y-145841905D01*
X89016943Y-145891727D01*
X88998262Y-145966533D01*
X88988699Y-146061052D01*
X88987792Y-146164210D01*
X88995079Y-146264935D01*
X89010097Y-146352153D01*
X89032385Y-146414791D01*
X89039235Y-146425579D01*
X89120368Y-146506105D01*
X89216734Y-146554336D01*
X89321299Y-146568450D01*
X89427032Y-146546629D01*
X89456457Y-146533547D01*
X89513759Y-146493231D01*
X89564050Y-146439775D01*
X89568803Y-146432995D01*
X89588122Y-146400321D01*
X89600892Y-146365394D01*
X89608436Y-146319414D01*
X89612076Y-146253584D01*
X89613135Y-146159105D01*
X89613154Y-146137923D01*
X89613106Y-146131182D01*
X89417769Y-146131182D01*
X89416632Y-146220349D01*
X89412159Y-146279520D01*
X89402754Y-146317741D01*
X89386824Y-146344053D01*
X89378692Y-146352846D01*
X89331942Y-146386261D01*
X89286553Y-146384737D01*
X89240660Y-146355752D01*
X89213288Y-146324809D01*
X89197077Y-146279643D01*
X89187974Y-146208420D01*
X89187349Y-146200114D01*
X89185796Y-146071037D01*
X89202035Y-145975172D01*
X89235848Y-145913107D01*
X89287016Y-145885432D01*
X89305280Y-145883923D01*
X89353240Y-145891513D01*
X89386047Y-145917808D01*
X89406105Y-145968095D01*
X89415822Y-146047664D01*
X89417769Y-146131182D01*
X89613106Y-146131182D01*
X89612426Y-146037249D01*
X89609371Y-145966906D01*
X89602678Y-145918163D01*
X89591040Y-145882288D01*
X89573147Y-145850548D01*
X89569192Y-145844648D01*
X89502733Y-145765104D01*
X89430315Y-145718929D01*
X89342151Y-145700599D01*
X89312213Y-145699703D01*
X89200114Y-145716256D01*
G36*
X87682746Y-145728745D02*
G01*
X87605714Y-145780567D01*
X87546184Y-145855412D01*
X87510622Y-145950654D01*
X87503429Y-146020756D01*
X87504246Y-146050009D01*
X87511086Y-146072407D01*
X87529888Y-146092474D01*
X87566592Y-146114733D01*
X87627138Y-146143709D01*
X87717466Y-146183927D01*
X87717923Y-146184129D01*
X87801067Y-146222210D01*
X87869247Y-146256025D01*
X87915495Y-146281933D01*
X87932842Y-146296295D01*
X87932846Y-146296411D01*
X87917557Y-146327685D01*
X87881804Y-146362157D01*
X87840758Y-146386990D01*
X87819963Y-146391923D01*
X87763230Y-146374862D01*
X87714373Y-146332133D01*
X87690535Y-146285155D01*
X87667603Y-146250522D01*
X87622682Y-146211081D01*
X87569877Y-146177009D01*
X87523290Y-146158480D01*
X87513548Y-146157462D01*
X87502582Y-146174215D01*
X87501921Y-146217039D01*
X87509980Y-146274781D01*
X87525173Y-146336289D01*
X87545914Y-146390409D01*
X87546962Y-146392510D01*
X87609379Y-146479660D01*
X87690274Y-146538939D01*
X87782144Y-146568034D01*
X87877487Y-146564634D01*
X87968802Y-146526428D01*
X87972862Y-146523741D01*
X88044694Y-146458642D01*
X88091927Y-146373705D01*
X88118066Y-146262021D01*
X88121574Y-146230643D01*
X88127787Y-146082536D01*
X88120339Y-146013468D01*
X87932846Y-146013468D01*
X87930410Y-146056552D01*
X87917086Y-146069126D01*
X87883868Y-146059719D01*
X87831506Y-146037483D01*
X87772976Y-146009610D01*
X87771521Y-146008872D01*
X87721911Y-145982777D01*
X87702000Y-145965363D01*
X87706910Y-145947107D01*
X87727584Y-145923120D01*
X87780181Y-145888406D01*
X87836823Y-145885856D01*
X87887631Y-145911119D01*
X87922724Y-145959847D01*
X87932846Y-146013468D01*
X88120339Y-146013468D01*
X88115008Y-145964036D01*
X88082222Y-145870055D01*
X88036579Y-145804215D01*
X87954198Y-145737681D01*
X87863454Y-145704676D01*
X87770815Y-145702573D01*
X87682746Y-145728745D01*
G37*
X87682746Y-145728745D02*
X87605714Y-145780567D01*
X87546184Y-145855412D01*
X87510622Y-145950654D01*
X87503429Y-146020756D01*
X87504246Y-146050009D01*
X87511086Y-146072407D01*
X87529888Y-146092474D01*
X87566592Y-146114733D01*
X87627138Y-146143709D01*
X87717466Y-146183927D01*
X87717923Y-146184129D01*
X87801067Y-146222210D01*
X87869247Y-146256025D01*
X87915495Y-146281933D01*
X87932842Y-146296295D01*
X87932846Y-146296411D01*
X87917557Y-146327685D01*
X87881804Y-146362157D01*
X87840758Y-146386990D01*
X87819963Y-146391923D01*
X87763230Y-146374862D01*
X87714373Y-146332133D01*
X87690535Y-146285155D01*
X87667603Y-146250522D01*
X87622682Y-146211081D01*
X87569877Y-146177009D01*
X87523290Y-146158480D01*
X87513548Y-146157462D01*
X87502582Y-146174215D01*
X87501921Y-146217039D01*
X87509980Y-146274781D01*
X87525173Y-146336289D01*
X87545914Y-146390409D01*
X87546962Y-146392510D01*
X87609379Y-146479660D01*
X87690274Y-146538939D01*
X87782144Y-146568034D01*
X87877487Y-146564634D01*
X87968802Y-146526428D01*
X87972862Y-146523741D01*
X88044694Y-146458642D01*
X88091927Y-146373705D01*
X88118066Y-146262021D01*
X88121574Y-146230643D01*
X88127787Y-146082536D01*
X88120339Y-146013468D01*
X87932846Y-146013468D01*
X87930410Y-146056552D01*
X87917086Y-146069126D01*
X87883868Y-146059719D01*
X87831506Y-146037483D01*
X87772976Y-146009610D01*
X87771521Y-146008872D01*
X87721911Y-145982777D01*
X87702000Y-145965363D01*
X87706910Y-145947107D01*
X87727584Y-145923120D01*
X87780181Y-145888406D01*
X87836823Y-145885856D01*
X87887631Y-145911119D01*
X87922724Y-145959847D01*
X87932846Y-146013468D01*
X88120339Y-146013468D01*
X88115008Y-145964036D01*
X88082222Y-145870055D01*
X88036579Y-145804215D01*
X87954198Y-145737681D01*
X87863454Y-145704676D01*
X87770815Y-145702573D01*
X87682746Y-145728745D01*
G36*
X86057154Y-145621120D02*
G01*
X86051428Y-145700980D01*
X86044851Y-145748039D01*
X86035738Y-145768566D01*
X86022402Y-145768829D01*
X86018077Y-145766378D01*
X85960556Y-145748636D01*
X85885732Y-145749672D01*
X85809661Y-145767910D01*
X85762082Y-145791505D01*
X85713298Y-145829198D01*
X85677636Y-145871855D01*
X85653155Y-145926057D01*
X85637913Y-145998384D01*
X85629970Y-146095419D01*
X85627384Y-146223742D01*
X85627338Y-146248358D01*
X85627308Y-146524870D01*
X85688839Y-146546320D01*
X85732541Y-146560912D01*
X85756518Y-146567706D01*
X85757223Y-146567769D01*
X85759585Y-146549345D01*
X85761594Y-146498526D01*
X85763099Y-146421993D01*
X85763947Y-146326430D01*
X85764077Y-146268329D01*
X85764349Y-146153771D01*
X85765748Y-146071667D01*
X85769151Y-146015393D01*
X85775433Y-145978326D01*
X85785471Y-145953844D01*
X85800139Y-145935325D01*
X85809298Y-145926406D01*
X85872211Y-145890466D01*
X85940864Y-145887775D01*
X86003152Y-145918170D01*
X86014671Y-145929144D01*
X86031567Y-145949779D01*
X86043286Y-145974256D01*
X86050767Y-146009647D01*
X86054946Y-146063026D01*
X86056763Y-146141466D01*
X86057154Y-146249617D01*
X86057154Y-146524870D01*
X86118685Y-146546320D01*
X86162387Y-146560912D01*
X86186364Y-146567706D01*
X86187070Y-146567769D01*
X86188874Y-146549069D01*
X86190500Y-146496322D01*
X86191883Y-146414557D01*
X86192958Y-146308805D01*
X86193660Y-146184094D01*
X86193923Y-146045455D01*
X86193923Y-145510806D01*
X86066923Y-145457236D01*
X86057154Y-145621120D01*
G37*
X86057154Y-145621120D02*
X86051428Y-145700980D01*
X86044851Y-145748039D01*
X86035738Y-145768566D01*
X86022402Y-145768829D01*
X86018077Y-145766378D01*
X85960556Y-145748636D01*
X85885732Y-145749672D01*
X85809661Y-145767910D01*
X85762082Y-145791505D01*
X85713298Y-145829198D01*
X85677636Y-145871855D01*
X85653155Y-145926057D01*
X85637913Y-145998384D01*
X85629970Y-146095419D01*
X85627384Y-146223742D01*
X85627338Y-146248358D01*
X85627308Y-146524870D01*
X85688839Y-146546320D01*
X85732541Y-146560912D01*
X85756518Y-146567706D01*
X85757223Y-146567769D01*
X85759585Y-146549345D01*
X85761594Y-146498526D01*
X85763099Y-146421993D01*
X85763947Y-146326430D01*
X85764077Y-146268329D01*
X85764349Y-146153771D01*
X85765748Y-146071667D01*
X85769151Y-146015393D01*
X85775433Y-145978326D01*
X85785471Y-145953844D01*
X85800139Y-145935325D01*
X85809298Y-145926406D01*
X85872211Y-145890466D01*
X85940864Y-145887775D01*
X86003152Y-145918170D01*
X86014671Y-145929144D01*
X86031567Y-145949779D01*
X86043286Y-145974256D01*
X86050767Y-146009647D01*
X86054946Y-146063026D01*
X86056763Y-146141466D01*
X86057154Y-146249617D01*
X86057154Y-146524870D01*
X86118685Y-146546320D01*
X86162387Y-146560912D01*
X86186364Y-146567706D01*
X86187070Y-146567769D01*
X86188874Y-146549069D01*
X86190500Y-146496322D01*
X86191883Y-146414557D01*
X86192958Y-146308805D01*
X86193660Y-146184094D01*
X86193923Y-146045455D01*
X86193923Y-145510806D01*
X86066923Y-145457236D01*
X86057154Y-145621120D01*
G36*
X85163499Y-145755303D02*
G01*
X85086940Y-145783733D01*
X85086064Y-145784279D01*
X85038715Y-145819127D01*
X85003759Y-145859852D01*
X84979175Y-145912925D01*
X84962938Y-145984814D01*
X84953025Y-146081992D01*
X84947414Y-146210928D01*
X84946923Y-146229298D01*
X84939859Y-146506287D01*
X84999305Y-146537028D01*
X85042319Y-146557802D01*
X85068290Y-146567646D01*
X85069491Y-146567769D01*
X85073986Y-146549606D01*
X85077556Y-146500612D01*
X85079752Y-146429031D01*
X85080231Y-146371068D01*
X85080242Y-146277170D01*
X85084534Y-146218203D01*
X85099497Y-146190079D01*
X85131518Y-146188706D01*
X85186986Y-146209998D01*
X85270731Y-146249136D01*
X85332311Y-146281643D01*
X85363983Y-146309845D01*
X85373294Y-146340582D01*
X85373308Y-146342104D01*
X85357943Y-146395054D01*
X85312453Y-146423660D01*
X85242834Y-146427803D01*
X85192687Y-146427084D01*
X85166246Y-146441527D01*
X85149757Y-146476218D01*
X85140267Y-146520416D01*
X85153943Y-146545493D01*
X85159093Y-146549082D01*
X85207575Y-146563496D01*
X85275469Y-146565537D01*
X85345388Y-146555983D01*
X85394932Y-146538522D01*
X85463430Y-146480364D01*
X85502366Y-146399408D01*
X85510077Y-146336160D01*
X85504193Y-146279111D01*
X85482899Y-146232542D01*
X85440735Y-146191181D01*
X85372241Y-146149755D01*
X85271956Y-146102993D01*
X85265846Y-146100350D01*
X85175510Y-146058617D01*
X85119765Y-146024391D01*
X85095871Y-145993635D01*
X85101087Y-145962311D01*
X85132672Y-145926383D01*
X85142117Y-145918116D01*
X85205383Y-145886058D01*
X85270936Y-145887407D01*
X85328028Y-145918838D01*
X85365907Y-145977024D01*
X85369426Y-145988446D01*
X85403700Y-146043837D01*
X85447191Y-146070518D01*
X85510077Y-146096960D01*
X85510077Y-146028548D01*
X85490948Y-145929110D01*
X85434169Y-145837902D01*
X85404622Y-145807389D01*
X85337458Y-145768228D01*
X85252044Y-145750500D01*
X85163499Y-145755303D01*
G37*
X85163499Y-145755303D02*
X85086940Y-145783733D01*
X85086064Y-145784279D01*
X85038715Y-145819127D01*
X85003759Y-145859852D01*
X84979175Y-145912925D01*
X84962938Y-145984814D01*
X84953025Y-146081992D01*
X84947414Y-146210928D01*
X84946923Y-146229298D01*
X84939859Y-146506287D01*
X84999305Y-146537028D01*
X85042319Y-146557802D01*
X85068290Y-146567646D01*
X85069491Y-146567769D01*
X85073986Y-146549606D01*
X85077556Y-146500612D01*
X85079752Y-146429031D01*
X85080231Y-146371068D01*
X85080242Y-146277170D01*
X85084534Y-146218203D01*
X85099497Y-146190079D01*
X85131518Y-146188706D01*
X85186986Y-146209998D01*
X85270731Y-146249136D01*
X85332311Y-146281643D01*
X85363983Y-146309845D01*
X85373294Y-146340582D01*
X85373308Y-146342104D01*
X85357943Y-146395054D01*
X85312453Y-146423660D01*
X85242834Y-146427803D01*
X85192687Y-146427084D01*
X85166246Y-146441527D01*
X85149757Y-146476218D01*
X85140267Y-146520416D01*
X85153943Y-146545493D01*
X85159093Y-146549082D01*
X85207575Y-146563496D01*
X85275469Y-146565537D01*
X85345388Y-146555983D01*
X85394932Y-146538522D01*
X85463430Y-146480364D01*
X85502366Y-146399408D01*
X85510077Y-146336160D01*
X85504193Y-146279111D01*
X85482899Y-146232542D01*
X85440735Y-146191181D01*
X85372241Y-146149755D01*
X85271956Y-146102993D01*
X85265846Y-146100350D01*
X85175510Y-146058617D01*
X85119765Y-146024391D01*
X85095871Y-145993635D01*
X85101087Y-145962311D01*
X85132672Y-145926383D01*
X85142117Y-145918116D01*
X85205383Y-145886058D01*
X85270936Y-145887407D01*
X85328028Y-145918838D01*
X85365907Y-145977024D01*
X85369426Y-145988446D01*
X85403700Y-146043837D01*
X85447191Y-146070518D01*
X85510077Y-146096960D01*
X85510077Y-146028548D01*
X85490948Y-145929110D01*
X85434169Y-145837902D01*
X85404622Y-145807389D01*
X85337458Y-145768228D01*
X85252044Y-145750500D01*
X85163499Y-145755303D01*
G36*
X84503638Y-145753670D02*
G01*
X84414883Y-145786421D01*
X84342978Y-145844350D01*
X84314856Y-145885128D01*
X84284198Y-145959954D01*
X84284835Y-146014058D01*
X84317013Y-146050446D01*
X84328919Y-146056633D01*
X84380325Y-146075925D01*
X84406578Y-146070982D01*
X84415470Y-146038587D01*
X84415923Y-146020692D01*
X84432203Y-145954859D01*
X84474635Y-145908807D01*
X84533612Y-145886564D01*
X84599525Y-145892161D01*
X84653105Y-145921229D01*
X84671202Y-145937810D01*
X84684029Y-145957925D01*
X84692694Y-145988332D01*
X84698304Y-146035788D01*
X84701965Y-146107050D01*
X84704785Y-146208875D01*
X84705516Y-146241115D01*
X84708180Y-146351410D01*
X84711208Y-146429036D01*
X84715750Y-146480396D01*
X84722954Y-146511890D01*
X84733967Y-146529920D01*
X84749940Y-146540888D01*
X84760166Y-146545733D01*
X84803594Y-146562301D01*
X84829158Y-146567769D01*
X84837605Y-146549507D01*
X84842761Y-146494296D01*
X84844654Y-146401499D01*
X84843311Y-146270478D01*
X84842893Y-146250269D01*
X84839942Y-146130733D01*
X84836452Y-146043449D01*
X84831486Y-145981591D01*
X84824107Y-145938336D01*
X84813376Y-145906860D01*
X84798355Y-145880339D01*
X84790498Y-145868975D01*
X84745447Y-145818692D01*
X84695060Y-145779581D01*
X84688892Y-145776167D01*
X84598542Y-145749212D01*
X84503638Y-145753670D01*
G37*
X84503638Y-145753670D02*
X84414883Y-145786421D01*
X84342978Y-145844350D01*
X84314856Y-145885128D01*
X84284198Y-145959954D01*
X84284835Y-146014058D01*
X84317013Y-146050446D01*
X84328919Y-146056633D01*
X84380325Y-146075925D01*
X84406578Y-146070982D01*
X84415470Y-146038587D01*
X84415923Y-146020692D01*
X84432203Y-145954859D01*
X84474635Y-145908807D01*
X84533612Y-145886564D01*
X84599525Y-145892161D01*
X84653105Y-145921229D01*
X84671202Y-145937810D01*
X84684029Y-145957925D01*
X84692694Y-145988332D01*
X84698304Y-146035788D01*
X84701965Y-146107050D01*
X84704785Y-146208875D01*
X84705516Y-146241115D01*
X84708180Y-146351410D01*
X84711208Y-146429036D01*
X84715750Y-146480396D01*
X84722954Y-146511890D01*
X84733967Y-146529920D01*
X84749940Y-146540888D01*
X84760166Y-146545733D01*
X84803594Y-146562301D01*
X84829158Y-146567769D01*
X84837605Y-146549507D01*
X84842761Y-146494296D01*
X84844654Y-146401499D01*
X84843311Y-146270478D01*
X84842893Y-146250269D01*
X84839942Y-146130733D01*
X84836452Y-146043449D01*
X84831486Y-145981591D01*
X84824107Y-145938336D01*
X84813376Y-145906860D01*
X84798355Y-145880339D01*
X84790498Y-145868975D01*
X84745447Y-145818692D01*
X84695060Y-145779581D01*
X84688892Y-145776167D01*
X84598542Y-145749212D01*
X84503638Y-145753670D01*
G36*
X83614919Y-145909289D02*
G01*
X83615167Y-146055320D01*
X83616128Y-146167655D01*
X83618206Y-146251678D01*
X83621807Y-146312769D01*
X83627335Y-146356309D01*
X83635196Y-146387679D01*
X83645793Y-146412262D01*
X83653818Y-146426294D01*
X83720272Y-146502388D01*
X83804530Y-146550084D01*
X83897751Y-146567199D01*
X83991100Y-146551546D01*
X84046688Y-146523418D01*
X84105043Y-146474760D01*
X84144814Y-146415333D01*
X84168810Y-146337507D01*
X84179839Y-146233652D01*
X84181401Y-146157462D01*
X84181191Y-146151986D01*
X84044692Y-146151986D01*
X84043859Y-146239355D01*
X84040039Y-146297192D01*
X84031254Y-146335029D01*
X84015526Y-146362398D01*
X83996734Y-146383042D01*
X83933625Y-146422890D01*
X83865863Y-146426295D01*
X83801821Y-146393025D01*
X83796836Y-146388517D01*
X83775561Y-146365067D01*
X83762221Y-146337166D01*
X83754999Y-146295641D01*
X83752077Y-146231316D01*
X83751615Y-146160200D01*
X83752617Y-146070858D01*
X83756762Y-146011258D01*
X83765764Y-145972089D01*
X83781333Y-145944040D01*
X83794098Y-145929144D01*
X83853400Y-145891575D01*
X83921699Y-145887057D01*
X83986890Y-145915753D01*
X83999472Y-145926406D01*
X84020889Y-145950063D01*
X84034256Y-145978251D01*
X84041434Y-146020245D01*
X84044281Y-146085319D01*
X84044692Y-146151986D01*
X84181191Y-146151986D01*
X84176678Y-146034765D01*
X84160638Y-145942577D01*
X84130472Y-145873269D01*
X84083371Y-145819211D01*
X84046688Y-145791505D01*
X83980010Y-145761572D01*
X83902728Y-145747678D01*
X83830890Y-145751397D01*
X83790692Y-145766400D01*
X83774918Y-145770670D01*
X83764450Y-145754750D01*
X83757144Y-145712089D01*
X83751615Y-145647106D01*
X83745563Y-145574732D01*
X83737156Y-145531187D01*
X83721859Y-145506287D01*
X83695136Y-145489845D01*
X83678346Y-145482564D01*
X83614846Y-145455963D01*
X83614919Y-145909289D01*
G37*
X83614919Y-145909289D02*
X83615167Y-146055320D01*
X83616128Y-146167655D01*
X83618206Y-146251678D01*
X83621807Y-146312769D01*
X83627335Y-146356309D01*
X83635196Y-146387679D01*
X83645793Y-146412262D01*
X83653818Y-146426294D01*
X83720272Y-146502388D01*
X83804530Y-146550084D01*
X83897751Y-146567199D01*
X83991100Y-146551546D01*
X84046688Y-146523418D01*
X84105043Y-146474760D01*
X84144814Y-146415333D01*
X84168810Y-146337507D01*
X84179839Y-146233652D01*
X84181401Y-146157462D01*
X84181191Y-146151986D01*
X84044692Y-146151986D01*
X84043859Y-146239355D01*
X84040039Y-146297192D01*
X84031254Y-146335029D01*
X84015526Y-146362398D01*
X83996734Y-146383042D01*
X83933625Y-146422890D01*
X83865863Y-146426295D01*
X83801821Y-146393025D01*
X83796836Y-146388517D01*
X83775561Y-146365067D01*
X83762221Y-146337166D01*
X83754999Y-146295641D01*
X83752077Y-146231316D01*
X83751615Y-146160200D01*
X83752617Y-146070858D01*
X83756762Y-146011258D01*
X83765764Y-145972089D01*
X83781333Y-145944040D01*
X83794098Y-145929144D01*
X83853400Y-145891575D01*
X83921699Y-145887057D01*
X83986890Y-145915753D01*
X83999472Y-145926406D01*
X84020889Y-145950063D01*
X84034256Y-145978251D01*
X84041434Y-146020245D01*
X84044281Y-146085319D01*
X84044692Y-146151986D01*
X84181191Y-146151986D01*
X84176678Y-146034765D01*
X84160638Y-145942577D01*
X84130472Y-145873269D01*
X84083371Y-145819211D01*
X84046688Y-145791505D01*
X83980010Y-145761572D01*
X83902728Y-145747678D01*
X83830890Y-145751397D01*
X83790692Y-145766400D01*
X83774918Y-145770670D01*
X83764450Y-145754750D01*
X83757144Y-145712089D01*
X83751615Y-145647106D01*
X83745563Y-145574732D01*
X83737156Y-145531187D01*
X83721859Y-145506287D01*
X83695136Y-145489845D01*
X83678346Y-145482564D01*
X83614846Y-145455963D01*
X83614919Y-145909289D01*
G36*
X82821071Y-145765662D02*
G01*
X82818089Y-145817068D01*
X82815753Y-145895192D01*
X82814251Y-145993857D01*
X82813769Y-146097343D01*
X82813769Y-146447533D01*
X82875599Y-146509363D01*
X82918207Y-146547462D01*
X82955610Y-146562895D01*
X83006730Y-146561918D01*
X83027022Y-146559433D01*
X83090446Y-146552200D01*
X83142905Y-146548055D01*
X83155692Y-146547672D01*
X83198801Y-146550176D01*
X83260456Y-146556462D01*
X83284362Y-146559433D01*
X83343078Y-146564028D01*
X83382536Y-146554046D01*
X83421662Y-146523228D01*
X83435785Y-146509363D01*
X83497615Y-146447533D01*
X83497615Y-145792503D01*
X83447850Y-145769829D01*
X83404998Y-145753034D01*
X83379927Y-145747154D01*
X83373499Y-145765736D01*
X83367491Y-145817655D01*
X83362303Y-145897172D01*
X83358336Y-145998546D01*
X83356423Y-146084192D01*
X83351077Y-146421231D01*
X83304440Y-146427825D01*
X83262024Y-146423214D01*
X83241240Y-146408287D01*
X83235430Y-146380377D01*
X83230470Y-146320925D01*
X83226754Y-146237466D01*
X83224676Y-146137532D01*
X83224376Y-146086104D01*
X83224077Y-145790054D01*
X83162546Y-145768604D01*
X83118996Y-145754020D01*
X83095306Y-145747219D01*
X83094623Y-145747154D01*
X83092246Y-145765642D01*
X83089634Y-145816906D01*
X83087005Y-145894649D01*
X83084579Y-145992574D01*
X83082885Y-146084192D01*
X83077539Y-146421231D01*
X82960308Y-146421231D01*
X82954928Y-146113746D01*
X82949549Y-145806261D01*
X82892399Y-145776707D01*
X82850203Y-145756413D01*
X82825230Y-145747204D01*
X82824509Y-145747154D01*
X82821071Y-145765662D01*
G37*
X82821071Y-145765662D02*
X82818089Y-145817068D01*
X82815753Y-145895192D01*
X82814251Y-145993857D01*
X82813769Y-146097343D01*
X82813769Y-146447533D01*
X82875599Y-146509363D01*
X82918207Y-146547462D01*
X82955610Y-146562895D01*
X83006730Y-146561918D01*
X83027022Y-146559433D01*
X83090446Y-146552200D01*
X83142905Y-146548055D01*
X83155692Y-146547672D01*
X83198801Y-146550176D01*
X83260456Y-146556462D01*
X83284362Y-146559433D01*
X83343078Y-146564028D01*
X83382536Y-146554046D01*
X83421662Y-146523228D01*
X83435785Y-146509363D01*
X83497615Y-146447533D01*
X83497615Y-145792503D01*
X83447850Y-145769829D01*
X83404998Y-145753034D01*
X83379927Y-145747154D01*
X83373499Y-145765736D01*
X83367491Y-145817655D01*
X83362303Y-145897172D01*
X83358336Y-145998546D01*
X83356423Y-146084192D01*
X83351077Y-146421231D01*
X83304440Y-146427825D01*
X83262024Y-146423214D01*
X83241240Y-146408287D01*
X83235430Y-146380377D01*
X83230470Y-146320925D01*
X83226754Y-146237466D01*
X83224676Y-146137532D01*
X83224376Y-146086104D01*
X83224077Y-145790054D01*
X83162546Y-145768604D01*
X83118996Y-145754020D01*
X83095306Y-145747219D01*
X83094623Y-145747154D01*
X83092246Y-145765642D01*
X83089634Y-145816906D01*
X83087005Y-145894649D01*
X83084579Y-145992574D01*
X83082885Y-146084192D01*
X83077539Y-146421231D01*
X82960308Y-146421231D01*
X82954928Y-146113746D01*
X82949549Y-145806261D01*
X82892399Y-145776707D01*
X82850203Y-145756413D01*
X82825230Y-145747204D01*
X82824509Y-145747154D01*
X82821071Y-145765662D01*
G36*
X82329667Y-145762528D02*
G01*
X82273410Y-145788117D01*
X82229253Y-145819124D01*
X82196899Y-145853795D01*
X82174562Y-145898520D01*
X82160454Y-145959692D01*
X82152789Y-146043701D01*
X82149780Y-146156940D01*
X82149462Y-146231509D01*
X82149462Y-146522420D01*
X82199227Y-146545095D01*
X82238424Y-146561667D01*
X82257843Y-146567769D01*
X82261558Y-146549610D01*
X82264505Y-146500648D01*
X82266309Y-146429153D01*
X82266692Y-146372385D01*
X82268339Y-146290371D01*
X82272778Y-146225309D01*
X82279260Y-146185467D01*
X82284410Y-146177000D01*
X82319023Y-146185646D01*
X82373360Y-146207823D01*
X82436278Y-146237886D01*
X82496632Y-146270192D01*
X82543279Y-146299098D01*
X82565074Y-146318961D01*
X82565161Y-146319175D01*
X82563286Y-146355935D01*
X82546475Y-146391026D01*
X82516961Y-146419528D01*
X82473884Y-146429061D01*
X82437068Y-146427950D01*
X82384926Y-146427133D01*
X82357556Y-146439349D01*
X82341118Y-146471624D01*
X82339045Y-146477710D01*
X82331919Y-146523739D01*
X82350976Y-146551687D01*
X82400647Y-146565007D01*
X82454303Y-146567470D01*
X82550858Y-146549210D01*
X82600841Y-146523131D01*
X82662571Y-146461868D01*
X82695310Y-146386670D01*
X82698247Y-146307211D01*
X82670576Y-146233167D01*
X82628953Y-146186769D01*
X82587396Y-146160793D01*
X82522078Y-146127907D01*
X82445962Y-146094557D01*
X82433274Y-146089461D01*
X82349667Y-146052565D01*
X82301470Y-146020046D01*
X82285970Y-145987718D01*
X82300450Y-145951394D01*
X82325308Y-145923000D01*
X82384061Y-145888039D01*
X82448707Y-145885417D01*
X82507992Y-145912358D01*
X82550661Y-145966088D01*
X82556261Y-145979950D01*
X82588867Y-146030936D01*
X82636470Y-146068787D01*
X82696539Y-146099850D01*
X82696539Y-146011768D01*
X82693003Y-145957951D01*
X82677844Y-145915534D01*
X82644232Y-145870279D01*
X82611965Y-145835420D01*
X82561791Y-145786062D01*
X82522807Y-145759547D01*
X82480936Y-145748911D01*
X82433540Y-145747154D01*
X82329667Y-145762528D01*
G37*
X82329667Y-145762528D02*
X82273410Y-145788117D01*
X82229253Y-145819124D01*
X82196899Y-145853795D01*
X82174562Y-145898520D01*
X82160454Y-145959692D01*
X82152789Y-146043701D01*
X82149780Y-146156940D01*
X82149462Y-146231509D01*
X82149462Y-146522420D01*
X82199227Y-146545095D01*
X82238424Y-146561667D01*
X82257843Y-146567769D01*
X82261558Y-146549610D01*
X82264505Y-146500648D01*
X82266309Y-146429153D01*
X82266692Y-146372385D01*
X82268339Y-146290371D01*
X82272778Y-146225309D01*
X82279260Y-146185467D01*
X82284410Y-146177000D01*
X82319023Y-146185646D01*
X82373360Y-146207823D01*
X82436278Y-146237886D01*
X82496632Y-146270192D01*
X82543279Y-146299098D01*
X82565074Y-146318961D01*
X82565161Y-146319175D01*
X82563286Y-146355935D01*
X82546475Y-146391026D01*
X82516961Y-146419528D01*
X82473884Y-146429061D01*
X82437068Y-146427950D01*
X82384926Y-146427133D01*
X82357556Y-146439349D01*
X82341118Y-146471624D01*
X82339045Y-146477710D01*
X82331919Y-146523739D01*
X82350976Y-146551687D01*
X82400647Y-146565007D01*
X82454303Y-146567470D01*
X82550858Y-146549210D01*
X82600841Y-146523131D01*
X82662571Y-146461868D01*
X82695310Y-146386670D01*
X82698247Y-146307211D01*
X82670576Y-146233167D01*
X82628953Y-146186769D01*
X82587396Y-146160793D01*
X82522078Y-146127907D01*
X82445962Y-146094557D01*
X82433274Y-146089461D01*
X82349667Y-146052565D01*
X82301470Y-146020046D01*
X82285970Y-145987718D01*
X82300450Y-145951394D01*
X82325308Y-145923000D01*
X82384061Y-145888039D01*
X82448707Y-145885417D01*
X82507992Y-145912358D01*
X82550661Y-145966088D01*
X82556261Y-145979950D01*
X82588867Y-146030936D01*
X82636470Y-146068787D01*
X82696539Y-146099850D01*
X82696539Y-146011768D01*
X82693003Y-145957951D01*
X82677844Y-145915534D01*
X82644232Y-145870279D01*
X82611965Y-145835420D01*
X82561791Y-145786062D01*
X82522807Y-145759547D01*
X82480936Y-145748911D01*
X82433540Y-145747154D01*
X82329667Y-145762528D01*
G36*
X81646193Y-145765782D02*
G01*
X81622839Y-145775988D01*
X81567098Y-145820134D01*
X81519431Y-145883967D01*
X81489952Y-145952087D01*
X81485154Y-145985670D01*
X81501240Y-146032556D01*
X81536525Y-146057365D01*
X81574356Y-146072387D01*
X81591679Y-146075155D01*
X81600114Y-146055066D01*
X81616770Y-146011351D01*
X81624077Y-145991598D01*
X81665052Y-145923271D01*
X81724378Y-145889191D01*
X81800448Y-145890239D01*
X81806082Y-145891581D01*
X81846695Y-145910836D01*
X81876552Y-145948375D01*
X81896945Y-146008809D01*
X81909164Y-146096751D01*
X81914500Y-146216813D01*
X81915000Y-146280698D01*
X81915248Y-146381403D01*
X81916874Y-146450054D01*
X81921199Y-146493673D01*
X81929546Y-146519282D01*
X81943235Y-146533903D01*
X81963589Y-146544558D01*
X81964766Y-146545095D01*
X82003962Y-146561667D01*
X82023381Y-146567769D01*
X82026365Y-146549319D01*
X82028919Y-146498323D01*
X82030860Y-146421308D01*
X82032003Y-146324805D01*
X82032231Y-146254184D01*
X82031068Y-146117525D01*
X82026521Y-146013851D01*
X82017001Y-145937108D01*
X82000919Y-145881246D01*
X81976687Y-145840212D01*
X81942714Y-145807954D01*
X81909167Y-145785440D01*
X81828501Y-145755476D01*
X81734619Y-145748718D01*
X81646193Y-145765782D01*
G37*
X81646193Y-145765782D02*
X81622839Y-145775988D01*
X81567098Y-145820134D01*
X81519431Y-145883967D01*
X81489952Y-145952087D01*
X81485154Y-145985670D01*
X81501240Y-146032556D01*
X81536525Y-146057365D01*
X81574356Y-146072387D01*
X81591679Y-146075155D01*
X81600114Y-146055066D01*
X81616770Y-146011351D01*
X81624077Y-145991598D01*
X81665052Y-145923271D01*
X81724378Y-145889191D01*
X81800448Y-145890239D01*
X81806082Y-145891581D01*
X81846695Y-145910836D01*
X81876552Y-145948375D01*
X81896945Y-146008809D01*
X81909164Y-146096751D01*
X81914500Y-146216813D01*
X81915000Y-146280698D01*
X81915248Y-146381403D01*
X81916874Y-146450054D01*
X81921199Y-146493673D01*
X81929546Y-146519282D01*
X81943235Y-146533903D01*
X81963589Y-146544558D01*
X81964766Y-146545095D01*
X82003962Y-146561667D01*
X82023381Y-146567769D01*
X82026365Y-146549319D01*
X82028919Y-146498323D01*
X82030860Y-146421308D01*
X82032003Y-146324805D01*
X82032231Y-146254184D01*
X82031068Y-146117525D01*
X82026521Y-146013851D01*
X82017001Y-145937108D01*
X82000919Y-145881246D01*
X81976687Y-145840212D01*
X81942714Y-145807954D01*
X81909167Y-145785440D01*
X81828501Y-145755476D01*
X81734619Y-145748718D01*
X81646193Y-145765782D01*
G36*
X80971776Y-145776838D02*
G01*
X80894472Y-145827361D01*
X80857186Y-145872590D01*
X80827647Y-145954663D01*
X80825301Y-146019607D01*
X80830615Y-146106445D01*
X81030885Y-146194103D01*
X81128261Y-146238887D01*
X81191887Y-146274913D01*
X81224971Y-146306117D01*
X81230720Y-146336436D01*
X81212342Y-146369805D01*
X81192077Y-146391923D01*
X81133111Y-146427393D01*
X81068976Y-146429879D01*
X81010074Y-146402235D01*
X80966803Y-146347320D01*
X80959064Y-146327928D01*
X80921994Y-146267364D01*
X80879346Y-146241552D01*
X80820846Y-146219471D01*
X80820846Y-146303184D01*
X80826018Y-146360150D01*
X80846277Y-146408189D01*
X80888738Y-146463346D01*
X80895049Y-146470514D01*
X80942280Y-146519585D01*
X80982879Y-146545920D01*
X81033672Y-146558035D01*
X81075780Y-146562003D01*
X81151098Y-146562991D01*
X81204714Y-146550466D01*
X81238162Y-146531869D01*
X81290732Y-146490975D01*
X81327121Y-146446748D01*
X81350150Y-146391126D01*
X81362641Y-146316047D01*
X81367413Y-146213449D01*
X81367794Y-146161376D01*
X81366499Y-146098948D01*
X81248529Y-146098948D01*
X81247161Y-146132438D01*
X81243751Y-146137923D01*
X81221247Y-146130472D01*
X81172818Y-146110753D01*
X81108092Y-146082718D01*
X81094557Y-146076692D01*
X81012756Y-146035096D01*
X80967688Y-145998538D01*
X80957783Y-145964296D01*
X80981474Y-145929648D01*
X81001040Y-145914339D01*
X81071640Y-145883721D01*
X81137720Y-145888780D01*
X81193041Y-145926151D01*
X81231364Y-145992473D01*
X81243651Y-146045116D01*
X81248529Y-146098948D01*
X81366499Y-146098948D01*
X81365270Y-146039720D01*
X81355968Y-145949710D01*
X81337540Y-145884167D01*
X81307640Y-145835912D01*
X81263920Y-145797767D01*
X81244859Y-145785440D01*
X81158274Y-145753336D01*
X81063478Y-145751316D01*
X80971776Y-145776838D01*
G37*
X80971776Y-145776838D02*
X80894472Y-145827361D01*
X80857186Y-145872590D01*
X80827647Y-145954663D01*
X80825301Y-146019607D01*
X80830615Y-146106445D01*
X81030885Y-146194103D01*
X81128261Y-146238887D01*
X81191887Y-146274913D01*
X81224971Y-146306117D01*
X81230720Y-146336436D01*
X81212342Y-146369805D01*
X81192077Y-146391923D01*
X81133111Y-146427393D01*
X81068976Y-146429879D01*
X81010074Y-146402235D01*
X80966803Y-146347320D01*
X80959064Y-146327928D01*
X80921994Y-146267364D01*
X80879346Y-146241552D01*
X80820846Y-146219471D01*
X80820846Y-146303184D01*
X80826018Y-146360150D01*
X80846277Y-146408189D01*
X80888738Y-146463346D01*
X80895049Y-146470514D01*
X80942280Y-146519585D01*
X80982879Y-146545920D01*
X81033672Y-146558035D01*
X81075780Y-146562003D01*
X81151098Y-146562991D01*
X81204714Y-146550466D01*
X81238162Y-146531869D01*
X81290732Y-146490975D01*
X81327121Y-146446748D01*
X81350150Y-146391126D01*
X81362641Y-146316047D01*
X81367413Y-146213449D01*
X81367794Y-146161376D01*
X81366499Y-146098948D01*
X81248529Y-146098948D01*
X81247161Y-146132438D01*
X81243751Y-146137923D01*
X81221247Y-146130472D01*
X81172818Y-146110753D01*
X81108092Y-146082718D01*
X81094557Y-146076692D01*
X81012756Y-146035096D01*
X80967688Y-145998538D01*
X80957783Y-145964296D01*
X80981474Y-145929648D01*
X81001040Y-145914339D01*
X81071640Y-145883721D01*
X81137720Y-145888780D01*
X81193041Y-145926151D01*
X81231364Y-145992473D01*
X81243651Y-146045116D01*
X81248529Y-146098948D01*
X81366499Y-146098948D01*
X81365270Y-146039720D01*
X81355968Y-145949710D01*
X81337540Y-145884167D01*
X81307640Y-145835912D01*
X81263920Y-145797767D01*
X81244859Y-145785440D01*
X81158274Y-145753336D01*
X81063478Y-145751316D01*
X80971776Y-145776838D01*
G36*
X85077122Y-139416776D02*
G01*
X84971388Y-139417355D01*
X84894868Y-139418922D01*
X84842628Y-139421972D01*
X84809737Y-139426996D01*
X84791263Y-139434489D01*
X84782273Y-139444944D01*
X84777837Y-139458853D01*
X84777406Y-139460654D01*
X84770667Y-139493145D01*
X84758192Y-139557252D01*
X84741281Y-139646151D01*
X84721229Y-139753019D01*
X84699336Y-139871033D01*
X84698571Y-139875178D01*
X84676641Y-139990831D01*
X84656123Y-140093014D01*
X84638341Y-140175598D01*
X84624619Y-140232456D01*
X84616282Y-140257458D01*
X84615884Y-140257901D01*
X84591323Y-140270110D01*
X84540685Y-140290456D01*
X84474905Y-140314545D01*
X84474539Y-140314674D01*
X84391683Y-140345818D01*
X84294000Y-140385491D01*
X84201923Y-140425381D01*
X84197566Y-140427353D01*
X84047593Y-140495420D01*
X83715502Y-140268639D01*
X83613626Y-140199504D01*
X83521343Y-140137697D01*
X83443997Y-140086733D01*
X83386936Y-140050127D01*
X83355505Y-140031394D01*
X83352521Y-140030004D01*
X83329679Y-140036190D01*
X83287018Y-140066035D01*
X83222872Y-140120947D01*
X83135579Y-140202334D01*
X83046465Y-140288922D01*
X82960559Y-140374247D01*
X82883673Y-140452108D01*
X82820436Y-140517697D01*
X82775477Y-140566205D01*
X82753424Y-140592825D01*
X82752604Y-140594195D01*
X82750166Y-140612463D01*
X82759350Y-140642295D01*
X82782426Y-140687721D01*
X82821663Y-140752770D01*
X82879330Y-140841470D01*
X82956205Y-140955657D01*
X83024430Y-141056162D01*
X83085418Y-141146303D01*
X83135644Y-141220849D01*
X83171584Y-141274565D01*
X83189713Y-141302218D01*
X83190854Y-141304095D01*
X83188641Y-141330590D01*
X83171862Y-141382086D01*
X83143858Y-141448851D01*
X83133878Y-141470172D01*
X83090328Y-141565159D01*
X83043866Y-141672937D01*
X83006123Y-141766192D01*
X82978927Y-141835406D01*
X82957325Y-141888006D01*
X82944842Y-141915497D01*
X82943291Y-141917616D01*
X82920332Y-141921124D01*
X82866214Y-141930738D01*
X82788132Y-141945089D01*
X82693281Y-141962807D01*
X82588857Y-141982525D01*
X82482056Y-142002874D01*
X82380074Y-142022486D01*
X82290106Y-142039991D01*
X82219347Y-142054022D01*
X82174994Y-142063209D01*
X82164115Y-142065807D01*
X82152878Y-142072218D01*
X82144395Y-142086697D01*
X82138286Y-142114133D01*
X82134168Y-142159411D01*
X82131659Y-142227420D01*
X82130379Y-142323047D01*
X82129946Y-142451180D01*
X82129923Y-142503701D01*
X82129923Y-142930845D01*
X82232500Y-142951091D01*
X82289569Y-142962070D01*
X82374731Y-142978095D01*
X82477628Y-142997233D01*
X82587904Y-143017551D01*
X82618385Y-143023132D01*
X82720145Y-143042917D01*
X82808795Y-143062373D01*
X82876892Y-143079697D01*
X82916996Y-143093088D01*
X82923677Y-143097079D01*
X82940081Y-143125342D01*
X82963601Y-143180109D01*
X82989684Y-143250588D01*
X82994858Y-143265769D01*
X83029044Y-143359896D01*
X83071477Y-143466101D01*
X83113003Y-143561473D01*
X83113208Y-143561916D01*
X83182360Y-143711525D01*
X82727488Y-144380617D01*
X83019500Y-144673116D01*
X83107820Y-144760170D01*
X83188375Y-144836909D01*
X83256640Y-144899237D01*
X83308092Y-144943056D01*
X83338206Y-144964270D01*
X83342526Y-144965616D01*
X83367889Y-144955016D01*
X83419642Y-144925547D01*
X83492132Y-144880705D01*
X83579706Y-144823984D01*
X83674388Y-144760462D01*
X83770484Y-144695668D01*
X83856163Y-144639287D01*
X83925984Y-144594788D01*
X83974506Y-144565639D01*
X83996218Y-144555308D01*
X84022707Y-144564050D01*
X84072938Y-144587087D01*
X84136549Y-144619631D01*
X84143292Y-144623249D01*
X84228954Y-144666210D01*
X84287694Y-144687279D01*
X84324228Y-144687503D01*
X84343269Y-144667928D01*
X84343380Y-144667654D01*
X84352898Y-144644472D01*
X84375597Y-144589441D01*
X84409718Y-144506822D01*
X84453500Y-144400872D01*
X84505184Y-144275852D01*
X84563008Y-144136020D01*
X84619009Y-144000637D01*
X84680553Y-143851234D01*
X84737061Y-143712832D01*
X84786839Y-143589673D01*
X84828194Y-143486002D01*
X84859432Y-143406059D01*
X84878859Y-143354088D01*
X84884846Y-143334692D01*
X84869832Y-143312443D01*
X84830561Y-143276982D01*
X84778193Y-143237887D01*
X84629059Y-143114245D01*
X84512489Y-142972522D01*
X84429882Y-142815704D01*
X84382634Y-142646775D01*
X84372143Y-142468722D01*
X84379769Y-142386539D01*
X84421318Y-142216031D01*
X84492877Y-142065459D01*
X84590005Y-141936309D01*
X84708266Y-141830064D01*
X84843220Y-141748210D01*
X84990429Y-141692232D01*
X85145456Y-141663615D01*
X85303861Y-141663844D01*
X85461206Y-141694405D01*
X85613054Y-141756782D01*
X85754965Y-141852460D01*
X85814197Y-141906572D01*
X85927797Y-142045520D01*
X86006894Y-142197361D01*
X86052014Y-142357667D01*
X86063684Y-142522012D01*
X86042431Y-142685971D01*
X85988780Y-142845118D01*
X85903260Y-142995025D01*
X85786395Y-143131267D01*
X85655807Y-143237887D01*
X85601412Y-143278642D01*
X85562986Y-143313718D01*
X85549154Y-143334726D01*
X85556397Y-143357635D01*
X85576995Y-143412365D01*
X85609254Y-143494672D01*
X85651479Y-143600315D01*
X85701977Y-143725050D01*
X85759052Y-143864636D01*
X85815146Y-144000670D01*
X85877033Y-144150201D01*
X85934356Y-144288767D01*
X85985356Y-144412107D01*
X86028273Y-144515964D01*
X86061347Y-144596080D01*
X86082819Y-144648195D01*
X86090775Y-144667654D01*
X86109571Y-144687423D01*
X86145926Y-144687365D01*
X86204521Y-144666441D01*
X86290032Y-144623613D01*
X86290708Y-144623249D01*
X86355093Y-144590012D01*
X86407139Y-144565802D01*
X86436488Y-144555404D01*
X86437783Y-144555308D01*
X86459876Y-144565855D01*
X86508652Y-144595184D01*
X86578669Y-144639827D01*
X86664486Y-144696314D01*
X86759612Y-144760462D01*
X86856460Y-144825411D01*
X86943747Y-144881896D01*
X87015819Y-144926421D01*
X87067023Y-144955490D01*
X87091474Y-144965616D01*
X87113990Y-144952307D01*
X87159258Y-144915112D01*
X87222756Y-144858128D01*
X87299961Y-144785449D01*
X87386349Y-144701171D01*
X87414601Y-144673016D01*
X87706713Y-144380416D01*
X87484369Y-144054104D01*
X87416798Y-143953897D01*
X87357493Y-143863963D01*
X87309783Y-143789510D01*
X87276993Y-143735751D01*
X87262452Y-143707894D01*
X87262026Y-143705912D01*
X87269692Y-143679655D01*
X87290311Y-143626837D01*
X87320315Y-143556310D01*
X87341375Y-143509093D01*
X87380752Y-143418694D01*
X87417835Y-143327366D01*
X87446585Y-143250200D01*
X87454395Y-143226692D01*
X87476583Y-143163916D01*
X87498273Y-143115411D01*
X87510187Y-143097079D01*
X87536477Y-143085859D01*
X87593858Y-143069954D01*
X87674882Y-143051167D01*
X87772105Y-143031299D01*
X87815615Y-143023132D01*
X87926104Y-143002829D01*
X88032084Y-142983170D01*
X88123199Y-142966088D01*
X88189092Y-142953518D01*
X88201500Y-142951091D01*
X88304077Y-142930845D01*
X88304077Y-142503701D01*
X88303847Y-142363246D01*
X88302901Y-142256979D01*
X88300859Y-142180013D01*
X88297338Y-142127460D01*
X88291957Y-142094433D01*
X88284334Y-142076045D01*
X88274088Y-142067408D01*
X88269885Y-142065807D01*
X88244530Y-142060127D01*
X88188516Y-142048795D01*
X88109036Y-142033179D01*
X88013288Y-142014647D01*
X87908467Y-141994569D01*
X87801768Y-141974312D01*
X87700387Y-141955246D01*
X87611521Y-141938739D01*
X87542363Y-141926159D01*
X87500111Y-141918875D01*
X87490710Y-141917616D01*
X87482193Y-141900763D01*
X87463340Y-141855870D01*
X87437676Y-141791430D01*
X87427877Y-141766192D01*
X87388352Y-141668686D01*
X87341808Y-141560959D01*
X87300123Y-141470172D01*
X87269450Y-141400753D01*
X87249044Y-141343710D01*
X87242232Y-141308777D01*
X87243318Y-141304095D01*
X87257715Y-141281991D01*
X87290588Y-141232831D01*
X87338410Y-141161848D01*
X87397652Y-141074278D01*
X87464785Y-140975357D01*
X87478059Y-140955830D01*
X87555954Y-140840140D01*
X87613213Y-140752044D01*
X87652119Y-140687486D01*
X87674956Y-140642411D01*
X87684006Y-140612763D01*
X87681552Y-140594485D01*
X87681489Y-140594369D01*
X87662173Y-140570361D01*
X87619449Y-140523947D01*
X87557949Y-140459937D01*
X87482302Y-140383145D01*
X87397139Y-140298382D01*
X87387535Y-140288922D01*
X87280210Y-140184989D01*
X87197385Y-140108675D01*
X87137395Y-140058571D01*
X87098577Y-140033270D01*
X87081480Y-140030004D01*
X87056527Y-140044250D01*
X87004745Y-140077156D01*
X86931480Y-140125208D01*
X86842080Y-140184890D01*
X86741889Y-140252688D01*
X86718499Y-140268639D01*
X86386407Y-140495420D01*
X86236435Y-140427353D01*
X86145230Y-140387685D01*
X86047331Y-140347791D01*
X85963169Y-140315983D01*
X85959462Y-140314674D01*
X85893631Y-140290576D01*
X85842884Y-140270200D01*
X85818158Y-140257936D01*
X85818116Y-140257901D01*
X85810271Y-140235734D01*
X85796934Y-140181217D01*
X85779430Y-140100480D01*
X85759083Y-139999650D01*
X85737218Y-139884856D01*
X85735429Y-139875178D01*
X85713496Y-139756904D01*
X85693360Y-139649542D01*
X85676320Y-139559917D01*
X85663672Y-139494851D01*
X85656716Y-139461168D01*
X85656594Y-139460654D01*
X85652361Y-139446325D01*
X85644129Y-139435507D01*
X85626967Y-139427706D01*
X85595942Y-139422429D01*
X85546122Y-139419182D01*
X85472576Y-139417472D01*
X85370371Y-139416807D01*
X85234575Y-139416693D01*
X85217000Y-139416692D01*
X85077122Y-139416776D01*
G37*
X85077122Y-139416776D02*
X84971388Y-139417355D01*
X84894868Y-139418922D01*
X84842628Y-139421972D01*
X84809737Y-139426996D01*
X84791263Y-139434489D01*
X84782273Y-139444944D01*
X84777837Y-139458853D01*
X84777406Y-139460654D01*
X84770667Y-139493145D01*
X84758192Y-139557252D01*
X84741281Y-139646151D01*
X84721229Y-139753019D01*
X84699336Y-139871033D01*
X84698571Y-139875178D01*
X84676641Y-139990831D01*
X84656123Y-140093014D01*
X84638341Y-140175598D01*
X84624619Y-140232456D01*
X84616282Y-140257458D01*
X84615884Y-140257901D01*
X84591323Y-140270110D01*
X84540685Y-140290456D01*
X84474905Y-140314545D01*
X84474539Y-140314674D01*
X84391683Y-140345818D01*
X84294000Y-140385491D01*
X84201923Y-140425381D01*
X84197566Y-140427353D01*
X84047593Y-140495420D01*
X83715502Y-140268639D01*
X83613626Y-140199504D01*
X83521343Y-140137697D01*
X83443997Y-140086733D01*
X83386936Y-140050127D01*
X83355505Y-140031394D01*
X83352521Y-140030004D01*
X83329679Y-140036190D01*
X83287018Y-140066035D01*
X83222872Y-140120947D01*
X83135579Y-140202334D01*
X83046465Y-140288922D01*
X82960559Y-140374247D01*
X82883673Y-140452108D01*
X82820436Y-140517697D01*
X82775477Y-140566205D01*
X82753424Y-140592825D01*
X82752604Y-140594195D01*
X82750166Y-140612463D01*
X82759350Y-140642295D01*
X82782426Y-140687721D01*
X82821663Y-140752770D01*
X82879330Y-140841470D01*
X82956205Y-140955657D01*
X83024430Y-141056162D01*
X83085418Y-141146303D01*
X83135644Y-141220849D01*
X83171584Y-141274565D01*
X83189713Y-141302218D01*
X83190854Y-141304095D01*
X83188641Y-141330590D01*
X83171862Y-141382086D01*
X83143858Y-141448851D01*
X83133878Y-141470172D01*
X83090328Y-141565159D01*
X83043866Y-141672937D01*
X83006123Y-141766192D01*
X82978927Y-141835406D01*
X82957325Y-141888006D01*
X82944842Y-141915497D01*
X82943291Y-141917616D01*
X82920332Y-141921124D01*
X82866214Y-141930738D01*
X82788132Y-141945089D01*
X82693281Y-141962807D01*
X82588857Y-141982525D01*
X82482056Y-142002874D01*
X82380074Y-142022486D01*
X82290106Y-142039991D01*
X82219347Y-142054022D01*
X82174994Y-142063209D01*
X82164115Y-142065807D01*
X82152878Y-142072218D01*
X82144395Y-142086697D01*
X82138286Y-142114133D01*
X82134168Y-142159411D01*
X82131659Y-142227420D01*
X82130379Y-142323047D01*
X82129946Y-142451180D01*
X82129923Y-142503701D01*
X82129923Y-142930845D01*
X82232500Y-142951091D01*
X82289569Y-142962070D01*
X82374731Y-142978095D01*
X82477628Y-142997233D01*
X82587904Y-143017551D01*
X82618385Y-143023132D01*
X82720145Y-143042917D01*
X82808795Y-143062373D01*
X82876892Y-143079697D01*
X82916996Y-143093088D01*
X82923677Y-143097079D01*
X82940081Y-143125342D01*
X82963601Y-143180109D01*
X82989684Y-143250588D01*
X82994858Y-143265769D01*
X83029044Y-143359896D01*
X83071477Y-143466101D01*
X83113003Y-143561473D01*
X83113208Y-143561916D01*
X83182360Y-143711525D01*
X82727488Y-144380617D01*
X83019500Y-144673116D01*
X83107820Y-144760170D01*
X83188375Y-144836909D01*
X83256640Y-144899237D01*
X83308092Y-144943056D01*
X83338206Y-144964270D01*
X83342526Y-144965616D01*
X83367889Y-144955016D01*
X83419642Y-144925547D01*
X83492132Y-144880705D01*
X83579706Y-144823984D01*
X83674388Y-144760462D01*
X83770484Y-144695668D01*
X83856163Y-144639287D01*
X83925984Y-144594788D01*
X83974506Y-144565639D01*
X83996218Y-144555308D01*
X84022707Y-144564050D01*
X84072938Y-144587087D01*
X84136549Y-144619631D01*
X84143292Y-144623249D01*
X84228954Y-144666210D01*
X84287694Y-144687279D01*
X84324228Y-144687503D01*
X84343269Y-144667928D01*
X84343380Y-144667654D01*
X84352898Y-144644472D01*
X84375597Y-144589441D01*
X84409718Y-144506822D01*
X84453500Y-144400872D01*
X84505184Y-144275852D01*
X84563008Y-144136020D01*
X84619009Y-144000637D01*
X84680553Y-143851234D01*
X84737061Y-143712832D01*
X84786839Y-143589673D01*
X84828194Y-143486002D01*
X84859432Y-143406059D01*
X84878859Y-143354088D01*
X84884846Y-143334692D01*
X84869832Y-143312443D01*
X84830561Y-143276982D01*
X84778193Y-143237887D01*
X84629059Y-143114245D01*
X84512489Y-142972522D01*
X84429882Y-142815704D01*
X84382634Y-142646775D01*
X84372143Y-142468722D01*
X84379769Y-142386539D01*
X84421318Y-142216031D01*
X84492877Y-142065459D01*
X84590005Y-141936309D01*
X84708266Y-141830064D01*
X84843220Y-141748210D01*
X84990429Y-141692232D01*
X85145456Y-141663615D01*
X85303861Y-141663844D01*
X85461206Y-141694405D01*
X85613054Y-141756782D01*
X85754965Y-141852460D01*
X85814197Y-141906572D01*
X85927797Y-142045520D01*
X86006894Y-142197361D01*
X86052014Y-142357667D01*
X86063684Y-142522012D01*
X86042431Y-142685971D01*
X85988780Y-142845118D01*
X85903260Y-142995025D01*
X85786395Y-143131267D01*
X85655807Y-143237887D01*
X85601412Y-143278642D01*
X85562986Y-143313718D01*
X85549154Y-143334726D01*
X85556397Y-143357635D01*
X85576995Y-143412365D01*
X85609254Y-143494672D01*
X85651479Y-143600315D01*
X85701977Y-143725050D01*
X85759052Y-143864636D01*
X85815146Y-144000670D01*
X85877033Y-144150201D01*
X85934356Y-144288767D01*
X85985356Y-144412107D01*
X86028273Y-144515964D01*
X86061347Y-144596080D01*
X86082819Y-144648195D01*
X86090775Y-144667654D01*
X86109571Y-144687423D01*
X86145926Y-144687365D01*
X86204521Y-144666441D01*
X86290032Y-144623613D01*
X86290708Y-144623249D01*
X86355093Y-144590012D01*
X86407139Y-144565802D01*
X86436488Y-144555404D01*
X86437783Y-144555308D01*
X86459876Y-144565855D01*
X86508652Y-144595184D01*
X86578669Y-144639827D01*
X86664486Y-144696314D01*
X86759612Y-144760462D01*
X86856460Y-144825411D01*
X86943747Y-144881896D01*
X87015819Y-144926421D01*
X87067023Y-144955490D01*
X87091474Y-144965616D01*
X87113990Y-144952307D01*
X87159258Y-144915112D01*
X87222756Y-144858128D01*
X87299961Y-144785449D01*
X87386349Y-144701171D01*
X87414601Y-144673016D01*
X87706713Y-144380416D01*
X87484369Y-144054104D01*
X87416798Y-143953897D01*
X87357493Y-143863963D01*
X87309783Y-143789510D01*
X87276993Y-143735751D01*
X87262452Y-143707894D01*
X87262026Y-143705912D01*
X87269692Y-143679655D01*
X87290311Y-143626837D01*
X87320315Y-143556310D01*
X87341375Y-143509093D01*
X87380752Y-143418694D01*
X87417835Y-143327366D01*
X87446585Y-143250200D01*
X87454395Y-143226692D01*
X87476583Y-143163916D01*
X87498273Y-143115411D01*
X87510187Y-143097079D01*
X87536477Y-143085859D01*
X87593858Y-143069954D01*
X87674882Y-143051167D01*
X87772105Y-143031299D01*
X87815615Y-143023132D01*
X87926104Y-143002829D01*
X88032084Y-142983170D01*
X88123199Y-142966088D01*
X88189092Y-142953518D01*
X88201500Y-142951091D01*
X88304077Y-142930845D01*
X88304077Y-142503701D01*
X88303847Y-142363246D01*
X88302901Y-142256979D01*
X88300859Y-142180013D01*
X88297338Y-142127460D01*
X88291957Y-142094433D01*
X88284334Y-142076045D01*
X88274088Y-142067408D01*
X88269885Y-142065807D01*
X88244530Y-142060127D01*
X88188516Y-142048795D01*
X88109036Y-142033179D01*
X88013288Y-142014647D01*
X87908467Y-141994569D01*
X87801768Y-141974312D01*
X87700387Y-141955246D01*
X87611521Y-141938739D01*
X87542363Y-141926159D01*
X87500111Y-141918875D01*
X87490710Y-141917616D01*
X87482193Y-141900763D01*
X87463340Y-141855870D01*
X87437676Y-141791430D01*
X87427877Y-141766192D01*
X87388352Y-141668686D01*
X87341808Y-141560959D01*
X87300123Y-141470172D01*
X87269450Y-141400753D01*
X87249044Y-141343710D01*
X87242232Y-141308777D01*
X87243318Y-141304095D01*
X87257715Y-141281991D01*
X87290588Y-141232831D01*
X87338410Y-141161848D01*
X87397652Y-141074278D01*
X87464785Y-140975357D01*
X87478059Y-140955830D01*
X87555954Y-140840140D01*
X87613213Y-140752044D01*
X87652119Y-140687486D01*
X87674956Y-140642411D01*
X87684006Y-140612763D01*
X87681552Y-140594485D01*
X87681489Y-140594369D01*
X87662173Y-140570361D01*
X87619449Y-140523947D01*
X87557949Y-140459937D01*
X87482302Y-140383145D01*
X87397139Y-140298382D01*
X87387535Y-140288922D01*
X87280210Y-140184989D01*
X87197385Y-140108675D01*
X87137395Y-140058571D01*
X87098577Y-140033270D01*
X87081480Y-140030004D01*
X87056527Y-140044250D01*
X87004745Y-140077156D01*
X86931480Y-140125208D01*
X86842080Y-140184890D01*
X86741889Y-140252688D01*
X86718499Y-140268639D01*
X86386407Y-140495420D01*
X86236435Y-140427353D01*
X86145230Y-140387685D01*
X86047331Y-140347791D01*
X85963169Y-140315983D01*
X85959462Y-140314674D01*
X85893631Y-140290576D01*
X85842884Y-140270200D01*
X85818158Y-140257936D01*
X85818116Y-140257901D01*
X85810271Y-140235734D01*
X85796934Y-140181217D01*
X85779430Y-140100480D01*
X85759083Y-139999650D01*
X85737218Y-139884856D01*
X85735429Y-139875178D01*
X85713496Y-139756904D01*
X85693360Y-139649542D01*
X85676320Y-139559917D01*
X85663672Y-139494851D01*
X85656716Y-139461168D01*
X85656594Y-139460654D01*
X85652361Y-139446325D01*
X85644129Y-139435507D01*
X85626967Y-139427706D01*
X85595942Y-139422429D01*
X85546122Y-139419182D01*
X85472576Y-139417472D01*
X85370371Y-139416807D01*
X85234575Y-139416693D01*
X85217000Y-139416692D01*
X85077122Y-139416776D01*
%TD*%
M02*
