%TF.GenerationSoftware,KiCad,Pcbnew,(5.1.6)-1*%
%TF.CreationDate,2020-07-29T13:21:14+01:00*%
%TF.ProjectId,open-amiga-sampler-smd,6f70656e-2d61-46d6-9967-612d73616d70,rev?*%
%TF.SameCoordinates,Original*%
%TF.FileFunction,Copper,L2,Bot*%
%TF.FilePolarity,Positive*%
%FSLAX46Y46*%
G04 Gerber Fmt 4.6, Leading zero omitted, Abs format (unit mm)*
G04 Created by KiCad (PCBNEW (5.1.6)-1) date 2020-07-29 13:21:14*
%MOMM*%
%LPD*%
G01*
G04 APERTURE LIST*
%TA.AperFunction,ComponentPad*%
%ADD10O,1.350000X1.350000*%
%TD*%
%TA.AperFunction,ComponentPad*%
%ADD11R,1.350000X1.350000*%
%TD*%
%TA.AperFunction,SMDPad,CuDef*%
%ADD12R,1.846667X3.480000*%
%TD*%
%TA.AperFunction,ViaPad*%
%ADD13C,0.800000*%
%TD*%
%TA.AperFunction,Conductor*%
%ADD14C,0.350000*%
%TD*%
%TA.AperFunction,Conductor*%
%ADD15C,0.250000*%
%TD*%
%TA.AperFunction,Conductor*%
%ADD16C,0.254000*%
%TD*%
G04 APERTURE END LIST*
D10*
%TO.P,RV1,3*%
%TO.N,Vo*%
X91000000Y-131000000D03*
%TO.P,RV1,2*%
X93000000Y-131000000D03*
D11*
%TO.P,RV1,1*%
%TO.N,Net-(R4-Pad1)*%
X95000000Y-131000000D03*
%TD*%
D10*
%TO.P,J2,2*%
%TO.N,GND*%
X102000000Y-131000000D03*
D11*
%TO.P,J2,1*%
%TO.N,Net-(J2-Pad1)*%
X100000000Y-131000000D03*
%TD*%
D10*
%TO.P,J1,2*%
%TO.N,GND*%
X105010200Y-130987800D03*
D11*
%TO.P,J1,1*%
%TO.N,Net-(J1-Pad1)*%
X107010200Y-130987800D03*
%TD*%
D12*
%TO.P,J3,14*%
%TO.N,VCC*%
X83063000Y-149034500D03*
%TO.P,J3,15*%
%TO.N,Net-(J3-Pad15)*%
X85833000Y-149034500D03*
%TO.P,J3,16*%
%TO.N,Net-(J3-Pad16)*%
X88603000Y-149034500D03*
%TO.P,J3,17*%
%TO.N,Net-(J3-Pad17)*%
X91373000Y-149034500D03*
%TO.P,J3,18*%
%TO.N,GND*%
X94143000Y-149034500D03*
%TO.P,J3,19*%
X96913000Y-149034500D03*
%TO.P,J3,20*%
X99683000Y-149034500D03*
%TO.P,J3,21*%
X102453000Y-149034500D03*
%TO.P,J3,22*%
X105223000Y-149034500D03*
%TO.P,J3,23*%
X107993000Y-149034500D03*
%TO.P,J3,24*%
X110763000Y-149034500D03*
%TO.P,J3,25*%
X113533000Y-149034500D03*
%TD*%
D13*
%TO.N,GND*%
X91757500Y-135445500D03*
X94869000Y-136334500D03*
X95377000Y-139827000D03*
X93599000Y-144526000D03*
X96647000Y-145542000D03*
X103759000Y-142113000D03*
X90772979Y-142240000D03*
X105664000Y-146558000D03*
X112585500Y-146431000D03*
X110896400Y-135801100D03*
X111074200Y-137807700D03*
X114465100Y-138163300D03*
X114617500Y-142201900D03*
X114795300Y-146291300D03*
X102108000Y-134747000D03*
X97891600Y-130505200D03*
X97828100Y-132359400D03*
X82321400Y-135547100D03*
X85940900Y-135293100D03*
X88519000Y-131724400D03*
X106426000Y-138239500D03*
%TO.N,VCC*%
X97155000Y-143891000D03*
X102298500Y-137160000D03*
X102028788Y-138851009D03*
X97345500Y-133794500D03*
X83566000Y-146431000D03*
X85793160Y-143578160D03*
X103414410Y-146521590D03*
%TO.N,STROBE*%
X81407000Y-146621500D03*
X87607242Y-140306399D03*
%TD*%
D14*
%TO.N,VCC*%
X97513000Y-143533000D02*
X97155000Y-143891000D01*
X97513000Y-138747500D02*
X97513000Y-143533000D01*
X97513000Y-138747500D02*
X97513000Y-134135000D01*
X97513000Y-134135000D02*
X97363000Y-133985000D01*
X97363000Y-133985000D02*
X97345500Y-133985000D01*
X97513000Y-138747500D02*
X99568000Y-138747500D01*
X99671509Y-138851009D02*
X99568000Y-138747500D01*
X102028788Y-138851009D02*
X99671509Y-138851009D01*
X85793160Y-143514660D02*
X85793160Y-143578160D01*
X90560320Y-138747500D02*
X90428660Y-138879160D01*
X97513000Y-138747500D02*
X90560320Y-138747500D01*
X90428660Y-138879160D02*
X85793160Y-143514660D01*
X102425500Y-137573076D02*
X102425500Y-137287000D01*
X102425500Y-137287000D02*
X102298500Y-137160000D01*
X102028788Y-138851009D02*
X102028788Y-137969788D01*
X102028788Y-137969788D02*
X102425500Y-137573076D01*
D15*
X83566000Y-146431000D02*
X83693000Y-146558000D01*
D14*
X83063000Y-149860000D02*
X83063000Y-146997500D01*
X83063000Y-146997500D02*
X83502500Y-146558000D01*
X85793160Y-144203840D02*
X85793160Y-143578160D01*
X83566000Y-146431000D02*
X85793160Y-144203840D01*
X102028788Y-138851009D02*
X102028788Y-145135968D01*
X102028788Y-145135968D02*
X103414410Y-146521590D01*
D15*
%TO.N,STROBE*%
X81407000Y-146939000D02*
X81407000Y-146875500D01*
X87607242Y-140675258D02*
X87607242Y-140306399D01*
X81407000Y-146506641D02*
X81407000Y-146939000D01*
X87607242Y-140306399D02*
X81407000Y-146506641D01*
%TD*%
D16*
%TO.N,GND*%
G36*
X108561384Y-130145659D02*
G01*
X108562325Y-130155131D01*
X108563481Y-130195606D01*
X108567467Y-130226997D01*
X108568198Y-130258622D01*
X108569417Y-130268108D01*
X108669044Y-131002636D01*
X108683356Y-131063067D01*
X108696815Y-131123656D01*
X108699854Y-131132725D01*
X108940253Y-131833911D01*
X108966017Y-131890383D01*
X108991002Y-131947234D01*
X108995744Y-131955540D01*
X109367760Y-132596679D01*
X109404025Y-132647102D01*
X109439554Y-132697986D01*
X109445818Y-132705213D01*
X109935280Y-133261883D01*
X109980671Y-133304323D01*
X110025384Y-133347315D01*
X110032933Y-133353187D01*
X110621197Y-133804185D01*
X110673920Y-133836971D01*
X110726179Y-133870490D01*
X110734725Y-133874784D01*
X111399386Y-134202932D01*
X111457500Y-134224863D01*
X111515246Y-134247582D01*
X111524463Y-134250135D01*
X112240202Y-134442933D01*
X112301413Y-134453150D01*
X112362530Y-134464230D01*
X112372065Y-134464943D01*
X112372067Y-134464943D01*
X113101117Y-134514336D01*
X113124070Y-134516604D01*
X115685101Y-134517390D01*
X115685100Y-150254500D01*
X115093307Y-150254500D01*
X115091333Y-149320250D01*
X114932583Y-149161500D01*
X113660000Y-149161500D01*
X113660000Y-149181500D01*
X113406000Y-149181500D01*
X113406000Y-149161500D01*
X110890000Y-149161500D01*
X110890000Y-149181500D01*
X110636000Y-149181500D01*
X110636000Y-149161500D01*
X108120000Y-149161500D01*
X108120000Y-149181500D01*
X107866000Y-149181500D01*
X107866000Y-149161500D01*
X105350000Y-149161500D01*
X105350000Y-149181500D01*
X105096000Y-149181500D01*
X105096000Y-149161500D01*
X102580000Y-149161500D01*
X102580000Y-149181500D01*
X102326000Y-149181500D01*
X102326000Y-149161500D01*
X99810000Y-149161500D01*
X99810000Y-149181500D01*
X99556000Y-149181500D01*
X99556000Y-149161500D01*
X97040000Y-149161500D01*
X97040000Y-149181500D01*
X96786000Y-149181500D01*
X96786000Y-149161500D01*
X94270000Y-149161500D01*
X94270000Y-149181500D01*
X94016000Y-149181500D01*
X94016000Y-149161500D01*
X93996000Y-149161500D01*
X93996000Y-148907500D01*
X94016000Y-148907500D01*
X94016000Y-146818250D01*
X94270000Y-146818250D01*
X94270000Y-148907500D01*
X96786000Y-148907500D01*
X96786000Y-146818250D01*
X97040000Y-146818250D01*
X97040000Y-148907500D01*
X99556000Y-148907500D01*
X99556000Y-146818250D01*
X99397250Y-146659500D01*
X98759667Y-146656428D01*
X98635185Y-146668688D01*
X98515487Y-146704998D01*
X98405173Y-146763963D01*
X98308482Y-146843315D01*
X98298000Y-146856087D01*
X98287518Y-146843315D01*
X98190827Y-146763963D01*
X98080513Y-146704998D01*
X97960815Y-146668688D01*
X97836333Y-146656428D01*
X97198750Y-146659500D01*
X97040000Y-146818250D01*
X96786000Y-146818250D01*
X96627250Y-146659500D01*
X95989667Y-146656428D01*
X95865185Y-146668688D01*
X95745487Y-146704998D01*
X95635173Y-146763963D01*
X95538482Y-146843315D01*
X95528000Y-146856087D01*
X95517518Y-146843315D01*
X95420827Y-146763963D01*
X95310513Y-146704998D01*
X95190815Y-146668688D01*
X95066333Y-146656428D01*
X94428750Y-146659500D01*
X94270000Y-146818250D01*
X94016000Y-146818250D01*
X93857250Y-146659500D01*
X93219667Y-146656428D01*
X93095185Y-146668688D01*
X92975487Y-146704998D01*
X92865173Y-146763963D01*
X92768482Y-146843315D01*
X92758000Y-146856087D01*
X92747518Y-146843315D01*
X92650827Y-146763963D01*
X92540513Y-146704998D01*
X92420815Y-146668688D01*
X92296333Y-146656428D01*
X90449667Y-146656428D01*
X90325185Y-146668688D01*
X90205487Y-146704998D01*
X90095173Y-146763963D01*
X89998482Y-146843315D01*
X89988000Y-146856087D01*
X89977518Y-146843315D01*
X89880827Y-146763963D01*
X89770513Y-146704998D01*
X89650815Y-146668688D01*
X89526333Y-146656428D01*
X87679667Y-146656428D01*
X87555185Y-146668688D01*
X87435487Y-146704998D01*
X87325173Y-146763963D01*
X87228482Y-146843315D01*
X87218000Y-146856087D01*
X87207518Y-146843315D01*
X87110827Y-146763963D01*
X87000513Y-146704998D01*
X86880815Y-146668688D01*
X86756333Y-146656428D01*
X84909667Y-146656428D01*
X84785185Y-146668688D01*
X84665487Y-146704998D01*
X84555173Y-146763963D01*
X84544849Y-146772436D01*
X84561226Y-146732898D01*
X84598871Y-146543641D01*
X86337779Y-144804734D01*
X86368688Y-144779368D01*
X86429786Y-144704919D01*
X86469909Y-144656030D01*
X86545122Y-144515314D01*
X86545123Y-144515313D01*
X86591440Y-144362628D01*
X86603160Y-144243631D01*
X86603160Y-144243628D01*
X86604866Y-144226307D01*
X86710365Y-144068416D01*
X86788386Y-143880058D01*
X86828160Y-143680099D01*
X86828160Y-143625172D01*
X90895833Y-139557500D01*
X96703000Y-139557500D01*
X96703001Y-142957948D01*
X96664744Y-142973795D01*
X96495226Y-143087063D01*
X96351063Y-143231226D01*
X96237795Y-143400744D01*
X96159774Y-143589102D01*
X96120000Y-143789061D01*
X96120000Y-143992939D01*
X96159774Y-144192898D01*
X96237795Y-144381256D01*
X96351063Y-144550774D01*
X96495226Y-144694937D01*
X96664744Y-144808205D01*
X96853102Y-144886226D01*
X97053061Y-144926000D01*
X97256939Y-144926000D01*
X97456898Y-144886226D01*
X97645256Y-144808205D01*
X97814774Y-144694937D01*
X97958937Y-144550774D01*
X98072205Y-144381256D01*
X98150226Y-144192898D01*
X98190000Y-143992939D01*
X98190000Y-143984719D01*
X98264963Y-143844473D01*
X98311280Y-143691788D01*
X98323000Y-143572791D01*
X98323000Y-143572789D01*
X98326919Y-143533001D01*
X98323000Y-143493213D01*
X98323000Y-139557500D01*
X99274964Y-139557500D01*
X99360036Y-139602972D01*
X99512721Y-139649289D01*
X99631718Y-139661009D01*
X99631721Y-139661009D01*
X99671509Y-139664928D01*
X99711297Y-139661009D01*
X101218788Y-139661009D01*
X101218789Y-145096170D01*
X101214869Y-145135968D01*
X101230509Y-145294755D01*
X101276826Y-145447441D01*
X101352039Y-145588157D01*
X101383969Y-145627063D01*
X101453261Y-145711496D01*
X101484171Y-145736863D01*
X102381539Y-146634232D01*
X102386565Y-146659500D01*
X102325998Y-146659500D01*
X102325998Y-146818248D01*
X102167250Y-146659500D01*
X101529667Y-146656428D01*
X101405185Y-146668688D01*
X101285487Y-146704998D01*
X101175173Y-146763963D01*
X101078482Y-146843315D01*
X101068000Y-146856087D01*
X101057518Y-146843315D01*
X100960827Y-146763963D01*
X100850513Y-146704998D01*
X100730815Y-146668688D01*
X100606333Y-146656428D01*
X99968750Y-146659500D01*
X99810000Y-146818250D01*
X99810000Y-148907500D01*
X102326000Y-148907500D01*
X102326000Y-148887500D01*
X102580000Y-148887500D01*
X102580000Y-148907500D01*
X105096000Y-148907500D01*
X105096000Y-146818250D01*
X105350000Y-146818250D01*
X105350000Y-148907500D01*
X107866000Y-148907500D01*
X107866000Y-146818250D01*
X108120000Y-146818250D01*
X108120000Y-148907500D01*
X110636000Y-148907500D01*
X110636000Y-146818250D01*
X110890000Y-146818250D01*
X110890000Y-148907500D01*
X113406000Y-148907500D01*
X113406000Y-146818250D01*
X113660000Y-146818250D01*
X113660000Y-148907500D01*
X114932583Y-148907500D01*
X115091333Y-148748750D01*
X115094405Y-147294500D01*
X115082145Y-147170018D01*
X115045835Y-147050320D01*
X114986870Y-146940006D01*
X114907518Y-146843315D01*
X114810827Y-146763963D01*
X114700513Y-146704998D01*
X114580815Y-146668688D01*
X114456333Y-146656428D01*
X113818750Y-146659500D01*
X113660000Y-146818250D01*
X113406000Y-146818250D01*
X113247250Y-146659500D01*
X112609667Y-146656428D01*
X112485185Y-146668688D01*
X112365487Y-146704998D01*
X112255173Y-146763963D01*
X112158482Y-146843315D01*
X112148000Y-146856087D01*
X112137518Y-146843315D01*
X112040827Y-146763963D01*
X111930513Y-146704998D01*
X111810815Y-146668688D01*
X111686333Y-146656428D01*
X111048750Y-146659500D01*
X110890000Y-146818250D01*
X110636000Y-146818250D01*
X110477250Y-146659500D01*
X109839667Y-146656428D01*
X109715185Y-146668688D01*
X109595487Y-146704998D01*
X109485173Y-146763963D01*
X109388482Y-146843315D01*
X109378000Y-146856087D01*
X109367518Y-146843315D01*
X109270827Y-146763963D01*
X109160513Y-146704998D01*
X109040815Y-146668688D01*
X108916333Y-146656428D01*
X108278750Y-146659500D01*
X108120000Y-146818250D01*
X107866000Y-146818250D01*
X107707250Y-146659500D01*
X107069667Y-146656428D01*
X106945185Y-146668688D01*
X106825487Y-146704998D01*
X106715173Y-146763963D01*
X106618482Y-146843315D01*
X106608000Y-146856087D01*
X106597518Y-146843315D01*
X106500827Y-146763963D01*
X106390513Y-146704998D01*
X106270815Y-146668688D01*
X106146333Y-146656428D01*
X105508750Y-146659500D01*
X105350000Y-146818250D01*
X105096000Y-146818250D01*
X104937250Y-146659500D01*
X104442729Y-146657117D01*
X104449410Y-146623529D01*
X104449410Y-146419651D01*
X104409636Y-146219692D01*
X104331615Y-146031334D01*
X104218347Y-145861816D01*
X104074184Y-145717653D01*
X103904666Y-145604385D01*
X103716308Y-145526364D01*
X103527052Y-145488719D01*
X102838788Y-144800456D01*
X102838788Y-139501709D01*
X102945993Y-139341265D01*
X103024014Y-139152907D01*
X103063788Y-138952948D01*
X103063788Y-138749070D01*
X103024014Y-138549111D01*
X102945993Y-138360753D01*
X102880841Y-138263247D01*
X102970114Y-138173974D01*
X103001028Y-138148604D01*
X103102249Y-138025265D01*
X103177463Y-137884549D01*
X103223780Y-137731864D01*
X103235500Y-137612867D01*
X103235500Y-137612865D01*
X103236844Y-137599223D01*
X103293726Y-137461898D01*
X103333500Y-137261939D01*
X103333500Y-137058061D01*
X103293726Y-136858102D01*
X103215705Y-136669744D01*
X103102437Y-136500226D01*
X102958274Y-136356063D01*
X102788756Y-136242795D01*
X102600398Y-136164774D01*
X102400439Y-136125000D01*
X102196561Y-136125000D01*
X101996602Y-136164774D01*
X101808244Y-136242795D01*
X101638726Y-136356063D01*
X101494563Y-136500226D01*
X101381295Y-136669744D01*
X101303274Y-136858102D01*
X101263500Y-137058061D01*
X101263500Y-137261939D01*
X101303274Y-137461898D01*
X101337564Y-137544680D01*
X101301119Y-137612866D01*
X101276826Y-137658315D01*
X101230509Y-137811000D01*
X101223265Y-137884550D01*
X101214869Y-137969788D01*
X101218788Y-138009576D01*
X101218788Y-138041009D01*
X99964545Y-138041009D01*
X99879473Y-137995537D01*
X99726788Y-137949220D01*
X99607791Y-137937500D01*
X99607788Y-137937500D01*
X99568000Y-137933581D01*
X99528212Y-137937500D01*
X98323000Y-137937500D01*
X98323000Y-134174787D01*
X98326919Y-134134999D01*
X98326500Y-134130743D01*
X98340726Y-134096398D01*
X98380500Y-133896439D01*
X98380500Y-133692561D01*
X98340726Y-133492602D01*
X98262705Y-133304244D01*
X98149437Y-133134726D01*
X98005274Y-132990563D01*
X97835756Y-132877295D01*
X97647398Y-132799274D01*
X97447439Y-132759500D01*
X97243561Y-132759500D01*
X97043602Y-132799274D01*
X96855244Y-132877295D01*
X96685726Y-132990563D01*
X96541563Y-133134726D01*
X96428295Y-133304244D01*
X96350274Y-133492602D01*
X96310500Y-133692561D01*
X96310500Y-133896439D01*
X96350274Y-134096398D01*
X96428295Y-134284756D01*
X96541563Y-134454274D01*
X96685726Y-134598437D01*
X96703001Y-134609980D01*
X96703000Y-137937500D01*
X90600107Y-137937500D01*
X90560319Y-137933581D01*
X90520531Y-137937500D01*
X90520529Y-137937500D01*
X90401532Y-137949220D01*
X90248847Y-137995537D01*
X90108131Y-138070751D01*
X89984792Y-138171972D01*
X89959420Y-138202888D01*
X89884046Y-138278262D01*
X89884040Y-138278267D01*
X88453037Y-139709270D01*
X88411179Y-139646625D01*
X88267016Y-139502462D01*
X88097498Y-139389194D01*
X87909140Y-139311173D01*
X87709181Y-139271399D01*
X87505303Y-139271399D01*
X87305344Y-139311173D01*
X87116986Y-139389194D01*
X86947468Y-139502462D01*
X86803305Y-139646625D01*
X86690037Y-139816143D01*
X86612016Y-140004501D01*
X86572242Y-140204460D01*
X86572242Y-140266597D01*
X81239249Y-145599591D01*
X81105102Y-145626274D01*
X81076000Y-145638329D01*
X81076000Y-134593799D01*
X83155146Y-134593798D01*
X83164877Y-134592840D01*
X83205635Y-134591675D01*
X83237026Y-134587689D01*
X83268651Y-134586958D01*
X83278137Y-134585739D01*
X84012665Y-134486112D01*
X84073096Y-134471800D01*
X84133685Y-134458341D01*
X84142752Y-134455303D01*
X84142758Y-134455301D01*
X84843940Y-134214903D01*
X84900412Y-134189139D01*
X84957263Y-134164154D01*
X84965569Y-134159412D01*
X85606708Y-133787396D01*
X85657131Y-133751131D01*
X85708015Y-133715602D01*
X85715242Y-133709338D01*
X86271912Y-133219876D01*
X86314352Y-133174485D01*
X86357344Y-133129772D01*
X86363216Y-133122223D01*
X86814214Y-132533959D01*
X86847000Y-132481236D01*
X86880519Y-132428977D01*
X86884813Y-132420431D01*
X87212961Y-131755770D01*
X87234892Y-131697656D01*
X87257611Y-131639910D01*
X87260164Y-131630693D01*
X87452962Y-130914954D01*
X87460302Y-130870976D01*
X89690000Y-130870976D01*
X89690000Y-131129024D01*
X89740342Y-131382113D01*
X89839093Y-131620518D01*
X89982456Y-131835077D01*
X90164923Y-132017544D01*
X90379482Y-132160907D01*
X90617887Y-132259658D01*
X90870976Y-132310000D01*
X91129024Y-132310000D01*
X91382113Y-132259658D01*
X91620518Y-132160907D01*
X91835077Y-132017544D01*
X92000000Y-131852621D01*
X92164923Y-132017544D01*
X92379482Y-132160907D01*
X92617887Y-132259658D01*
X92870976Y-132310000D01*
X93129024Y-132310000D01*
X93382113Y-132259658D01*
X93620518Y-132160907D01*
X93802513Y-132039303D01*
X93873815Y-132126185D01*
X93970506Y-132205537D01*
X94080820Y-132264502D01*
X94200518Y-132300812D01*
X94325000Y-132313072D01*
X95675000Y-132313072D01*
X95799482Y-132300812D01*
X95919180Y-132264502D01*
X96029494Y-132205537D01*
X96126185Y-132126185D01*
X96205537Y-132029494D01*
X96264502Y-131919180D01*
X96300812Y-131799482D01*
X96313072Y-131675000D01*
X96313072Y-130325000D01*
X98686928Y-130325000D01*
X98686928Y-131675000D01*
X98699188Y-131799482D01*
X98735498Y-131919180D01*
X98794463Y-132029494D01*
X98873815Y-132126185D01*
X98970506Y-132205537D01*
X99080820Y-132264502D01*
X99200518Y-132300812D01*
X99325000Y-132313072D01*
X100675000Y-132313072D01*
X100799482Y-132300812D01*
X100919180Y-132264502D01*
X101029494Y-132205537D01*
X101126185Y-132126185D01*
X101203119Y-132032441D01*
X101336371Y-132129473D01*
X101569472Y-132237238D01*
X101670600Y-132267910D01*
X101873000Y-132144224D01*
X101873000Y-131127000D01*
X102127000Y-131127000D01*
X102127000Y-132144224D01*
X102329400Y-132267910D01*
X102430528Y-132237238D01*
X102663629Y-132129473D01*
X102871227Y-131978303D01*
X103045344Y-131789537D01*
X103179289Y-131570430D01*
X103267915Y-131329401D01*
X103260512Y-131317201D01*
X103742285Y-131317201D01*
X103830911Y-131558230D01*
X103964856Y-131777337D01*
X104138973Y-131966103D01*
X104346571Y-132117273D01*
X104579672Y-132225038D01*
X104680800Y-132255710D01*
X104883200Y-132132024D01*
X104883200Y-131114800D01*
X103865115Y-131114800D01*
X103742285Y-131317201D01*
X103260512Y-131317201D01*
X103145085Y-131127000D01*
X102127000Y-131127000D01*
X101873000Y-131127000D01*
X101853000Y-131127000D01*
X101853000Y-130873000D01*
X101873000Y-130873000D01*
X101873000Y-129855776D01*
X102127000Y-129855776D01*
X102127000Y-130873000D01*
X103145085Y-130873000D01*
X103267915Y-130670599D01*
X103263430Y-130658399D01*
X103742285Y-130658399D01*
X103865115Y-130860800D01*
X104883200Y-130860800D01*
X104883200Y-129843576D01*
X105137200Y-129843576D01*
X105137200Y-130860800D01*
X105157200Y-130860800D01*
X105157200Y-131114800D01*
X105137200Y-131114800D01*
X105137200Y-132132024D01*
X105339600Y-132255710D01*
X105440728Y-132225038D01*
X105673829Y-132117273D01*
X105807081Y-132020241D01*
X105884015Y-132113985D01*
X105980706Y-132193337D01*
X106091020Y-132252302D01*
X106210718Y-132288612D01*
X106335200Y-132300872D01*
X107685200Y-132300872D01*
X107809682Y-132288612D01*
X107929380Y-132252302D01*
X108039694Y-132193337D01*
X108136385Y-132113985D01*
X108215737Y-132017294D01*
X108274702Y-131906980D01*
X108311012Y-131787282D01*
X108323272Y-131662800D01*
X108323272Y-130312800D01*
X108311012Y-130188318D01*
X108274702Y-130068620D01*
X108215737Y-129958306D01*
X108136385Y-129861615D01*
X108039694Y-129782263D01*
X107929380Y-129723298D01*
X107809682Y-129686988D01*
X107685200Y-129674728D01*
X106335200Y-129674728D01*
X106210718Y-129686988D01*
X106091020Y-129723298D01*
X105980706Y-129782263D01*
X105884015Y-129861615D01*
X105807081Y-129955359D01*
X105673829Y-129858327D01*
X105440728Y-129750562D01*
X105339600Y-129719890D01*
X105137200Y-129843576D01*
X104883200Y-129843576D01*
X104680800Y-129719890D01*
X104579672Y-129750562D01*
X104346571Y-129858327D01*
X104138973Y-130009497D01*
X103964856Y-130198263D01*
X103830911Y-130417370D01*
X103742285Y-130658399D01*
X103263430Y-130658399D01*
X103179289Y-130429570D01*
X103045344Y-130210463D01*
X102871227Y-130021697D01*
X102663629Y-129870527D01*
X102430528Y-129762762D01*
X102329400Y-129732090D01*
X102127000Y-129855776D01*
X101873000Y-129855776D01*
X101670600Y-129732090D01*
X101569472Y-129762762D01*
X101336371Y-129870527D01*
X101203119Y-129967559D01*
X101126185Y-129873815D01*
X101029494Y-129794463D01*
X100919180Y-129735498D01*
X100799482Y-129699188D01*
X100675000Y-129686928D01*
X99325000Y-129686928D01*
X99200518Y-129699188D01*
X99080820Y-129735498D01*
X98970506Y-129794463D01*
X98873815Y-129873815D01*
X98794463Y-129970506D01*
X98735498Y-130080820D01*
X98699188Y-130200518D01*
X98686928Y-130325000D01*
X96313072Y-130325000D01*
X96300812Y-130200518D01*
X96264502Y-130080820D01*
X96205537Y-129970506D01*
X96126185Y-129873815D01*
X96029494Y-129794463D01*
X95919180Y-129735498D01*
X95799482Y-129699188D01*
X95675000Y-129686928D01*
X94325000Y-129686928D01*
X94200518Y-129699188D01*
X94080820Y-129735498D01*
X93970506Y-129794463D01*
X93873815Y-129873815D01*
X93802513Y-129960697D01*
X93620518Y-129839093D01*
X93382113Y-129740342D01*
X93129024Y-129690000D01*
X92870976Y-129690000D01*
X92617887Y-129740342D01*
X92379482Y-129839093D01*
X92164923Y-129982456D01*
X92000000Y-130147379D01*
X91835077Y-129982456D01*
X91620518Y-129839093D01*
X91382113Y-129740342D01*
X91129024Y-129690000D01*
X90870976Y-129690000D01*
X90617887Y-129740342D01*
X90379482Y-129839093D01*
X90164923Y-129982456D01*
X89982456Y-130164923D01*
X89839093Y-130379482D01*
X89740342Y-130617887D01*
X89690000Y-130870976D01*
X87460302Y-130870976D01*
X87463179Y-130853743D01*
X87474259Y-130792626D01*
X87474972Y-130783089D01*
X87524351Y-130054245D01*
X87526614Y-130031475D01*
X87527000Y-129590000D01*
X108560943Y-129590000D01*
X108561384Y-130145659D01*
G37*
X108561384Y-130145659D02*
X108562325Y-130155131D01*
X108563481Y-130195606D01*
X108567467Y-130226997D01*
X108568198Y-130258622D01*
X108569417Y-130268108D01*
X108669044Y-131002636D01*
X108683356Y-131063067D01*
X108696815Y-131123656D01*
X108699854Y-131132725D01*
X108940253Y-131833911D01*
X108966017Y-131890383D01*
X108991002Y-131947234D01*
X108995744Y-131955540D01*
X109367760Y-132596679D01*
X109404025Y-132647102D01*
X109439554Y-132697986D01*
X109445818Y-132705213D01*
X109935280Y-133261883D01*
X109980671Y-133304323D01*
X110025384Y-133347315D01*
X110032933Y-133353187D01*
X110621197Y-133804185D01*
X110673920Y-133836971D01*
X110726179Y-133870490D01*
X110734725Y-133874784D01*
X111399386Y-134202932D01*
X111457500Y-134224863D01*
X111515246Y-134247582D01*
X111524463Y-134250135D01*
X112240202Y-134442933D01*
X112301413Y-134453150D01*
X112362530Y-134464230D01*
X112372065Y-134464943D01*
X112372067Y-134464943D01*
X113101117Y-134514336D01*
X113124070Y-134516604D01*
X115685101Y-134517390D01*
X115685100Y-150254500D01*
X115093307Y-150254500D01*
X115091333Y-149320250D01*
X114932583Y-149161500D01*
X113660000Y-149161500D01*
X113660000Y-149181500D01*
X113406000Y-149181500D01*
X113406000Y-149161500D01*
X110890000Y-149161500D01*
X110890000Y-149181500D01*
X110636000Y-149181500D01*
X110636000Y-149161500D01*
X108120000Y-149161500D01*
X108120000Y-149181500D01*
X107866000Y-149181500D01*
X107866000Y-149161500D01*
X105350000Y-149161500D01*
X105350000Y-149181500D01*
X105096000Y-149181500D01*
X105096000Y-149161500D01*
X102580000Y-149161500D01*
X102580000Y-149181500D01*
X102326000Y-149181500D01*
X102326000Y-149161500D01*
X99810000Y-149161500D01*
X99810000Y-149181500D01*
X99556000Y-149181500D01*
X99556000Y-149161500D01*
X97040000Y-149161500D01*
X97040000Y-149181500D01*
X96786000Y-149181500D01*
X96786000Y-149161500D01*
X94270000Y-149161500D01*
X94270000Y-149181500D01*
X94016000Y-149181500D01*
X94016000Y-149161500D01*
X93996000Y-149161500D01*
X93996000Y-148907500D01*
X94016000Y-148907500D01*
X94016000Y-146818250D01*
X94270000Y-146818250D01*
X94270000Y-148907500D01*
X96786000Y-148907500D01*
X96786000Y-146818250D01*
X97040000Y-146818250D01*
X97040000Y-148907500D01*
X99556000Y-148907500D01*
X99556000Y-146818250D01*
X99397250Y-146659500D01*
X98759667Y-146656428D01*
X98635185Y-146668688D01*
X98515487Y-146704998D01*
X98405173Y-146763963D01*
X98308482Y-146843315D01*
X98298000Y-146856087D01*
X98287518Y-146843315D01*
X98190827Y-146763963D01*
X98080513Y-146704998D01*
X97960815Y-146668688D01*
X97836333Y-146656428D01*
X97198750Y-146659500D01*
X97040000Y-146818250D01*
X96786000Y-146818250D01*
X96627250Y-146659500D01*
X95989667Y-146656428D01*
X95865185Y-146668688D01*
X95745487Y-146704998D01*
X95635173Y-146763963D01*
X95538482Y-146843315D01*
X95528000Y-146856087D01*
X95517518Y-146843315D01*
X95420827Y-146763963D01*
X95310513Y-146704998D01*
X95190815Y-146668688D01*
X95066333Y-146656428D01*
X94428750Y-146659500D01*
X94270000Y-146818250D01*
X94016000Y-146818250D01*
X93857250Y-146659500D01*
X93219667Y-146656428D01*
X93095185Y-146668688D01*
X92975487Y-146704998D01*
X92865173Y-146763963D01*
X92768482Y-146843315D01*
X92758000Y-146856087D01*
X92747518Y-146843315D01*
X92650827Y-146763963D01*
X92540513Y-146704998D01*
X92420815Y-146668688D01*
X92296333Y-146656428D01*
X90449667Y-146656428D01*
X90325185Y-146668688D01*
X90205487Y-146704998D01*
X90095173Y-146763963D01*
X89998482Y-146843315D01*
X89988000Y-146856087D01*
X89977518Y-146843315D01*
X89880827Y-146763963D01*
X89770513Y-146704998D01*
X89650815Y-146668688D01*
X89526333Y-146656428D01*
X87679667Y-146656428D01*
X87555185Y-146668688D01*
X87435487Y-146704998D01*
X87325173Y-146763963D01*
X87228482Y-146843315D01*
X87218000Y-146856087D01*
X87207518Y-146843315D01*
X87110827Y-146763963D01*
X87000513Y-146704998D01*
X86880815Y-146668688D01*
X86756333Y-146656428D01*
X84909667Y-146656428D01*
X84785185Y-146668688D01*
X84665487Y-146704998D01*
X84555173Y-146763963D01*
X84544849Y-146772436D01*
X84561226Y-146732898D01*
X84598871Y-146543641D01*
X86337779Y-144804734D01*
X86368688Y-144779368D01*
X86429786Y-144704919D01*
X86469909Y-144656030D01*
X86545122Y-144515314D01*
X86545123Y-144515313D01*
X86591440Y-144362628D01*
X86603160Y-144243631D01*
X86603160Y-144243628D01*
X86604866Y-144226307D01*
X86710365Y-144068416D01*
X86788386Y-143880058D01*
X86828160Y-143680099D01*
X86828160Y-143625172D01*
X90895833Y-139557500D01*
X96703000Y-139557500D01*
X96703001Y-142957948D01*
X96664744Y-142973795D01*
X96495226Y-143087063D01*
X96351063Y-143231226D01*
X96237795Y-143400744D01*
X96159774Y-143589102D01*
X96120000Y-143789061D01*
X96120000Y-143992939D01*
X96159774Y-144192898D01*
X96237795Y-144381256D01*
X96351063Y-144550774D01*
X96495226Y-144694937D01*
X96664744Y-144808205D01*
X96853102Y-144886226D01*
X97053061Y-144926000D01*
X97256939Y-144926000D01*
X97456898Y-144886226D01*
X97645256Y-144808205D01*
X97814774Y-144694937D01*
X97958937Y-144550774D01*
X98072205Y-144381256D01*
X98150226Y-144192898D01*
X98190000Y-143992939D01*
X98190000Y-143984719D01*
X98264963Y-143844473D01*
X98311280Y-143691788D01*
X98323000Y-143572791D01*
X98323000Y-143572789D01*
X98326919Y-143533001D01*
X98323000Y-143493213D01*
X98323000Y-139557500D01*
X99274964Y-139557500D01*
X99360036Y-139602972D01*
X99512721Y-139649289D01*
X99631718Y-139661009D01*
X99631721Y-139661009D01*
X99671509Y-139664928D01*
X99711297Y-139661009D01*
X101218788Y-139661009D01*
X101218789Y-145096170D01*
X101214869Y-145135968D01*
X101230509Y-145294755D01*
X101276826Y-145447441D01*
X101352039Y-145588157D01*
X101383969Y-145627063D01*
X101453261Y-145711496D01*
X101484171Y-145736863D01*
X102381539Y-146634232D01*
X102386565Y-146659500D01*
X102325998Y-146659500D01*
X102325998Y-146818248D01*
X102167250Y-146659500D01*
X101529667Y-146656428D01*
X101405185Y-146668688D01*
X101285487Y-146704998D01*
X101175173Y-146763963D01*
X101078482Y-146843315D01*
X101068000Y-146856087D01*
X101057518Y-146843315D01*
X100960827Y-146763963D01*
X100850513Y-146704998D01*
X100730815Y-146668688D01*
X100606333Y-146656428D01*
X99968750Y-146659500D01*
X99810000Y-146818250D01*
X99810000Y-148907500D01*
X102326000Y-148907500D01*
X102326000Y-148887500D01*
X102580000Y-148887500D01*
X102580000Y-148907500D01*
X105096000Y-148907500D01*
X105096000Y-146818250D01*
X105350000Y-146818250D01*
X105350000Y-148907500D01*
X107866000Y-148907500D01*
X107866000Y-146818250D01*
X108120000Y-146818250D01*
X108120000Y-148907500D01*
X110636000Y-148907500D01*
X110636000Y-146818250D01*
X110890000Y-146818250D01*
X110890000Y-148907500D01*
X113406000Y-148907500D01*
X113406000Y-146818250D01*
X113660000Y-146818250D01*
X113660000Y-148907500D01*
X114932583Y-148907500D01*
X115091333Y-148748750D01*
X115094405Y-147294500D01*
X115082145Y-147170018D01*
X115045835Y-147050320D01*
X114986870Y-146940006D01*
X114907518Y-146843315D01*
X114810827Y-146763963D01*
X114700513Y-146704998D01*
X114580815Y-146668688D01*
X114456333Y-146656428D01*
X113818750Y-146659500D01*
X113660000Y-146818250D01*
X113406000Y-146818250D01*
X113247250Y-146659500D01*
X112609667Y-146656428D01*
X112485185Y-146668688D01*
X112365487Y-146704998D01*
X112255173Y-146763963D01*
X112158482Y-146843315D01*
X112148000Y-146856087D01*
X112137518Y-146843315D01*
X112040827Y-146763963D01*
X111930513Y-146704998D01*
X111810815Y-146668688D01*
X111686333Y-146656428D01*
X111048750Y-146659500D01*
X110890000Y-146818250D01*
X110636000Y-146818250D01*
X110477250Y-146659500D01*
X109839667Y-146656428D01*
X109715185Y-146668688D01*
X109595487Y-146704998D01*
X109485173Y-146763963D01*
X109388482Y-146843315D01*
X109378000Y-146856087D01*
X109367518Y-146843315D01*
X109270827Y-146763963D01*
X109160513Y-146704998D01*
X109040815Y-146668688D01*
X108916333Y-146656428D01*
X108278750Y-146659500D01*
X108120000Y-146818250D01*
X107866000Y-146818250D01*
X107707250Y-146659500D01*
X107069667Y-146656428D01*
X106945185Y-146668688D01*
X106825487Y-146704998D01*
X106715173Y-146763963D01*
X106618482Y-146843315D01*
X106608000Y-146856087D01*
X106597518Y-146843315D01*
X106500827Y-146763963D01*
X106390513Y-146704998D01*
X106270815Y-146668688D01*
X106146333Y-146656428D01*
X105508750Y-146659500D01*
X105350000Y-146818250D01*
X105096000Y-146818250D01*
X104937250Y-146659500D01*
X104442729Y-146657117D01*
X104449410Y-146623529D01*
X104449410Y-146419651D01*
X104409636Y-146219692D01*
X104331615Y-146031334D01*
X104218347Y-145861816D01*
X104074184Y-145717653D01*
X103904666Y-145604385D01*
X103716308Y-145526364D01*
X103527052Y-145488719D01*
X102838788Y-144800456D01*
X102838788Y-139501709D01*
X102945993Y-139341265D01*
X103024014Y-139152907D01*
X103063788Y-138952948D01*
X103063788Y-138749070D01*
X103024014Y-138549111D01*
X102945993Y-138360753D01*
X102880841Y-138263247D01*
X102970114Y-138173974D01*
X103001028Y-138148604D01*
X103102249Y-138025265D01*
X103177463Y-137884549D01*
X103223780Y-137731864D01*
X103235500Y-137612867D01*
X103235500Y-137612865D01*
X103236844Y-137599223D01*
X103293726Y-137461898D01*
X103333500Y-137261939D01*
X103333500Y-137058061D01*
X103293726Y-136858102D01*
X103215705Y-136669744D01*
X103102437Y-136500226D01*
X102958274Y-136356063D01*
X102788756Y-136242795D01*
X102600398Y-136164774D01*
X102400439Y-136125000D01*
X102196561Y-136125000D01*
X101996602Y-136164774D01*
X101808244Y-136242795D01*
X101638726Y-136356063D01*
X101494563Y-136500226D01*
X101381295Y-136669744D01*
X101303274Y-136858102D01*
X101263500Y-137058061D01*
X101263500Y-137261939D01*
X101303274Y-137461898D01*
X101337564Y-137544680D01*
X101301119Y-137612866D01*
X101276826Y-137658315D01*
X101230509Y-137811000D01*
X101223265Y-137884550D01*
X101214869Y-137969788D01*
X101218788Y-138009576D01*
X101218788Y-138041009D01*
X99964545Y-138041009D01*
X99879473Y-137995537D01*
X99726788Y-137949220D01*
X99607791Y-137937500D01*
X99607788Y-137937500D01*
X99568000Y-137933581D01*
X99528212Y-137937500D01*
X98323000Y-137937500D01*
X98323000Y-134174787D01*
X98326919Y-134134999D01*
X98326500Y-134130743D01*
X98340726Y-134096398D01*
X98380500Y-133896439D01*
X98380500Y-133692561D01*
X98340726Y-133492602D01*
X98262705Y-133304244D01*
X98149437Y-133134726D01*
X98005274Y-132990563D01*
X97835756Y-132877295D01*
X97647398Y-132799274D01*
X97447439Y-132759500D01*
X97243561Y-132759500D01*
X97043602Y-132799274D01*
X96855244Y-132877295D01*
X96685726Y-132990563D01*
X96541563Y-133134726D01*
X96428295Y-133304244D01*
X96350274Y-133492602D01*
X96310500Y-133692561D01*
X96310500Y-133896439D01*
X96350274Y-134096398D01*
X96428295Y-134284756D01*
X96541563Y-134454274D01*
X96685726Y-134598437D01*
X96703001Y-134609980D01*
X96703000Y-137937500D01*
X90600107Y-137937500D01*
X90560319Y-137933581D01*
X90520531Y-137937500D01*
X90520529Y-137937500D01*
X90401532Y-137949220D01*
X90248847Y-137995537D01*
X90108131Y-138070751D01*
X89984792Y-138171972D01*
X89959420Y-138202888D01*
X89884046Y-138278262D01*
X89884040Y-138278267D01*
X88453037Y-139709270D01*
X88411179Y-139646625D01*
X88267016Y-139502462D01*
X88097498Y-139389194D01*
X87909140Y-139311173D01*
X87709181Y-139271399D01*
X87505303Y-139271399D01*
X87305344Y-139311173D01*
X87116986Y-139389194D01*
X86947468Y-139502462D01*
X86803305Y-139646625D01*
X86690037Y-139816143D01*
X86612016Y-140004501D01*
X86572242Y-140204460D01*
X86572242Y-140266597D01*
X81239249Y-145599591D01*
X81105102Y-145626274D01*
X81076000Y-145638329D01*
X81076000Y-134593799D01*
X83155146Y-134593798D01*
X83164877Y-134592840D01*
X83205635Y-134591675D01*
X83237026Y-134587689D01*
X83268651Y-134586958D01*
X83278137Y-134585739D01*
X84012665Y-134486112D01*
X84073096Y-134471800D01*
X84133685Y-134458341D01*
X84142752Y-134455303D01*
X84142758Y-134455301D01*
X84843940Y-134214903D01*
X84900412Y-134189139D01*
X84957263Y-134164154D01*
X84965569Y-134159412D01*
X85606708Y-133787396D01*
X85657131Y-133751131D01*
X85708015Y-133715602D01*
X85715242Y-133709338D01*
X86271912Y-133219876D01*
X86314352Y-133174485D01*
X86357344Y-133129772D01*
X86363216Y-133122223D01*
X86814214Y-132533959D01*
X86847000Y-132481236D01*
X86880519Y-132428977D01*
X86884813Y-132420431D01*
X87212961Y-131755770D01*
X87234892Y-131697656D01*
X87257611Y-131639910D01*
X87260164Y-131630693D01*
X87452962Y-130914954D01*
X87460302Y-130870976D01*
X89690000Y-130870976D01*
X89690000Y-131129024D01*
X89740342Y-131382113D01*
X89839093Y-131620518D01*
X89982456Y-131835077D01*
X90164923Y-132017544D01*
X90379482Y-132160907D01*
X90617887Y-132259658D01*
X90870976Y-132310000D01*
X91129024Y-132310000D01*
X91382113Y-132259658D01*
X91620518Y-132160907D01*
X91835077Y-132017544D01*
X92000000Y-131852621D01*
X92164923Y-132017544D01*
X92379482Y-132160907D01*
X92617887Y-132259658D01*
X92870976Y-132310000D01*
X93129024Y-132310000D01*
X93382113Y-132259658D01*
X93620518Y-132160907D01*
X93802513Y-132039303D01*
X93873815Y-132126185D01*
X93970506Y-132205537D01*
X94080820Y-132264502D01*
X94200518Y-132300812D01*
X94325000Y-132313072D01*
X95675000Y-132313072D01*
X95799482Y-132300812D01*
X95919180Y-132264502D01*
X96029494Y-132205537D01*
X96126185Y-132126185D01*
X96205537Y-132029494D01*
X96264502Y-131919180D01*
X96300812Y-131799482D01*
X96313072Y-131675000D01*
X96313072Y-130325000D01*
X98686928Y-130325000D01*
X98686928Y-131675000D01*
X98699188Y-131799482D01*
X98735498Y-131919180D01*
X98794463Y-132029494D01*
X98873815Y-132126185D01*
X98970506Y-132205537D01*
X99080820Y-132264502D01*
X99200518Y-132300812D01*
X99325000Y-132313072D01*
X100675000Y-132313072D01*
X100799482Y-132300812D01*
X100919180Y-132264502D01*
X101029494Y-132205537D01*
X101126185Y-132126185D01*
X101203119Y-132032441D01*
X101336371Y-132129473D01*
X101569472Y-132237238D01*
X101670600Y-132267910D01*
X101873000Y-132144224D01*
X101873000Y-131127000D01*
X102127000Y-131127000D01*
X102127000Y-132144224D01*
X102329400Y-132267910D01*
X102430528Y-132237238D01*
X102663629Y-132129473D01*
X102871227Y-131978303D01*
X103045344Y-131789537D01*
X103179289Y-131570430D01*
X103267915Y-131329401D01*
X103260512Y-131317201D01*
X103742285Y-131317201D01*
X103830911Y-131558230D01*
X103964856Y-131777337D01*
X104138973Y-131966103D01*
X104346571Y-132117273D01*
X104579672Y-132225038D01*
X104680800Y-132255710D01*
X104883200Y-132132024D01*
X104883200Y-131114800D01*
X103865115Y-131114800D01*
X103742285Y-131317201D01*
X103260512Y-131317201D01*
X103145085Y-131127000D01*
X102127000Y-131127000D01*
X101873000Y-131127000D01*
X101853000Y-131127000D01*
X101853000Y-130873000D01*
X101873000Y-130873000D01*
X101873000Y-129855776D01*
X102127000Y-129855776D01*
X102127000Y-130873000D01*
X103145085Y-130873000D01*
X103267915Y-130670599D01*
X103263430Y-130658399D01*
X103742285Y-130658399D01*
X103865115Y-130860800D01*
X104883200Y-130860800D01*
X104883200Y-129843576D01*
X105137200Y-129843576D01*
X105137200Y-130860800D01*
X105157200Y-130860800D01*
X105157200Y-131114800D01*
X105137200Y-131114800D01*
X105137200Y-132132024D01*
X105339600Y-132255710D01*
X105440728Y-132225038D01*
X105673829Y-132117273D01*
X105807081Y-132020241D01*
X105884015Y-132113985D01*
X105980706Y-132193337D01*
X106091020Y-132252302D01*
X106210718Y-132288612D01*
X106335200Y-132300872D01*
X107685200Y-132300872D01*
X107809682Y-132288612D01*
X107929380Y-132252302D01*
X108039694Y-132193337D01*
X108136385Y-132113985D01*
X108215737Y-132017294D01*
X108274702Y-131906980D01*
X108311012Y-131787282D01*
X108323272Y-131662800D01*
X108323272Y-130312800D01*
X108311012Y-130188318D01*
X108274702Y-130068620D01*
X108215737Y-129958306D01*
X108136385Y-129861615D01*
X108039694Y-129782263D01*
X107929380Y-129723298D01*
X107809682Y-129686988D01*
X107685200Y-129674728D01*
X106335200Y-129674728D01*
X106210718Y-129686988D01*
X106091020Y-129723298D01*
X105980706Y-129782263D01*
X105884015Y-129861615D01*
X105807081Y-129955359D01*
X105673829Y-129858327D01*
X105440728Y-129750562D01*
X105339600Y-129719890D01*
X105137200Y-129843576D01*
X104883200Y-129843576D01*
X104680800Y-129719890D01*
X104579672Y-129750562D01*
X104346571Y-129858327D01*
X104138973Y-130009497D01*
X103964856Y-130198263D01*
X103830911Y-130417370D01*
X103742285Y-130658399D01*
X103263430Y-130658399D01*
X103179289Y-130429570D01*
X103045344Y-130210463D01*
X102871227Y-130021697D01*
X102663629Y-129870527D01*
X102430528Y-129762762D01*
X102329400Y-129732090D01*
X102127000Y-129855776D01*
X101873000Y-129855776D01*
X101670600Y-129732090D01*
X101569472Y-129762762D01*
X101336371Y-129870527D01*
X101203119Y-129967559D01*
X101126185Y-129873815D01*
X101029494Y-129794463D01*
X100919180Y-129735498D01*
X100799482Y-129699188D01*
X100675000Y-129686928D01*
X99325000Y-129686928D01*
X99200518Y-129699188D01*
X99080820Y-129735498D01*
X98970506Y-129794463D01*
X98873815Y-129873815D01*
X98794463Y-129970506D01*
X98735498Y-130080820D01*
X98699188Y-130200518D01*
X98686928Y-130325000D01*
X96313072Y-130325000D01*
X96300812Y-130200518D01*
X96264502Y-130080820D01*
X96205537Y-129970506D01*
X96126185Y-129873815D01*
X96029494Y-129794463D01*
X95919180Y-129735498D01*
X95799482Y-129699188D01*
X95675000Y-129686928D01*
X94325000Y-129686928D01*
X94200518Y-129699188D01*
X94080820Y-129735498D01*
X93970506Y-129794463D01*
X93873815Y-129873815D01*
X93802513Y-129960697D01*
X93620518Y-129839093D01*
X93382113Y-129740342D01*
X93129024Y-129690000D01*
X92870976Y-129690000D01*
X92617887Y-129740342D01*
X92379482Y-129839093D01*
X92164923Y-129982456D01*
X92000000Y-130147379D01*
X91835077Y-129982456D01*
X91620518Y-129839093D01*
X91382113Y-129740342D01*
X91129024Y-129690000D01*
X90870976Y-129690000D01*
X90617887Y-129740342D01*
X90379482Y-129839093D01*
X90164923Y-129982456D01*
X89982456Y-130164923D01*
X89839093Y-130379482D01*
X89740342Y-130617887D01*
X89690000Y-130870976D01*
X87460302Y-130870976D01*
X87463179Y-130853743D01*
X87474259Y-130792626D01*
X87474972Y-130783089D01*
X87524351Y-130054245D01*
X87526614Y-130031475D01*
X87527000Y-129590000D01*
X108560943Y-129590000D01*
X108561384Y-130145659D01*
%TD*%
M02*
