%TF.GenerationSoftware,KiCad,Pcbnew,(5.1.6)-1*%
%TF.CreationDate,2020-08-13T12:17:14+01:00*%
%TF.ProjectId,open-amiga-sampler-smd,6f70656e-2d61-46d6-9967-612d73616d70,rev?*%
%TF.SameCoordinates,Original*%
%TF.FileFunction,Copper,L1,Top*%
%TF.FilePolarity,Positive*%
%FSLAX46Y46*%
G04 Gerber Fmt 4.6, Leading zero omitted, Abs format (unit mm)*
G04 Created by KiCad (PCBNEW (5.1.6)-1) date 2020-08-13 12:17:14*
%MOMM*%
%LPD*%
G01*
G04 APERTURE LIST*
%TA.AperFunction,ComponentPad*%
%ADD10O,1.350000X1.350000*%
%TD*%
%TA.AperFunction,ComponentPad*%
%ADD11R,1.350000X1.350000*%
%TD*%
%TA.AperFunction,SMDPad,CuDef*%
%ADD12R,1.846667X3.480000*%
%TD*%
%TA.AperFunction,SMDPad,CuDef*%
%ADD13R,0.650000X1.060000*%
%TD*%
%TA.AperFunction,ViaPad*%
%ADD14C,0.800000*%
%TD*%
%TA.AperFunction,Conductor*%
%ADD15C,0.250000*%
%TD*%
%TA.AperFunction,Conductor*%
%ADD16C,0.350000*%
%TD*%
%TA.AperFunction,Conductor*%
%ADD17C,0.254000*%
%TD*%
G04 APERTURE END LIST*
%TO.P,C4,2*%
%TO.N,GND*%
%TA.AperFunction,SMDPad,CuDef*%
G36*
G01*
X83481000Y-142883000D02*
X82381000Y-142883000D01*
G75*
G02*
X82131000Y-142633000I0J250000D01*
G01*
X82131000Y-140533000D01*
G75*
G02*
X82381000Y-140283000I250000J0D01*
G01*
X83481000Y-140283000D01*
G75*
G02*
X83731000Y-140533000I0J-250000D01*
G01*
X83731000Y-142633000D01*
G75*
G02*
X83481000Y-142883000I-250000J0D01*
G01*
G37*
%TD.AperFunction*%
%TO.P,C4,1*%
%TO.N,VCC*%
%TA.AperFunction,SMDPad,CuDef*%
G36*
G01*
X83481000Y-146483000D02*
X82381000Y-146483000D01*
G75*
G02*
X82131000Y-146233000I0J250000D01*
G01*
X82131000Y-144133000D01*
G75*
G02*
X82381000Y-143883000I250000J0D01*
G01*
X83481000Y-143883000D01*
G75*
G02*
X83731000Y-144133000I0J-250000D01*
G01*
X83731000Y-146233000D01*
G75*
G02*
X83481000Y-146483000I-250000J0D01*
G01*
G37*
%TD.AperFunction*%
%TD*%
D10*
%TO.P,RV1,3*%
%TO.N,Vo*%
X90932500Y-131381500D03*
%TO.P,RV1,2*%
X92932500Y-131381500D03*
D11*
%TO.P,RV1,1*%
%TO.N,Net-(R4-Pad1)*%
X94932500Y-131381500D03*
%TD*%
D10*
%TO.P,J2,2*%
%TO.N,GND*%
X102000000Y-131191000D03*
D11*
%TO.P,J2,1*%
%TO.N,Net-(J2-Pad1)*%
X100000000Y-131191000D03*
%TD*%
D10*
%TO.P,J1,2*%
%TO.N,GND*%
X105010200Y-131191000D03*
D11*
%TO.P,J1,1*%
%TO.N,Net-(J1-Pad1)*%
X107010200Y-131191000D03*
%TD*%
%TO.P,C1,2*%
%TO.N,Net-(C1-Pad2)*%
%TA.AperFunction,SMDPad,CuDef*%
G36*
G01*
X108727000Y-141014001D02*
X108727000Y-140163999D01*
G75*
G02*
X108976999Y-139914000I249999J0D01*
G01*
X110052001Y-139914000D01*
G75*
G02*
X110302000Y-140163999I0J-249999D01*
G01*
X110302000Y-141014001D01*
G75*
G02*
X110052001Y-141264000I-249999J0D01*
G01*
X108976999Y-141264000D01*
G75*
G02*
X108727000Y-141014001I0J249999D01*
G01*
G37*
%TD.AperFunction*%
%TO.P,C1,1*%
%TO.N,MONO_AUDIO*%
%TA.AperFunction,SMDPad,CuDef*%
G36*
G01*
X105852000Y-141014001D02*
X105852000Y-140163999D01*
G75*
G02*
X106101999Y-139914000I249999J0D01*
G01*
X107177001Y-139914000D01*
G75*
G02*
X107427000Y-140163999I0J-249999D01*
G01*
X107427000Y-141014001D01*
G75*
G02*
X107177001Y-141264000I-249999J0D01*
G01*
X106101999Y-141264000D01*
G75*
G02*
X105852000Y-141014001I0J249999D01*
G01*
G37*
%TD.AperFunction*%
%TD*%
%TO.P,C2,2*%
%TO.N,GND*%
%TA.AperFunction,SMDPad,CuDef*%
G36*
G01*
X109171500Y-145332001D02*
X109171500Y-144481999D01*
G75*
G02*
X109421499Y-144232000I249999J0D01*
G01*
X110496501Y-144232000D01*
G75*
G02*
X110746500Y-144481999I0J-249999D01*
G01*
X110746500Y-145332001D01*
G75*
G02*
X110496501Y-145582000I-249999J0D01*
G01*
X109421499Y-145582000D01*
G75*
G02*
X109171500Y-145332001I0J249999D01*
G01*
G37*
%TD.AperFunction*%
%TO.P,C2,1*%
%TO.N,Net-(C2-Pad1)*%
%TA.AperFunction,SMDPad,CuDef*%
G36*
G01*
X106296500Y-145332001D02*
X106296500Y-144481999D01*
G75*
G02*
X106546499Y-144232000I249999J0D01*
G01*
X107621501Y-144232000D01*
G75*
G02*
X107871500Y-144481999I0J-249999D01*
G01*
X107871500Y-145332001D01*
G75*
G02*
X107621501Y-145582000I-249999J0D01*
G01*
X106546499Y-145582000D01*
G75*
G02*
X106296500Y-145332001I0J249999D01*
G01*
G37*
%TD.AperFunction*%
%TD*%
%TO.P,C3,2*%
%TO.N,GND*%
%TA.AperFunction,SMDPad,CuDef*%
G36*
G01*
X100895999Y-135006500D02*
X101796001Y-135006500D01*
G75*
G02*
X102046000Y-135256499I0J-249999D01*
G01*
X102046000Y-135906501D01*
G75*
G02*
X101796001Y-136156500I-249999J0D01*
G01*
X100895999Y-136156500D01*
G75*
G02*
X100646000Y-135906501I0J249999D01*
G01*
X100646000Y-135256499D01*
G75*
G02*
X100895999Y-135006500I249999J0D01*
G01*
G37*
%TD.AperFunction*%
%TO.P,C3,1*%
%TO.N,VCC*%
%TA.AperFunction,SMDPad,CuDef*%
G36*
G01*
X100895999Y-132956500D02*
X101796001Y-132956500D01*
G75*
G02*
X102046000Y-133206499I0J-249999D01*
G01*
X102046000Y-133856501D01*
G75*
G02*
X101796001Y-134106500I-249999J0D01*
G01*
X100895999Y-134106500D01*
G75*
G02*
X100646000Y-133856501I0J249999D01*
G01*
X100646000Y-133206499D01*
G75*
G02*
X100895999Y-132956500I249999J0D01*
G01*
G37*
%TD.AperFunction*%
%TD*%
%TO.P,C5,1*%
%TO.N,VCC*%
%TA.AperFunction,SMDPad,CuDef*%
G36*
G01*
X102921000Y-137229001D02*
X102921000Y-136328999D01*
G75*
G02*
X103170999Y-136079000I249999J0D01*
G01*
X103821001Y-136079000D01*
G75*
G02*
X104071000Y-136328999I0J-249999D01*
G01*
X104071000Y-137229001D01*
G75*
G02*
X103821001Y-137479000I-249999J0D01*
G01*
X103170999Y-137479000D01*
G75*
G02*
X102921000Y-137229001I0J249999D01*
G01*
G37*
%TD.AperFunction*%
%TO.P,C5,2*%
%TO.N,GND*%
%TA.AperFunction,SMDPad,CuDef*%
G36*
G01*
X104971000Y-137229001D02*
X104971000Y-136328999D01*
G75*
G02*
X105220999Y-136079000I249999J0D01*
G01*
X105871001Y-136079000D01*
G75*
G02*
X106121000Y-136328999I0J-249999D01*
G01*
X106121000Y-137229001D01*
G75*
G02*
X105871001Y-137479000I-249999J0D01*
G01*
X105220999Y-137479000D01*
G75*
G02*
X104971000Y-137229001I0J249999D01*
G01*
G37*
%TD.AperFunction*%
%TD*%
D12*
%TO.P,J3,1*%
%TO.N,STROBE*%
X81678000Y-149034500D03*
%TO.P,J3,2*%
%TO.N,D0*%
X84448000Y-149034500D03*
%TO.P,J3,3*%
%TO.N,D1*%
X87218000Y-149034500D03*
%TO.P,J3,4*%
%TO.N,D2*%
X89988000Y-149034500D03*
%TO.P,J3,5*%
%TO.N,D3*%
X92758000Y-149034500D03*
%TO.P,J3,6*%
%TO.N,D4*%
X95528000Y-149034500D03*
%TO.P,J3,7*%
%TO.N,D5*%
X98298000Y-149034500D03*
%TO.P,J3,8*%
%TO.N,D6*%
X101068000Y-149034500D03*
%TO.P,J3,9*%
%TO.N,D7*%
X103838000Y-149034500D03*
%TO.P,J3,10*%
%TO.N,Net-(J3-Pad10)*%
X106608000Y-149034500D03*
%TO.P,J3,11*%
%TO.N,Net-(J3-Pad11)*%
X109378000Y-149034500D03*
%TO.P,J3,12*%
%TO.N,Net-(J3-Pad12)*%
X112148000Y-149034500D03*
%TO.P,J3,13*%
%TO.N,Net-(J3-Pad13)*%
X114918000Y-149034500D03*
%TD*%
%TO.P,R1,2*%
%TO.N,Net-(J1-Pad1)*%
%TA.AperFunction,SMDPad,CuDef*%
G36*
G01*
X108450801Y-136176600D02*
X107550799Y-136176600D01*
G75*
G02*
X107300800Y-135926601I0J249999D01*
G01*
X107300800Y-135276599D01*
G75*
G02*
X107550799Y-135026600I249999J0D01*
G01*
X108450801Y-135026600D01*
G75*
G02*
X108700800Y-135276599I0J-249999D01*
G01*
X108700800Y-135926601D01*
G75*
G02*
X108450801Y-136176600I-249999J0D01*
G01*
G37*
%TD.AperFunction*%
%TO.P,R1,1*%
%TO.N,MONO_AUDIO*%
%TA.AperFunction,SMDPad,CuDef*%
G36*
G01*
X108450801Y-138226600D02*
X107550799Y-138226600D01*
G75*
G02*
X107300800Y-137976601I0J249999D01*
G01*
X107300800Y-137326599D01*
G75*
G02*
X107550799Y-137076600I249999J0D01*
G01*
X108450801Y-137076600D01*
G75*
G02*
X108700800Y-137326599I0J-249999D01*
G01*
X108700800Y-137976601D01*
G75*
G02*
X108450801Y-138226600I-249999J0D01*
G01*
G37*
%TD.AperFunction*%
%TD*%
%TO.P,R2,1*%
%TO.N,MONO_AUDIO*%
%TA.AperFunction,SMDPad,CuDef*%
G36*
G01*
X106057500Y-134106499D02*
X106057500Y-135006501D01*
G75*
G02*
X105807501Y-135256500I-249999J0D01*
G01*
X105157499Y-135256500D01*
G75*
G02*
X104907500Y-135006501I0J249999D01*
G01*
X104907500Y-134106499D01*
G75*
G02*
X105157499Y-133856500I249999J0D01*
G01*
X105807501Y-133856500D01*
G75*
G02*
X106057500Y-134106499I0J-249999D01*
G01*
G37*
%TD.AperFunction*%
%TO.P,R2,2*%
%TO.N,Net-(J2-Pad1)*%
%TA.AperFunction,SMDPad,CuDef*%
G36*
G01*
X104007500Y-134106499D02*
X104007500Y-135006501D01*
G75*
G02*
X103757501Y-135256500I-249999J0D01*
G01*
X103107499Y-135256500D01*
G75*
G02*
X102857500Y-135006501I0J249999D01*
G01*
X102857500Y-134106499D01*
G75*
G02*
X103107499Y-133856500I249999J0D01*
G01*
X103757501Y-133856500D01*
G75*
G02*
X104007500Y-134106499I0J-249999D01*
G01*
G37*
%TD.AperFunction*%
%TD*%
%TO.P,R3,2*%
%TO.N,VCC*%
%TA.AperFunction,SMDPad,CuDef*%
G36*
G01*
X86735499Y-143388500D02*
X87635501Y-143388500D01*
G75*
G02*
X87885500Y-143638499I0J-249999D01*
G01*
X87885500Y-144288501D01*
G75*
G02*
X87635501Y-144538500I-249999J0D01*
G01*
X86735499Y-144538500D01*
G75*
G02*
X86485500Y-144288501I0J249999D01*
G01*
X86485500Y-143638499D01*
G75*
G02*
X86735499Y-143388500I249999J0D01*
G01*
G37*
%TD.AperFunction*%
%TO.P,R3,1*%
%TO.N,Net-(R3-Pad1)*%
%TA.AperFunction,SMDPad,CuDef*%
G36*
G01*
X86735499Y-141338500D02*
X87635501Y-141338500D01*
G75*
G02*
X87885500Y-141588499I0J-249999D01*
G01*
X87885500Y-142238501D01*
G75*
G02*
X87635501Y-142488500I-249999J0D01*
G01*
X86735499Y-142488500D01*
G75*
G02*
X86485500Y-142238501I0J249999D01*
G01*
X86485500Y-141588499D01*
G75*
G02*
X86735499Y-141338500I249999J0D01*
G01*
G37*
%TD.AperFunction*%
%TD*%
%TO.P,R4,1*%
%TO.N,Net-(R4-Pad1)*%
%TA.AperFunction,SMDPad,CuDef*%
G36*
G01*
X106286500Y-143071001D02*
X106286500Y-142170999D01*
G75*
G02*
X106536499Y-141921000I249999J0D01*
G01*
X107186501Y-141921000D01*
G75*
G02*
X107436500Y-142170999I0J-249999D01*
G01*
X107436500Y-143071001D01*
G75*
G02*
X107186501Y-143321000I-249999J0D01*
G01*
X106536499Y-143321000D01*
G75*
G02*
X106286500Y-143071001I0J249999D01*
G01*
G37*
%TD.AperFunction*%
%TO.P,R4,2*%
%TO.N,Net-(C1-Pad2)*%
%TA.AperFunction,SMDPad,CuDef*%
G36*
G01*
X108336500Y-143071001D02*
X108336500Y-142170999D01*
G75*
G02*
X108586499Y-141921000I249999J0D01*
G01*
X109236501Y-141921000D01*
G75*
G02*
X109486500Y-142170999I0J-249999D01*
G01*
X109486500Y-143071001D01*
G75*
G02*
X109236501Y-143321000I-249999J0D01*
G01*
X108586499Y-143321000D01*
G75*
G02*
X108336500Y-143071001I0J249999D01*
G01*
G37*
%TD.AperFunction*%
%TD*%
%TO.P,R5,2*%
%TO.N,VCC*%
%TA.AperFunction,SMDPad,CuDef*%
G36*
G01*
X101911999Y-144849000D02*
X102812001Y-144849000D01*
G75*
G02*
X103062000Y-145098999I0J-249999D01*
G01*
X103062000Y-145749001D01*
G75*
G02*
X102812001Y-145999000I-249999J0D01*
G01*
X101911999Y-145999000D01*
G75*
G02*
X101662000Y-145749001I0J249999D01*
G01*
X101662000Y-145098999D01*
G75*
G02*
X101911999Y-144849000I249999J0D01*
G01*
G37*
%TD.AperFunction*%
%TO.P,R5,1*%
%TO.N,Net-(C2-Pad1)*%
%TA.AperFunction,SMDPad,CuDef*%
G36*
G01*
X101911999Y-142799000D02*
X102812001Y-142799000D01*
G75*
G02*
X103062000Y-143048999I0J-249999D01*
G01*
X103062000Y-143699001D01*
G75*
G02*
X102812001Y-143949000I-249999J0D01*
G01*
X101911999Y-143949000D01*
G75*
G02*
X101662000Y-143699001I0J249999D01*
G01*
X101662000Y-143048999D01*
G75*
G02*
X101911999Y-142799000I249999J0D01*
G01*
G37*
%TD.AperFunction*%
%TD*%
%TO.P,R6,1*%
%TO.N,GND*%
%TA.AperFunction,SMDPad,CuDef*%
G36*
G01*
X105225001Y-145999000D02*
X104324999Y-145999000D01*
G75*
G02*
X104075000Y-145749001I0J249999D01*
G01*
X104075000Y-145098999D01*
G75*
G02*
X104324999Y-144849000I249999J0D01*
G01*
X105225001Y-144849000D01*
G75*
G02*
X105475000Y-145098999I0J-249999D01*
G01*
X105475000Y-145749001D01*
G75*
G02*
X105225001Y-145999000I-249999J0D01*
G01*
G37*
%TD.AperFunction*%
%TO.P,R6,2*%
%TO.N,Net-(C2-Pad1)*%
%TA.AperFunction,SMDPad,CuDef*%
G36*
G01*
X105225001Y-143949000D02*
X104324999Y-143949000D01*
G75*
G02*
X104075000Y-143699001I0J249999D01*
G01*
X104075000Y-143048999D01*
G75*
G02*
X104324999Y-142799000I249999J0D01*
G01*
X105225001Y-142799000D01*
G75*
G02*
X105475000Y-143048999I0J-249999D01*
G01*
X105475000Y-143699001D01*
G75*
G02*
X105225001Y-143949000I-249999J0D01*
G01*
G37*
%TD.AperFunction*%
%TD*%
%TO.P,U1,1*%
%TO.N,Vo*%
%TA.AperFunction,SMDPad,CuDef*%
G36*
G01*
X88495500Y-134452500D02*
X88495500Y-134152500D01*
G75*
G02*
X88645500Y-134002500I150000J0D01*
G01*
X90395500Y-134002500D01*
G75*
G02*
X90545500Y-134152500I0J-150000D01*
G01*
X90545500Y-134452500D01*
G75*
G02*
X90395500Y-134602500I-150000J0D01*
G01*
X88645500Y-134602500D01*
G75*
G02*
X88495500Y-134452500I0J150000D01*
G01*
G37*
%TD.AperFunction*%
%TO.P,U1,2*%
%TO.N,D0*%
%TA.AperFunction,SMDPad,CuDef*%
G36*
G01*
X88495500Y-135722500D02*
X88495500Y-135422500D01*
G75*
G02*
X88645500Y-135272500I150000J0D01*
G01*
X90395500Y-135272500D01*
G75*
G02*
X90545500Y-135422500I0J-150000D01*
G01*
X90545500Y-135722500D01*
G75*
G02*
X90395500Y-135872500I-150000J0D01*
G01*
X88645500Y-135872500D01*
G75*
G02*
X88495500Y-135722500I0J150000D01*
G01*
G37*
%TD.AperFunction*%
%TO.P,U1,3*%
%TO.N,D1*%
%TA.AperFunction,SMDPad,CuDef*%
G36*
G01*
X88495500Y-136992500D02*
X88495500Y-136692500D01*
G75*
G02*
X88645500Y-136542500I150000J0D01*
G01*
X90395500Y-136542500D01*
G75*
G02*
X90545500Y-136692500I0J-150000D01*
G01*
X90545500Y-136992500D01*
G75*
G02*
X90395500Y-137142500I-150000J0D01*
G01*
X88645500Y-137142500D01*
G75*
G02*
X88495500Y-136992500I0J150000D01*
G01*
G37*
%TD.AperFunction*%
%TO.P,U1,4*%
%TO.N,D2*%
%TA.AperFunction,SMDPad,CuDef*%
G36*
G01*
X88495500Y-138262500D02*
X88495500Y-137962500D01*
G75*
G02*
X88645500Y-137812500I150000J0D01*
G01*
X90395500Y-137812500D01*
G75*
G02*
X90545500Y-137962500I0J-150000D01*
G01*
X90545500Y-138262500D01*
G75*
G02*
X90395500Y-138412500I-150000J0D01*
G01*
X88645500Y-138412500D01*
G75*
G02*
X88495500Y-138262500I0J150000D01*
G01*
G37*
%TD.AperFunction*%
%TO.P,U1,5*%
%TO.N,D3*%
%TA.AperFunction,SMDPad,CuDef*%
G36*
G01*
X88495500Y-139532500D02*
X88495500Y-139232500D01*
G75*
G02*
X88645500Y-139082500I150000J0D01*
G01*
X90395500Y-139082500D01*
G75*
G02*
X90545500Y-139232500I0J-150000D01*
G01*
X90545500Y-139532500D01*
G75*
G02*
X90395500Y-139682500I-150000J0D01*
G01*
X88645500Y-139682500D01*
G75*
G02*
X88495500Y-139532500I0J150000D01*
G01*
G37*
%TD.AperFunction*%
%TO.P,U1,6*%
%TO.N,STROBE*%
%TA.AperFunction,SMDPad,CuDef*%
G36*
G01*
X88495500Y-140802500D02*
X88495500Y-140502500D01*
G75*
G02*
X88645500Y-140352500I150000J0D01*
G01*
X90395500Y-140352500D01*
G75*
G02*
X90545500Y-140502500I0J-150000D01*
G01*
X90545500Y-140802500D01*
G75*
G02*
X90395500Y-140952500I-150000J0D01*
G01*
X88645500Y-140952500D01*
G75*
G02*
X88495500Y-140802500I0J150000D01*
G01*
G37*
%TD.AperFunction*%
%TO.P,U1,7*%
%TO.N,Net-(R3-Pad1)*%
%TA.AperFunction,SMDPad,CuDef*%
G36*
G01*
X88495500Y-142072500D02*
X88495500Y-141772500D01*
G75*
G02*
X88645500Y-141622500I150000J0D01*
G01*
X90395500Y-141622500D01*
G75*
G02*
X90545500Y-141772500I0J-150000D01*
G01*
X90545500Y-142072500D01*
G75*
G02*
X90395500Y-142222500I-150000J0D01*
G01*
X88645500Y-142222500D01*
G75*
G02*
X88495500Y-142072500I0J150000D01*
G01*
G37*
%TD.AperFunction*%
%TO.P,U1,8*%
%TO.N,GND*%
%TA.AperFunction,SMDPad,CuDef*%
G36*
G01*
X88495500Y-143342500D02*
X88495500Y-143042500D01*
G75*
G02*
X88645500Y-142892500I150000J0D01*
G01*
X90395500Y-142892500D01*
G75*
G02*
X90545500Y-143042500I0J-150000D01*
G01*
X90545500Y-143342500D01*
G75*
G02*
X90395500Y-143492500I-150000J0D01*
G01*
X88645500Y-143492500D01*
G75*
G02*
X88495500Y-143342500I0J150000D01*
G01*
G37*
%TD.AperFunction*%
%TO.P,U1,9*%
%TO.N,Net-(U1-Pad9)*%
%TA.AperFunction,SMDPad,CuDef*%
G36*
G01*
X88495500Y-144612500D02*
X88495500Y-144312500D01*
G75*
G02*
X88645500Y-144162500I150000J0D01*
G01*
X90395500Y-144162500D01*
G75*
G02*
X90545500Y-144312500I0J-150000D01*
G01*
X90545500Y-144612500D01*
G75*
G02*
X90395500Y-144762500I-150000J0D01*
G01*
X88645500Y-144762500D01*
G75*
G02*
X88495500Y-144612500I0J150000D01*
G01*
G37*
%TD.AperFunction*%
%TO.P,U1,10*%
%TO.N,GND*%
%TA.AperFunction,SMDPad,CuDef*%
G36*
G01*
X88495500Y-145882500D02*
X88495500Y-145582500D01*
G75*
G02*
X88645500Y-145432500I150000J0D01*
G01*
X90395500Y-145432500D01*
G75*
G02*
X90545500Y-145582500I0J-150000D01*
G01*
X90545500Y-145882500D01*
G75*
G02*
X90395500Y-146032500I-150000J0D01*
G01*
X88645500Y-146032500D01*
G75*
G02*
X88495500Y-145882500I0J150000D01*
G01*
G37*
%TD.AperFunction*%
%TO.P,U1,11*%
%TA.AperFunction,SMDPad,CuDef*%
G36*
G01*
X97795500Y-145882500D02*
X97795500Y-145582500D01*
G75*
G02*
X97945500Y-145432500I150000J0D01*
G01*
X99695500Y-145432500D01*
G75*
G02*
X99845500Y-145582500I0J-150000D01*
G01*
X99845500Y-145882500D01*
G75*
G02*
X99695500Y-146032500I-150000J0D01*
G01*
X97945500Y-146032500D01*
G75*
G02*
X97795500Y-145882500I0J150000D01*
G01*
G37*
%TD.AperFunction*%
%TO.P,U1,12*%
%TO.N,VCC*%
%TA.AperFunction,SMDPad,CuDef*%
G36*
G01*
X97795500Y-144612500D02*
X97795500Y-144312500D01*
G75*
G02*
X97945500Y-144162500I150000J0D01*
G01*
X99695500Y-144162500D01*
G75*
G02*
X99845500Y-144312500I0J-150000D01*
G01*
X99845500Y-144612500D01*
G75*
G02*
X99695500Y-144762500I-150000J0D01*
G01*
X97945500Y-144762500D01*
G75*
G02*
X97795500Y-144612500I0J150000D01*
G01*
G37*
%TD.AperFunction*%
%TO.P,U1,13*%
%TO.N,GND*%
%TA.AperFunction,SMDPad,CuDef*%
G36*
G01*
X97795500Y-143342500D02*
X97795500Y-143042500D01*
G75*
G02*
X97945500Y-142892500I150000J0D01*
G01*
X99695500Y-142892500D01*
G75*
G02*
X99845500Y-143042500I0J-150000D01*
G01*
X99845500Y-143342500D01*
G75*
G02*
X99695500Y-143492500I-150000J0D01*
G01*
X97945500Y-143492500D01*
G75*
G02*
X97795500Y-143342500I0J150000D01*
G01*
G37*
%TD.AperFunction*%
%TO.P,U1,14*%
%TO.N,D4*%
%TA.AperFunction,SMDPad,CuDef*%
G36*
G01*
X97795500Y-142072500D02*
X97795500Y-141772500D01*
G75*
G02*
X97945500Y-141622500I150000J0D01*
G01*
X99695500Y-141622500D01*
G75*
G02*
X99845500Y-141772500I0J-150000D01*
G01*
X99845500Y-142072500D01*
G75*
G02*
X99695500Y-142222500I-150000J0D01*
G01*
X97945500Y-142222500D01*
G75*
G02*
X97795500Y-142072500I0J150000D01*
G01*
G37*
%TD.AperFunction*%
%TO.P,U1,15*%
%TO.N,D5*%
%TA.AperFunction,SMDPad,CuDef*%
G36*
G01*
X97795500Y-140802500D02*
X97795500Y-140502500D01*
G75*
G02*
X97945500Y-140352500I150000J0D01*
G01*
X99695500Y-140352500D01*
G75*
G02*
X99845500Y-140502500I0J-150000D01*
G01*
X99845500Y-140802500D01*
G75*
G02*
X99695500Y-140952500I-150000J0D01*
G01*
X97945500Y-140952500D01*
G75*
G02*
X97795500Y-140802500I0J150000D01*
G01*
G37*
%TD.AperFunction*%
%TO.P,U1,16*%
%TO.N,D6*%
%TA.AperFunction,SMDPad,CuDef*%
G36*
G01*
X97795500Y-139532500D02*
X97795500Y-139232500D01*
G75*
G02*
X97945500Y-139082500I150000J0D01*
G01*
X99695500Y-139082500D01*
G75*
G02*
X99845500Y-139232500I0J-150000D01*
G01*
X99845500Y-139532500D01*
G75*
G02*
X99695500Y-139682500I-150000J0D01*
G01*
X97945500Y-139682500D01*
G75*
G02*
X97795500Y-139532500I0J150000D01*
G01*
G37*
%TD.AperFunction*%
%TO.P,U1,17*%
%TO.N,D7*%
%TA.AperFunction,SMDPad,CuDef*%
G36*
G01*
X97795500Y-138262500D02*
X97795500Y-137962500D01*
G75*
G02*
X97945500Y-137812500I150000J0D01*
G01*
X99695500Y-137812500D01*
G75*
G02*
X99845500Y-137962500I0J-150000D01*
G01*
X99845500Y-138262500D01*
G75*
G02*
X99695500Y-138412500I-150000J0D01*
G01*
X97945500Y-138412500D01*
G75*
G02*
X97795500Y-138262500I0J150000D01*
G01*
G37*
%TD.AperFunction*%
%TO.P,U1,18*%
%TO.N,Net-(U1-Pad18)*%
%TA.AperFunction,SMDPad,CuDef*%
G36*
G01*
X97795500Y-136992500D02*
X97795500Y-136692500D01*
G75*
G02*
X97945500Y-136542500I150000J0D01*
G01*
X99695500Y-136542500D01*
G75*
G02*
X99845500Y-136692500I0J-150000D01*
G01*
X99845500Y-136992500D01*
G75*
G02*
X99695500Y-137142500I-150000J0D01*
G01*
X97945500Y-137142500D01*
G75*
G02*
X97795500Y-136992500I0J150000D01*
G01*
G37*
%TD.AperFunction*%
%TO.P,U1,19*%
%TO.N,N/C*%
%TA.AperFunction,SMDPad,CuDef*%
G36*
G01*
X97795500Y-135722500D02*
X97795500Y-135422500D01*
G75*
G02*
X97945500Y-135272500I150000J0D01*
G01*
X99695500Y-135272500D01*
G75*
G02*
X99845500Y-135422500I0J-150000D01*
G01*
X99845500Y-135722500D01*
G75*
G02*
X99695500Y-135872500I-150000J0D01*
G01*
X97945500Y-135872500D01*
G75*
G02*
X97795500Y-135722500I0J150000D01*
G01*
G37*
%TD.AperFunction*%
%TO.P,U1,20*%
%TO.N,VCC*%
%TA.AperFunction,SMDPad,CuDef*%
G36*
G01*
X97795500Y-134452500D02*
X97795500Y-134152500D01*
G75*
G02*
X97945500Y-134002500I150000J0D01*
G01*
X99695500Y-134002500D01*
G75*
G02*
X99845500Y-134152500I0J-150000D01*
G01*
X99845500Y-134452500D01*
G75*
G02*
X99695500Y-134602500I-150000J0D01*
G01*
X97945500Y-134602500D01*
G75*
G02*
X97795500Y-134452500I0J150000D01*
G01*
G37*
%TD.AperFunction*%
%TD*%
D13*
%TO.P,U2,1*%
%TO.N,Net-(R4-Pad1)*%
X102809000Y-141181000D03*
%TO.P,U2,2*%
%TO.N,GND*%
X103759000Y-141181000D03*
%TO.P,U2,3*%
%TO.N,Net-(C2-Pad1)*%
X104709000Y-141181000D03*
%TO.P,U2,4*%
%TO.N,Vo*%
X104709000Y-138981000D03*
%TO.P,U2,5*%
%TO.N,VCC*%
X102809000Y-138981000D03*
%TD*%
D14*
%TO.N,GND*%
X91757500Y-135445500D03*
X94869000Y-136334500D03*
X95377000Y-139827000D03*
X96647000Y-145542000D03*
X103759000Y-142113000D03*
X105664000Y-146558000D03*
X109855000Y-146367500D03*
X114617500Y-142201900D03*
X114795300Y-146291300D03*
X102108000Y-134747000D03*
X97828100Y-132359400D03*
X91884500Y-143764000D03*
X82042000Y-143319500D03*
X105981500Y-138112500D03*
X94107000Y-146494500D03*
X91503500Y-146431000D03*
X96837501Y-143192500D03*
%TO.N,VCC*%
X102028788Y-138851009D03*
X97409000Y-134302500D03*
X83121500Y-146748500D03*
X103314500Y-144970500D03*
X102520750Y-136937750D03*
X87348910Y-144934090D03*
X97300250Y-144159380D03*
%TO.N,STROBE*%
X81407000Y-146621500D03*
X87665451Y-140562869D03*
%TD*%
D15*
%TO.N,MONO_AUDIO*%
X108000800Y-139164200D02*
X107084000Y-140081000D01*
X108000800Y-137651600D02*
X108000800Y-139164200D01*
X105482500Y-135016496D02*
X105482500Y-134556500D01*
X108000800Y-137534796D02*
X105482500Y-135016496D01*
X108000800Y-137651600D02*
X108000800Y-137534796D01*
%TO.N,Net-(C1-Pad2)*%
X109185600Y-142595600D02*
X108595600Y-142595600D01*
X109959000Y-141573500D02*
X108911500Y-142621000D01*
X109959000Y-140081000D02*
X109959000Y-141573500D01*
%TO.N,Net-(C2-Pad1)*%
X104775000Y-143365000D02*
X104766000Y-143374000D01*
X104775000Y-141224000D02*
X104775000Y-143365000D01*
X104766000Y-143374000D02*
X102362000Y-143374000D01*
X105664000Y-143374000D02*
X104766000Y-143374000D01*
X107197000Y-144907000D02*
X105664000Y-143374000D01*
%TO.N,GND*%
X103759000Y-141181000D02*
X103759000Y-142113000D01*
X105664000Y-146558000D02*
X105664000Y-146558000D01*
X109940500Y-144843500D02*
X109940500Y-146409000D01*
X102108000Y-134819500D02*
X101346000Y-135581500D01*
X102108000Y-134747000D02*
X102108000Y-134819500D01*
X105664000Y-146313000D02*
X105664000Y-146558000D01*
X104775000Y-145424000D02*
X105664000Y-146313000D01*
X82931000Y-142430500D02*
X82042000Y-143319500D01*
X82931000Y-141710000D02*
X82931000Y-142430500D01*
X105546000Y-136779000D02*
X105546000Y-137677000D01*
X105546000Y-137677000D02*
X105981500Y-138112500D01*
X96837500Y-145732500D02*
X96647000Y-145542000D01*
X98820500Y-145732500D02*
X96837500Y-145732500D01*
X98820500Y-143192500D02*
X96837501Y-143192500D01*
%TO.N,VCC*%
X102809000Y-138981000D02*
X102665510Y-138837510D01*
X102809000Y-138981000D02*
X102158779Y-138981000D01*
X102158779Y-138981000D02*
X102028788Y-138851009D01*
D16*
X83121500Y-145183000D02*
X83121500Y-146685000D01*
D15*
X103487000Y-136770000D02*
X102607000Y-136770000D01*
X103496000Y-136779000D02*
X103487000Y-136770000D01*
D16*
X102815500Y-144970500D02*
X102362000Y-145424000D01*
X103314500Y-144970500D02*
X102815500Y-144970500D01*
D15*
X87185500Y-143582500D02*
X87185500Y-144843500D01*
X86995000Y-143519000D02*
X87122000Y-143519000D01*
X87122000Y-143519000D02*
X87185500Y-143582500D01*
X103496000Y-136779000D02*
X102679500Y-136779000D01*
X102679500Y-136779000D02*
X102520750Y-136937750D01*
D16*
X87185500Y-144843500D02*
X87276090Y-144934090D01*
X87276090Y-144934090D02*
X87348910Y-144934090D01*
D15*
X97603370Y-144462500D02*
X97300250Y-144159380D01*
X98820500Y-144462500D02*
X97603370Y-144462500D01*
D16*
X99949000Y-134302500D02*
X98820500Y-134302500D01*
X101346000Y-133531500D02*
X100720000Y-133531500D01*
X100720000Y-133531500D02*
X99949000Y-134302500D01*
X97663000Y-134302500D02*
X98312500Y-134302500D01*
D15*
%TO.N,Net-(J1-Pad1)*%
X108000000Y-135600800D02*
X108000800Y-135601600D01*
X108000800Y-135601600D02*
X108000800Y-134404100D01*
X107010200Y-133413500D02*
X107010200Y-130987800D01*
X108000800Y-134404100D02*
X107010200Y-133413500D01*
%TO.N,Net-(J2-Pad1)*%
X100000000Y-131000000D02*
X100456500Y-131000000D01*
X103432500Y-133976000D02*
X103432500Y-134556500D01*
X103432500Y-133856500D02*
X101973500Y-132397500D01*
X103432500Y-134556500D02*
X103432500Y-133856500D01*
X101206500Y-132397500D02*
X100000000Y-131191000D01*
X101973500Y-132397500D02*
X101206500Y-132397500D01*
%TO.N,STROBE*%
X81407000Y-149589000D02*
X81678000Y-149860000D01*
X81407000Y-146939000D02*
X81407000Y-149589000D01*
X88020320Y-140208000D02*
X87665451Y-140562869D01*
X89457000Y-140208000D02*
X88020320Y-140208000D01*
%TO.N,D0*%
X87884000Y-137409767D02*
X87884000Y-136652000D01*
X84481502Y-149826498D02*
X84481502Y-149000998D01*
X88963500Y-135572500D02*
X89520500Y-135572500D01*
X84448000Y-149860000D02*
X84481502Y-149826498D01*
X87884000Y-136652000D02*
X88963500Y-135572500D01*
X84481502Y-149000998D02*
X85090000Y-148392500D01*
X85090000Y-148392500D02*
X85090000Y-140203767D01*
X85090000Y-140203767D02*
X87884000Y-137409767D01*
%TO.N,D1*%
X87218000Y-148114500D02*
X87218000Y-149860000D01*
X85598000Y-146494500D02*
X87218000Y-148114500D01*
X85598000Y-140332178D02*
X85598000Y-146494500D01*
X89520500Y-136842500D02*
X89087678Y-136842500D01*
X89087678Y-136842500D02*
X85598000Y-140332178D01*
%TO.N,D2*%
X89988000Y-148087998D02*
X89988000Y-149034500D01*
X88963500Y-138112500D02*
X86106000Y-140970000D01*
X89520500Y-138112500D02*
X88963500Y-138112500D01*
X86106000Y-140970000D02*
X86106000Y-144716500D01*
X86106000Y-144716500D02*
X89732749Y-148343249D01*
X89732749Y-148343249D02*
X89988000Y-148087998D01*
%TO.N,D3*%
X91948000Y-149050000D02*
X92758000Y-149860000D01*
X92758000Y-141214000D02*
X92758000Y-149034500D01*
X90926500Y-139382500D02*
X92758000Y-141214000D01*
X89901500Y-139382500D02*
X90926500Y-139382500D01*
%TO.N,D4*%
X95528000Y-147870000D02*
X95528000Y-149860000D01*
X95313500Y-147655500D02*
X95528000Y-147870000D01*
X95313500Y-143129000D02*
X95313500Y-147655500D01*
X98820500Y-141922500D02*
X96520000Y-141922500D01*
X96520000Y-141922500D02*
X95313500Y-143129000D01*
%TO.N,D5*%
X98298000Y-147637500D02*
X98298000Y-149860000D01*
X98298000Y-148082000D02*
X98298000Y-149034500D01*
X100318978Y-140744978D02*
X100318978Y-146061022D01*
X98820500Y-140652500D02*
X100226500Y-140652500D01*
X100318978Y-146061022D02*
X98298000Y-148082000D01*
X100226500Y-140652500D02*
X100318978Y-140744978D01*
%TO.N,D6*%
X101068000Y-147870000D02*
X101068000Y-149860000D01*
X100768989Y-147570989D02*
X101068000Y-147870000D01*
X99831878Y-139382500D02*
X100768989Y-140319611D01*
X99201500Y-139382500D02*
X99831878Y-139382500D01*
X100768989Y-140319611D02*
X100768989Y-147570989D01*
%TO.N,D7*%
X103838000Y-148542000D02*
X103838000Y-149860000D01*
X101219000Y-145923000D02*
X103838000Y-148542000D01*
X101219000Y-140082410D02*
X101219000Y-145923000D01*
X99249090Y-138112500D02*
X101219000Y-140082410D01*
%TO.N,Net-(R3-Pad1)*%
X86995000Y-141469000D02*
X87448500Y-141922500D01*
X87448500Y-141922500D02*
X89012500Y-141922500D01*
%TO.N,Net-(R4-Pad1)*%
X106680000Y-142621000D02*
X105410000Y-141351000D01*
X105283000Y-140271500D02*
X103228498Y-140271500D01*
X106861500Y-142621000D02*
X106680000Y-142621000D01*
X105410000Y-141351000D02*
X105410000Y-140398500D01*
X105410000Y-140398500D02*
X105283000Y-140271500D01*
X102743000Y-141115000D02*
X102809000Y-141181000D01*
X102743000Y-140271500D02*
X102743000Y-141115000D01*
X102743000Y-140271500D02*
X103228498Y-140271500D01*
X102362000Y-140271500D02*
X102743000Y-140271500D01*
X100203000Y-138112500D02*
X102362000Y-140271500D01*
X95000000Y-131000000D02*
X95000000Y-134751000D01*
X97726500Y-137477500D02*
X99885500Y-137477500D01*
X99885500Y-137477500D02*
X100203000Y-137795000D01*
X95000000Y-134751000D02*
X97726500Y-137477500D01*
X100203000Y-137795000D02*
X100203000Y-138112500D01*
%TO.N,Vo*%
X91000000Y-132823000D02*
X89520500Y-134302500D01*
X93091000Y-131318000D02*
X91000000Y-131318000D01*
X100304600Y-136245600D02*
X100256510Y-136197510D01*
X100304600Y-136248832D02*
X100304600Y-136245600D01*
X104709000Y-138981000D02*
X103713500Y-137985500D01*
X102041268Y-137985500D02*
X100304600Y-136248832D01*
X91000000Y-131318000D02*
X91000000Y-132823000D01*
X96000001Y-130607501D02*
X95694500Y-130302000D01*
X103713500Y-137985500D02*
X102041268Y-137985500D01*
X100256510Y-136197510D02*
X97653010Y-136197510D01*
X97653010Y-136197510D02*
X96000001Y-134544501D01*
X96000001Y-134544501D02*
X96000001Y-130607501D01*
X95694500Y-130302000D02*
X94107000Y-130302000D01*
X94107000Y-130302000D02*
X93091000Y-131318000D01*
%TD*%
D17*
%TO.N,GND*%
G36*
X91998000Y-141528802D02*
G01*
X91998001Y-146656428D01*
X91834667Y-146656428D01*
X91710185Y-146668688D01*
X91590487Y-146704998D01*
X91480173Y-146763963D01*
X91383482Y-146843315D01*
X91373000Y-146856087D01*
X91362518Y-146843315D01*
X91265827Y-146763963D01*
X91155513Y-146704998D01*
X91035815Y-146668688D01*
X90911333Y-146656428D01*
X90676193Y-146656428D01*
X90789680Y-146622002D01*
X90899994Y-146563037D01*
X90996685Y-146483685D01*
X91076037Y-146386994D01*
X91135002Y-146276680D01*
X91171312Y-146156982D01*
X91183572Y-146032500D01*
X91180500Y-146018250D01*
X91021750Y-145859500D01*
X89647500Y-145859500D01*
X89647500Y-145879500D01*
X89393500Y-145879500D01*
X89393500Y-145859500D01*
X89373500Y-145859500D01*
X89373500Y-145605500D01*
X89393500Y-145605500D01*
X89393500Y-145585500D01*
X89647500Y-145585500D01*
X89647500Y-145605500D01*
X91021750Y-145605500D01*
X91180500Y-145446750D01*
X91183572Y-145432500D01*
X91171312Y-145308018D01*
X91135002Y-145188320D01*
X91076037Y-145078006D01*
X91051770Y-145048436D01*
X91123584Y-144914082D01*
X91168429Y-144766245D01*
X91183572Y-144612500D01*
X91183572Y-144312500D01*
X91168429Y-144158755D01*
X91123584Y-144010918D01*
X91051770Y-143876564D01*
X91076037Y-143846994D01*
X91135002Y-143736680D01*
X91171312Y-143616982D01*
X91183572Y-143492500D01*
X91180500Y-143478250D01*
X91021750Y-143319500D01*
X89647500Y-143319500D01*
X89647500Y-143339500D01*
X89393500Y-143339500D01*
X89393500Y-143319500D01*
X89373500Y-143319500D01*
X89373500Y-143065500D01*
X89393500Y-143065500D01*
X89393500Y-143045500D01*
X89647500Y-143045500D01*
X89647500Y-143065500D01*
X91021750Y-143065500D01*
X91180500Y-142906750D01*
X91183572Y-142892500D01*
X91171312Y-142768018D01*
X91135002Y-142648320D01*
X91076037Y-142538006D01*
X91051770Y-142508436D01*
X91123584Y-142374082D01*
X91168429Y-142226245D01*
X91183572Y-142072500D01*
X91183572Y-141772500D01*
X91168429Y-141618755D01*
X91123584Y-141470918D01*
X91050758Y-141334671D01*
X91012046Y-141287500D01*
X91050758Y-141240329D01*
X91123584Y-141104082D01*
X91168429Y-140956245D01*
X91183572Y-140802500D01*
X91183572Y-140714373D01*
X91998000Y-141528802D01*
G37*
X91998000Y-141528802D02*
X91998001Y-146656428D01*
X91834667Y-146656428D01*
X91710185Y-146668688D01*
X91590487Y-146704998D01*
X91480173Y-146763963D01*
X91383482Y-146843315D01*
X91373000Y-146856087D01*
X91362518Y-146843315D01*
X91265827Y-146763963D01*
X91155513Y-146704998D01*
X91035815Y-146668688D01*
X90911333Y-146656428D01*
X90676193Y-146656428D01*
X90789680Y-146622002D01*
X90899994Y-146563037D01*
X90996685Y-146483685D01*
X91076037Y-146386994D01*
X91135002Y-146276680D01*
X91171312Y-146156982D01*
X91183572Y-146032500D01*
X91180500Y-146018250D01*
X91021750Y-145859500D01*
X89647500Y-145859500D01*
X89647500Y-145879500D01*
X89393500Y-145879500D01*
X89393500Y-145859500D01*
X89373500Y-145859500D01*
X89373500Y-145605500D01*
X89393500Y-145605500D01*
X89393500Y-145585500D01*
X89647500Y-145585500D01*
X89647500Y-145605500D01*
X91021750Y-145605500D01*
X91180500Y-145446750D01*
X91183572Y-145432500D01*
X91171312Y-145308018D01*
X91135002Y-145188320D01*
X91076037Y-145078006D01*
X91051770Y-145048436D01*
X91123584Y-144914082D01*
X91168429Y-144766245D01*
X91183572Y-144612500D01*
X91183572Y-144312500D01*
X91168429Y-144158755D01*
X91123584Y-144010918D01*
X91051770Y-143876564D01*
X91076037Y-143846994D01*
X91135002Y-143736680D01*
X91171312Y-143616982D01*
X91183572Y-143492500D01*
X91180500Y-143478250D01*
X91021750Y-143319500D01*
X89647500Y-143319500D01*
X89647500Y-143339500D01*
X89393500Y-143339500D01*
X89393500Y-143319500D01*
X89373500Y-143319500D01*
X89373500Y-143065500D01*
X89393500Y-143065500D01*
X89393500Y-143045500D01*
X89647500Y-143045500D01*
X89647500Y-143065500D01*
X91021750Y-143065500D01*
X91180500Y-142906750D01*
X91183572Y-142892500D01*
X91171312Y-142768018D01*
X91135002Y-142648320D01*
X91076037Y-142538006D01*
X91051770Y-142508436D01*
X91123584Y-142374082D01*
X91168429Y-142226245D01*
X91183572Y-142072500D01*
X91183572Y-141772500D01*
X91168429Y-141618755D01*
X91123584Y-141470918D01*
X91050758Y-141334671D01*
X91012046Y-141287500D01*
X91050758Y-141240329D01*
X91123584Y-141104082D01*
X91168429Y-140956245D01*
X91183572Y-140802500D01*
X91183572Y-140714373D01*
X91998000Y-141528802D01*
G36*
X92097423Y-132399044D02*
G01*
X92311982Y-132542407D01*
X92550387Y-132641158D01*
X92803476Y-132691500D01*
X93061524Y-132691500D01*
X93314613Y-132641158D01*
X93553018Y-132542407D01*
X93735013Y-132420803D01*
X93806315Y-132507685D01*
X93903006Y-132587037D01*
X94013320Y-132646002D01*
X94133018Y-132682312D01*
X94240000Y-132692849D01*
X94240001Y-134713668D01*
X94236324Y-134751000D01*
X94240001Y-134788333D01*
X94247800Y-134867511D01*
X94250998Y-134899985D01*
X94294454Y-135043246D01*
X94365026Y-135175276D01*
X94406186Y-135225429D01*
X94460000Y-135291001D01*
X94488998Y-135314799D01*
X97157428Y-137983230D01*
X97157428Y-138262500D01*
X97172571Y-138416245D01*
X97217416Y-138564082D01*
X97290242Y-138700329D01*
X97328954Y-138747500D01*
X97290242Y-138794671D01*
X97217416Y-138930918D01*
X97172571Y-139078755D01*
X97157428Y-139232500D01*
X97157428Y-139532500D01*
X97172571Y-139686245D01*
X97217416Y-139834082D01*
X97290242Y-139970329D01*
X97328954Y-140017500D01*
X97290242Y-140064671D01*
X97217416Y-140200918D01*
X97172571Y-140348755D01*
X97157428Y-140502500D01*
X97157428Y-140802500D01*
X97172571Y-140956245D01*
X97217416Y-141104082D01*
X97248641Y-141162500D01*
X96557325Y-141162500D01*
X96520000Y-141158824D01*
X96482675Y-141162500D01*
X96482667Y-141162500D01*
X96371014Y-141173497D01*
X96227753Y-141216954D01*
X96095724Y-141287526D01*
X95979999Y-141382499D01*
X95956201Y-141411497D01*
X94802503Y-142565196D01*
X94773499Y-142588999D01*
X94740055Y-142629751D01*
X94678526Y-142704724D01*
X94626958Y-142801201D01*
X94607954Y-142836754D01*
X94564497Y-142980015D01*
X94553500Y-143091668D01*
X94553500Y-143091678D01*
X94549824Y-143129000D01*
X94553500Y-143166323D01*
X94553501Y-146661467D01*
X94480185Y-146668688D01*
X94360487Y-146704998D01*
X94250173Y-146763963D01*
X94153482Y-146843315D01*
X94143000Y-146856087D01*
X94132518Y-146843315D01*
X94035827Y-146763963D01*
X93925513Y-146704998D01*
X93805815Y-146668688D01*
X93681333Y-146656428D01*
X93518000Y-146656428D01*
X93518000Y-141251322D01*
X93521676Y-141213999D01*
X93518000Y-141176676D01*
X93518000Y-141176667D01*
X93507003Y-141065014D01*
X93463546Y-140921753D01*
X93448692Y-140893964D01*
X93392974Y-140789723D01*
X93321799Y-140702997D01*
X93298001Y-140673999D01*
X93269004Y-140650202D01*
X91490304Y-138871503D01*
X91466501Y-138842499D01*
X91350776Y-138747526D01*
X91218747Y-138676954D01*
X91084947Y-138636367D01*
X91123584Y-138564082D01*
X91168429Y-138416245D01*
X91183572Y-138262500D01*
X91183572Y-137962500D01*
X91168429Y-137808755D01*
X91123584Y-137660918D01*
X91050758Y-137524671D01*
X91012046Y-137477500D01*
X91050758Y-137430329D01*
X91123584Y-137294082D01*
X91168429Y-137146245D01*
X91183572Y-136992500D01*
X91183572Y-136692500D01*
X91168429Y-136538755D01*
X91123584Y-136390918D01*
X91050758Y-136254671D01*
X91012046Y-136207500D01*
X91050758Y-136160329D01*
X91123584Y-136024082D01*
X91168429Y-135876245D01*
X91183572Y-135722500D01*
X91183572Y-135422500D01*
X91168429Y-135268755D01*
X91123584Y-135120918D01*
X91050758Y-134984671D01*
X91012046Y-134937500D01*
X91050758Y-134890329D01*
X91123584Y-134754082D01*
X91168429Y-134606245D01*
X91183572Y-134452500D01*
X91183572Y-134152500D01*
X91168429Y-133998755D01*
X91123584Y-133850918D01*
X91096867Y-133800935D01*
X91511003Y-133386799D01*
X91540001Y-133363001D01*
X91585735Y-133307274D01*
X91634974Y-133247277D01*
X91705546Y-133115247D01*
X91716447Y-133079311D01*
X91749003Y-132971986D01*
X91760000Y-132860333D01*
X91760000Y-132860323D01*
X91763676Y-132823000D01*
X91760000Y-132785677D01*
X91760000Y-132404107D01*
X91767577Y-132399044D01*
X91932500Y-132234121D01*
X92097423Y-132399044D01*
G37*
X92097423Y-132399044D02*
X92311982Y-132542407D01*
X92550387Y-132641158D01*
X92803476Y-132691500D01*
X93061524Y-132691500D01*
X93314613Y-132641158D01*
X93553018Y-132542407D01*
X93735013Y-132420803D01*
X93806315Y-132507685D01*
X93903006Y-132587037D01*
X94013320Y-132646002D01*
X94133018Y-132682312D01*
X94240000Y-132692849D01*
X94240001Y-134713668D01*
X94236324Y-134751000D01*
X94240001Y-134788333D01*
X94247800Y-134867511D01*
X94250998Y-134899985D01*
X94294454Y-135043246D01*
X94365026Y-135175276D01*
X94406186Y-135225429D01*
X94460000Y-135291001D01*
X94488998Y-135314799D01*
X97157428Y-137983230D01*
X97157428Y-138262500D01*
X97172571Y-138416245D01*
X97217416Y-138564082D01*
X97290242Y-138700329D01*
X97328954Y-138747500D01*
X97290242Y-138794671D01*
X97217416Y-138930918D01*
X97172571Y-139078755D01*
X97157428Y-139232500D01*
X97157428Y-139532500D01*
X97172571Y-139686245D01*
X97217416Y-139834082D01*
X97290242Y-139970329D01*
X97328954Y-140017500D01*
X97290242Y-140064671D01*
X97217416Y-140200918D01*
X97172571Y-140348755D01*
X97157428Y-140502500D01*
X97157428Y-140802500D01*
X97172571Y-140956245D01*
X97217416Y-141104082D01*
X97248641Y-141162500D01*
X96557325Y-141162500D01*
X96520000Y-141158824D01*
X96482675Y-141162500D01*
X96482667Y-141162500D01*
X96371014Y-141173497D01*
X96227753Y-141216954D01*
X96095724Y-141287526D01*
X95979999Y-141382499D01*
X95956201Y-141411497D01*
X94802503Y-142565196D01*
X94773499Y-142588999D01*
X94740055Y-142629751D01*
X94678526Y-142704724D01*
X94626958Y-142801201D01*
X94607954Y-142836754D01*
X94564497Y-142980015D01*
X94553500Y-143091668D01*
X94553500Y-143091678D01*
X94549824Y-143129000D01*
X94553500Y-143166323D01*
X94553501Y-146661467D01*
X94480185Y-146668688D01*
X94360487Y-146704998D01*
X94250173Y-146763963D01*
X94153482Y-146843315D01*
X94143000Y-146856087D01*
X94132518Y-146843315D01*
X94035827Y-146763963D01*
X93925513Y-146704998D01*
X93805815Y-146668688D01*
X93681333Y-146656428D01*
X93518000Y-146656428D01*
X93518000Y-141251322D01*
X93521676Y-141213999D01*
X93518000Y-141176676D01*
X93518000Y-141176667D01*
X93507003Y-141065014D01*
X93463546Y-140921753D01*
X93448692Y-140893964D01*
X93392974Y-140789723D01*
X93321799Y-140702997D01*
X93298001Y-140673999D01*
X93269004Y-140650202D01*
X91490304Y-138871503D01*
X91466501Y-138842499D01*
X91350776Y-138747526D01*
X91218747Y-138676954D01*
X91084947Y-138636367D01*
X91123584Y-138564082D01*
X91168429Y-138416245D01*
X91183572Y-138262500D01*
X91183572Y-137962500D01*
X91168429Y-137808755D01*
X91123584Y-137660918D01*
X91050758Y-137524671D01*
X91012046Y-137477500D01*
X91050758Y-137430329D01*
X91123584Y-137294082D01*
X91168429Y-137146245D01*
X91183572Y-136992500D01*
X91183572Y-136692500D01*
X91168429Y-136538755D01*
X91123584Y-136390918D01*
X91050758Y-136254671D01*
X91012046Y-136207500D01*
X91050758Y-136160329D01*
X91123584Y-136024082D01*
X91168429Y-135876245D01*
X91183572Y-135722500D01*
X91183572Y-135422500D01*
X91168429Y-135268755D01*
X91123584Y-135120918D01*
X91050758Y-134984671D01*
X91012046Y-134937500D01*
X91050758Y-134890329D01*
X91123584Y-134754082D01*
X91168429Y-134606245D01*
X91183572Y-134452500D01*
X91183572Y-134152500D01*
X91168429Y-133998755D01*
X91123584Y-133850918D01*
X91096867Y-133800935D01*
X91511003Y-133386799D01*
X91540001Y-133363001D01*
X91585735Y-133307274D01*
X91634974Y-133247277D01*
X91705546Y-133115247D01*
X91716447Y-133079311D01*
X91749003Y-132971986D01*
X91760000Y-132860333D01*
X91760000Y-132860323D01*
X91763676Y-132823000D01*
X91760000Y-132785677D01*
X91760000Y-132404107D01*
X91767577Y-132399044D01*
X91932500Y-132234121D01*
X92097423Y-132399044D01*
G36*
X97169688Y-142768018D02*
G01*
X97157428Y-142892500D01*
X97160500Y-142906750D01*
X97319248Y-143065498D01*
X97160500Y-143065498D01*
X97160500Y-143131901D01*
X96998352Y-143164154D01*
X96809994Y-143242175D01*
X96640476Y-143355443D01*
X96496313Y-143499606D01*
X96383045Y-143669124D01*
X96305024Y-143857482D01*
X96265250Y-144057441D01*
X96265250Y-144261319D01*
X96305024Y-144461278D01*
X96383045Y-144649636D01*
X96496313Y-144819154D01*
X96640476Y-144963317D01*
X96809994Y-145076585D01*
X96998352Y-145154606D01*
X97198311Y-145194380D01*
X97204160Y-145194380D01*
X97169688Y-145308018D01*
X97157428Y-145432500D01*
X97160500Y-145446750D01*
X97319250Y-145605500D01*
X98693500Y-145605500D01*
X98693500Y-145585500D01*
X98947500Y-145585500D01*
X98947500Y-145605500D01*
X98967500Y-145605500D01*
X98967500Y-145859500D01*
X98947500Y-145859500D01*
X98947500Y-145879500D01*
X98693500Y-145879500D01*
X98693500Y-145859500D01*
X97319250Y-145859500D01*
X97160500Y-146018250D01*
X97157428Y-146032500D01*
X97169688Y-146156982D01*
X97205998Y-146276680D01*
X97264963Y-146386994D01*
X97344315Y-146483685D01*
X97441006Y-146563037D01*
X97551320Y-146622002D01*
X97664807Y-146656428D01*
X97374667Y-146656428D01*
X97250185Y-146668688D01*
X97130487Y-146704998D01*
X97020173Y-146763963D01*
X96923482Y-146843315D01*
X96913000Y-146856087D01*
X96902518Y-146843315D01*
X96805827Y-146763963D01*
X96695513Y-146704998D01*
X96575815Y-146668688D01*
X96451333Y-146656428D01*
X96073500Y-146656428D01*
X96073500Y-143443801D01*
X96834802Y-142682500D01*
X97195630Y-142682500D01*
X97169688Y-142768018D01*
G37*
X97169688Y-142768018D02*
X97157428Y-142892500D01*
X97160500Y-142906750D01*
X97319248Y-143065498D01*
X97160500Y-143065498D01*
X97160500Y-143131901D01*
X96998352Y-143164154D01*
X96809994Y-143242175D01*
X96640476Y-143355443D01*
X96496313Y-143499606D01*
X96383045Y-143669124D01*
X96305024Y-143857482D01*
X96265250Y-144057441D01*
X96265250Y-144261319D01*
X96305024Y-144461278D01*
X96383045Y-144649636D01*
X96496313Y-144819154D01*
X96640476Y-144963317D01*
X96809994Y-145076585D01*
X96998352Y-145154606D01*
X97198311Y-145194380D01*
X97204160Y-145194380D01*
X97169688Y-145308018D01*
X97157428Y-145432500D01*
X97160500Y-145446750D01*
X97319250Y-145605500D01*
X98693500Y-145605500D01*
X98693500Y-145585500D01*
X98947500Y-145585500D01*
X98947500Y-145605500D01*
X98967500Y-145605500D01*
X98967500Y-145859500D01*
X98947500Y-145859500D01*
X98947500Y-145879500D01*
X98693500Y-145879500D01*
X98693500Y-145859500D01*
X97319250Y-145859500D01*
X97160500Y-146018250D01*
X97157428Y-146032500D01*
X97169688Y-146156982D01*
X97205998Y-146276680D01*
X97264963Y-146386994D01*
X97344315Y-146483685D01*
X97441006Y-146563037D01*
X97551320Y-146622002D01*
X97664807Y-146656428D01*
X97374667Y-146656428D01*
X97250185Y-146668688D01*
X97130487Y-146704998D01*
X97020173Y-146763963D01*
X96923482Y-146843315D01*
X96913000Y-146856087D01*
X96902518Y-146843315D01*
X96805827Y-146763963D01*
X96695513Y-146704998D01*
X96575815Y-146668688D01*
X96451333Y-146656428D01*
X96073500Y-146656428D01*
X96073500Y-143443801D01*
X96834802Y-142682500D01*
X97195630Y-142682500D01*
X97169688Y-142768018D01*
G36*
X109676022Y-138408779D02*
G01*
X109710573Y-138460376D01*
X109744386Y-138512429D01*
X109750404Y-138519859D01*
X109750407Y-138519863D01*
X109750411Y-138519867D01*
X110219210Y-139090449D01*
X110263126Y-139134354D01*
X110306406Y-139178848D01*
X110313755Y-139184970D01*
X110884460Y-139653633D01*
X110936063Y-139688169D01*
X110987165Y-139723412D01*
X110995563Y-139727990D01*
X111646430Y-140076876D01*
X111703733Y-140100720D01*
X111760731Y-140125377D01*
X111769858Y-140128236D01*
X112476095Y-140344058D01*
X112536964Y-140356323D01*
X112597641Y-140369434D01*
X112607150Y-140370466D01*
X113275746Y-140438295D01*
X113276711Y-140438588D01*
X113377347Y-140448500D01*
X115685107Y-140448500D01*
X115685103Y-146656428D01*
X113994667Y-146656428D01*
X113870185Y-146668688D01*
X113750487Y-146704998D01*
X113640173Y-146763963D01*
X113543482Y-146843315D01*
X113533000Y-146856087D01*
X113522518Y-146843315D01*
X113425827Y-146763963D01*
X113315513Y-146704998D01*
X113195815Y-146668688D01*
X113071333Y-146656428D01*
X111224667Y-146656428D01*
X111100185Y-146668688D01*
X110980487Y-146704998D01*
X110870173Y-146763963D01*
X110773482Y-146843315D01*
X110763000Y-146856087D01*
X110752518Y-146843315D01*
X110655827Y-146763963D01*
X110545513Y-146704998D01*
X110425815Y-146668688D01*
X110301333Y-146656428D01*
X108454667Y-146656428D01*
X108330185Y-146668688D01*
X108210487Y-146704998D01*
X108100173Y-146763963D01*
X108003482Y-146843315D01*
X107993000Y-146856087D01*
X107982518Y-146843315D01*
X107885827Y-146763963D01*
X107775513Y-146704998D01*
X107655815Y-146668688D01*
X107531333Y-146656428D01*
X105684667Y-146656428D01*
X105560185Y-146668688D01*
X105440487Y-146704998D01*
X105330173Y-146763963D01*
X105233482Y-146843315D01*
X105223000Y-146856087D01*
X105212518Y-146843315D01*
X105115827Y-146763963D01*
X105005513Y-146704998D01*
X104885815Y-146668688D01*
X104761333Y-146656428D01*
X103027229Y-146656428D01*
X102989517Y-146618715D01*
X103151851Y-146569472D01*
X103305387Y-146487405D01*
X103439962Y-146376962D01*
X103510842Y-146290595D01*
X103544463Y-146353494D01*
X103623815Y-146450185D01*
X103720506Y-146529537D01*
X103830820Y-146588502D01*
X103950518Y-146624812D01*
X104075000Y-146637072D01*
X104489250Y-146634000D01*
X104648000Y-146475250D01*
X104648000Y-145551000D01*
X104628000Y-145551000D01*
X104628000Y-145297000D01*
X104648000Y-145297000D01*
X104648000Y-145277000D01*
X104902000Y-145277000D01*
X104902000Y-145297000D01*
X104922000Y-145297000D01*
X104922000Y-145551000D01*
X104902000Y-145551000D01*
X104902000Y-146475250D01*
X105060750Y-146634000D01*
X105475000Y-146637072D01*
X105599482Y-146624812D01*
X105719180Y-146588502D01*
X105829494Y-146529537D01*
X105926185Y-146450185D01*
X106005537Y-146353494D01*
X106064502Y-146243180D01*
X106100812Y-146123482D01*
X106103393Y-146097280D01*
X106206649Y-146152472D01*
X106373245Y-146203008D01*
X106546499Y-146220072D01*
X107621501Y-146220072D01*
X107794755Y-146203008D01*
X107961351Y-146152472D01*
X108114887Y-146070405D01*
X108249462Y-145959962D01*
X108359905Y-145825387D01*
X108441972Y-145671851D01*
X108469227Y-145582000D01*
X108533428Y-145582000D01*
X108545688Y-145706482D01*
X108581998Y-145826180D01*
X108640963Y-145936494D01*
X108720315Y-146033185D01*
X108817006Y-146112537D01*
X108927320Y-146171502D01*
X109047018Y-146207812D01*
X109171500Y-146220072D01*
X109673250Y-146217000D01*
X109832000Y-146058250D01*
X109832000Y-145034000D01*
X110086000Y-145034000D01*
X110086000Y-146058250D01*
X110244750Y-146217000D01*
X110746500Y-146220072D01*
X110870982Y-146207812D01*
X110990680Y-146171502D01*
X111100994Y-146112537D01*
X111197685Y-146033185D01*
X111277037Y-145936494D01*
X111336002Y-145826180D01*
X111372312Y-145706482D01*
X111384572Y-145582000D01*
X111381500Y-145192750D01*
X111222750Y-145034000D01*
X110086000Y-145034000D01*
X109832000Y-145034000D01*
X108695250Y-145034000D01*
X108536500Y-145192750D01*
X108533428Y-145582000D01*
X108469227Y-145582000D01*
X108492508Y-145505255D01*
X108509572Y-145332001D01*
X108509572Y-144481999D01*
X108492508Y-144308745D01*
X108441972Y-144142149D01*
X108359905Y-143988613D01*
X108291299Y-143905016D01*
X108413245Y-143942008D01*
X108586499Y-143959072D01*
X108597364Y-143959072D01*
X108581998Y-143987820D01*
X108545688Y-144107518D01*
X108533428Y-144232000D01*
X108536500Y-144621250D01*
X108695250Y-144780000D01*
X109832000Y-144780000D01*
X109832000Y-143755750D01*
X110086000Y-143755750D01*
X110086000Y-144780000D01*
X111222750Y-144780000D01*
X111381500Y-144621250D01*
X111384572Y-144232000D01*
X111372312Y-144107518D01*
X111336002Y-143987820D01*
X111277037Y-143877506D01*
X111197685Y-143780815D01*
X111100994Y-143701463D01*
X110990680Y-143642498D01*
X110870982Y-143606188D01*
X110746500Y-143593928D01*
X110244750Y-143597000D01*
X110086000Y-143755750D01*
X109832000Y-143755750D01*
X109815442Y-143739192D01*
X109864462Y-143698962D01*
X109974905Y-143564387D01*
X110056972Y-143410851D01*
X110107508Y-143244255D01*
X110124572Y-143071001D01*
X110124572Y-142482730D01*
X110470003Y-142137299D01*
X110499001Y-142113501D01*
X110593974Y-141997776D01*
X110664546Y-141865747D01*
X110708003Y-141722486D01*
X110719000Y-141610833D01*
X110719000Y-141610825D01*
X110720839Y-141592153D01*
X110790405Y-141507387D01*
X110872472Y-141353851D01*
X110923008Y-141187255D01*
X110940072Y-141014001D01*
X110940072Y-140163999D01*
X110923008Y-139990745D01*
X110872472Y-139824149D01*
X110790405Y-139670613D01*
X110679962Y-139536038D01*
X110545387Y-139425595D01*
X110391851Y-139343528D01*
X110225255Y-139292992D01*
X110052001Y-139275928D01*
X108976999Y-139275928D01*
X108803745Y-139292992D01*
X108750192Y-139309237D01*
X108760800Y-139201533D01*
X108760800Y-139201523D01*
X108764476Y-139164200D01*
X108760800Y-139126878D01*
X108760800Y-138806127D01*
X108790651Y-138797072D01*
X108944187Y-138715005D01*
X109078762Y-138604562D01*
X109189205Y-138469987D01*
X109271272Y-138316451D01*
X109321808Y-138149855D01*
X109338872Y-137976601D01*
X109338872Y-137780186D01*
X109676022Y-138408779D01*
G37*
X109676022Y-138408779D02*
X109710573Y-138460376D01*
X109744386Y-138512429D01*
X109750404Y-138519859D01*
X109750407Y-138519863D01*
X109750411Y-138519867D01*
X110219210Y-139090449D01*
X110263126Y-139134354D01*
X110306406Y-139178848D01*
X110313755Y-139184970D01*
X110884460Y-139653633D01*
X110936063Y-139688169D01*
X110987165Y-139723412D01*
X110995563Y-139727990D01*
X111646430Y-140076876D01*
X111703733Y-140100720D01*
X111760731Y-140125377D01*
X111769858Y-140128236D01*
X112476095Y-140344058D01*
X112536964Y-140356323D01*
X112597641Y-140369434D01*
X112607150Y-140370466D01*
X113275746Y-140438295D01*
X113276711Y-140438588D01*
X113377347Y-140448500D01*
X115685107Y-140448500D01*
X115685103Y-146656428D01*
X113994667Y-146656428D01*
X113870185Y-146668688D01*
X113750487Y-146704998D01*
X113640173Y-146763963D01*
X113543482Y-146843315D01*
X113533000Y-146856087D01*
X113522518Y-146843315D01*
X113425827Y-146763963D01*
X113315513Y-146704998D01*
X113195815Y-146668688D01*
X113071333Y-146656428D01*
X111224667Y-146656428D01*
X111100185Y-146668688D01*
X110980487Y-146704998D01*
X110870173Y-146763963D01*
X110773482Y-146843315D01*
X110763000Y-146856087D01*
X110752518Y-146843315D01*
X110655827Y-146763963D01*
X110545513Y-146704998D01*
X110425815Y-146668688D01*
X110301333Y-146656428D01*
X108454667Y-146656428D01*
X108330185Y-146668688D01*
X108210487Y-146704998D01*
X108100173Y-146763963D01*
X108003482Y-146843315D01*
X107993000Y-146856087D01*
X107982518Y-146843315D01*
X107885827Y-146763963D01*
X107775513Y-146704998D01*
X107655815Y-146668688D01*
X107531333Y-146656428D01*
X105684667Y-146656428D01*
X105560185Y-146668688D01*
X105440487Y-146704998D01*
X105330173Y-146763963D01*
X105233482Y-146843315D01*
X105223000Y-146856087D01*
X105212518Y-146843315D01*
X105115827Y-146763963D01*
X105005513Y-146704998D01*
X104885815Y-146668688D01*
X104761333Y-146656428D01*
X103027229Y-146656428D01*
X102989517Y-146618715D01*
X103151851Y-146569472D01*
X103305387Y-146487405D01*
X103439962Y-146376962D01*
X103510842Y-146290595D01*
X103544463Y-146353494D01*
X103623815Y-146450185D01*
X103720506Y-146529537D01*
X103830820Y-146588502D01*
X103950518Y-146624812D01*
X104075000Y-146637072D01*
X104489250Y-146634000D01*
X104648000Y-146475250D01*
X104648000Y-145551000D01*
X104628000Y-145551000D01*
X104628000Y-145297000D01*
X104648000Y-145297000D01*
X104648000Y-145277000D01*
X104902000Y-145277000D01*
X104902000Y-145297000D01*
X104922000Y-145297000D01*
X104922000Y-145551000D01*
X104902000Y-145551000D01*
X104902000Y-146475250D01*
X105060750Y-146634000D01*
X105475000Y-146637072D01*
X105599482Y-146624812D01*
X105719180Y-146588502D01*
X105829494Y-146529537D01*
X105926185Y-146450185D01*
X106005537Y-146353494D01*
X106064502Y-146243180D01*
X106100812Y-146123482D01*
X106103393Y-146097280D01*
X106206649Y-146152472D01*
X106373245Y-146203008D01*
X106546499Y-146220072D01*
X107621501Y-146220072D01*
X107794755Y-146203008D01*
X107961351Y-146152472D01*
X108114887Y-146070405D01*
X108249462Y-145959962D01*
X108359905Y-145825387D01*
X108441972Y-145671851D01*
X108469227Y-145582000D01*
X108533428Y-145582000D01*
X108545688Y-145706482D01*
X108581998Y-145826180D01*
X108640963Y-145936494D01*
X108720315Y-146033185D01*
X108817006Y-146112537D01*
X108927320Y-146171502D01*
X109047018Y-146207812D01*
X109171500Y-146220072D01*
X109673250Y-146217000D01*
X109832000Y-146058250D01*
X109832000Y-145034000D01*
X110086000Y-145034000D01*
X110086000Y-146058250D01*
X110244750Y-146217000D01*
X110746500Y-146220072D01*
X110870982Y-146207812D01*
X110990680Y-146171502D01*
X111100994Y-146112537D01*
X111197685Y-146033185D01*
X111277037Y-145936494D01*
X111336002Y-145826180D01*
X111372312Y-145706482D01*
X111384572Y-145582000D01*
X111381500Y-145192750D01*
X111222750Y-145034000D01*
X110086000Y-145034000D01*
X109832000Y-145034000D01*
X108695250Y-145034000D01*
X108536500Y-145192750D01*
X108533428Y-145582000D01*
X108469227Y-145582000D01*
X108492508Y-145505255D01*
X108509572Y-145332001D01*
X108509572Y-144481999D01*
X108492508Y-144308745D01*
X108441972Y-144142149D01*
X108359905Y-143988613D01*
X108291299Y-143905016D01*
X108413245Y-143942008D01*
X108586499Y-143959072D01*
X108597364Y-143959072D01*
X108581998Y-143987820D01*
X108545688Y-144107518D01*
X108533428Y-144232000D01*
X108536500Y-144621250D01*
X108695250Y-144780000D01*
X109832000Y-144780000D01*
X109832000Y-143755750D01*
X110086000Y-143755750D01*
X110086000Y-144780000D01*
X111222750Y-144780000D01*
X111381500Y-144621250D01*
X111384572Y-144232000D01*
X111372312Y-144107518D01*
X111336002Y-143987820D01*
X111277037Y-143877506D01*
X111197685Y-143780815D01*
X111100994Y-143701463D01*
X110990680Y-143642498D01*
X110870982Y-143606188D01*
X110746500Y-143593928D01*
X110244750Y-143597000D01*
X110086000Y-143755750D01*
X109832000Y-143755750D01*
X109815442Y-143739192D01*
X109864462Y-143698962D01*
X109974905Y-143564387D01*
X110056972Y-143410851D01*
X110107508Y-143244255D01*
X110124572Y-143071001D01*
X110124572Y-142482730D01*
X110470003Y-142137299D01*
X110499001Y-142113501D01*
X110593974Y-141997776D01*
X110664546Y-141865747D01*
X110708003Y-141722486D01*
X110719000Y-141610833D01*
X110719000Y-141610825D01*
X110720839Y-141592153D01*
X110790405Y-141507387D01*
X110872472Y-141353851D01*
X110923008Y-141187255D01*
X110940072Y-141014001D01*
X110940072Y-140163999D01*
X110923008Y-139990745D01*
X110872472Y-139824149D01*
X110790405Y-139670613D01*
X110679962Y-139536038D01*
X110545387Y-139425595D01*
X110391851Y-139343528D01*
X110225255Y-139292992D01*
X110052001Y-139275928D01*
X108976999Y-139275928D01*
X108803745Y-139292992D01*
X108750192Y-139309237D01*
X108760800Y-139201533D01*
X108760800Y-139201523D01*
X108764476Y-139164200D01*
X108760800Y-139126878D01*
X108760800Y-138806127D01*
X108790651Y-138797072D01*
X108944187Y-138715005D01*
X109078762Y-138604562D01*
X109189205Y-138469987D01*
X109271272Y-138316451D01*
X109321808Y-138149855D01*
X109338872Y-137976601D01*
X109338872Y-137780186D01*
X109676022Y-138408779D01*
G36*
X81496000Y-141297250D02*
G01*
X81654750Y-141456000D01*
X82804000Y-141456000D01*
X82804000Y-141436000D01*
X83058000Y-141436000D01*
X83058000Y-141456000D01*
X83078000Y-141456000D01*
X83078000Y-141710000D01*
X83058000Y-141710000D01*
X83058000Y-141730000D01*
X82804000Y-141730000D01*
X82804000Y-141710000D01*
X81654750Y-141710000D01*
X81496000Y-141868750D01*
X81492928Y-142883000D01*
X81505188Y-143007482D01*
X81541498Y-143127180D01*
X81600463Y-143237494D01*
X81679815Y-143334185D01*
X81776506Y-143413537D01*
X81829813Y-143442031D01*
X81753038Y-143505038D01*
X81642595Y-143639614D01*
X81560528Y-143793150D01*
X81509992Y-143959746D01*
X81492928Y-144133000D01*
X81492928Y-145586500D01*
X81305061Y-145586500D01*
X81105102Y-145626274D01*
X81076000Y-145638329D01*
X81076000Y-140512000D01*
X81493622Y-140512000D01*
X81496000Y-141297250D01*
G37*
X81496000Y-141297250D02*
X81654750Y-141456000D01*
X82804000Y-141456000D01*
X82804000Y-141436000D01*
X83058000Y-141436000D01*
X83058000Y-141456000D01*
X83078000Y-141456000D01*
X83078000Y-141710000D01*
X83058000Y-141710000D01*
X83058000Y-141730000D01*
X82804000Y-141730000D01*
X82804000Y-141710000D01*
X81654750Y-141710000D01*
X81496000Y-141868750D01*
X81492928Y-142883000D01*
X81505188Y-143007482D01*
X81541498Y-143127180D01*
X81600463Y-143237494D01*
X81679815Y-143334185D01*
X81776506Y-143413537D01*
X81829813Y-143442031D01*
X81753038Y-143505038D01*
X81642595Y-143639614D01*
X81560528Y-143793150D01*
X81509992Y-143959746D01*
X81492928Y-144133000D01*
X81492928Y-145586500D01*
X81305061Y-145586500D01*
X81105102Y-145626274D01*
X81076000Y-145638329D01*
X81076000Y-140512000D01*
X81493622Y-140512000D01*
X81496000Y-141297250D01*
G36*
X98947500Y-143065500D02*
G01*
X98967500Y-143065500D01*
X98967500Y-143319500D01*
X98947500Y-143319500D01*
X98947500Y-143339500D01*
X98693500Y-143339500D01*
X98693500Y-143319500D01*
X98673500Y-143319500D01*
X98673500Y-143065500D01*
X98693500Y-143065500D01*
X98693500Y-143045500D01*
X98947500Y-143045500D01*
X98947500Y-143065500D01*
G37*
X98947500Y-143065500D02*
X98967500Y-143065500D01*
X98967500Y-143319500D01*
X98947500Y-143319500D01*
X98947500Y-143339500D01*
X98693500Y-143339500D01*
X98693500Y-143319500D01*
X98673500Y-143319500D01*
X98673500Y-143065500D01*
X98693500Y-143065500D01*
X98693500Y-143045500D01*
X98947500Y-143045500D01*
X98947500Y-143065500D01*
G36*
X103794498Y-141955180D02*
G01*
X103853463Y-142065494D01*
X103886000Y-142105141D01*
X103886000Y-142187250D01*
X103947436Y-142248686D01*
X103831613Y-142310595D01*
X103697038Y-142421038D01*
X103586595Y-142555613D01*
X103568500Y-142589466D01*
X103550405Y-142555613D01*
X103439962Y-142421038D01*
X103341126Y-142339925D01*
X103434000Y-142349072D01*
X103473250Y-142346000D01*
X103632000Y-142187250D01*
X103632000Y-142105141D01*
X103664537Y-142065494D01*
X103723502Y-141955180D01*
X103759000Y-141838159D01*
X103794498Y-141955180D01*
G37*
X103794498Y-141955180D02*
X103853463Y-142065494D01*
X103886000Y-142105141D01*
X103886000Y-142187250D01*
X103947436Y-142248686D01*
X103831613Y-142310595D01*
X103697038Y-142421038D01*
X103586595Y-142555613D01*
X103568500Y-142589466D01*
X103550405Y-142555613D01*
X103439962Y-142421038D01*
X103341126Y-142339925D01*
X103434000Y-142349072D01*
X103473250Y-142346000D01*
X103632000Y-142187250D01*
X103632000Y-142105141D01*
X103664537Y-142065494D01*
X103723502Y-141955180D01*
X103759000Y-141838159D01*
X103794498Y-141955180D01*
G36*
X106662728Y-137976601D02*
G01*
X106679792Y-138149855D01*
X106730328Y-138316451D01*
X106812395Y-138469987D01*
X106922838Y-138604562D01*
X107057413Y-138715005D01*
X107210949Y-138797072D01*
X107240801Y-138806127D01*
X107240801Y-138849397D01*
X106814271Y-139275928D01*
X106101999Y-139275928D01*
X105928745Y-139292992D01*
X105762149Y-139343528D01*
X105672072Y-139391675D01*
X105672072Y-138451000D01*
X105659812Y-138326518D01*
X105623502Y-138206820D01*
X105573888Y-138114000D01*
X105673002Y-138114000D01*
X105673002Y-137955252D01*
X105831750Y-138114000D01*
X106121000Y-138117072D01*
X106245482Y-138104812D01*
X106365180Y-138068502D01*
X106475494Y-138009537D01*
X106572185Y-137930185D01*
X106651537Y-137833494D01*
X106662728Y-137812557D01*
X106662728Y-137976601D01*
G37*
X106662728Y-137976601D02*
X106679792Y-138149855D01*
X106730328Y-138316451D01*
X106812395Y-138469987D01*
X106922838Y-138604562D01*
X107057413Y-138715005D01*
X107210949Y-138797072D01*
X107240801Y-138806127D01*
X107240801Y-138849397D01*
X106814271Y-139275928D01*
X106101999Y-139275928D01*
X105928745Y-139292992D01*
X105762149Y-139343528D01*
X105672072Y-139391675D01*
X105672072Y-138451000D01*
X105659812Y-138326518D01*
X105623502Y-138206820D01*
X105573888Y-138114000D01*
X105673002Y-138114000D01*
X105673002Y-137955252D01*
X105831750Y-138114000D01*
X106121000Y-138117072D01*
X106245482Y-138104812D01*
X106365180Y-138068502D01*
X106475494Y-138009537D01*
X106572185Y-137930185D01*
X106651537Y-137833494D01*
X106662728Y-137812557D01*
X106662728Y-137976601D01*
G36*
X105673000Y-136652000D02*
G01*
X105693000Y-136652000D01*
X105693000Y-136906000D01*
X105673000Y-136906000D01*
X105673000Y-136926000D01*
X105419000Y-136926000D01*
X105419000Y-136906000D01*
X105399000Y-136906000D01*
X105399000Y-136652000D01*
X105419000Y-136652000D01*
X105419000Y-136632000D01*
X105673000Y-136632000D01*
X105673000Y-136652000D01*
G37*
X105673000Y-136652000D02*
X105693000Y-136652000D01*
X105693000Y-136906000D01*
X105673000Y-136906000D01*
X105673000Y-136926000D01*
X105419000Y-136926000D01*
X105419000Y-136906000D01*
X105399000Y-136906000D01*
X105399000Y-136652000D01*
X105419000Y-136652000D01*
X105419000Y-136632000D01*
X105673000Y-136632000D01*
X105673000Y-136652000D01*
G36*
X101473000Y-135454500D02*
G01*
X101493000Y-135454500D01*
X101493000Y-135708500D01*
X101473000Y-135708500D01*
X101473000Y-135728500D01*
X101219000Y-135728500D01*
X101219000Y-135708500D01*
X101199000Y-135708500D01*
X101199000Y-135454500D01*
X101219000Y-135454500D01*
X101219000Y-135434500D01*
X101473000Y-135434500D01*
X101473000Y-135454500D01*
G37*
X101473000Y-135454500D02*
X101493000Y-135454500D01*
X101493000Y-135708500D01*
X101473000Y-135708500D01*
X101473000Y-135728500D01*
X101219000Y-135728500D01*
X101219000Y-135708500D01*
X101199000Y-135708500D01*
X101199000Y-135454500D01*
X101219000Y-135454500D01*
X101219000Y-135434500D01*
X101473000Y-135434500D01*
X101473000Y-135454500D01*
G36*
X103830911Y-130620570D02*
G01*
X103742285Y-130861599D01*
X103865115Y-131064000D01*
X104883200Y-131064000D01*
X104883200Y-131044000D01*
X105137200Y-131044000D01*
X105137200Y-131064000D01*
X105157200Y-131064000D01*
X105157200Y-131318000D01*
X105137200Y-131318000D01*
X105137200Y-132335224D01*
X105339600Y-132458910D01*
X105440728Y-132428238D01*
X105673829Y-132320473D01*
X105807081Y-132223441D01*
X105884015Y-132317185D01*
X105980706Y-132396537D01*
X106091020Y-132455502D01*
X106210718Y-132491812D01*
X106250200Y-132495701D01*
X106250200Y-133341002D01*
X106147351Y-133286028D01*
X105980755Y-133235492D01*
X105807501Y-133218428D01*
X105157499Y-133218428D01*
X104984245Y-133235492D01*
X104817649Y-133286028D01*
X104664113Y-133368095D01*
X104529538Y-133478538D01*
X104457500Y-133566316D01*
X104385462Y-133478538D01*
X104250887Y-133368095D01*
X104097351Y-133286028D01*
X103930755Y-133235492D01*
X103881436Y-133230635D01*
X102841645Y-132190844D01*
X102871227Y-132169303D01*
X103045344Y-131980537D01*
X103179289Y-131761430D01*
X103267915Y-131520401D01*
X103742285Y-131520401D01*
X103830911Y-131761430D01*
X103964856Y-131980537D01*
X104138973Y-132169303D01*
X104346571Y-132320473D01*
X104579672Y-132428238D01*
X104680800Y-132458910D01*
X104883200Y-132335224D01*
X104883200Y-131318000D01*
X103865115Y-131318000D01*
X103742285Y-131520401D01*
X103267915Y-131520401D01*
X103145085Y-131318000D01*
X102127000Y-131318000D01*
X102127000Y-131338000D01*
X101873000Y-131338000D01*
X101873000Y-131318000D01*
X101853000Y-131318000D01*
X101853000Y-131064000D01*
X101873000Y-131064000D01*
X101873000Y-131044000D01*
X102127000Y-131044000D01*
X102127000Y-131064000D01*
X103145085Y-131064000D01*
X103267915Y-130861599D01*
X103179289Y-130620570D01*
X103092744Y-130479000D01*
X103917456Y-130479000D01*
X103830911Y-130620570D01*
G37*
X103830911Y-130620570D02*
X103742285Y-130861599D01*
X103865115Y-131064000D01*
X104883200Y-131064000D01*
X104883200Y-131044000D01*
X105137200Y-131044000D01*
X105137200Y-131064000D01*
X105157200Y-131064000D01*
X105157200Y-131318000D01*
X105137200Y-131318000D01*
X105137200Y-132335224D01*
X105339600Y-132458910D01*
X105440728Y-132428238D01*
X105673829Y-132320473D01*
X105807081Y-132223441D01*
X105884015Y-132317185D01*
X105980706Y-132396537D01*
X106091020Y-132455502D01*
X106210718Y-132491812D01*
X106250200Y-132495701D01*
X106250200Y-133341002D01*
X106147351Y-133286028D01*
X105980755Y-133235492D01*
X105807501Y-133218428D01*
X105157499Y-133218428D01*
X104984245Y-133235492D01*
X104817649Y-133286028D01*
X104664113Y-133368095D01*
X104529538Y-133478538D01*
X104457500Y-133566316D01*
X104385462Y-133478538D01*
X104250887Y-133368095D01*
X104097351Y-133286028D01*
X103930755Y-133235492D01*
X103881436Y-133230635D01*
X102841645Y-132190844D01*
X102871227Y-132169303D01*
X103045344Y-131980537D01*
X103179289Y-131761430D01*
X103267915Y-131520401D01*
X103742285Y-131520401D01*
X103830911Y-131761430D01*
X103964856Y-131980537D01*
X104138973Y-132169303D01*
X104346571Y-132320473D01*
X104579672Y-132428238D01*
X104680800Y-132458910D01*
X104883200Y-132335224D01*
X104883200Y-131318000D01*
X103865115Y-131318000D01*
X103742285Y-131520401D01*
X103267915Y-131520401D01*
X103145085Y-131318000D01*
X102127000Y-131318000D01*
X102127000Y-131338000D01*
X101873000Y-131338000D01*
X101873000Y-131318000D01*
X101853000Y-131318000D01*
X101853000Y-131064000D01*
X101873000Y-131064000D01*
X101873000Y-131044000D01*
X102127000Y-131044000D01*
X102127000Y-131064000D01*
X103145085Y-131064000D01*
X103267915Y-130861599D01*
X103179289Y-130620570D01*
X103092744Y-130479000D01*
X103917456Y-130479000D01*
X103830911Y-130620570D01*
G36*
X98686928Y-130516000D02*
G01*
X98686928Y-131866000D01*
X98699188Y-131990482D01*
X98735498Y-132110180D01*
X98794463Y-132220494D01*
X98873815Y-132317185D01*
X98970506Y-132396537D01*
X99080820Y-132455502D01*
X99200518Y-132491812D01*
X99325000Y-132504072D01*
X100238270Y-132504072D01*
X100292588Y-132558390D01*
X100268038Y-132578538D01*
X100157595Y-132713113D01*
X100075528Y-132866649D01*
X100024992Y-133033245D01*
X100019775Y-133086212D01*
X99737430Y-133368558D01*
X99695500Y-133364428D01*
X97945500Y-133364428D01*
X97867440Y-133372116D01*
X97710898Y-133307274D01*
X97510939Y-133267500D01*
X97307061Y-133267500D01*
X97107102Y-133307274D01*
X96918744Y-133385295D01*
X96760001Y-133491363D01*
X96760001Y-130644826D01*
X96763677Y-130607501D01*
X96760001Y-130570176D01*
X96760001Y-130570168D01*
X96751022Y-130479000D01*
X98690572Y-130479000D01*
X98686928Y-130516000D01*
G37*
X98686928Y-130516000D02*
X98686928Y-131866000D01*
X98699188Y-131990482D01*
X98735498Y-132110180D01*
X98794463Y-132220494D01*
X98873815Y-132317185D01*
X98970506Y-132396537D01*
X99080820Y-132455502D01*
X99200518Y-132491812D01*
X99325000Y-132504072D01*
X100238270Y-132504072D01*
X100292588Y-132558390D01*
X100268038Y-132578538D01*
X100157595Y-132713113D01*
X100075528Y-132866649D01*
X100024992Y-133033245D01*
X100019775Y-133086212D01*
X99737430Y-133368558D01*
X99695500Y-133364428D01*
X97945500Y-133364428D01*
X97867440Y-133372116D01*
X97710898Y-133307274D01*
X97510939Y-133267500D01*
X97307061Y-133267500D01*
X97107102Y-133307274D01*
X96918744Y-133385295D01*
X96760001Y-133491363D01*
X96760001Y-130644826D01*
X96763677Y-130607501D01*
X96760001Y-130570176D01*
X96760001Y-130570168D01*
X96751022Y-130479000D01*
X98690572Y-130479000D01*
X98686928Y-130516000D01*
%TD*%
M02*
