%TF.GenerationSoftware,KiCad,Pcbnew,(5.1.6)-1*%
%TF.CreationDate,2020-07-29T09:54:18+01:00*%
%TF.ProjectId,open-amiga-sampler-smd,6f70656e-2d61-46d6-9967-612d73616d70,rev?*%
%TF.SameCoordinates,Original*%
%TF.FileFunction,Copper,L1,Top*%
%TF.FilePolarity,Positive*%
%FSLAX46Y46*%
G04 Gerber Fmt 4.6, Leading zero omitted, Abs format (unit mm)*
G04 Created by KiCad (PCBNEW (5.1.6)-1) date 2020-07-29 09:54:18*
%MOMM*%
%LPD*%
G01*
G04 APERTURE LIST*
%TA.AperFunction,ComponentPad*%
%ADD10O,1.350000X1.350000*%
%TD*%
%TA.AperFunction,ComponentPad*%
%ADD11R,1.350000X1.350000*%
%TD*%
%TA.AperFunction,SMDPad,CuDef*%
%ADD12R,1.846667X3.480000*%
%TD*%
%TA.AperFunction,SMDPad,CuDef*%
%ADD13R,0.650000X1.060000*%
%TD*%
%TA.AperFunction,ViaPad*%
%ADD14C,0.800000*%
%TD*%
%TA.AperFunction,Conductor*%
%ADD15C,0.250000*%
%TD*%
%TA.AperFunction,Conductor*%
%ADD16C,0.254000*%
%TD*%
G04 APERTURE END LIST*
D10*
%TO.P,RV1,3*%
%TO.N,Vo*%
X91000000Y-131000000D03*
%TO.P,RV1,2*%
X93000000Y-131000000D03*
D11*
%TO.P,RV1,1*%
%TO.N,Net-(R4-Pad1)*%
X95000000Y-131000000D03*
%TD*%
D10*
%TO.P,J2,2*%
%TO.N,GND*%
X102000000Y-131000000D03*
D11*
%TO.P,J2,1*%
%TO.N,Net-(J2-Pad1)*%
X100000000Y-131000000D03*
%TD*%
D10*
%TO.P,J1,2*%
%TO.N,GND*%
X105010200Y-130987800D03*
D11*
%TO.P,J1,1*%
%TO.N,Net-(J1-Pad1)*%
X107010200Y-130987800D03*
%TD*%
%TO.P,C1,2*%
%TO.N,Net-(C1-Pad2)*%
%TA.AperFunction,SMDPad,CuDef*%
G36*
G01*
X111394000Y-140531401D02*
X111394000Y-139681399D01*
G75*
G02*
X111643999Y-139431400I249999J0D01*
G01*
X112719001Y-139431400D01*
G75*
G02*
X112969000Y-139681399I0J-249999D01*
G01*
X112969000Y-140531401D01*
G75*
G02*
X112719001Y-140781400I-249999J0D01*
G01*
X111643999Y-140781400D01*
G75*
G02*
X111394000Y-140531401I0J249999D01*
G01*
G37*
%TD.AperFunction*%
%TO.P,C1,1*%
%TO.N,MONO_AUDIO*%
%TA.AperFunction,SMDPad,CuDef*%
G36*
G01*
X108519000Y-140531401D02*
X108519000Y-139681399D01*
G75*
G02*
X108768999Y-139431400I249999J0D01*
G01*
X109844001Y-139431400D01*
G75*
G02*
X110094000Y-139681399I0J-249999D01*
G01*
X110094000Y-140531401D01*
G75*
G02*
X109844001Y-140781400I-249999J0D01*
G01*
X108768999Y-140781400D01*
G75*
G02*
X108519000Y-140531401I0J249999D01*
G01*
G37*
%TD.AperFunction*%
%TD*%
%TO.P,C2,2*%
%TO.N,GND*%
%TA.AperFunction,SMDPad,CuDef*%
G36*
G01*
X111521000Y-145332001D02*
X111521000Y-144481999D01*
G75*
G02*
X111770999Y-144232000I249999J0D01*
G01*
X112846001Y-144232000D01*
G75*
G02*
X113096000Y-144481999I0J-249999D01*
G01*
X113096000Y-145332001D01*
G75*
G02*
X112846001Y-145582000I-249999J0D01*
G01*
X111770999Y-145582000D01*
G75*
G02*
X111521000Y-145332001I0J249999D01*
G01*
G37*
%TD.AperFunction*%
%TO.P,C2,1*%
%TO.N,Net-(C2-Pad1)*%
%TA.AperFunction,SMDPad,CuDef*%
G36*
G01*
X108646000Y-145332001D02*
X108646000Y-144481999D01*
G75*
G02*
X108895999Y-144232000I249999J0D01*
G01*
X109971001Y-144232000D01*
G75*
G02*
X110221000Y-144481999I0J-249999D01*
G01*
X110221000Y-145332001D01*
G75*
G02*
X109971001Y-145582000I-249999J0D01*
G01*
X108895999Y-145582000D01*
G75*
G02*
X108646000Y-145332001I0J249999D01*
G01*
G37*
%TD.AperFunction*%
%TD*%
%TO.P,C4,2*%
%TO.N,GND*%
%TA.AperFunction,SMDPad,CuDef*%
G36*
G01*
X83635401Y-142072600D02*
X82785399Y-142072600D01*
G75*
G02*
X82535400Y-141822601I0J249999D01*
G01*
X82535400Y-140747599D01*
G75*
G02*
X82785399Y-140497600I249999J0D01*
G01*
X83635401Y-140497600D01*
G75*
G02*
X83885400Y-140747599I0J-249999D01*
G01*
X83885400Y-141822601D01*
G75*
G02*
X83635401Y-142072600I-249999J0D01*
G01*
G37*
%TD.AperFunction*%
%TO.P,C4,1*%
%TO.N,VCC*%
%TA.AperFunction,SMDPad,CuDef*%
G36*
G01*
X83635401Y-144947600D02*
X82785399Y-144947600D01*
G75*
G02*
X82535400Y-144697601I0J249999D01*
G01*
X82535400Y-143622599D01*
G75*
G02*
X82785399Y-143372600I249999J0D01*
G01*
X83635401Y-143372600D01*
G75*
G02*
X83885400Y-143622599I0J-249999D01*
G01*
X83885400Y-144697601D01*
G75*
G02*
X83635401Y-144947600I-249999J0D01*
G01*
G37*
%TD.AperFunction*%
%TD*%
%TO.P,C3,2*%
%TO.N,GND*%
%TA.AperFunction,SMDPad,CuDef*%
G36*
G01*
X97340000Y-146742999D02*
X97340000Y-147643001D01*
G75*
G02*
X97090001Y-147893000I-249999J0D01*
G01*
X96439999Y-147893000D01*
G75*
G02*
X96190000Y-147643001I0J249999D01*
G01*
X96190000Y-146742999D01*
G75*
G02*
X96439999Y-146493000I249999J0D01*
G01*
X97090001Y-146493000D01*
G75*
G02*
X97340000Y-146742999I0J-249999D01*
G01*
G37*
%TD.AperFunction*%
%TO.P,C3,1*%
%TO.N,VCC*%
%TA.AperFunction,SMDPad,CuDef*%
G36*
G01*
X99390000Y-146742999D02*
X99390000Y-147643001D01*
G75*
G02*
X99140001Y-147893000I-249999J0D01*
G01*
X98489999Y-147893000D01*
G75*
G02*
X98240000Y-147643001I0J249999D01*
G01*
X98240000Y-146742999D01*
G75*
G02*
X98489999Y-146493000I249999J0D01*
G01*
X99140001Y-146493000D01*
G75*
G02*
X99390000Y-146742999I0J-249999D01*
G01*
G37*
%TD.AperFunction*%
%TD*%
%TO.P,C5,1*%
%TO.N,VCC*%
%TA.AperFunction,SMDPad,CuDef*%
G36*
G01*
X102032000Y-137229001D02*
X102032000Y-136328999D01*
G75*
G02*
X102281999Y-136079000I249999J0D01*
G01*
X102932001Y-136079000D01*
G75*
G02*
X103182000Y-136328999I0J-249999D01*
G01*
X103182000Y-137229001D01*
G75*
G02*
X102932001Y-137479000I-249999J0D01*
G01*
X102281999Y-137479000D01*
G75*
G02*
X102032000Y-137229001I0J249999D01*
G01*
G37*
%TD.AperFunction*%
%TO.P,C5,2*%
%TO.N,GND*%
%TA.AperFunction,SMDPad,CuDef*%
G36*
G01*
X104082000Y-137229001D02*
X104082000Y-136328999D01*
G75*
G02*
X104331999Y-136079000I249999J0D01*
G01*
X104982001Y-136079000D01*
G75*
G02*
X105232000Y-136328999I0J-249999D01*
G01*
X105232000Y-137229001D01*
G75*
G02*
X104982001Y-137479000I-249999J0D01*
G01*
X104331999Y-137479000D01*
G75*
G02*
X104082000Y-137229001I0J249999D01*
G01*
G37*
%TD.AperFunction*%
%TD*%
D12*
%TO.P,J3,1*%
%TO.N,STROBE*%
X81678000Y-150431500D03*
%TO.P,J3,2*%
%TO.N,D0*%
X84448000Y-150431500D03*
%TO.P,J3,3*%
%TO.N,D1*%
X87218000Y-150431500D03*
%TO.P,J3,4*%
%TO.N,D2*%
X89988000Y-150431500D03*
%TO.P,J3,5*%
%TO.N,D3*%
X92758000Y-150431500D03*
%TO.P,J3,6*%
%TO.N,D4*%
X95528000Y-150431500D03*
%TO.P,J3,7*%
%TO.N,D5*%
X98298000Y-150431500D03*
%TO.P,J3,8*%
%TO.N,D6*%
X101068000Y-150431500D03*
%TO.P,J3,9*%
%TO.N,D7*%
X103838000Y-150431500D03*
%TO.P,J3,10*%
%TO.N,Net-(J3-Pad10)*%
X106608000Y-150431500D03*
%TO.P,J3,11*%
%TO.N,Net-(J3-Pad11)*%
X109378000Y-150431500D03*
%TO.P,J3,12*%
%TO.N,Net-(J3-Pad12)*%
X112148000Y-150431500D03*
%TO.P,J3,13*%
%TO.N,Net-(J3-Pad13)*%
X114918000Y-150431500D03*
%TD*%
%TO.P,R1,2*%
%TO.N,Net-(J1-Pad1)*%
%TA.AperFunction,SMDPad,CuDef*%
G36*
G01*
X108450801Y-136176600D02*
X107550799Y-136176600D01*
G75*
G02*
X107300800Y-135926601I0J249999D01*
G01*
X107300800Y-135276599D01*
G75*
G02*
X107550799Y-135026600I249999J0D01*
G01*
X108450801Y-135026600D01*
G75*
G02*
X108700800Y-135276599I0J-249999D01*
G01*
X108700800Y-135926601D01*
G75*
G02*
X108450801Y-136176600I-249999J0D01*
G01*
G37*
%TD.AperFunction*%
%TO.P,R1,1*%
%TO.N,MONO_AUDIO*%
%TA.AperFunction,SMDPad,CuDef*%
G36*
G01*
X108450801Y-138226600D02*
X107550799Y-138226600D01*
G75*
G02*
X107300800Y-137976601I0J249999D01*
G01*
X107300800Y-137326599D01*
G75*
G02*
X107550799Y-137076600I249999J0D01*
G01*
X108450801Y-137076600D01*
G75*
G02*
X108700800Y-137326599I0J-249999D01*
G01*
X108700800Y-137976601D01*
G75*
G02*
X108450801Y-138226600I-249999J0D01*
G01*
G37*
%TD.AperFunction*%
%TD*%
%TO.P,R2,1*%
%TO.N,MONO_AUDIO*%
%TA.AperFunction,SMDPad,CuDef*%
G36*
G01*
X105359000Y-134106499D02*
X105359000Y-135006501D01*
G75*
G02*
X105109001Y-135256500I-249999J0D01*
G01*
X104458999Y-135256500D01*
G75*
G02*
X104209000Y-135006501I0J249999D01*
G01*
X104209000Y-134106499D01*
G75*
G02*
X104458999Y-133856500I249999J0D01*
G01*
X105109001Y-133856500D01*
G75*
G02*
X105359000Y-134106499I0J-249999D01*
G01*
G37*
%TD.AperFunction*%
%TO.P,R2,2*%
%TO.N,Net-(J2-Pad1)*%
%TA.AperFunction,SMDPad,CuDef*%
G36*
G01*
X103309000Y-134106499D02*
X103309000Y-135006501D01*
G75*
G02*
X103059001Y-135256500I-249999J0D01*
G01*
X102408999Y-135256500D01*
G75*
G02*
X102159000Y-135006501I0J249999D01*
G01*
X102159000Y-134106499D01*
G75*
G02*
X102408999Y-133856500I249999J0D01*
G01*
X103059001Y-133856500D01*
G75*
G02*
X103309000Y-134106499I0J-249999D01*
G01*
G37*
%TD.AperFunction*%
%TD*%
%TO.P,R3,2*%
%TO.N,VCC*%
%TA.AperFunction,SMDPad,CuDef*%
G36*
G01*
X86544999Y-142944000D02*
X87445001Y-142944000D01*
G75*
G02*
X87695000Y-143193999I0J-249999D01*
G01*
X87695000Y-143844001D01*
G75*
G02*
X87445001Y-144094000I-249999J0D01*
G01*
X86544999Y-144094000D01*
G75*
G02*
X86295000Y-143844001I0J249999D01*
G01*
X86295000Y-143193999D01*
G75*
G02*
X86544999Y-142944000I249999J0D01*
G01*
G37*
%TD.AperFunction*%
%TO.P,R3,1*%
%TO.N,Net-(R3-Pad1)*%
%TA.AperFunction,SMDPad,CuDef*%
G36*
G01*
X86544999Y-140894000D02*
X87445001Y-140894000D01*
G75*
G02*
X87695000Y-141143999I0J-249999D01*
G01*
X87695000Y-141794001D01*
G75*
G02*
X87445001Y-142044000I-249999J0D01*
G01*
X86544999Y-142044000D01*
G75*
G02*
X86295000Y-141794001I0J249999D01*
G01*
X86295000Y-141143999D01*
G75*
G02*
X86544999Y-140894000I249999J0D01*
G01*
G37*
%TD.AperFunction*%
%TD*%
%TO.P,R4,1*%
%TO.N,Net-(R4-Pad1)*%
%TA.AperFunction,SMDPad,CuDef*%
G36*
G01*
X108610600Y-143045601D02*
X108610600Y-142145599D01*
G75*
G02*
X108860599Y-141895600I249999J0D01*
G01*
X109510601Y-141895600D01*
G75*
G02*
X109760600Y-142145599I0J-249999D01*
G01*
X109760600Y-143045601D01*
G75*
G02*
X109510601Y-143295600I-249999J0D01*
G01*
X108860599Y-143295600D01*
G75*
G02*
X108610600Y-143045601I0J249999D01*
G01*
G37*
%TD.AperFunction*%
%TO.P,R4,2*%
%TO.N,Net-(C1-Pad2)*%
%TA.AperFunction,SMDPad,CuDef*%
G36*
G01*
X110660600Y-143045601D02*
X110660600Y-142145599D01*
G75*
G02*
X110910599Y-141895600I249999J0D01*
G01*
X111560601Y-141895600D01*
G75*
G02*
X111810600Y-142145599I0J-249999D01*
G01*
X111810600Y-143045601D01*
G75*
G02*
X111560601Y-143295600I-249999J0D01*
G01*
X110910599Y-143295600D01*
G75*
G02*
X110660600Y-143045601I0J249999D01*
G01*
G37*
%TD.AperFunction*%
%TD*%
%TO.P,R5,2*%
%TO.N,VCC*%
%TA.AperFunction,SMDPad,CuDef*%
G36*
G01*
X103054999Y-144849000D02*
X103955001Y-144849000D01*
G75*
G02*
X104205000Y-145098999I0J-249999D01*
G01*
X104205000Y-145749001D01*
G75*
G02*
X103955001Y-145999000I-249999J0D01*
G01*
X103054999Y-145999000D01*
G75*
G02*
X102805000Y-145749001I0J249999D01*
G01*
X102805000Y-145098999D01*
G75*
G02*
X103054999Y-144849000I249999J0D01*
G01*
G37*
%TD.AperFunction*%
%TO.P,R5,1*%
%TO.N,Net-(C2-Pad1)*%
%TA.AperFunction,SMDPad,CuDef*%
G36*
G01*
X103054999Y-142799000D02*
X103955001Y-142799000D01*
G75*
G02*
X104205000Y-143048999I0J-249999D01*
G01*
X104205000Y-143699001D01*
G75*
G02*
X103955001Y-143949000I-249999J0D01*
G01*
X103054999Y-143949000D01*
G75*
G02*
X102805000Y-143699001I0J249999D01*
G01*
X102805000Y-143048999D01*
G75*
G02*
X103054999Y-142799000I249999J0D01*
G01*
G37*
%TD.AperFunction*%
%TD*%
%TO.P,R6,1*%
%TO.N,GND*%
%TA.AperFunction,SMDPad,CuDef*%
G36*
G01*
X106114001Y-145999000D02*
X105213999Y-145999000D01*
G75*
G02*
X104964000Y-145749001I0J249999D01*
G01*
X104964000Y-145098999D01*
G75*
G02*
X105213999Y-144849000I249999J0D01*
G01*
X106114001Y-144849000D01*
G75*
G02*
X106364000Y-145098999I0J-249999D01*
G01*
X106364000Y-145749001D01*
G75*
G02*
X106114001Y-145999000I-249999J0D01*
G01*
G37*
%TD.AperFunction*%
%TO.P,R6,2*%
%TO.N,Net-(C2-Pad1)*%
%TA.AperFunction,SMDPad,CuDef*%
G36*
G01*
X106114001Y-143949000D02*
X105213999Y-143949000D01*
G75*
G02*
X104964000Y-143699001I0J249999D01*
G01*
X104964000Y-143048999D01*
G75*
G02*
X105213999Y-142799000I249999J0D01*
G01*
X106114001Y-142799000D01*
G75*
G02*
X106364000Y-143048999I0J-249999D01*
G01*
X106364000Y-143699001D01*
G75*
G02*
X106114001Y-143949000I-249999J0D01*
G01*
G37*
%TD.AperFunction*%
%TD*%
%TO.P,U1,1*%
%TO.N,Vo*%
%TA.AperFunction,SMDPad,CuDef*%
G36*
G01*
X88432000Y-134008000D02*
X88432000Y-133708000D01*
G75*
G02*
X88582000Y-133558000I150000J0D01*
G01*
X90332000Y-133558000D01*
G75*
G02*
X90482000Y-133708000I0J-150000D01*
G01*
X90482000Y-134008000D01*
G75*
G02*
X90332000Y-134158000I-150000J0D01*
G01*
X88582000Y-134158000D01*
G75*
G02*
X88432000Y-134008000I0J150000D01*
G01*
G37*
%TD.AperFunction*%
%TO.P,U1,2*%
%TO.N,D0*%
%TA.AperFunction,SMDPad,CuDef*%
G36*
G01*
X88432000Y-135278000D02*
X88432000Y-134978000D01*
G75*
G02*
X88582000Y-134828000I150000J0D01*
G01*
X90332000Y-134828000D01*
G75*
G02*
X90482000Y-134978000I0J-150000D01*
G01*
X90482000Y-135278000D01*
G75*
G02*
X90332000Y-135428000I-150000J0D01*
G01*
X88582000Y-135428000D01*
G75*
G02*
X88432000Y-135278000I0J150000D01*
G01*
G37*
%TD.AperFunction*%
%TO.P,U1,3*%
%TO.N,D1*%
%TA.AperFunction,SMDPad,CuDef*%
G36*
G01*
X88432000Y-136548000D02*
X88432000Y-136248000D01*
G75*
G02*
X88582000Y-136098000I150000J0D01*
G01*
X90332000Y-136098000D01*
G75*
G02*
X90482000Y-136248000I0J-150000D01*
G01*
X90482000Y-136548000D01*
G75*
G02*
X90332000Y-136698000I-150000J0D01*
G01*
X88582000Y-136698000D01*
G75*
G02*
X88432000Y-136548000I0J150000D01*
G01*
G37*
%TD.AperFunction*%
%TO.P,U1,4*%
%TO.N,D2*%
%TA.AperFunction,SMDPad,CuDef*%
G36*
G01*
X88432000Y-137818000D02*
X88432000Y-137518000D01*
G75*
G02*
X88582000Y-137368000I150000J0D01*
G01*
X90332000Y-137368000D01*
G75*
G02*
X90482000Y-137518000I0J-150000D01*
G01*
X90482000Y-137818000D01*
G75*
G02*
X90332000Y-137968000I-150000J0D01*
G01*
X88582000Y-137968000D01*
G75*
G02*
X88432000Y-137818000I0J150000D01*
G01*
G37*
%TD.AperFunction*%
%TO.P,U1,5*%
%TO.N,D3*%
%TA.AperFunction,SMDPad,CuDef*%
G36*
G01*
X88432000Y-139088000D02*
X88432000Y-138788000D01*
G75*
G02*
X88582000Y-138638000I150000J0D01*
G01*
X90332000Y-138638000D01*
G75*
G02*
X90482000Y-138788000I0J-150000D01*
G01*
X90482000Y-139088000D01*
G75*
G02*
X90332000Y-139238000I-150000J0D01*
G01*
X88582000Y-139238000D01*
G75*
G02*
X88432000Y-139088000I0J150000D01*
G01*
G37*
%TD.AperFunction*%
%TO.P,U1,6*%
%TO.N,STROBE*%
%TA.AperFunction,SMDPad,CuDef*%
G36*
G01*
X88432000Y-140358000D02*
X88432000Y-140058000D01*
G75*
G02*
X88582000Y-139908000I150000J0D01*
G01*
X90332000Y-139908000D01*
G75*
G02*
X90482000Y-140058000I0J-150000D01*
G01*
X90482000Y-140358000D01*
G75*
G02*
X90332000Y-140508000I-150000J0D01*
G01*
X88582000Y-140508000D01*
G75*
G02*
X88432000Y-140358000I0J150000D01*
G01*
G37*
%TD.AperFunction*%
%TO.P,U1,7*%
%TO.N,Net-(R3-Pad1)*%
%TA.AperFunction,SMDPad,CuDef*%
G36*
G01*
X88432000Y-141628000D02*
X88432000Y-141328000D01*
G75*
G02*
X88582000Y-141178000I150000J0D01*
G01*
X90332000Y-141178000D01*
G75*
G02*
X90482000Y-141328000I0J-150000D01*
G01*
X90482000Y-141628000D01*
G75*
G02*
X90332000Y-141778000I-150000J0D01*
G01*
X88582000Y-141778000D01*
G75*
G02*
X88432000Y-141628000I0J150000D01*
G01*
G37*
%TD.AperFunction*%
%TO.P,U1,8*%
%TO.N,GND*%
%TA.AperFunction,SMDPad,CuDef*%
G36*
G01*
X88432000Y-142898000D02*
X88432000Y-142598000D01*
G75*
G02*
X88582000Y-142448000I150000J0D01*
G01*
X90332000Y-142448000D01*
G75*
G02*
X90482000Y-142598000I0J-150000D01*
G01*
X90482000Y-142898000D01*
G75*
G02*
X90332000Y-143048000I-150000J0D01*
G01*
X88582000Y-143048000D01*
G75*
G02*
X88432000Y-142898000I0J150000D01*
G01*
G37*
%TD.AperFunction*%
%TO.P,U1,9*%
%TO.N,Net-(U1-Pad9)*%
%TA.AperFunction,SMDPad,CuDef*%
G36*
G01*
X88432000Y-144168000D02*
X88432000Y-143868000D01*
G75*
G02*
X88582000Y-143718000I150000J0D01*
G01*
X90332000Y-143718000D01*
G75*
G02*
X90482000Y-143868000I0J-150000D01*
G01*
X90482000Y-144168000D01*
G75*
G02*
X90332000Y-144318000I-150000J0D01*
G01*
X88582000Y-144318000D01*
G75*
G02*
X88432000Y-144168000I0J150000D01*
G01*
G37*
%TD.AperFunction*%
%TO.P,U1,10*%
%TO.N,GND*%
%TA.AperFunction,SMDPad,CuDef*%
G36*
G01*
X88432000Y-145438000D02*
X88432000Y-145138000D01*
G75*
G02*
X88582000Y-144988000I150000J0D01*
G01*
X90332000Y-144988000D01*
G75*
G02*
X90482000Y-145138000I0J-150000D01*
G01*
X90482000Y-145438000D01*
G75*
G02*
X90332000Y-145588000I-150000J0D01*
G01*
X88582000Y-145588000D01*
G75*
G02*
X88432000Y-145438000I0J150000D01*
G01*
G37*
%TD.AperFunction*%
%TO.P,U1,11*%
%TA.AperFunction,SMDPad,CuDef*%
G36*
G01*
X97732000Y-145438000D02*
X97732000Y-145138000D01*
G75*
G02*
X97882000Y-144988000I150000J0D01*
G01*
X99632000Y-144988000D01*
G75*
G02*
X99782000Y-145138000I0J-150000D01*
G01*
X99782000Y-145438000D01*
G75*
G02*
X99632000Y-145588000I-150000J0D01*
G01*
X97882000Y-145588000D01*
G75*
G02*
X97732000Y-145438000I0J150000D01*
G01*
G37*
%TD.AperFunction*%
%TO.P,U1,12*%
%TO.N,VCC*%
%TA.AperFunction,SMDPad,CuDef*%
G36*
G01*
X97732000Y-144168000D02*
X97732000Y-143868000D01*
G75*
G02*
X97882000Y-143718000I150000J0D01*
G01*
X99632000Y-143718000D01*
G75*
G02*
X99782000Y-143868000I0J-150000D01*
G01*
X99782000Y-144168000D01*
G75*
G02*
X99632000Y-144318000I-150000J0D01*
G01*
X97882000Y-144318000D01*
G75*
G02*
X97732000Y-144168000I0J150000D01*
G01*
G37*
%TD.AperFunction*%
%TO.P,U1,13*%
%TO.N,GND*%
%TA.AperFunction,SMDPad,CuDef*%
G36*
G01*
X97732000Y-142898000D02*
X97732000Y-142598000D01*
G75*
G02*
X97882000Y-142448000I150000J0D01*
G01*
X99632000Y-142448000D01*
G75*
G02*
X99782000Y-142598000I0J-150000D01*
G01*
X99782000Y-142898000D01*
G75*
G02*
X99632000Y-143048000I-150000J0D01*
G01*
X97882000Y-143048000D01*
G75*
G02*
X97732000Y-142898000I0J150000D01*
G01*
G37*
%TD.AperFunction*%
%TO.P,U1,14*%
%TO.N,D4*%
%TA.AperFunction,SMDPad,CuDef*%
G36*
G01*
X97732000Y-141628000D02*
X97732000Y-141328000D01*
G75*
G02*
X97882000Y-141178000I150000J0D01*
G01*
X99632000Y-141178000D01*
G75*
G02*
X99782000Y-141328000I0J-150000D01*
G01*
X99782000Y-141628000D01*
G75*
G02*
X99632000Y-141778000I-150000J0D01*
G01*
X97882000Y-141778000D01*
G75*
G02*
X97732000Y-141628000I0J150000D01*
G01*
G37*
%TD.AperFunction*%
%TO.P,U1,15*%
%TO.N,D5*%
%TA.AperFunction,SMDPad,CuDef*%
G36*
G01*
X97732000Y-140358000D02*
X97732000Y-140058000D01*
G75*
G02*
X97882000Y-139908000I150000J0D01*
G01*
X99632000Y-139908000D01*
G75*
G02*
X99782000Y-140058000I0J-150000D01*
G01*
X99782000Y-140358000D01*
G75*
G02*
X99632000Y-140508000I-150000J0D01*
G01*
X97882000Y-140508000D01*
G75*
G02*
X97732000Y-140358000I0J150000D01*
G01*
G37*
%TD.AperFunction*%
%TO.P,U1,16*%
%TO.N,D6*%
%TA.AperFunction,SMDPad,CuDef*%
G36*
G01*
X97732000Y-139088000D02*
X97732000Y-138788000D01*
G75*
G02*
X97882000Y-138638000I150000J0D01*
G01*
X99632000Y-138638000D01*
G75*
G02*
X99782000Y-138788000I0J-150000D01*
G01*
X99782000Y-139088000D01*
G75*
G02*
X99632000Y-139238000I-150000J0D01*
G01*
X97882000Y-139238000D01*
G75*
G02*
X97732000Y-139088000I0J150000D01*
G01*
G37*
%TD.AperFunction*%
%TO.P,U1,17*%
%TO.N,D7*%
%TA.AperFunction,SMDPad,CuDef*%
G36*
G01*
X97732000Y-137818000D02*
X97732000Y-137518000D01*
G75*
G02*
X97882000Y-137368000I150000J0D01*
G01*
X99632000Y-137368000D01*
G75*
G02*
X99782000Y-137518000I0J-150000D01*
G01*
X99782000Y-137818000D01*
G75*
G02*
X99632000Y-137968000I-150000J0D01*
G01*
X97882000Y-137968000D01*
G75*
G02*
X97732000Y-137818000I0J150000D01*
G01*
G37*
%TD.AperFunction*%
%TO.P,U1,18*%
%TO.N,Net-(U1-Pad18)*%
%TA.AperFunction,SMDPad,CuDef*%
G36*
G01*
X97732000Y-136548000D02*
X97732000Y-136248000D01*
G75*
G02*
X97882000Y-136098000I150000J0D01*
G01*
X99632000Y-136098000D01*
G75*
G02*
X99782000Y-136248000I0J-150000D01*
G01*
X99782000Y-136548000D01*
G75*
G02*
X99632000Y-136698000I-150000J0D01*
G01*
X97882000Y-136698000D01*
G75*
G02*
X97732000Y-136548000I0J150000D01*
G01*
G37*
%TD.AperFunction*%
%TO.P,U1,19*%
%TO.N,N/C*%
%TA.AperFunction,SMDPad,CuDef*%
G36*
G01*
X97732000Y-135278000D02*
X97732000Y-134978000D01*
G75*
G02*
X97882000Y-134828000I150000J0D01*
G01*
X99632000Y-134828000D01*
G75*
G02*
X99782000Y-134978000I0J-150000D01*
G01*
X99782000Y-135278000D01*
G75*
G02*
X99632000Y-135428000I-150000J0D01*
G01*
X97882000Y-135428000D01*
G75*
G02*
X97732000Y-135278000I0J150000D01*
G01*
G37*
%TD.AperFunction*%
%TO.P,U1,20*%
%TO.N,VCC*%
%TA.AperFunction,SMDPad,CuDef*%
G36*
G01*
X97732000Y-134008000D02*
X97732000Y-133708000D01*
G75*
G02*
X97882000Y-133558000I150000J0D01*
G01*
X99632000Y-133558000D01*
G75*
G02*
X99782000Y-133708000I0J-150000D01*
G01*
X99782000Y-134008000D01*
G75*
G02*
X99632000Y-134158000I-150000J0D01*
G01*
X97882000Y-134158000D01*
G75*
G02*
X97732000Y-134008000I0J150000D01*
G01*
G37*
%TD.AperFunction*%
%TD*%
D13*
%TO.P,U2,1*%
%TO.N,Net-(R4-Pad1)*%
X102809000Y-141181000D03*
%TO.P,U2,2*%
%TO.N,GND*%
X103759000Y-141181000D03*
%TO.P,U2,3*%
%TO.N,Net-(C2-Pad1)*%
X104709000Y-141181000D03*
%TO.P,U2,4*%
%TO.N,Vo*%
X104709000Y-138981000D03*
%TO.P,U2,5*%
%TO.N,VCC*%
X102809000Y-138981000D03*
%TD*%
D14*
%TO.N,GND*%
X96774000Y-145415000D03*
X92964000Y-136271000D03*
X96266000Y-137287000D03*
X95377000Y-139827000D03*
X92710000Y-138811000D03*
X94234000Y-145415000D03*
X103759000Y-142113000D03*
X106235500Y-137477500D03*
X90772979Y-142240000D03*
X105664000Y-146558000D03*
X112331500Y-146812000D03*
X110896400Y-135801100D03*
X111074200Y-137807700D03*
X114465100Y-138163300D03*
X114617500Y-142201900D03*
X114795300Y-146291300D03*
X104089200Y-132715000D03*
X97891600Y-130505200D03*
X97828100Y-132359400D03*
X85585300Y-138417300D03*
X82321400Y-138341100D03*
X82321400Y-135547100D03*
X85940900Y-135293100D03*
X88519000Y-131724400D03*
%TO.N,VCC*%
X85734000Y-143519000D03*
X97155000Y-143891000D03*
X103251000Y-146685000D03*
X101727000Y-136588500D03*
X83616800Y-145592800D03*
X102028788Y-138851009D03*
%TO.N,STROBE*%
X81407000Y-146939000D03*
X87607242Y-140306399D03*
%TD*%
D15*
%TO.N,MONO_AUDIO*%
X106286000Y-136058500D02*
X104784000Y-134556500D01*
X107879100Y-137651600D02*
X106286000Y-136058500D01*
X108000800Y-137651600D02*
X107879100Y-137651600D01*
X109306500Y-140106400D02*
X109306500Y-139799200D01*
X108000800Y-138493500D02*
X108000800Y-137651600D01*
X109306500Y-139799200D02*
X108000800Y-138493500D01*
%TO.N,Net-(C1-Pad2)*%
X111235600Y-142595600D02*
X111235600Y-141799200D01*
X112181500Y-140853300D02*
X112181500Y-140106400D01*
X111235600Y-141799200D02*
X112181500Y-140853300D01*
%TO.N,Net-(C2-Pad1)*%
X105791000Y-143247000D02*
X105664000Y-143374000D01*
X104775000Y-143365000D02*
X104766000Y-143374000D01*
X104775000Y-141224000D02*
X104775000Y-143365000D01*
X105664000Y-143374000D02*
X104766000Y-143374000D01*
X104766000Y-143374000D02*
X103505000Y-143374000D01*
X109071000Y-144907000D02*
X107420000Y-143256000D01*
X105782000Y-143256000D02*
X105664000Y-143374000D01*
X107420000Y-143256000D02*
X105782000Y-143256000D01*
%TO.N,GND*%
X105664000Y-145424000D02*
X105664000Y-146558000D01*
X97106000Y-146939000D02*
X96765000Y-146939000D01*
X98757000Y-145288000D02*
X97106000Y-146939000D01*
X96765000Y-146939000D02*
X96765000Y-145678000D01*
X96765000Y-145678000D02*
X96774000Y-145669000D01*
X96774000Y-145669000D02*
X96774000Y-145415000D01*
X96901000Y-145288000D02*
X96774000Y-145415000D01*
X98757000Y-145288000D02*
X96901000Y-145288000D01*
X103759000Y-141181000D02*
X103759000Y-142113000D01*
X89965000Y-142240000D02*
X90772979Y-142240000D01*
X89457000Y-142748000D02*
X89965000Y-142240000D01*
X105664000Y-146558000D02*
X105664000Y-146558000D01*
X112671000Y-144907000D02*
X112671000Y-146472500D01*
X112671000Y-146472500D02*
X112331500Y-146812000D01*
%TO.N,VCC*%
X99822000Y-144018000D02*
X98757000Y-144018000D01*
X86995000Y-143519000D02*
X85734000Y-143519000D01*
X98630000Y-143891000D02*
X98757000Y-144018000D01*
X97155000Y-143891000D02*
X98630000Y-143891000D01*
X103378000Y-145551000D02*
X103505000Y-145424000D01*
X103378000Y-146431000D02*
X103378000Y-145551000D01*
X100107010Y-144303010D02*
X99822000Y-144018000D01*
X100107010Y-145646990D02*
X100107010Y-144303010D01*
X98815000Y-146939000D02*
X100107010Y-145646990D01*
X103378000Y-146431000D02*
X103378000Y-146558000D01*
X103378000Y-146558000D02*
X103251000Y-146685000D01*
X99695000Y-133858000D02*
X98757000Y-133858000D01*
X100457000Y-134620000D02*
X99695000Y-133858000D01*
X102809000Y-138981000D02*
X102665510Y-138837510D01*
X102416500Y-136588500D02*
X102607000Y-136779000D01*
X101727000Y-136588500D02*
X102416500Y-136588500D01*
X102607000Y-136770000D02*
X100457000Y-134620000D01*
X102607000Y-136779000D02*
X102607000Y-136770000D01*
X83616800Y-144195800D02*
X83616800Y-145592800D01*
X83248500Y-143827500D02*
X83616800Y-144195800D01*
X102809000Y-138981000D02*
X102158779Y-138981000D01*
X102158779Y-138981000D02*
X102028788Y-138851009D01*
%TO.N,Net-(J1-Pad1)*%
X108000000Y-135600800D02*
X108000800Y-135601600D01*
X108000800Y-135601600D02*
X108000800Y-134404100D01*
X107010200Y-133413500D02*
X107010200Y-130987800D01*
X108000800Y-134404100D02*
X107010200Y-133413500D01*
%TO.N,Net-(J2-Pad1)*%
X100000000Y-131925000D02*
X102631500Y-134556500D01*
X102631500Y-134556500D02*
X102734000Y-134556500D01*
X100000000Y-131000000D02*
X100000000Y-131925000D01*
%TO.N,STROBE*%
X81407000Y-149589000D02*
X81678000Y-149860000D01*
X81407000Y-146939000D02*
X81407000Y-149589000D01*
X89457000Y-140208000D02*
X87705641Y-140208000D01*
X87705641Y-140208000D02*
X87607242Y-140306399D01*
%TO.N,D0*%
X84448000Y-143073910D02*
X85413009Y-142108901D01*
X88432000Y-135128000D02*
X89457000Y-135128000D01*
X87000509Y-136559491D02*
X88432000Y-135128000D01*
X84448000Y-149860000D02*
X84448000Y-143073910D01*
X87000509Y-139187901D02*
X87000509Y-136559491D01*
X85413009Y-142108901D02*
X85413009Y-140775401D01*
X85413009Y-140775401D02*
X87000509Y-139187901D01*
%TO.N,D1*%
X88432000Y-136398000D02*
X87450520Y-137379480D01*
X85008999Y-145660999D02*
X87218000Y-147870000D01*
X85863020Y-140961801D02*
X85863020Y-142295301D01*
X87218000Y-147870000D02*
X87218000Y-149860000D01*
X87450520Y-139374301D02*
X85863020Y-140961801D01*
X85863020Y-142295301D02*
X85008999Y-143149322D01*
X85008999Y-143149322D02*
X85008999Y-145660999D01*
X87450520Y-137379480D02*
X87450520Y-139374301D01*
X89457000Y-136398000D02*
X88432000Y-136398000D01*
%TO.N,D2*%
X90528758Y-139582990D02*
X91497989Y-140552221D01*
X88020990Y-138079010D02*
X88020990Y-139582990D01*
X89988000Y-147870000D02*
X89988000Y-149860000D01*
X88020990Y-139582990D02*
X90528758Y-139582990D01*
X91497989Y-140552221D02*
X91497989Y-146360011D01*
X91497989Y-146360011D02*
X89988000Y-147870000D01*
X88432000Y-137668000D02*
X88020990Y-138079010D01*
X89457000Y-137668000D02*
X88432000Y-137668000D01*
%TO.N,D3*%
X91948000Y-140365821D02*
X90520179Y-138938000D01*
X92758000Y-149860000D02*
X91948000Y-149050000D01*
X90520179Y-138938000D02*
X89457000Y-138938000D01*
X91948000Y-149050000D02*
X91948000Y-140365821D01*
%TO.N,D4*%
X97732000Y-141478000D02*
X95528000Y-143682000D01*
X95528000Y-143682000D02*
X95528000Y-147870000D01*
X95528000Y-147870000D02*
X95528000Y-149860000D01*
X98757000Y-141478000D02*
X97732000Y-141478000D01*
%TO.N,D5*%
X100572978Y-140998978D02*
X100572978Y-147119022D01*
X98298000Y-149394000D02*
X98298000Y-149860000D01*
X99782000Y-140208000D02*
X100572978Y-140998978D01*
X98757000Y-140208000D02*
X99782000Y-140208000D01*
X100572978Y-147119022D02*
X98298000Y-149394000D01*
%TO.N,D6*%
X98757000Y-138938000D02*
X99387378Y-138938000D01*
X101068000Y-147870000D02*
X101068000Y-149860000D01*
X101022989Y-140573611D02*
X101022989Y-147824989D01*
X99387378Y-138938000D02*
X101022989Y-140573611D01*
X101022989Y-147824989D02*
X101068000Y-147870000D01*
%TO.N,D7*%
X101473000Y-140004046D02*
X101473000Y-146678334D01*
X98757000Y-137668000D02*
X99782000Y-137668000D01*
X101473000Y-146678334D02*
X103838000Y-149043334D01*
X100853776Y-139384822D02*
X101473000Y-140004046D01*
X103838000Y-149043334D02*
X103838000Y-149860000D01*
X99782000Y-137668000D02*
X100853776Y-138739776D01*
X100853776Y-138739776D02*
X100853776Y-139384822D01*
%TO.N,Net-(R3-Pad1)*%
X89339000Y-141596000D02*
X89457000Y-141478000D01*
X89448000Y-141469000D02*
X89457000Y-141478000D01*
X86995000Y-141469000D02*
X89448000Y-141469000D01*
%TO.N,Net-(R4-Pad1)*%
X109185600Y-142595600D02*
X108595600Y-142595600D01*
X108595600Y-142595600D02*
X106000000Y-140000000D01*
X102809000Y-140690998D02*
X102809000Y-141181000D01*
X103499998Y-140000000D02*
X102809000Y-140690998D01*
X106000000Y-140000000D02*
X103499998Y-140000000D01*
X102809000Y-140703635D02*
X101303787Y-139198422D01*
X101303787Y-138451287D02*
X99885500Y-137033000D01*
X99885500Y-137033000D02*
X97695232Y-137033000D01*
X95000000Y-134337768D02*
X95000000Y-131000000D01*
X101303787Y-139198422D02*
X101303787Y-138451287D01*
X102809000Y-141181000D02*
X102809000Y-140703635D01*
X97695232Y-137033000D02*
X95000000Y-134337768D01*
%TO.N,Vo*%
X104709000Y-138981000D02*
X103853999Y-138125999D01*
X103853999Y-138125999D02*
X101829399Y-138125999D01*
X101829399Y-137773631D02*
X100304600Y-136248832D01*
X101829399Y-138125999D02*
X101829399Y-137773631D01*
X100304600Y-136248832D02*
X100304600Y-136245600D01*
X99831990Y-135772990D02*
X97495190Y-135772990D01*
X100304600Y-136245600D02*
X99831990Y-135772990D01*
X94000001Y-129999999D02*
X93000000Y-131000000D01*
X95935001Y-129999999D02*
X94000001Y-129999999D01*
X96000001Y-130064999D02*
X95935001Y-129999999D01*
X96000001Y-134277801D02*
X96000001Y-130064999D01*
X97495190Y-135772990D02*
X96000001Y-134277801D01*
X93000000Y-131000000D02*
X91000000Y-131000000D01*
X91000000Y-132315000D02*
X89457000Y-133858000D01*
X91000000Y-131000000D02*
X91000000Y-132315000D01*
%TD*%
D16*
%TO.N,GND*%
G36*
X92164923Y-132017544D02*
G01*
X92379482Y-132160907D01*
X92617887Y-132259658D01*
X92870976Y-132310000D01*
X93129024Y-132310000D01*
X93382113Y-132259658D01*
X93620518Y-132160907D01*
X93802513Y-132039303D01*
X93873815Y-132126185D01*
X93970506Y-132205537D01*
X94080820Y-132264502D01*
X94200518Y-132300812D01*
X94240001Y-132304701D01*
X94240000Y-134300445D01*
X94236324Y-134337768D01*
X94240000Y-134375090D01*
X94240000Y-134375100D01*
X94250997Y-134486753D01*
X94283468Y-134593798D01*
X94294454Y-134630014D01*
X94365026Y-134762044D01*
X94404871Y-134810594D01*
X94459999Y-134877769D01*
X94489003Y-134901572D01*
X97094959Y-137507529D01*
X97093928Y-137518000D01*
X97093928Y-137818000D01*
X97109071Y-137971745D01*
X97153916Y-138119582D01*
X97226742Y-138255829D01*
X97265454Y-138303000D01*
X97226742Y-138350171D01*
X97153916Y-138486418D01*
X97109071Y-138634255D01*
X97093928Y-138788000D01*
X97093928Y-139088000D01*
X97109071Y-139241745D01*
X97153916Y-139389582D01*
X97226742Y-139525829D01*
X97265454Y-139573000D01*
X97226742Y-139620171D01*
X97153916Y-139756418D01*
X97109071Y-139904255D01*
X97093928Y-140058000D01*
X97093928Y-140358000D01*
X97109071Y-140511745D01*
X97153916Y-140659582D01*
X97226742Y-140795829D01*
X97265454Y-140843000D01*
X97226742Y-140890171D01*
X97208350Y-140924580D01*
X97191999Y-140937999D01*
X97168201Y-140966997D01*
X95017003Y-143118196D01*
X94987999Y-143141999D01*
X94952337Y-143185454D01*
X94893026Y-143257724D01*
X94833005Y-143370014D01*
X94822454Y-143389754D01*
X94778997Y-143533015D01*
X94768000Y-143644668D01*
X94768000Y-143644678D01*
X94764324Y-143682000D01*
X94768000Y-143719323D01*
X94768001Y-147832658D01*
X94768000Y-147832668D01*
X94768000Y-148053428D01*
X94604667Y-148053428D01*
X94480185Y-148065688D01*
X94360487Y-148101998D01*
X94250173Y-148160963D01*
X94153482Y-148240315D01*
X94143000Y-148253087D01*
X94132518Y-148240315D01*
X94035827Y-148160963D01*
X93925513Y-148101998D01*
X93805815Y-148065688D01*
X93681333Y-148053428D01*
X92708000Y-148053428D01*
X92708000Y-140403144D01*
X92711676Y-140365821D01*
X92708000Y-140328498D01*
X92708000Y-140328488D01*
X92697003Y-140216835D01*
X92653546Y-140073574D01*
X92582974Y-139941545D01*
X92488001Y-139825820D01*
X92459003Y-139802022D01*
X91083983Y-138427003D01*
X91060180Y-138397999D01*
X90957050Y-138313363D01*
X90948546Y-138303000D01*
X90987258Y-138255829D01*
X91060084Y-138119582D01*
X91104929Y-137971745D01*
X91120072Y-137818000D01*
X91120072Y-137518000D01*
X91104929Y-137364255D01*
X91060084Y-137216418D01*
X90987258Y-137080171D01*
X90948546Y-137033000D01*
X90987258Y-136985829D01*
X91060084Y-136849582D01*
X91104929Y-136701745D01*
X91120072Y-136548000D01*
X91120072Y-136248000D01*
X91104929Y-136094255D01*
X91060084Y-135946418D01*
X90987258Y-135810171D01*
X90948546Y-135763000D01*
X90987258Y-135715829D01*
X91060084Y-135579582D01*
X91104929Y-135431745D01*
X91120072Y-135278000D01*
X91120072Y-134978000D01*
X91104929Y-134824255D01*
X91060084Y-134676418D01*
X90987258Y-134540171D01*
X90948546Y-134493000D01*
X90987258Y-134445829D01*
X91060084Y-134309582D01*
X91104929Y-134161745D01*
X91120072Y-134008000D01*
X91120072Y-133708000D01*
X91104929Y-133554255D01*
X91060084Y-133406418D01*
X91033367Y-133356435D01*
X91511003Y-132878799D01*
X91540001Y-132855001D01*
X91634974Y-132739276D01*
X91705546Y-132607247D01*
X91749003Y-132463986D01*
X91760000Y-132352333D01*
X91763677Y-132315000D01*
X91760000Y-132277667D01*
X91760000Y-132067709D01*
X91835077Y-132017544D01*
X92000000Y-131852621D01*
X92164923Y-132017544D01*
G37*
X92164923Y-132017544D02*
X92379482Y-132160907D01*
X92617887Y-132259658D01*
X92870976Y-132310000D01*
X93129024Y-132310000D01*
X93382113Y-132259658D01*
X93620518Y-132160907D01*
X93802513Y-132039303D01*
X93873815Y-132126185D01*
X93970506Y-132205537D01*
X94080820Y-132264502D01*
X94200518Y-132300812D01*
X94240001Y-132304701D01*
X94240000Y-134300445D01*
X94236324Y-134337768D01*
X94240000Y-134375090D01*
X94240000Y-134375100D01*
X94250997Y-134486753D01*
X94283468Y-134593798D01*
X94294454Y-134630014D01*
X94365026Y-134762044D01*
X94404871Y-134810594D01*
X94459999Y-134877769D01*
X94489003Y-134901572D01*
X97094959Y-137507529D01*
X97093928Y-137518000D01*
X97093928Y-137818000D01*
X97109071Y-137971745D01*
X97153916Y-138119582D01*
X97226742Y-138255829D01*
X97265454Y-138303000D01*
X97226742Y-138350171D01*
X97153916Y-138486418D01*
X97109071Y-138634255D01*
X97093928Y-138788000D01*
X97093928Y-139088000D01*
X97109071Y-139241745D01*
X97153916Y-139389582D01*
X97226742Y-139525829D01*
X97265454Y-139573000D01*
X97226742Y-139620171D01*
X97153916Y-139756418D01*
X97109071Y-139904255D01*
X97093928Y-140058000D01*
X97093928Y-140358000D01*
X97109071Y-140511745D01*
X97153916Y-140659582D01*
X97226742Y-140795829D01*
X97265454Y-140843000D01*
X97226742Y-140890171D01*
X97208350Y-140924580D01*
X97191999Y-140937999D01*
X97168201Y-140966997D01*
X95017003Y-143118196D01*
X94987999Y-143141999D01*
X94952337Y-143185454D01*
X94893026Y-143257724D01*
X94833005Y-143370014D01*
X94822454Y-143389754D01*
X94778997Y-143533015D01*
X94768000Y-143644668D01*
X94768000Y-143644678D01*
X94764324Y-143682000D01*
X94768000Y-143719323D01*
X94768001Y-147832658D01*
X94768000Y-147832668D01*
X94768000Y-148053428D01*
X94604667Y-148053428D01*
X94480185Y-148065688D01*
X94360487Y-148101998D01*
X94250173Y-148160963D01*
X94153482Y-148240315D01*
X94143000Y-148253087D01*
X94132518Y-148240315D01*
X94035827Y-148160963D01*
X93925513Y-148101998D01*
X93805815Y-148065688D01*
X93681333Y-148053428D01*
X92708000Y-148053428D01*
X92708000Y-140403144D01*
X92711676Y-140365821D01*
X92708000Y-140328498D01*
X92708000Y-140328488D01*
X92697003Y-140216835D01*
X92653546Y-140073574D01*
X92582974Y-139941545D01*
X92488001Y-139825820D01*
X92459003Y-139802022D01*
X91083983Y-138427003D01*
X91060180Y-138397999D01*
X90957050Y-138313363D01*
X90948546Y-138303000D01*
X90987258Y-138255829D01*
X91060084Y-138119582D01*
X91104929Y-137971745D01*
X91120072Y-137818000D01*
X91120072Y-137518000D01*
X91104929Y-137364255D01*
X91060084Y-137216418D01*
X90987258Y-137080171D01*
X90948546Y-137033000D01*
X90987258Y-136985829D01*
X91060084Y-136849582D01*
X91104929Y-136701745D01*
X91120072Y-136548000D01*
X91120072Y-136248000D01*
X91104929Y-136094255D01*
X91060084Y-135946418D01*
X90987258Y-135810171D01*
X90948546Y-135763000D01*
X90987258Y-135715829D01*
X91060084Y-135579582D01*
X91104929Y-135431745D01*
X91120072Y-135278000D01*
X91120072Y-134978000D01*
X91104929Y-134824255D01*
X91060084Y-134676418D01*
X90987258Y-134540171D01*
X90948546Y-134493000D01*
X90987258Y-134445829D01*
X91060084Y-134309582D01*
X91104929Y-134161745D01*
X91120072Y-134008000D01*
X91120072Y-133708000D01*
X91104929Y-133554255D01*
X91060084Y-133406418D01*
X91033367Y-133356435D01*
X91511003Y-132878799D01*
X91540001Y-132855001D01*
X91634974Y-132739276D01*
X91705546Y-132607247D01*
X91749003Y-132463986D01*
X91760000Y-132352333D01*
X91763677Y-132315000D01*
X91760000Y-132277667D01*
X91760000Y-132067709D01*
X91835077Y-132017544D01*
X92000000Y-131852621D01*
X92164923Y-132017544D01*
G36*
X108561384Y-130145659D02*
G01*
X108562325Y-130155131D01*
X108563481Y-130195606D01*
X108567467Y-130226997D01*
X108568198Y-130258622D01*
X108569417Y-130268108D01*
X108669044Y-131002636D01*
X108683356Y-131063067D01*
X108696815Y-131123656D01*
X108699854Y-131132725D01*
X108940253Y-131833911D01*
X108966017Y-131890383D01*
X108991002Y-131947234D01*
X108995744Y-131955540D01*
X109367760Y-132596679D01*
X109404025Y-132647102D01*
X109439554Y-132697986D01*
X109445818Y-132705213D01*
X109935280Y-133261883D01*
X109980671Y-133304323D01*
X110025384Y-133347315D01*
X110032933Y-133353187D01*
X110621197Y-133804185D01*
X110673920Y-133836971D01*
X110726179Y-133870490D01*
X110734725Y-133874784D01*
X111399386Y-134202932D01*
X111457500Y-134224863D01*
X111515246Y-134247582D01*
X111524463Y-134250135D01*
X112240202Y-134442933D01*
X112301413Y-134453150D01*
X112362530Y-134464230D01*
X112372065Y-134464943D01*
X112372067Y-134464943D01*
X113101117Y-134514336D01*
X113124070Y-134516604D01*
X115685101Y-134517390D01*
X115685100Y-148053428D01*
X113994667Y-148053428D01*
X113870185Y-148065688D01*
X113750487Y-148101998D01*
X113640173Y-148160963D01*
X113543482Y-148240315D01*
X113533000Y-148253087D01*
X113522518Y-148240315D01*
X113425827Y-148160963D01*
X113315513Y-148101998D01*
X113195815Y-148065688D01*
X113071333Y-148053428D01*
X111224667Y-148053428D01*
X111100185Y-148065688D01*
X110980487Y-148101998D01*
X110870173Y-148160963D01*
X110773482Y-148240315D01*
X110763000Y-148253087D01*
X110752518Y-148240315D01*
X110655827Y-148160963D01*
X110545513Y-148101998D01*
X110425815Y-148065688D01*
X110301333Y-148053428D01*
X108454667Y-148053428D01*
X108330185Y-148065688D01*
X108210487Y-148101998D01*
X108100173Y-148160963D01*
X108003482Y-148240315D01*
X107993000Y-148253087D01*
X107982518Y-148240315D01*
X107885827Y-148160963D01*
X107775513Y-148101998D01*
X107655815Y-148065688D01*
X107531333Y-148053428D01*
X105684667Y-148053428D01*
X105560185Y-148065688D01*
X105440487Y-148101998D01*
X105330173Y-148160963D01*
X105233482Y-148240315D01*
X105223000Y-148253087D01*
X105212518Y-148240315D01*
X105115827Y-148160963D01*
X105005513Y-148101998D01*
X104885815Y-148065688D01*
X104761333Y-148053428D01*
X103922896Y-148053428D01*
X103550225Y-147680758D01*
X103552898Y-147680226D01*
X103741256Y-147602205D01*
X103910774Y-147488937D01*
X104054937Y-147344774D01*
X104168205Y-147175256D01*
X104246226Y-146986898D01*
X104286000Y-146786939D01*
X104286000Y-146583061D01*
X104283954Y-146572777D01*
X104294851Y-146569472D01*
X104448387Y-146487405D01*
X104505138Y-146440831D01*
X104512815Y-146450185D01*
X104609506Y-146529537D01*
X104719820Y-146588502D01*
X104839518Y-146624812D01*
X104964000Y-146637072D01*
X105378250Y-146634000D01*
X105537000Y-146475250D01*
X105537000Y-145551000D01*
X105791000Y-145551000D01*
X105791000Y-146475250D01*
X105949750Y-146634000D01*
X106364000Y-146637072D01*
X106488482Y-146624812D01*
X106608180Y-146588502D01*
X106718494Y-146529537D01*
X106815185Y-146450185D01*
X106894537Y-146353494D01*
X106953502Y-146243180D01*
X106989812Y-146123482D01*
X107002072Y-145999000D01*
X106999000Y-145709750D01*
X106840250Y-145551000D01*
X105791000Y-145551000D01*
X105537000Y-145551000D01*
X105517000Y-145551000D01*
X105517000Y-145297000D01*
X105537000Y-145297000D01*
X105537000Y-145277000D01*
X105791000Y-145277000D01*
X105791000Y-145297000D01*
X106840250Y-145297000D01*
X106999000Y-145138250D01*
X107002072Y-144849000D01*
X106989812Y-144724518D01*
X106953502Y-144604820D01*
X106894537Y-144494506D01*
X106815185Y-144397815D01*
X106735406Y-144332342D01*
X106741962Y-144326962D01*
X106852405Y-144192387D01*
X106934472Y-144038851D01*
X106941404Y-144016000D01*
X107105199Y-144016000D01*
X108007928Y-144918730D01*
X108007928Y-145332001D01*
X108024992Y-145505255D01*
X108075528Y-145671851D01*
X108157595Y-145825387D01*
X108268038Y-145959962D01*
X108402613Y-146070405D01*
X108556149Y-146152472D01*
X108722745Y-146203008D01*
X108895999Y-146220072D01*
X109971001Y-146220072D01*
X110144255Y-146203008D01*
X110310851Y-146152472D01*
X110464387Y-146070405D01*
X110598962Y-145959962D01*
X110709405Y-145825387D01*
X110791472Y-145671851D01*
X110818727Y-145582000D01*
X110882928Y-145582000D01*
X110895188Y-145706482D01*
X110931498Y-145826180D01*
X110990463Y-145936494D01*
X111069815Y-146033185D01*
X111166506Y-146112537D01*
X111276820Y-146171502D01*
X111396518Y-146207812D01*
X111521000Y-146220072D01*
X112022750Y-146217000D01*
X112181500Y-146058250D01*
X112181500Y-145034000D01*
X112435500Y-145034000D01*
X112435500Y-146058250D01*
X112594250Y-146217000D01*
X113096000Y-146220072D01*
X113220482Y-146207812D01*
X113340180Y-146171502D01*
X113450494Y-146112537D01*
X113547185Y-146033185D01*
X113626537Y-145936494D01*
X113685502Y-145826180D01*
X113721812Y-145706482D01*
X113734072Y-145582000D01*
X113731000Y-145192750D01*
X113572250Y-145034000D01*
X112435500Y-145034000D01*
X112181500Y-145034000D01*
X111044750Y-145034000D01*
X110886000Y-145192750D01*
X110882928Y-145582000D01*
X110818727Y-145582000D01*
X110842008Y-145505255D01*
X110859072Y-145332001D01*
X110859072Y-144481999D01*
X110842008Y-144308745D01*
X110791472Y-144142149D01*
X110709405Y-143988613D01*
X110621463Y-143881456D01*
X110737345Y-143916608D01*
X110910599Y-143933672D01*
X110960441Y-143933672D01*
X110931498Y-143987820D01*
X110895188Y-144107518D01*
X110882928Y-144232000D01*
X110886000Y-144621250D01*
X111044750Y-144780000D01*
X112181500Y-144780000D01*
X112181500Y-143755750D01*
X112435500Y-143755750D01*
X112435500Y-144780000D01*
X113572250Y-144780000D01*
X113731000Y-144621250D01*
X113734072Y-144232000D01*
X113721812Y-144107518D01*
X113685502Y-143987820D01*
X113626537Y-143877506D01*
X113547185Y-143780815D01*
X113450494Y-143701463D01*
X113340180Y-143642498D01*
X113220482Y-143606188D01*
X113096000Y-143593928D01*
X112594250Y-143597000D01*
X112435500Y-143755750D01*
X112181500Y-143755750D01*
X112139542Y-143713792D01*
X112188562Y-143673562D01*
X112299005Y-143538987D01*
X112381072Y-143385451D01*
X112431608Y-143218855D01*
X112448672Y-143045601D01*
X112448672Y-142145599D01*
X112431608Y-141972345D01*
X112381072Y-141805749D01*
X112354174Y-141755427D01*
X112690130Y-141419472D01*
X112719001Y-141419472D01*
X112892255Y-141402408D01*
X113058851Y-141351872D01*
X113212387Y-141269805D01*
X113346962Y-141159362D01*
X113457405Y-141024787D01*
X113539472Y-140871251D01*
X113590008Y-140704655D01*
X113607072Y-140531401D01*
X113607072Y-139681399D01*
X113590008Y-139508145D01*
X113539472Y-139341549D01*
X113457405Y-139188013D01*
X113346962Y-139053438D01*
X113212387Y-138942995D01*
X113058851Y-138860928D01*
X112892255Y-138810392D01*
X112719001Y-138793328D01*
X111643999Y-138793328D01*
X111470745Y-138810392D01*
X111304149Y-138860928D01*
X111150613Y-138942995D01*
X111016038Y-139053438D01*
X110905595Y-139188013D01*
X110823528Y-139341549D01*
X110772992Y-139508145D01*
X110755928Y-139681399D01*
X110755928Y-140531401D01*
X110772992Y-140704655D01*
X110823528Y-140871251D01*
X110905595Y-141024787D01*
X110918945Y-141041054D01*
X110724598Y-141235401D01*
X110695600Y-141259199D01*
X110671802Y-141288197D01*
X110671801Y-141288198D01*
X110664943Y-141296555D01*
X110570749Y-141325128D01*
X110417213Y-141407195D01*
X110282638Y-141517638D01*
X110210600Y-141605416D01*
X110138562Y-141517638D01*
X110003987Y-141407195D01*
X109998489Y-141404256D01*
X110017255Y-141402408D01*
X110183851Y-141351872D01*
X110337387Y-141269805D01*
X110471962Y-141159362D01*
X110582405Y-141024787D01*
X110664472Y-140871251D01*
X110715008Y-140704655D01*
X110732072Y-140531401D01*
X110732072Y-139681399D01*
X110715008Y-139508145D01*
X110664472Y-139341549D01*
X110582405Y-139188013D01*
X110471962Y-139053438D01*
X110337387Y-138942995D01*
X110183851Y-138860928D01*
X110017255Y-138810392D01*
X109844001Y-138793328D01*
X109375430Y-138793328D01*
X109127399Y-138545298D01*
X109189205Y-138469987D01*
X109271272Y-138316451D01*
X109321808Y-138149855D01*
X109338872Y-137976601D01*
X109338872Y-137326599D01*
X109321808Y-137153345D01*
X109271272Y-136986749D01*
X109189205Y-136833213D01*
X109078762Y-136698638D01*
X108990984Y-136626600D01*
X109078762Y-136554562D01*
X109189205Y-136419987D01*
X109271272Y-136266451D01*
X109321808Y-136099855D01*
X109338872Y-135926601D01*
X109338872Y-135276599D01*
X109321808Y-135103345D01*
X109271272Y-134936749D01*
X109189205Y-134783213D01*
X109078762Y-134648638D01*
X108944187Y-134538195D01*
X108790651Y-134456128D01*
X108760800Y-134447073D01*
X108760800Y-134441423D01*
X108764476Y-134404100D01*
X108760800Y-134366777D01*
X108760800Y-134366767D01*
X108749803Y-134255114D01*
X108706346Y-134111853D01*
X108690044Y-134081354D01*
X108635774Y-133979823D01*
X108564599Y-133893097D01*
X108540801Y-133864099D01*
X108511803Y-133840301D01*
X107770200Y-133098699D01*
X107770200Y-132292501D01*
X107809682Y-132288612D01*
X107929380Y-132252302D01*
X108039694Y-132193337D01*
X108136385Y-132113985D01*
X108215737Y-132017294D01*
X108274702Y-131906980D01*
X108311012Y-131787282D01*
X108323272Y-131662800D01*
X108323272Y-130312800D01*
X108311012Y-130188318D01*
X108274702Y-130068620D01*
X108215737Y-129958306D01*
X108136385Y-129861615D01*
X108039694Y-129782263D01*
X107929380Y-129723298D01*
X107809682Y-129686988D01*
X107685200Y-129674728D01*
X106335200Y-129674728D01*
X106210718Y-129686988D01*
X106091020Y-129723298D01*
X105980706Y-129782263D01*
X105884015Y-129861615D01*
X105807081Y-129955359D01*
X105673829Y-129858327D01*
X105440728Y-129750562D01*
X105339600Y-129719890D01*
X105137200Y-129843576D01*
X105137200Y-130860800D01*
X105157200Y-130860800D01*
X105157200Y-131114800D01*
X105137200Y-131114800D01*
X105137200Y-132132024D01*
X105339600Y-132255710D01*
X105440728Y-132225038D01*
X105673829Y-132117273D01*
X105807081Y-132020241D01*
X105884015Y-132113985D01*
X105980706Y-132193337D01*
X106091020Y-132252302D01*
X106210718Y-132288612D01*
X106250200Y-132292501D01*
X106250200Y-133376177D01*
X106246524Y-133413500D01*
X106250200Y-133450822D01*
X106250200Y-133450832D01*
X106261197Y-133562485D01*
X106302464Y-133698525D01*
X106304654Y-133705746D01*
X106375226Y-133837776D01*
X106412085Y-133882688D01*
X106470199Y-133953501D01*
X106499202Y-133977304D01*
X107059160Y-134537261D01*
X107057413Y-134538195D01*
X106922838Y-134648638D01*
X106812395Y-134783213D01*
X106730328Y-134936749D01*
X106679792Y-135103345D01*
X106662728Y-135276599D01*
X106662728Y-135360426D01*
X105997072Y-134694771D01*
X105997072Y-134106499D01*
X105980008Y-133933245D01*
X105929472Y-133766649D01*
X105847405Y-133613113D01*
X105736962Y-133478538D01*
X105602387Y-133368095D01*
X105448851Y-133286028D01*
X105282255Y-133235492D01*
X105109001Y-133218428D01*
X104458999Y-133218428D01*
X104285745Y-133235492D01*
X104119149Y-133286028D01*
X103965613Y-133368095D01*
X103831038Y-133478538D01*
X103759000Y-133566316D01*
X103686962Y-133478538D01*
X103552387Y-133368095D01*
X103398851Y-133286028D01*
X103232255Y-133235492D01*
X103059001Y-133218428D01*
X102408999Y-133218428D01*
X102371885Y-133222083D01*
X101193708Y-132043907D01*
X101203119Y-132032441D01*
X101336371Y-132129473D01*
X101569472Y-132237238D01*
X101670600Y-132267910D01*
X101873000Y-132144224D01*
X101873000Y-131127000D01*
X102127000Y-131127000D01*
X102127000Y-132144224D01*
X102329400Y-132267910D01*
X102430528Y-132237238D01*
X102663629Y-132129473D01*
X102871227Y-131978303D01*
X103045344Y-131789537D01*
X103179289Y-131570430D01*
X103267915Y-131329401D01*
X103260512Y-131317201D01*
X103742285Y-131317201D01*
X103830911Y-131558230D01*
X103964856Y-131777337D01*
X104138973Y-131966103D01*
X104346571Y-132117273D01*
X104579672Y-132225038D01*
X104680800Y-132255710D01*
X104883200Y-132132024D01*
X104883200Y-131114800D01*
X103865115Y-131114800D01*
X103742285Y-131317201D01*
X103260512Y-131317201D01*
X103145085Y-131127000D01*
X102127000Y-131127000D01*
X101873000Y-131127000D01*
X101853000Y-131127000D01*
X101853000Y-130873000D01*
X101873000Y-130873000D01*
X101873000Y-129855776D01*
X102127000Y-129855776D01*
X102127000Y-130873000D01*
X103145085Y-130873000D01*
X103267915Y-130670599D01*
X103263430Y-130658399D01*
X103742285Y-130658399D01*
X103865115Y-130860800D01*
X104883200Y-130860800D01*
X104883200Y-129843576D01*
X104680800Y-129719890D01*
X104579672Y-129750562D01*
X104346571Y-129858327D01*
X104138973Y-130009497D01*
X103964856Y-130198263D01*
X103830911Y-130417370D01*
X103742285Y-130658399D01*
X103263430Y-130658399D01*
X103179289Y-130429570D01*
X103045344Y-130210463D01*
X102871227Y-130021697D01*
X102663629Y-129870527D01*
X102430528Y-129762762D01*
X102329400Y-129732090D01*
X102127000Y-129855776D01*
X101873000Y-129855776D01*
X101670600Y-129732090D01*
X101569472Y-129762762D01*
X101336371Y-129870527D01*
X101203119Y-129967559D01*
X101126185Y-129873815D01*
X101029494Y-129794463D01*
X100919180Y-129735498D01*
X100799482Y-129699188D01*
X100675000Y-129686928D01*
X99325000Y-129686928D01*
X99200518Y-129699188D01*
X99080820Y-129735498D01*
X98970506Y-129794463D01*
X98873815Y-129873815D01*
X98794463Y-129970506D01*
X98735498Y-130080820D01*
X98699188Y-130200518D01*
X98686928Y-130325000D01*
X98686928Y-131675000D01*
X98699188Y-131799482D01*
X98735498Y-131919180D01*
X98794463Y-132029494D01*
X98873815Y-132126185D01*
X98970506Y-132205537D01*
X99080820Y-132264502D01*
X99200518Y-132300812D01*
X99325000Y-132313072D01*
X99345674Y-132313072D01*
X99365026Y-132349276D01*
X99423422Y-132420431D01*
X99460000Y-132465001D01*
X99488998Y-132488799D01*
X100033548Y-133033349D01*
X99933582Y-132979916D01*
X99785745Y-132935071D01*
X99632000Y-132919928D01*
X97882000Y-132919928D01*
X97728255Y-132935071D01*
X97580418Y-132979916D01*
X97444171Y-133052742D01*
X97324749Y-133150749D01*
X97226742Y-133270171D01*
X97153916Y-133406418D01*
X97109071Y-133554255D01*
X97093928Y-133708000D01*
X97093928Y-134008000D01*
X97109071Y-134161745D01*
X97153916Y-134309582D01*
X97208268Y-134411266D01*
X96760001Y-133963000D01*
X96760001Y-130102322D01*
X96763677Y-130064999D01*
X96760001Y-130027677D01*
X96760001Y-130027666D01*
X96749004Y-129916013D01*
X96705547Y-129772752D01*
X96634975Y-129640723D01*
X96593348Y-129590000D01*
X108560943Y-129590000D01*
X108561384Y-130145659D01*
G37*
X108561384Y-130145659D02*
X108562325Y-130155131D01*
X108563481Y-130195606D01*
X108567467Y-130226997D01*
X108568198Y-130258622D01*
X108569417Y-130268108D01*
X108669044Y-131002636D01*
X108683356Y-131063067D01*
X108696815Y-131123656D01*
X108699854Y-131132725D01*
X108940253Y-131833911D01*
X108966017Y-131890383D01*
X108991002Y-131947234D01*
X108995744Y-131955540D01*
X109367760Y-132596679D01*
X109404025Y-132647102D01*
X109439554Y-132697986D01*
X109445818Y-132705213D01*
X109935280Y-133261883D01*
X109980671Y-133304323D01*
X110025384Y-133347315D01*
X110032933Y-133353187D01*
X110621197Y-133804185D01*
X110673920Y-133836971D01*
X110726179Y-133870490D01*
X110734725Y-133874784D01*
X111399386Y-134202932D01*
X111457500Y-134224863D01*
X111515246Y-134247582D01*
X111524463Y-134250135D01*
X112240202Y-134442933D01*
X112301413Y-134453150D01*
X112362530Y-134464230D01*
X112372065Y-134464943D01*
X112372067Y-134464943D01*
X113101117Y-134514336D01*
X113124070Y-134516604D01*
X115685101Y-134517390D01*
X115685100Y-148053428D01*
X113994667Y-148053428D01*
X113870185Y-148065688D01*
X113750487Y-148101998D01*
X113640173Y-148160963D01*
X113543482Y-148240315D01*
X113533000Y-148253087D01*
X113522518Y-148240315D01*
X113425827Y-148160963D01*
X113315513Y-148101998D01*
X113195815Y-148065688D01*
X113071333Y-148053428D01*
X111224667Y-148053428D01*
X111100185Y-148065688D01*
X110980487Y-148101998D01*
X110870173Y-148160963D01*
X110773482Y-148240315D01*
X110763000Y-148253087D01*
X110752518Y-148240315D01*
X110655827Y-148160963D01*
X110545513Y-148101998D01*
X110425815Y-148065688D01*
X110301333Y-148053428D01*
X108454667Y-148053428D01*
X108330185Y-148065688D01*
X108210487Y-148101998D01*
X108100173Y-148160963D01*
X108003482Y-148240315D01*
X107993000Y-148253087D01*
X107982518Y-148240315D01*
X107885827Y-148160963D01*
X107775513Y-148101998D01*
X107655815Y-148065688D01*
X107531333Y-148053428D01*
X105684667Y-148053428D01*
X105560185Y-148065688D01*
X105440487Y-148101998D01*
X105330173Y-148160963D01*
X105233482Y-148240315D01*
X105223000Y-148253087D01*
X105212518Y-148240315D01*
X105115827Y-148160963D01*
X105005513Y-148101998D01*
X104885815Y-148065688D01*
X104761333Y-148053428D01*
X103922896Y-148053428D01*
X103550225Y-147680758D01*
X103552898Y-147680226D01*
X103741256Y-147602205D01*
X103910774Y-147488937D01*
X104054937Y-147344774D01*
X104168205Y-147175256D01*
X104246226Y-146986898D01*
X104286000Y-146786939D01*
X104286000Y-146583061D01*
X104283954Y-146572777D01*
X104294851Y-146569472D01*
X104448387Y-146487405D01*
X104505138Y-146440831D01*
X104512815Y-146450185D01*
X104609506Y-146529537D01*
X104719820Y-146588502D01*
X104839518Y-146624812D01*
X104964000Y-146637072D01*
X105378250Y-146634000D01*
X105537000Y-146475250D01*
X105537000Y-145551000D01*
X105791000Y-145551000D01*
X105791000Y-146475250D01*
X105949750Y-146634000D01*
X106364000Y-146637072D01*
X106488482Y-146624812D01*
X106608180Y-146588502D01*
X106718494Y-146529537D01*
X106815185Y-146450185D01*
X106894537Y-146353494D01*
X106953502Y-146243180D01*
X106989812Y-146123482D01*
X107002072Y-145999000D01*
X106999000Y-145709750D01*
X106840250Y-145551000D01*
X105791000Y-145551000D01*
X105537000Y-145551000D01*
X105517000Y-145551000D01*
X105517000Y-145297000D01*
X105537000Y-145297000D01*
X105537000Y-145277000D01*
X105791000Y-145277000D01*
X105791000Y-145297000D01*
X106840250Y-145297000D01*
X106999000Y-145138250D01*
X107002072Y-144849000D01*
X106989812Y-144724518D01*
X106953502Y-144604820D01*
X106894537Y-144494506D01*
X106815185Y-144397815D01*
X106735406Y-144332342D01*
X106741962Y-144326962D01*
X106852405Y-144192387D01*
X106934472Y-144038851D01*
X106941404Y-144016000D01*
X107105199Y-144016000D01*
X108007928Y-144918730D01*
X108007928Y-145332001D01*
X108024992Y-145505255D01*
X108075528Y-145671851D01*
X108157595Y-145825387D01*
X108268038Y-145959962D01*
X108402613Y-146070405D01*
X108556149Y-146152472D01*
X108722745Y-146203008D01*
X108895999Y-146220072D01*
X109971001Y-146220072D01*
X110144255Y-146203008D01*
X110310851Y-146152472D01*
X110464387Y-146070405D01*
X110598962Y-145959962D01*
X110709405Y-145825387D01*
X110791472Y-145671851D01*
X110818727Y-145582000D01*
X110882928Y-145582000D01*
X110895188Y-145706482D01*
X110931498Y-145826180D01*
X110990463Y-145936494D01*
X111069815Y-146033185D01*
X111166506Y-146112537D01*
X111276820Y-146171502D01*
X111396518Y-146207812D01*
X111521000Y-146220072D01*
X112022750Y-146217000D01*
X112181500Y-146058250D01*
X112181500Y-145034000D01*
X112435500Y-145034000D01*
X112435500Y-146058250D01*
X112594250Y-146217000D01*
X113096000Y-146220072D01*
X113220482Y-146207812D01*
X113340180Y-146171502D01*
X113450494Y-146112537D01*
X113547185Y-146033185D01*
X113626537Y-145936494D01*
X113685502Y-145826180D01*
X113721812Y-145706482D01*
X113734072Y-145582000D01*
X113731000Y-145192750D01*
X113572250Y-145034000D01*
X112435500Y-145034000D01*
X112181500Y-145034000D01*
X111044750Y-145034000D01*
X110886000Y-145192750D01*
X110882928Y-145582000D01*
X110818727Y-145582000D01*
X110842008Y-145505255D01*
X110859072Y-145332001D01*
X110859072Y-144481999D01*
X110842008Y-144308745D01*
X110791472Y-144142149D01*
X110709405Y-143988613D01*
X110621463Y-143881456D01*
X110737345Y-143916608D01*
X110910599Y-143933672D01*
X110960441Y-143933672D01*
X110931498Y-143987820D01*
X110895188Y-144107518D01*
X110882928Y-144232000D01*
X110886000Y-144621250D01*
X111044750Y-144780000D01*
X112181500Y-144780000D01*
X112181500Y-143755750D01*
X112435500Y-143755750D01*
X112435500Y-144780000D01*
X113572250Y-144780000D01*
X113731000Y-144621250D01*
X113734072Y-144232000D01*
X113721812Y-144107518D01*
X113685502Y-143987820D01*
X113626537Y-143877506D01*
X113547185Y-143780815D01*
X113450494Y-143701463D01*
X113340180Y-143642498D01*
X113220482Y-143606188D01*
X113096000Y-143593928D01*
X112594250Y-143597000D01*
X112435500Y-143755750D01*
X112181500Y-143755750D01*
X112139542Y-143713792D01*
X112188562Y-143673562D01*
X112299005Y-143538987D01*
X112381072Y-143385451D01*
X112431608Y-143218855D01*
X112448672Y-143045601D01*
X112448672Y-142145599D01*
X112431608Y-141972345D01*
X112381072Y-141805749D01*
X112354174Y-141755427D01*
X112690130Y-141419472D01*
X112719001Y-141419472D01*
X112892255Y-141402408D01*
X113058851Y-141351872D01*
X113212387Y-141269805D01*
X113346962Y-141159362D01*
X113457405Y-141024787D01*
X113539472Y-140871251D01*
X113590008Y-140704655D01*
X113607072Y-140531401D01*
X113607072Y-139681399D01*
X113590008Y-139508145D01*
X113539472Y-139341549D01*
X113457405Y-139188013D01*
X113346962Y-139053438D01*
X113212387Y-138942995D01*
X113058851Y-138860928D01*
X112892255Y-138810392D01*
X112719001Y-138793328D01*
X111643999Y-138793328D01*
X111470745Y-138810392D01*
X111304149Y-138860928D01*
X111150613Y-138942995D01*
X111016038Y-139053438D01*
X110905595Y-139188013D01*
X110823528Y-139341549D01*
X110772992Y-139508145D01*
X110755928Y-139681399D01*
X110755928Y-140531401D01*
X110772992Y-140704655D01*
X110823528Y-140871251D01*
X110905595Y-141024787D01*
X110918945Y-141041054D01*
X110724598Y-141235401D01*
X110695600Y-141259199D01*
X110671802Y-141288197D01*
X110671801Y-141288198D01*
X110664943Y-141296555D01*
X110570749Y-141325128D01*
X110417213Y-141407195D01*
X110282638Y-141517638D01*
X110210600Y-141605416D01*
X110138562Y-141517638D01*
X110003987Y-141407195D01*
X109998489Y-141404256D01*
X110017255Y-141402408D01*
X110183851Y-141351872D01*
X110337387Y-141269805D01*
X110471962Y-141159362D01*
X110582405Y-141024787D01*
X110664472Y-140871251D01*
X110715008Y-140704655D01*
X110732072Y-140531401D01*
X110732072Y-139681399D01*
X110715008Y-139508145D01*
X110664472Y-139341549D01*
X110582405Y-139188013D01*
X110471962Y-139053438D01*
X110337387Y-138942995D01*
X110183851Y-138860928D01*
X110017255Y-138810392D01*
X109844001Y-138793328D01*
X109375430Y-138793328D01*
X109127399Y-138545298D01*
X109189205Y-138469987D01*
X109271272Y-138316451D01*
X109321808Y-138149855D01*
X109338872Y-137976601D01*
X109338872Y-137326599D01*
X109321808Y-137153345D01*
X109271272Y-136986749D01*
X109189205Y-136833213D01*
X109078762Y-136698638D01*
X108990984Y-136626600D01*
X109078762Y-136554562D01*
X109189205Y-136419987D01*
X109271272Y-136266451D01*
X109321808Y-136099855D01*
X109338872Y-135926601D01*
X109338872Y-135276599D01*
X109321808Y-135103345D01*
X109271272Y-134936749D01*
X109189205Y-134783213D01*
X109078762Y-134648638D01*
X108944187Y-134538195D01*
X108790651Y-134456128D01*
X108760800Y-134447073D01*
X108760800Y-134441423D01*
X108764476Y-134404100D01*
X108760800Y-134366777D01*
X108760800Y-134366767D01*
X108749803Y-134255114D01*
X108706346Y-134111853D01*
X108690044Y-134081354D01*
X108635774Y-133979823D01*
X108564599Y-133893097D01*
X108540801Y-133864099D01*
X108511803Y-133840301D01*
X107770200Y-133098699D01*
X107770200Y-132292501D01*
X107809682Y-132288612D01*
X107929380Y-132252302D01*
X108039694Y-132193337D01*
X108136385Y-132113985D01*
X108215737Y-132017294D01*
X108274702Y-131906980D01*
X108311012Y-131787282D01*
X108323272Y-131662800D01*
X108323272Y-130312800D01*
X108311012Y-130188318D01*
X108274702Y-130068620D01*
X108215737Y-129958306D01*
X108136385Y-129861615D01*
X108039694Y-129782263D01*
X107929380Y-129723298D01*
X107809682Y-129686988D01*
X107685200Y-129674728D01*
X106335200Y-129674728D01*
X106210718Y-129686988D01*
X106091020Y-129723298D01*
X105980706Y-129782263D01*
X105884015Y-129861615D01*
X105807081Y-129955359D01*
X105673829Y-129858327D01*
X105440728Y-129750562D01*
X105339600Y-129719890D01*
X105137200Y-129843576D01*
X105137200Y-130860800D01*
X105157200Y-130860800D01*
X105157200Y-131114800D01*
X105137200Y-131114800D01*
X105137200Y-132132024D01*
X105339600Y-132255710D01*
X105440728Y-132225038D01*
X105673829Y-132117273D01*
X105807081Y-132020241D01*
X105884015Y-132113985D01*
X105980706Y-132193337D01*
X106091020Y-132252302D01*
X106210718Y-132288612D01*
X106250200Y-132292501D01*
X106250200Y-133376177D01*
X106246524Y-133413500D01*
X106250200Y-133450822D01*
X106250200Y-133450832D01*
X106261197Y-133562485D01*
X106302464Y-133698525D01*
X106304654Y-133705746D01*
X106375226Y-133837776D01*
X106412085Y-133882688D01*
X106470199Y-133953501D01*
X106499202Y-133977304D01*
X107059160Y-134537261D01*
X107057413Y-134538195D01*
X106922838Y-134648638D01*
X106812395Y-134783213D01*
X106730328Y-134936749D01*
X106679792Y-135103345D01*
X106662728Y-135276599D01*
X106662728Y-135360426D01*
X105997072Y-134694771D01*
X105997072Y-134106499D01*
X105980008Y-133933245D01*
X105929472Y-133766649D01*
X105847405Y-133613113D01*
X105736962Y-133478538D01*
X105602387Y-133368095D01*
X105448851Y-133286028D01*
X105282255Y-133235492D01*
X105109001Y-133218428D01*
X104458999Y-133218428D01*
X104285745Y-133235492D01*
X104119149Y-133286028D01*
X103965613Y-133368095D01*
X103831038Y-133478538D01*
X103759000Y-133566316D01*
X103686962Y-133478538D01*
X103552387Y-133368095D01*
X103398851Y-133286028D01*
X103232255Y-133235492D01*
X103059001Y-133218428D01*
X102408999Y-133218428D01*
X102371885Y-133222083D01*
X101193708Y-132043907D01*
X101203119Y-132032441D01*
X101336371Y-132129473D01*
X101569472Y-132237238D01*
X101670600Y-132267910D01*
X101873000Y-132144224D01*
X101873000Y-131127000D01*
X102127000Y-131127000D01*
X102127000Y-132144224D01*
X102329400Y-132267910D01*
X102430528Y-132237238D01*
X102663629Y-132129473D01*
X102871227Y-131978303D01*
X103045344Y-131789537D01*
X103179289Y-131570430D01*
X103267915Y-131329401D01*
X103260512Y-131317201D01*
X103742285Y-131317201D01*
X103830911Y-131558230D01*
X103964856Y-131777337D01*
X104138973Y-131966103D01*
X104346571Y-132117273D01*
X104579672Y-132225038D01*
X104680800Y-132255710D01*
X104883200Y-132132024D01*
X104883200Y-131114800D01*
X103865115Y-131114800D01*
X103742285Y-131317201D01*
X103260512Y-131317201D01*
X103145085Y-131127000D01*
X102127000Y-131127000D01*
X101873000Y-131127000D01*
X101853000Y-131127000D01*
X101853000Y-130873000D01*
X101873000Y-130873000D01*
X101873000Y-129855776D01*
X102127000Y-129855776D01*
X102127000Y-130873000D01*
X103145085Y-130873000D01*
X103267915Y-130670599D01*
X103263430Y-130658399D01*
X103742285Y-130658399D01*
X103865115Y-130860800D01*
X104883200Y-130860800D01*
X104883200Y-129843576D01*
X104680800Y-129719890D01*
X104579672Y-129750562D01*
X104346571Y-129858327D01*
X104138973Y-130009497D01*
X103964856Y-130198263D01*
X103830911Y-130417370D01*
X103742285Y-130658399D01*
X103263430Y-130658399D01*
X103179289Y-130429570D01*
X103045344Y-130210463D01*
X102871227Y-130021697D01*
X102663629Y-129870527D01*
X102430528Y-129762762D01*
X102329400Y-129732090D01*
X102127000Y-129855776D01*
X101873000Y-129855776D01*
X101670600Y-129732090D01*
X101569472Y-129762762D01*
X101336371Y-129870527D01*
X101203119Y-129967559D01*
X101126185Y-129873815D01*
X101029494Y-129794463D01*
X100919180Y-129735498D01*
X100799482Y-129699188D01*
X100675000Y-129686928D01*
X99325000Y-129686928D01*
X99200518Y-129699188D01*
X99080820Y-129735498D01*
X98970506Y-129794463D01*
X98873815Y-129873815D01*
X98794463Y-129970506D01*
X98735498Y-130080820D01*
X98699188Y-130200518D01*
X98686928Y-130325000D01*
X98686928Y-131675000D01*
X98699188Y-131799482D01*
X98735498Y-131919180D01*
X98794463Y-132029494D01*
X98873815Y-132126185D01*
X98970506Y-132205537D01*
X99080820Y-132264502D01*
X99200518Y-132300812D01*
X99325000Y-132313072D01*
X99345674Y-132313072D01*
X99365026Y-132349276D01*
X99423422Y-132420431D01*
X99460000Y-132465001D01*
X99488998Y-132488799D01*
X100033548Y-133033349D01*
X99933582Y-132979916D01*
X99785745Y-132935071D01*
X99632000Y-132919928D01*
X97882000Y-132919928D01*
X97728255Y-132935071D01*
X97580418Y-132979916D01*
X97444171Y-133052742D01*
X97324749Y-133150749D01*
X97226742Y-133270171D01*
X97153916Y-133406418D01*
X97109071Y-133554255D01*
X97093928Y-133708000D01*
X97093928Y-134008000D01*
X97109071Y-134161745D01*
X97153916Y-134309582D01*
X97208268Y-134411266D01*
X96760001Y-133963000D01*
X96760001Y-130102322D01*
X96763677Y-130064999D01*
X96760001Y-130027677D01*
X96760001Y-130027666D01*
X96749004Y-129916013D01*
X96705547Y-129772752D01*
X96634975Y-129640723D01*
X96593348Y-129590000D01*
X108560943Y-129590000D01*
X108561384Y-130145659D01*
G36*
X86051613Y-144582405D02*
G01*
X86205149Y-144664472D01*
X86371745Y-144715008D01*
X86544999Y-144732072D01*
X87445001Y-144732072D01*
X87618255Y-144715008D01*
X87784851Y-144664472D01*
X87919592Y-144592451D01*
X87925730Y-144603936D01*
X87901463Y-144633506D01*
X87842498Y-144743820D01*
X87806188Y-144863518D01*
X87793928Y-144988000D01*
X87797000Y-145002250D01*
X87955750Y-145161000D01*
X89330000Y-145161000D01*
X89330000Y-145141000D01*
X89584000Y-145141000D01*
X89584000Y-145161000D01*
X89604000Y-145161000D01*
X89604000Y-145415000D01*
X89584000Y-145415000D01*
X89584000Y-146064250D01*
X89742750Y-146223000D01*
X90482000Y-146226072D01*
X90565334Y-146217865D01*
X89477003Y-147306196D01*
X89447999Y-147329999D01*
X89398310Y-147390546D01*
X89353026Y-147445724D01*
X89335239Y-147479001D01*
X89282454Y-147577754D01*
X89238997Y-147721015D01*
X89228000Y-147832668D01*
X89228000Y-147832678D01*
X89224324Y-147870000D01*
X89228000Y-147907323D01*
X89228000Y-148053428D01*
X89064667Y-148053428D01*
X88940185Y-148065688D01*
X88820487Y-148101998D01*
X88710173Y-148160963D01*
X88613482Y-148240315D01*
X88603000Y-148253087D01*
X88592518Y-148240315D01*
X88495827Y-148160963D01*
X88385513Y-148101998D01*
X88265815Y-148065688D01*
X88141333Y-148053428D01*
X87978000Y-148053428D01*
X87978000Y-147907322D01*
X87981676Y-147869999D01*
X87978000Y-147832676D01*
X87978000Y-147832667D01*
X87967003Y-147721014D01*
X87923546Y-147577753D01*
X87852974Y-147445724D01*
X87758001Y-147329999D01*
X87729004Y-147306202D01*
X86010802Y-145588000D01*
X87793928Y-145588000D01*
X87806188Y-145712482D01*
X87842498Y-145832180D01*
X87901463Y-145942494D01*
X87980815Y-146039185D01*
X88077506Y-146118537D01*
X88187820Y-146177502D01*
X88307518Y-146213812D01*
X88432000Y-146226072D01*
X89171250Y-146223000D01*
X89330000Y-146064250D01*
X89330000Y-145415000D01*
X87955750Y-145415000D01*
X87797000Y-145573750D01*
X87793928Y-145588000D01*
X86010802Y-145588000D01*
X85768999Y-145346198D01*
X85768999Y-144554000D01*
X85835939Y-144554000D01*
X85981678Y-144525011D01*
X86051613Y-144582405D01*
G37*
X86051613Y-144582405D02*
X86205149Y-144664472D01*
X86371745Y-144715008D01*
X86544999Y-144732072D01*
X87445001Y-144732072D01*
X87618255Y-144715008D01*
X87784851Y-144664472D01*
X87919592Y-144592451D01*
X87925730Y-144603936D01*
X87901463Y-144633506D01*
X87842498Y-144743820D01*
X87806188Y-144863518D01*
X87793928Y-144988000D01*
X87797000Y-145002250D01*
X87955750Y-145161000D01*
X89330000Y-145161000D01*
X89330000Y-145141000D01*
X89584000Y-145141000D01*
X89584000Y-145161000D01*
X89604000Y-145161000D01*
X89604000Y-145415000D01*
X89584000Y-145415000D01*
X89584000Y-146064250D01*
X89742750Y-146223000D01*
X90482000Y-146226072D01*
X90565334Y-146217865D01*
X89477003Y-147306196D01*
X89447999Y-147329999D01*
X89398310Y-147390546D01*
X89353026Y-147445724D01*
X89335239Y-147479001D01*
X89282454Y-147577754D01*
X89238997Y-147721015D01*
X89228000Y-147832668D01*
X89228000Y-147832678D01*
X89224324Y-147870000D01*
X89228000Y-147907323D01*
X89228000Y-148053428D01*
X89064667Y-148053428D01*
X88940185Y-148065688D01*
X88820487Y-148101998D01*
X88710173Y-148160963D01*
X88613482Y-148240315D01*
X88603000Y-148253087D01*
X88592518Y-148240315D01*
X88495827Y-148160963D01*
X88385513Y-148101998D01*
X88265815Y-148065688D01*
X88141333Y-148053428D01*
X87978000Y-148053428D01*
X87978000Y-147907322D01*
X87981676Y-147869999D01*
X87978000Y-147832676D01*
X87978000Y-147832667D01*
X87967003Y-147721014D01*
X87923546Y-147577753D01*
X87852974Y-147445724D01*
X87758001Y-147329999D01*
X87729004Y-147306202D01*
X86010802Y-145588000D01*
X87793928Y-145588000D01*
X87806188Y-145712482D01*
X87842498Y-145832180D01*
X87901463Y-145942494D01*
X87980815Y-146039185D01*
X88077506Y-146118537D01*
X88187820Y-146177502D01*
X88307518Y-146213812D01*
X88432000Y-146226072D01*
X89171250Y-146223000D01*
X89330000Y-146064250D01*
X89330000Y-145415000D01*
X87955750Y-145415000D01*
X87797000Y-145573750D01*
X87793928Y-145588000D01*
X86010802Y-145588000D01*
X85768999Y-145346198D01*
X85768999Y-144554000D01*
X85835939Y-144554000D01*
X85981678Y-144525011D01*
X86051613Y-144582405D01*
G36*
X93217583Y-129707615D02*
G01*
X93129024Y-129690000D01*
X92870976Y-129690000D01*
X92617887Y-129740342D01*
X92379482Y-129839093D01*
X92164923Y-129982456D01*
X92000000Y-130147379D01*
X91835077Y-129982456D01*
X91620518Y-129839093D01*
X91382113Y-129740342D01*
X91129024Y-129690000D01*
X90870976Y-129690000D01*
X90617887Y-129740342D01*
X90379482Y-129839093D01*
X90164923Y-129982456D01*
X89982456Y-130164923D01*
X89839093Y-130379482D01*
X89740342Y-130617887D01*
X89690000Y-130870976D01*
X89690000Y-131129024D01*
X89740342Y-131382113D01*
X89839093Y-131620518D01*
X89982456Y-131835077D01*
X90164923Y-132017544D01*
X90199530Y-132040668D01*
X89320271Y-132919928D01*
X88582000Y-132919928D01*
X88428255Y-132935071D01*
X88280418Y-132979916D01*
X88144171Y-133052742D01*
X88024749Y-133150749D01*
X87926742Y-133270171D01*
X87853916Y-133406418D01*
X87809071Y-133554255D01*
X87793928Y-133708000D01*
X87793928Y-134008000D01*
X87809071Y-134161745D01*
X87853916Y-134309582D01*
X87926742Y-134445829D01*
X87965454Y-134493000D01*
X87926742Y-134540171D01*
X87908350Y-134574580D01*
X87891999Y-134587999D01*
X87868201Y-134616997D01*
X86489507Y-135995692D01*
X86460509Y-136019490D01*
X86436711Y-136048488D01*
X86436710Y-136048489D01*
X86365535Y-136135215D01*
X86294963Y-136267245D01*
X86286164Y-136296253D01*
X86251507Y-136410505D01*
X86244389Y-136482776D01*
X86236833Y-136559491D01*
X86240510Y-136596823D01*
X86240509Y-138873099D01*
X84902007Y-140211602D01*
X84873009Y-140235400D01*
X84849211Y-140264398D01*
X84849210Y-140264399D01*
X84778035Y-140351125D01*
X84707463Y-140483155D01*
X84683834Y-140561054D01*
X84664007Y-140626415D01*
X84656096Y-140706732D01*
X84649333Y-140775401D01*
X84653010Y-140812733D01*
X84653009Y-141794099D01*
X84522566Y-141924543D01*
X84520400Y-141570850D01*
X84361650Y-141412100D01*
X83337400Y-141412100D01*
X83337400Y-142548850D01*
X83496150Y-142707600D01*
X83780841Y-142709847D01*
X83761035Y-142746902D01*
X83635401Y-142734528D01*
X82785399Y-142734528D01*
X82612145Y-142751592D01*
X82445549Y-142802128D01*
X82292013Y-142884195D01*
X82157438Y-142994638D01*
X82046995Y-143129213D01*
X81964928Y-143282749D01*
X81914392Y-143449345D01*
X81897328Y-143622599D01*
X81897328Y-144697601D01*
X81914392Y-144870855D01*
X81964928Y-145037451D01*
X82046995Y-145190987D01*
X82157438Y-145325562D01*
X82292013Y-145436005D01*
X82445549Y-145518072D01*
X82581800Y-145559403D01*
X82581800Y-145694739D01*
X82621574Y-145894698D01*
X82699595Y-146083056D01*
X82812863Y-146252574D01*
X82957026Y-146396737D01*
X83126544Y-146510005D01*
X83314902Y-146588026D01*
X83514861Y-146627800D01*
X83688000Y-146627800D01*
X83688000Y-148053428D01*
X83524667Y-148053428D01*
X83400185Y-148065688D01*
X83280487Y-148101998D01*
X83170173Y-148160963D01*
X83073482Y-148240315D01*
X83063000Y-148253087D01*
X83052518Y-148240315D01*
X82955827Y-148160963D01*
X82845513Y-148101998D01*
X82725815Y-148065688D01*
X82601333Y-148053428D01*
X82167000Y-148053428D01*
X82167000Y-147642711D01*
X82210937Y-147598774D01*
X82324205Y-147429256D01*
X82402226Y-147240898D01*
X82442000Y-147040939D01*
X82442000Y-146837061D01*
X82402226Y-146637102D01*
X82324205Y-146448744D01*
X82210937Y-146279226D01*
X82066774Y-146135063D01*
X81897256Y-146021795D01*
X81708898Y-145943774D01*
X81508939Y-145904000D01*
X81305061Y-145904000D01*
X81105102Y-145943774D01*
X81076000Y-145955829D01*
X81076000Y-142072600D01*
X81897328Y-142072600D01*
X81909588Y-142197082D01*
X81945898Y-142316780D01*
X82004863Y-142427094D01*
X82084215Y-142523785D01*
X82180906Y-142603137D01*
X82291220Y-142662102D01*
X82410918Y-142698412D01*
X82535400Y-142710672D01*
X82924650Y-142707600D01*
X83083400Y-142548850D01*
X83083400Y-141412100D01*
X82059150Y-141412100D01*
X81900400Y-141570850D01*
X81897328Y-142072600D01*
X81076000Y-142072600D01*
X81076000Y-140497600D01*
X81897328Y-140497600D01*
X81900400Y-140999350D01*
X82059150Y-141158100D01*
X83083400Y-141158100D01*
X83083400Y-140021350D01*
X83337400Y-140021350D01*
X83337400Y-141158100D01*
X84361650Y-141158100D01*
X84520400Y-140999350D01*
X84523472Y-140497600D01*
X84511212Y-140373118D01*
X84474902Y-140253420D01*
X84415937Y-140143106D01*
X84336585Y-140046415D01*
X84239894Y-139967063D01*
X84129580Y-139908098D01*
X84009882Y-139871788D01*
X83885400Y-139859528D01*
X83496150Y-139862600D01*
X83337400Y-140021350D01*
X83083400Y-140021350D01*
X82924650Y-139862600D01*
X82535400Y-139859528D01*
X82410918Y-139871788D01*
X82291220Y-139908098D01*
X82180906Y-139967063D01*
X82084215Y-140046415D01*
X82004863Y-140143106D01*
X81945898Y-140253420D01*
X81909588Y-140373118D01*
X81897328Y-140497600D01*
X81076000Y-140497600D01*
X81076000Y-134593799D01*
X83155146Y-134593798D01*
X83164877Y-134592840D01*
X83205635Y-134591675D01*
X83237026Y-134587689D01*
X83268651Y-134586958D01*
X83278137Y-134585739D01*
X84012665Y-134486112D01*
X84073096Y-134471800D01*
X84133685Y-134458341D01*
X84142752Y-134455303D01*
X84142758Y-134455301D01*
X84843940Y-134214903D01*
X84900412Y-134189139D01*
X84957263Y-134164154D01*
X84965569Y-134159412D01*
X85606708Y-133787396D01*
X85657131Y-133751131D01*
X85708015Y-133715602D01*
X85715242Y-133709338D01*
X86271912Y-133219876D01*
X86314352Y-133174485D01*
X86357344Y-133129772D01*
X86363216Y-133122223D01*
X86814214Y-132533959D01*
X86847000Y-132481236D01*
X86880519Y-132428977D01*
X86884813Y-132420431D01*
X87212961Y-131755770D01*
X87234892Y-131697656D01*
X87257611Y-131639910D01*
X87260164Y-131630693D01*
X87452962Y-130914954D01*
X87463179Y-130853743D01*
X87474259Y-130792626D01*
X87474972Y-130783089D01*
X87524351Y-130054245D01*
X87526614Y-130031475D01*
X87527000Y-129590000D01*
X93335198Y-129590000D01*
X93217583Y-129707615D01*
G37*
X93217583Y-129707615D02*
X93129024Y-129690000D01*
X92870976Y-129690000D01*
X92617887Y-129740342D01*
X92379482Y-129839093D01*
X92164923Y-129982456D01*
X92000000Y-130147379D01*
X91835077Y-129982456D01*
X91620518Y-129839093D01*
X91382113Y-129740342D01*
X91129024Y-129690000D01*
X90870976Y-129690000D01*
X90617887Y-129740342D01*
X90379482Y-129839093D01*
X90164923Y-129982456D01*
X89982456Y-130164923D01*
X89839093Y-130379482D01*
X89740342Y-130617887D01*
X89690000Y-130870976D01*
X89690000Y-131129024D01*
X89740342Y-131382113D01*
X89839093Y-131620518D01*
X89982456Y-131835077D01*
X90164923Y-132017544D01*
X90199530Y-132040668D01*
X89320271Y-132919928D01*
X88582000Y-132919928D01*
X88428255Y-132935071D01*
X88280418Y-132979916D01*
X88144171Y-133052742D01*
X88024749Y-133150749D01*
X87926742Y-133270171D01*
X87853916Y-133406418D01*
X87809071Y-133554255D01*
X87793928Y-133708000D01*
X87793928Y-134008000D01*
X87809071Y-134161745D01*
X87853916Y-134309582D01*
X87926742Y-134445829D01*
X87965454Y-134493000D01*
X87926742Y-134540171D01*
X87908350Y-134574580D01*
X87891999Y-134587999D01*
X87868201Y-134616997D01*
X86489507Y-135995692D01*
X86460509Y-136019490D01*
X86436711Y-136048488D01*
X86436710Y-136048489D01*
X86365535Y-136135215D01*
X86294963Y-136267245D01*
X86286164Y-136296253D01*
X86251507Y-136410505D01*
X86244389Y-136482776D01*
X86236833Y-136559491D01*
X86240510Y-136596823D01*
X86240509Y-138873099D01*
X84902007Y-140211602D01*
X84873009Y-140235400D01*
X84849211Y-140264398D01*
X84849210Y-140264399D01*
X84778035Y-140351125D01*
X84707463Y-140483155D01*
X84683834Y-140561054D01*
X84664007Y-140626415D01*
X84656096Y-140706732D01*
X84649333Y-140775401D01*
X84653010Y-140812733D01*
X84653009Y-141794099D01*
X84522566Y-141924543D01*
X84520400Y-141570850D01*
X84361650Y-141412100D01*
X83337400Y-141412100D01*
X83337400Y-142548850D01*
X83496150Y-142707600D01*
X83780841Y-142709847D01*
X83761035Y-142746902D01*
X83635401Y-142734528D01*
X82785399Y-142734528D01*
X82612145Y-142751592D01*
X82445549Y-142802128D01*
X82292013Y-142884195D01*
X82157438Y-142994638D01*
X82046995Y-143129213D01*
X81964928Y-143282749D01*
X81914392Y-143449345D01*
X81897328Y-143622599D01*
X81897328Y-144697601D01*
X81914392Y-144870855D01*
X81964928Y-145037451D01*
X82046995Y-145190987D01*
X82157438Y-145325562D01*
X82292013Y-145436005D01*
X82445549Y-145518072D01*
X82581800Y-145559403D01*
X82581800Y-145694739D01*
X82621574Y-145894698D01*
X82699595Y-146083056D01*
X82812863Y-146252574D01*
X82957026Y-146396737D01*
X83126544Y-146510005D01*
X83314902Y-146588026D01*
X83514861Y-146627800D01*
X83688000Y-146627800D01*
X83688000Y-148053428D01*
X83524667Y-148053428D01*
X83400185Y-148065688D01*
X83280487Y-148101998D01*
X83170173Y-148160963D01*
X83073482Y-148240315D01*
X83063000Y-148253087D01*
X83052518Y-148240315D01*
X82955827Y-148160963D01*
X82845513Y-148101998D01*
X82725815Y-148065688D01*
X82601333Y-148053428D01*
X82167000Y-148053428D01*
X82167000Y-147642711D01*
X82210937Y-147598774D01*
X82324205Y-147429256D01*
X82402226Y-147240898D01*
X82442000Y-147040939D01*
X82442000Y-146837061D01*
X82402226Y-146637102D01*
X82324205Y-146448744D01*
X82210937Y-146279226D01*
X82066774Y-146135063D01*
X81897256Y-146021795D01*
X81708898Y-145943774D01*
X81508939Y-145904000D01*
X81305061Y-145904000D01*
X81105102Y-145943774D01*
X81076000Y-145955829D01*
X81076000Y-142072600D01*
X81897328Y-142072600D01*
X81909588Y-142197082D01*
X81945898Y-142316780D01*
X82004863Y-142427094D01*
X82084215Y-142523785D01*
X82180906Y-142603137D01*
X82291220Y-142662102D01*
X82410918Y-142698412D01*
X82535400Y-142710672D01*
X82924650Y-142707600D01*
X83083400Y-142548850D01*
X83083400Y-141412100D01*
X82059150Y-141412100D01*
X81900400Y-141570850D01*
X81897328Y-142072600D01*
X81076000Y-142072600D01*
X81076000Y-140497600D01*
X81897328Y-140497600D01*
X81900400Y-140999350D01*
X82059150Y-141158100D01*
X83083400Y-141158100D01*
X83083400Y-140021350D01*
X83337400Y-140021350D01*
X83337400Y-141158100D01*
X84361650Y-141158100D01*
X84520400Y-140999350D01*
X84523472Y-140497600D01*
X84511212Y-140373118D01*
X84474902Y-140253420D01*
X84415937Y-140143106D01*
X84336585Y-140046415D01*
X84239894Y-139967063D01*
X84129580Y-139908098D01*
X84009882Y-139871788D01*
X83885400Y-139859528D01*
X83496150Y-139862600D01*
X83337400Y-140021350D01*
X83083400Y-140021350D01*
X82924650Y-139862600D01*
X82535400Y-139859528D01*
X82410918Y-139871788D01*
X82291220Y-139908098D01*
X82180906Y-139967063D01*
X82084215Y-140046415D01*
X82004863Y-140143106D01*
X81945898Y-140253420D01*
X81909588Y-140373118D01*
X81897328Y-140497600D01*
X81076000Y-140497600D01*
X81076000Y-134593799D01*
X83155146Y-134593798D01*
X83164877Y-134592840D01*
X83205635Y-134591675D01*
X83237026Y-134587689D01*
X83268651Y-134586958D01*
X83278137Y-134585739D01*
X84012665Y-134486112D01*
X84073096Y-134471800D01*
X84133685Y-134458341D01*
X84142752Y-134455303D01*
X84142758Y-134455301D01*
X84843940Y-134214903D01*
X84900412Y-134189139D01*
X84957263Y-134164154D01*
X84965569Y-134159412D01*
X85606708Y-133787396D01*
X85657131Y-133751131D01*
X85708015Y-133715602D01*
X85715242Y-133709338D01*
X86271912Y-133219876D01*
X86314352Y-133174485D01*
X86357344Y-133129772D01*
X86363216Y-133122223D01*
X86814214Y-132533959D01*
X86847000Y-132481236D01*
X86880519Y-132428977D01*
X86884813Y-132420431D01*
X87212961Y-131755770D01*
X87234892Y-131697656D01*
X87257611Y-131639910D01*
X87260164Y-131630693D01*
X87452962Y-130914954D01*
X87463179Y-130853743D01*
X87474259Y-130792626D01*
X87474972Y-130783089D01*
X87524351Y-130054245D01*
X87526614Y-130031475D01*
X87527000Y-129590000D01*
X93335198Y-129590000D01*
X93217583Y-129707615D01*
G36*
X96351063Y-144550774D02*
G01*
X96495226Y-144694937D01*
X96664744Y-144808205D01*
X96853102Y-144886226D01*
X97053061Y-144926000D01*
X97100034Y-144926000D01*
X97093928Y-144988000D01*
X97097000Y-145002250D01*
X97255750Y-145161000D01*
X98630000Y-145161000D01*
X98630000Y-145141000D01*
X98884000Y-145141000D01*
X98884000Y-145161000D01*
X98904000Y-145161000D01*
X98904000Y-145415000D01*
X98884000Y-145415000D01*
X98884000Y-145435000D01*
X98630000Y-145435000D01*
X98630000Y-145415000D01*
X97255750Y-145415000D01*
X97097000Y-145573750D01*
X97093928Y-145588000D01*
X97106188Y-145712482D01*
X97142498Y-145832180D01*
X97155703Y-145856885D01*
X97050750Y-145858000D01*
X96892000Y-146016750D01*
X96892000Y-147066000D01*
X96912000Y-147066000D01*
X96912000Y-147320000D01*
X96892000Y-147320000D01*
X96892000Y-147340000D01*
X96638000Y-147340000D01*
X96638000Y-147320000D01*
X96618000Y-147320000D01*
X96618000Y-147066000D01*
X96638000Y-147066000D01*
X96638000Y-146016750D01*
X96479250Y-145858000D01*
X96288000Y-145855969D01*
X96288000Y-144456393D01*
X96351063Y-144550774D01*
G37*
X96351063Y-144550774D02*
X96495226Y-144694937D01*
X96664744Y-144808205D01*
X96853102Y-144886226D01*
X97053061Y-144926000D01*
X97100034Y-144926000D01*
X97093928Y-144988000D01*
X97097000Y-145002250D01*
X97255750Y-145161000D01*
X98630000Y-145161000D01*
X98630000Y-145141000D01*
X98884000Y-145141000D01*
X98884000Y-145161000D01*
X98904000Y-145161000D01*
X98904000Y-145415000D01*
X98884000Y-145415000D01*
X98884000Y-145435000D01*
X98630000Y-145435000D01*
X98630000Y-145415000D01*
X97255750Y-145415000D01*
X97097000Y-145573750D01*
X97093928Y-145588000D01*
X97106188Y-145712482D01*
X97142498Y-145832180D01*
X97155703Y-145856885D01*
X97050750Y-145858000D01*
X96892000Y-146016750D01*
X96892000Y-147066000D01*
X96912000Y-147066000D01*
X96912000Y-147320000D01*
X96892000Y-147320000D01*
X96892000Y-147340000D01*
X96638000Y-147340000D01*
X96638000Y-147320000D01*
X96618000Y-147320000D01*
X96618000Y-147066000D01*
X96638000Y-147066000D01*
X96638000Y-146016750D01*
X96479250Y-145858000D01*
X96288000Y-145855969D01*
X96288000Y-144456393D01*
X96351063Y-144550774D01*
G36*
X89584000Y-142621000D02*
G01*
X89604000Y-142621000D01*
X89604000Y-142875000D01*
X89584000Y-142875000D01*
X89584000Y-142895000D01*
X89330000Y-142895000D01*
X89330000Y-142875000D01*
X89310000Y-142875000D01*
X89310000Y-142621000D01*
X89330000Y-142621000D01*
X89330000Y-142601000D01*
X89584000Y-142601000D01*
X89584000Y-142621000D01*
G37*
X89584000Y-142621000D02*
X89604000Y-142621000D01*
X89604000Y-142875000D01*
X89584000Y-142875000D01*
X89584000Y-142895000D01*
X89330000Y-142895000D01*
X89330000Y-142875000D01*
X89310000Y-142875000D01*
X89310000Y-142621000D01*
X89330000Y-142621000D01*
X89330000Y-142601000D01*
X89584000Y-142601000D01*
X89584000Y-142621000D01*
G36*
X98884000Y-142621000D02*
G01*
X98904000Y-142621000D01*
X98904000Y-142875000D01*
X98884000Y-142875000D01*
X98884000Y-142895000D01*
X98630000Y-142895000D01*
X98630000Y-142875000D01*
X98610000Y-142875000D01*
X98610000Y-142621000D01*
X98630000Y-142621000D01*
X98630000Y-142601000D01*
X98884000Y-142601000D01*
X98884000Y-142621000D01*
G37*
X98884000Y-142621000D02*
X98904000Y-142621000D01*
X98904000Y-142875000D01*
X98884000Y-142875000D01*
X98884000Y-142895000D01*
X98630000Y-142895000D01*
X98630000Y-142875000D01*
X98610000Y-142875000D01*
X98610000Y-142621000D01*
X98630000Y-142621000D01*
X98630000Y-142601000D01*
X98884000Y-142601000D01*
X98884000Y-142621000D01*
G36*
X105774997Y-136622299D02*
G01*
X105775002Y-136622303D01*
X106662728Y-137510030D01*
X106662728Y-137976601D01*
X106679792Y-138149855D01*
X106730328Y-138316451D01*
X106812395Y-138469987D01*
X106922838Y-138604562D01*
X107057413Y-138715005D01*
X107210949Y-138797072D01*
X107318794Y-138829786D01*
X107365826Y-138917776D01*
X107394691Y-138952948D01*
X107460799Y-139033501D01*
X107489803Y-139057304D01*
X107907919Y-139475420D01*
X107897992Y-139508145D01*
X107880928Y-139681399D01*
X107880928Y-140531401D01*
X107897992Y-140704655D01*
X107948528Y-140871251D01*
X107951371Y-140876569D01*
X106563804Y-139489003D01*
X106540001Y-139459999D01*
X106424276Y-139365026D01*
X106292247Y-139294454D01*
X106148986Y-139250997D01*
X106037333Y-139240000D01*
X106037322Y-139240000D01*
X106000000Y-139236324D01*
X105962678Y-139240000D01*
X105672072Y-139240000D01*
X105672072Y-138451000D01*
X105659812Y-138326518D01*
X105623502Y-138206820D01*
X105564537Y-138096506D01*
X105521621Y-138044213D01*
X105586494Y-138009537D01*
X105683185Y-137930185D01*
X105762537Y-137833494D01*
X105821502Y-137723180D01*
X105857812Y-137603482D01*
X105870072Y-137479000D01*
X105867000Y-137064750D01*
X105708250Y-136906000D01*
X104784000Y-136906000D01*
X104784000Y-136926000D01*
X104530000Y-136926000D01*
X104530000Y-136906000D01*
X104510000Y-136906000D01*
X104510000Y-136652000D01*
X104530000Y-136652000D01*
X104530000Y-136632000D01*
X104784000Y-136632000D01*
X104784000Y-136652000D01*
X105708250Y-136652000D01*
X105756474Y-136603776D01*
X105774997Y-136622299D01*
G37*
X105774997Y-136622299D02*
X105775002Y-136622303D01*
X106662728Y-137510030D01*
X106662728Y-137976601D01*
X106679792Y-138149855D01*
X106730328Y-138316451D01*
X106812395Y-138469987D01*
X106922838Y-138604562D01*
X107057413Y-138715005D01*
X107210949Y-138797072D01*
X107318794Y-138829786D01*
X107365826Y-138917776D01*
X107394691Y-138952948D01*
X107460799Y-139033501D01*
X107489803Y-139057304D01*
X107907919Y-139475420D01*
X107897992Y-139508145D01*
X107880928Y-139681399D01*
X107880928Y-140531401D01*
X107897992Y-140704655D01*
X107948528Y-140871251D01*
X107951371Y-140876569D01*
X106563804Y-139489003D01*
X106540001Y-139459999D01*
X106424276Y-139365026D01*
X106292247Y-139294454D01*
X106148986Y-139250997D01*
X106037333Y-139240000D01*
X106037322Y-139240000D01*
X106000000Y-139236324D01*
X105962678Y-139240000D01*
X105672072Y-139240000D01*
X105672072Y-138451000D01*
X105659812Y-138326518D01*
X105623502Y-138206820D01*
X105564537Y-138096506D01*
X105521621Y-138044213D01*
X105586494Y-138009537D01*
X105683185Y-137930185D01*
X105762537Y-137833494D01*
X105821502Y-137723180D01*
X105857812Y-137603482D01*
X105870072Y-137479000D01*
X105867000Y-137064750D01*
X105708250Y-136906000D01*
X104784000Y-136906000D01*
X104784000Y-136926000D01*
X104530000Y-136926000D01*
X104530000Y-136906000D01*
X104510000Y-136906000D01*
X104510000Y-136652000D01*
X104530000Y-136652000D01*
X104530000Y-136632000D01*
X104784000Y-136632000D01*
X104784000Y-136652000D01*
X105708250Y-136652000D01*
X105756474Y-136603776D01*
X105774997Y-136622299D01*
%TD*%
M02*
